<svg width="1307" height="872" viewBox="0 0 1307 872" fill="none" xmlns="http://www.w3.org/2000/svg">
<path d="M1.99994 831L116.947 831C226.897 300 555.747 166.5 653.702 75.0005L653.702 37.5005L653.702 0.000474437L1.99994 0.000488281L1.99994 831Z" fill="#F7B81F" stroke="#1F3155" stroke-width="3"/>
<path d="M653.702 186.427C325.852 377.5 210.904 696.09 194.412 831L116.947 831C170.922 395.289 509.268 121.5 653.702 75.0005L653.702 186.427Z" fill="#CE9408" stroke="#1F3155" stroke-width="3"/>
<path d="M653.702 78.0005L653.702 20.0005C461.29 123 138.337 379.4 79.9639 831L118.446 831C200.909 343 536.755 143 653.702 78.0005Z" fill="#E9AC19" stroke="#1F3155" stroke-width="3"/>
<path d="M49.9776 730.5C99.9548 376 400.817 111.5 538.255 46.0005L49.9776 46.0005L49.9776 730.5Z" fill="#E9AC19" stroke="#1F3155" stroke-width="3"/>
<path d="M1305 831L1190.46 831C1080.51 300 751.658 166.501 653.702 75.0005L653.702 37.5005L653.702 0.000502117L1305 0.000488281L1305 831Z" fill="#F7B81F" stroke="#1F3155" stroke-width="3"/>
<path d="M653.703 186.427C981.553 377.5 1096.5 696.09 1112.99 831L1190.46 831C1136.48 395.289 798.137 121.5 653.703 75.0005L653.703 186.427Z" fill="#CE9408" stroke="#1F3155" stroke-width="3"/>
<path d="M653.702 78.0005L653.702 20.0005C846.115 123 1169.07 379.4 1227.44 831L1188.96 831C1106.5 343 770.649 143 653.702 78.0005Z" fill="#E9AC19" stroke="#1F3155" stroke-width="3"/>
<path d="M1257.43 730.5C1207.45 376 906.587 111.5 769.15 46.0005L1257.43 46.0005L1257.43 730.5Z" fill="#E9AC19" stroke="#1F3155" stroke-width="3"/>
<path d="M230.396 831L1.99994 831L1.99994 870L233.894 870C259.882 864 250.886 831 230.396 831Z" fill="#F7B81F" stroke="#1F3155" stroke-width="3"/>
<path d="M1076.6 831L1305 831L1305 870L1073.11 870C1047.12 864 1056.11 831 1076.6 831Z" fill="#F7B81F" stroke="#1F3155" stroke-width="3"/>
<path d="M946.569 46.0005C913.584 46.0005 885.097 108.001 908.086 139.5L916.582 146.5L925.079 154L933.575 161.5L941.571 169L950.067 176.5L958.064 184.5L966.56 192.5L973.556 200L989.049 215.5L1004.54 231.5L1019.54 248L1033.03 263.5L1047.02 280L1061.02 297L1073.51 313.5L1087 330.5L1100 349L1105.5 357L1112.49 367.5L1118.49 376.5L1124.99 386L1130.98 395.5L1136.98 404.501C1182.46 423.5 1257.43 396.5 1257.43 341.001L1257.43 46.0005L946.569 46.0005Z" fill="#CE9408" stroke="#1F3155" stroke-width="3"/>
<path d="M939.053 144.884C947.509 188.861 990.91 217.541 1036.05 208.853C1081.2 200.165 1110.87 157.422 1102.41 113.445C1093.96 69.4681 1050.55 40.7882 1005.41 49.4762C960.266 58.1642 930.597 100.907 939.053 144.884Z" fill="#F7B81F" stroke="#1F3155" stroke-width="3"/>
<path d="M1076.44 301.553C1085.63 349.36 1132.81 380.533 1181.88 371.089C1230.95 361.646 1263.2 315.187 1254.01 267.38C1244.82 219.573 1197.64 188.4 1148.57 197.843C1099.5 207.287 1067.25 253.746 1076.44 301.553Z" fill="#F7B81F" stroke="#1F3155" stroke-width="3"/>
<path d="M1107.43 135.027C1115.06 174.704 1154.22 200.585 1194.96 192.745C1235.7 184.905 1262.47 146.336 1254.84 106.659C1247.21 66.9822 1208.05 41.1008 1167.31 48.941C1126.57 56.7811 1099.81 95.3502 1107.43 135.027Z" fill="#F7B81F" stroke="#1F3155" stroke-width="3"/>
<path d="M1231.78 112.076C1225.65 117.939 1221.16 118.971 1219.69 118.754C1220.03 124.269 1217.15 132.395 1216.94 135.173C1216.77 137.396 1222.16 145.19 1224.87 148.809C1221.41 147.396 1212.88 146.892 1209.04 146.817C1204.42 152.292 1192.76 156.556 1187.5 158.004C1189.56 163.374 1192.78 167.242 1194.14 168.504C1201.28 174.175 1230.68 165.42 1244.49 160.334C1241.69 156.841 1239.81 151.854 1238.61 134.468C1237.66 120.56 1233.66 113.745 1231.78 112.076Z" fill="#1F3155"/>
<path d="M1172.04 70.7778C1177.9 76.9118 1178.9 81.3752 1178.68 82.8401C1184.23 82.5395 1192.39 85.4554 1195.18 85.6841C1197.42 85.8671 1205.3 80.5721 1208.96 77.9017C1207.52 81.3275 1206.95 89.8023 1206.85 93.6115C1212.32 98.2443 1216.53 109.861 1217.95 115.091C1223.37 113.089 1227.29 109.91 1228.57 108.572C1234.33 101.52 1225.72 72.2437 1220.7 58.487C1217.16 61.2424 1212.13 63.0829 1194.62 64.1475C1180.62 64.9991 1173.73 68.9226 1172.04 70.7778Z" fill="#1F3155"/>
<path d="M1131.08 129.001C1137.34 123.271 1141.84 122.335 1143.31 122.583C1143.09 117.062 1146.14 109 1146.41 106.226C1146.63 104.008 1141.42 96.1007 1138.78 92.4245C1142.21 93.9109 1150.73 94.597 1154.56 94.7543C1159.3 89.3796 1171.05 85.3655 1176.34 84.0303C1174.4 78.617 1171.26 74.6818 1169.93 73.3909C1162.92 67.5683 1133.33 75.6926 1119.41 80.4825C1122.13 84.0343 1123.91 89.061 1124.73 106.468C1125.39 120.394 1129.23 127.292 1131.08 129.001Z" fill="#1F3155"/>
<path d="M1190.1 168.42C1184.07 162.458 1182.93 158.025 1183.11 156.555C1177.57 157.016 1169.33 154.337 1166.53 154.189C1164.29 154.071 1156.57 159.592 1152.98 162.367C1154.33 158.901 1154.65 150.413 1154.64 146.603C1149.03 142.131 1144.48 130.64 1142.91 125.454C1137.55 127.612 1133.73 130.902 1132.49 132.278C1126.94 139.493 1136.4 168.508 1141.82 182.113C1145.27 179.257 1150.25 177.271 1167.72 175.701C1181.69 174.444 1188.46 170.323 1190.1 168.42Z" fill="#1F3155"/>
<path d="M1174.92 137.586L1174.05 133.271C1187.75 131.682 1194.22 121.264 1195.74 116.254L1200.47 122.208C1199.48 143.948 1183.03 141.518 1174.92 137.586Z" fill="#111C32"/>
<path d="M1189.91 111.394C1180.97 116.416 1176.28 125.896 1175.05 130.008C1185.52 129.498 1191.65 119.111 1193.41 113.982L1189.91 111.394Z" fill="#111C32"/>
<path d="M1172.46 113.339C1171.29 115.849 1172.17 123.758 1172.76 127.4C1173.81 120.36 1182.84 112.549 1187.22 109.522L1185.33 108.366C1185.91 108.288 1186.68 108.142 1185.19 108.176C1183.32 108.219 1173.92 110.202 1172.46 113.339Z" fill="#111C32"/>
<path d="M1168.18 115.067C1161.59 118.219 1158.67 121.449 1158.03 122.671C1161.21 128.782 1168 133.127 1171 134.536C1168.92 131.186 1168.25 120.161 1168.18 115.067Z" fill="#111C32"/>
<path d="M1179.8 105.453C1163.8 108.727 1152.44 121.449 1148.75 127.4C1146.89 124.707 1145.65 102.733 1156.77 99.97C1165.67 97.7599 1175.83 102.704 1179.8 105.453Z" fill="#182846"/>
<path d="M1158.38 96.4754C1175.82 94.2276 1194.11 109.572 1201.08 117.525C1200.95 103.801 1195.18 93.7777 1192.32 90.4815C1176.87 82.5241 1163.26 91.1619 1158.38 96.4754Z" fill="#182846"/>
<path d="M1196.66 140.406C1211.55 120.715 1202.52 98.8468 1196.15 90.3744C1220.17 105.029 1216.51 124.849 1211.68 132.927C1209.82 138.114 1200.89 140.075 1196.66 140.406Z" fill="#182846"/>
<path d="M1155.6 125.818C1152.68 127.537 1150.9 131.462 1150.37 133.209C1165.19 163.533 1199.49 155.497 1208.59 141.643C1179.68 150.379 1161.21 134.733 1155.6 125.818Z" fill="#182846"/>
<path d="M1226.09 273.616C1218.65 280.721 1213.22 281.971 1211.43 281.709C1211.84 288.391 1208.36 298.238 1208.1 301.605C1207.9 304.298 1214.42 313.743 1217.71 318.128C1213.52 316.416 1203.18 315.805 1198.53 315.714C1192.93 322.348 1178.8 327.516 1172.43 329.27C1174.92 335.778 1178.83 340.464 1180.47 341.994C1189.12 348.866 1224.76 338.257 1241.49 332.094C1238.1 327.862 1235.81 321.818 1234.36 300.751C1233.21 283.897 1228.36 275.639 1226.09 273.616Z" fill="#1F3155"/>
<path d="M1153.69 223.573C1160.79 231.006 1162.01 236.414 1161.74 238.189C1168.47 237.825 1178.35 241.358 1181.74 241.636C1184.45 241.857 1194 235.441 1198.44 232.205C1196.68 236.356 1196 246.626 1195.87 251.242C1202.51 256.856 1207.61 270.933 1209.33 277.269C1215.9 274.843 1220.64 270.992 1222.19 269.37C1229.17 260.825 1218.75 225.349 1212.66 208.679C1208.38 212.018 1202.28 214.248 1181.06 215.538C1164.09 216.57 1155.75 221.324 1153.69 223.573Z" fill="#1F3155"/>
<path d="M1104.06 294.126C1111.64 287.182 1117.1 286.048 1118.89 286.349C1118.62 279.659 1122.32 269.889 1122.64 266.529C1122.91 263.84 1116.59 254.258 1113.39 249.804C1117.55 251.605 1127.87 252.436 1132.52 252.627C1138.26 246.114 1152.5 241.25 1158.91 239.632C1156.56 233.072 1152.75 228.304 1151.14 226.74C1142.64 219.684 1106.79 229.529 1089.92 235.333C1093.22 239.637 1095.38 245.728 1096.37 266.821C1097.16 283.696 1101.83 292.056 1104.06 294.126Z" fill="#1F3155"/>
<path d="M1175.58 341.892C1168.27 334.667 1166.89 329.296 1167.11 327.514C1160.4 328.073 1150.41 324.827 1147.02 324.648C1144.3 324.505 1134.95 331.195 1130.61 334.558C1132.24 330.357 1132.62 320.072 1132.61 315.455C1125.81 310.036 1120.3 296.112 1118.39 289.828C1111.9 292.443 1107.27 296.43 1105.77 298.096C1099.04 306.84 1110.51 341.999 1117.08 358.485C1121.26 355.024 1127.29 352.618 1148.46 350.715C1165.39 349.192 1173.6 344.198 1175.58 341.892Z" fill="#1F3155"/>
<path d="M1157.19 304.529L1156.14 299.301C1172.73 297.375 1180.57 284.751 1182.41 278.68L1188.14 285.895C1186.94 312.238 1167.01 309.294 1157.19 304.529Z" fill="#111C32"/>
<path d="M1175.35 272.79C1164.51 278.876 1158.83 290.363 1157.34 295.346C1170.03 294.728 1177.46 282.141 1179.59 275.925L1175.35 272.79Z" fill="#111C32"/>
<path d="M1154.2 275.147C1152.78 278.188 1153.85 287.772 1154.57 292.184C1155.84 283.655 1166.78 274.189 1172.09 270.522L1169.8 269.12C1170.5 269.026 1171.43 268.849 1169.62 268.89C1167.37 268.943 1155.97 271.346 1154.2 275.147Z" fill="#111C32"/>
<path d="M1149.02 277.241C1141.03 281.061 1137.49 284.975 1136.72 286.455C1140.57 293.86 1148.8 299.125 1152.44 300.832C1149.91 296.773 1149.1 283.413 1149.02 277.241Z" fill="#111C32"/>
<path d="M1163.1 265.591C1143.72 269.558 1129.94 284.974 1125.48 292.186C1123.22 288.922 1121.72 262.294 1135.19 258.947C1145.97 256.269 1158.29 262.26 1163.1 265.591Z" fill="#182846"/>
<path d="M1137.14 254.712C1158.27 251.988 1180.44 270.582 1188.88 280.219C1188.73 263.589 1181.74 251.443 1178.26 247.449C1159.55 237.807 1143.05 248.273 1137.14 254.712Z" fill="#182846"/>
<path d="M1183.53 307.945C1201.57 284.084 1190.64 257.585 1182.91 247.318C1212.02 265.077 1207.59 289.093 1201.73 298.882C1199.47 305.168 1188.66 307.543 1183.53 307.945Z" fill="#182846"/>
<path d="M1133.77 290.269C1130.24 292.351 1128.07 297.107 1127.43 299.224C1145.39 335.969 1186.95 326.232 1197.98 309.444C1162.95 320.03 1140.58 301.071 1133.77 290.269Z" fill="#182846"/>
<path d="M1076.42 119.124C1069.61 125.632 1064.63 126.778 1063 126.537C1063.37 132.659 1060.18 141.681 1059.95 144.765C1059.76 147.233 1065.74 155.885 1068.75 159.903C1064.91 158.334 1055.44 157.775 1051.18 157.691C1046.05 163.769 1033.1 168.503 1027.27 170.111C1029.55 176.073 1033.13 180.366 1034.63 181.767C1042.56 188.063 1075.2 178.344 1090.54 172.698C1087.43 168.82 1085.33 163.283 1084.01 143.983C1082.95 128.542 1078.51 120.977 1076.42 119.124Z" fill="#1F3155"/>
<path d="M1010.1 73.2766C1016.6 80.0862 1017.72 85.0412 1017.47 86.6675C1023.63 86.3338 1032.69 89.5709 1035.79 89.8248C1038.27 90.028 1047.03 84.1497 1051.09 81.1852C1049.48 84.9883 1048.85 94.3966 1048.74 98.6254C1054.82 103.769 1059.5 116.665 1061.07 122.471C1067.09 120.248 1071.44 116.72 1072.86 115.234C1079.25 107.405 1069.7 74.9039 1064.12 59.6319C1060.2 62.6908 1054.61 64.734 1035.17 65.9158C1019.63 66.8612 1011.98 71.2169 1010.1 73.2766Z" fill="#1F3155"/>
<path d="M964.627 137.914C971.574 131.552 976.577 130.513 978.21 130.788C977.964 124.66 981.353 115.709 981.653 112.63C981.893 110.167 976.104 101.389 973.179 97.3078C976.983 98.9579 986.443 99.7197 990.697 99.8943C995.961 93.9275 1009.01 89.4712 1014.87 87.9889C1012.72 81.9794 1009.24 77.6107 1007.76 76.1775C999.975 69.7136 967.127 78.7328 951.676 84.0504C954.698 87.9933 956.673 93.5738 957.582 112.898C958.308 128.358 962.581 136.017 964.627 137.914Z" fill="#1F3155"/>
<path d="M1030.15 181.674C1023.45 175.055 1022.19 170.135 1022.4 168.502C1016.24 169.014 1007.1 166.04 1003.99 165.876C1001.5 165.745 992.925 171.874 988.949 174.955C990.442 171.107 990.796 161.684 990.786 157.454C984.557 152.489 979.507 139.733 977.761 133.976C971.812 136.372 967.571 140.024 966.194 141.551C960.033 149.561 970.534 181.772 976.555 196.876C980.388 193.705 985.914 191.501 1005.31 189.757C1020.82 188.362 1028.34 183.787 1030.15 181.674Z" fill="#1F3155"/>
<path d="M1013.3 147.444L1012.34 142.654C1027.54 140.89 1034.72 129.324 1036.41 123.762L1041.66 130.372C1040.56 154.506 1022.3 151.809 1013.3 147.444Z" fill="#111C32"/>
<path d="M1029.94 118.367C1020.01 123.943 1014.8 134.467 1013.44 139.032C1025.07 138.465 1031.88 126.934 1033.83 121.239L1029.94 118.367Z" fill="#111C32"/>
<path d="M1010.56 120.526C1009.27 123.312 1010.25 132.093 1010.9 136.135C1012.06 128.32 1022.09 119.648 1026.95 116.289L1024.86 115.005C1025.49 114.919 1026.35 114.756 1024.69 114.794C1022.63 114.842 1012.18 117.043 1010.56 120.526Z" fill="#111C32"/>
<path d="M1005.81 122.445C998.497 125.944 995.258 129.53 994.553 130.886C998.075 137.67 1005.62 142.494 1008.95 144.058C1006.64 140.339 1005.9 128.1 1005.81 122.445Z" fill="#111C32"/>
<path d="M1018.72 111.771C1000.96 115.406 988.341 129.529 984.251 136.136C982.18 133.146 980.804 108.751 993.151 105.684C1003.03 103.231 1014.31 108.72 1018.72 111.771Z" fill="#182846"/>
<path d="M994.934 101.805C1014.29 99.3093 1034.6 116.344 1042.34 125.173C1042.2 109.937 1035.79 98.8099 1032.61 95.1506C1015.46 86.3167 1000.35 95.9059 994.934 101.805Z" fill="#182846"/>
<path d="M1037.44 150.574C1053.96 128.714 1043.94 104.437 1036.87 95.031C1063.54 111.3 1059.47 133.303 1054.11 142.271C1052.04 148.03 1042.13 150.206 1037.44 150.574Z" fill="#182846"/>
<path d="M991.845 134.38C988.61 136.288 986.627 140.645 986.04 142.584C1002.5 176.248 1040.57 167.327 1050.68 151.947C1018.58 161.646 998.083 144.277 991.845 134.38Z" fill="#182846"/>
<path d="M360.836 46.0005C393.821 46.0005 422.308 108 399.318 139.5L390.822 146.5L382.326 154L373.83 161.5L365.833 169L357.337 176.5L349.341 184.5L340.845 192.5L333.848 200L318.355 215.5L302.862 231.5L287.869 248L274.375 263.5L260.382 280L246.388 297L233.894 313.5L220.4 330.5L207.406 349L201.908 357L194.911 367.5L188.914 376.5L182.417 386L176.42 395.5L170.423 404.501C124.943 423.5 49.9776 396.5 49.9776 341.001L49.9776 46.0005L360.836 46.0005Z" fill="#CE9408" stroke="#1F3155" stroke-width="3"/>
<path d="M230.964 301.553C221.772 349.36 174.593 380.533 125.524 371.089C76.4564 361.646 44.2035 315.187 53.3956 267.38C62.5877 219.573 109.767 188.4 158.835 197.843C207.903 207.287 240.156 253.746 230.964 301.553Z" fill="#F7B81F" stroke="#1F3155" stroke-width="3"/>
<path d="M199.969 135.027C192.34 174.704 153.181 200.585 112.442 192.745C71.7035 184.905 44.9358 146.336 52.5646 106.659C60.1935 66.9822 99.3533 41.1008 140.092 48.941C180.83 56.7811 207.598 95.3502 199.969 135.027Z" fill="#F7B81F" stroke="#1F3155" stroke-width="3"/>
<path d="M368.52 144.884C360.061 188.86 316.639 217.541 271.474 208.853C226.308 200.165 196.626 157.422 205.085 113.445C213.545 69.4686 256.966 40.788 302.132 49.4761C347.297 58.1643 376.979 100.907 368.52 144.884Z" fill="#F7B81F" stroke="#1F3155" stroke-width="3"/>
<path d="M231.677 120.03C238.486 126.539 243.465 127.684 245.103 127.444C244.724 133.566 247.918 142.587 248.152 145.671C248.339 148.139 242.361 156.791 239.349 160.809C243.188 159.241 252.662 158.681 256.919 158.598C262.052 164.676 275 169.41 280.832 171.017C278.552 176.979 274.971 181.272 273.465 182.674C265.54 188.97 232.895 179.25 217.563 173.604C220.67 169.726 222.766 164.189 224.092 144.889C225.153 129.448 229.591 121.883 231.677 120.03Z" fill="#1F3155"/>
<path d="M297.998 74.1828C291.495 80.9925 290.377 85.9475 290.631 87.5738C284.466 87.2401 275.409 90.4772 272.306 90.7311C269.824 90.9342 261.073 85.056 257.008 82.0914C258.614 85.8945 259.244 95.3029 259.358 99.5317C253.277 104.675 248.603 117.571 247.026 123.377C241.009 121.154 236.663 117.626 235.242 116.14C228.849 108.311 238.402 75.8101 243.977 60.5381C247.901 63.597 253.489 65.6403 272.924 66.8221C288.472 67.7675 296.119 72.1232 297.998 74.1828Z" fill="#1F3155"/>
<path d="M343.472 138.82C336.524 132.458 331.521 131.419 329.888 131.695C330.135 125.566 326.746 116.615 326.446 113.536C326.205 111.073 331.995 102.295 334.919 98.214C331.115 99.8641 321.655 100.626 317.401 100.801C312.137 94.8338 299.09 90.3775 293.225 88.8952C295.375 82.8856 298.862 78.5169 300.338 77.0838C308.124 70.6199 340.972 79.6391 356.422 84.9566C353.401 88.8996 351.425 94.4801 350.517 113.805C349.79 129.264 345.517 136.923 343.472 138.82Z" fill="#1F3155"/>
<path d="M277.945 182.58C284.645 175.961 285.908 171.041 285.702 169.408C291.854 169.92 301.002 166.946 304.111 166.782C306.598 166.651 315.173 172.78 319.149 175.861C317.656 172.013 317.302 162.59 317.312 158.36C323.541 153.395 328.591 140.639 330.337 134.882C336.287 137.278 340.528 140.93 341.905 142.457C348.065 150.467 337.564 182.678 331.543 197.782C327.71 194.611 322.185 192.407 302.792 190.663C287.278 189.268 279.763 184.693 277.945 182.58Z" fill="#1F3155"/>
<path d="M294.794 148.35L295.76 143.56C280.558 141.796 273.376 130.23 271.685 124.668L266.437 131.279C267.536 155.413 285.799 152.716 294.794 148.35Z" fill="#111C32"/>
<path d="M278.155 119.273C288.087 124.849 293.294 135.373 294.656 139.938C283.028 139.371 276.222 127.84 274.273 122.146L278.155 119.273Z" fill="#111C32"/>
<path d="M297.536 121.432C298.833 124.218 297.852 132.999 297.199 137.041C296.036 129.227 286.012 120.554 281.145 117.195L283.239 115.911C282.604 115.825 281.748 115.662 283.403 115.701C285.473 115.748 295.915 117.95 297.536 121.432Z" fill="#111C32"/>
<path d="M302.284 123.351C309.601 126.85 312.841 130.436 313.546 131.792C310.024 138.576 302.478 143.4 299.145 144.964C301.461 141.245 302.203 129.006 302.284 123.351Z" fill="#111C32"/>
<path d="M289.379 112.677C307.139 116.312 319.758 130.435 323.847 137.042C325.918 134.052 327.294 109.657 314.948 106.59C305.071 104.137 293.787 109.626 289.379 112.677Z" fill="#182846"/>
<path d="M313.164 102.711C293.804 100.216 273.496 117.25 265.761 126.079C265.9 110.844 272.305 99.7162 275.489 96.0569C292.634 87.2229 307.75 96.8122 313.164 102.711Z" fill="#182846"/>
<path d="M270.662 151.481C254.134 129.62 264.154 105.343 271.23 95.9373C244.56 112.207 248.625 134.21 253.991 143.177C256.058 148.936 265.966 151.112 270.662 151.481Z" fill="#182846"/>
<path d="M316.253 135.286C319.488 137.194 321.471 141.551 322.058 143.491C305.602 177.155 267.528 168.234 257.422 152.853C289.517 162.552 310.016 145.183 316.253 135.286Z" fill="#182846"/>
<path d="M76.2208 111.975C82.3533 117.838 86.8386 118.87 88.3146 118.653C87.973 124.168 90.8503 132.294 91.0608 135.072C91.2292 137.295 85.8443 145.089 83.1308 148.708C86.589 147.295 95.1228 146.791 98.9575 146.716C103.582 152.191 115.245 156.455 120.498 157.903C118.445 163.273 115.218 167.14 113.862 168.403C106.724 174.074 77.3179 165.319 63.5073 160.233C66.3055 156.74 68.1934 151.753 69.3882 134.367C70.344 120.459 74.3415 113.644 76.2208 111.975Z" fill="#1F3155"/>
<path d="M135.961 70.6763C130.103 76.8103 129.096 81.2736 129.324 82.7385C123.772 82.438 115.613 85.3538 112.818 85.5826C110.582 85.7656 102.7 80.4706 99.038 77.8002C100.484 81.2259 101.052 89.7007 101.155 93.5099C95.6767 98.1427 91.4668 109.76 90.0466 114.989C84.6267 112.987 80.7117 109.809 79.4316 108.47C73.6732 101.418 82.2776 72.1421 87.2996 58.3855C90.8348 61.1409 95.868 62.9814 113.375 64.0459C127.38 64.8975 134.268 68.821 135.961 70.6763Z" fill="#1F3155"/>
<path d="M176.923 128.9C170.665 123.17 166.158 122.234 164.687 122.482C164.909 116.961 161.857 108.899 161.586 106.125C161.369 103.907 166.584 95.9996 169.219 92.3234C165.792 93.8098 157.271 94.496 153.439 94.6533C148.697 89.2785 136.945 85.2644 131.661 83.9292C133.598 78.516 136.74 74.5807 138.069 73.2898C145.082 67.4673 174.671 75.5915 188.588 80.3815C185.866 83.9332 184.087 88.96 183.269 106.367C182.614 120.293 178.765 127.191 176.923 128.9Z" fill="#1F3155"/>
<path d="M117.899 168.318C123.934 162.356 125.072 157.924 124.886 156.453C130.428 156.914 138.669 154.236 141.469 154.088C143.71 153.97 151.433 159.49 155.015 162.266C153.67 158.799 153.351 150.312 153.36 146.501C158.971 142.029 163.52 130.539 165.093 125.353C170.452 127.511 174.272 130.801 175.512 132.176C181.062 139.392 171.603 168.406 166.179 182.012C162.727 179.155 157.749 177.17 140.281 175.599C126.307 174.343 119.537 170.222 117.899 168.318Z" fill="#1F3155"/>
<path d="M133.076 137.485L133.947 133.17C120.253 131.581 113.784 121.163 112.261 116.153L107.533 122.107C108.523 143.847 124.974 141.417 133.076 137.485Z" fill="#111C32"/>
<path d="M118.088 111.293C127.034 116.315 131.725 125.795 132.951 129.907C122.477 129.396 116.347 119.01 114.591 113.88L118.088 111.293Z" fill="#111C32"/>
<path d="M135.545 113.238C136.713 115.747 135.829 123.657 135.241 127.298C134.194 120.259 125.164 112.447 120.78 109.421L122.666 108.264C122.094 108.187 121.323 108.04 122.815 108.075C124.679 108.118 134.084 110.101 135.545 113.238Z" fill="#111C32"/>
<path d="M139.822 114.966C146.414 118.118 149.332 121.348 149.967 122.569C146.794 128.68 139.997 133.025 136.995 134.434C139.082 131.084 139.749 120.059 139.822 114.966Z" fill="#111C32"/>
<path d="M128.198 105.351C144.196 108.625 155.562 121.347 159.245 127.298C161.111 124.605 162.35 102.631 151.229 99.8684C142.332 97.6583 132.168 102.603 128.198 105.351Z" fill="#182846"/>
<path d="M149.621 96.3739C132.182 94.126 113.889 109.47 106.922 117.423C107.047 103.7 112.816 93.6762 115.685 90.3799C131.129 82.4226 144.744 91.0603 149.621 96.3739Z" fill="#182846"/>
<path d="M111.338 140.305C96.4498 120.613 105.476 98.7453 111.849 90.2728C87.8263 104.928 91.4875 124.748 96.321 132.825C98.1828 138.013 107.108 139.973 111.338 140.305Z" fill="#182846"/>
<path d="M152.404 125.717C155.318 127.436 157.105 131.36 157.633 133.107C142.81 163.431 108.514 155.395 99.411 141.541C128.321 150.277 146.786 134.632 152.404 125.717Z" fill="#182846"/>
<path d="M145.005 265.591C164.391 269.558 178.164 284.974 182.628 292.186C184.888 288.922 186.39 262.294 172.914 258.947C162.133 256.269 149.816 262.26 145.005 265.591Z" fill="#182846"/>
<path d="M82.021 273.616C89.4523 280.721 94.8873 281.971 96.6759 281.709C96.2619 288.391 99.7486 298.238 100.004 301.605C100.208 304.298 93.6825 313.743 90.3944 318.128C94.5849 316.416 104.926 315.805 109.573 315.714C115.176 322.348 129.309 327.516 135.675 329.27C133.186 335.778 129.277 340.464 127.633 341.994C118.983 348.866 83.3505 338.257 66.6152 332.094C70.006 327.862 72.2937 321.818 73.7415 300.751C74.8998 283.897 79.7438 275.639 82.021 273.616Z" fill="#1F3155"/>
<path d="M154.411 223.572C147.313 231.005 146.093 236.414 146.37 238.189C139.641 237.825 129.755 241.358 126.368 241.635C123.658 241.857 114.107 235.441 109.67 232.205C111.422 236.356 112.11 246.625 112.234 251.241C105.597 256.855 100.495 270.932 98.7741 277.269C92.2064 274.843 87.4623 270.992 85.9113 269.369C78.9334 260.824 89.3599 225.348 95.4454 208.679C99.7292 212.017 105.828 214.248 127.042 215.538C144.014 216.57 152.36 221.324 154.411 223.572Z" fill="#1F3155"/>
<path d="M204.047 294.126C196.463 287.182 191.003 286.048 189.22 286.348C189.489 279.659 185.79 269.889 185.462 266.528C185.2 263.84 191.519 254.258 194.712 249.803C190.559 251.604 180.234 252.436 175.59 252.627C169.844 246.114 155.603 241.249 149.201 239.632C151.547 233.072 155.355 228.303 156.965 226.739C165.464 219.683 201.318 229.528 218.183 235.332C214.885 239.636 212.728 245.728 211.737 266.821C210.944 283.695 206.28 292.055 204.047 294.126Z" fill="#1F3155"/>
<path d="M132.525 341.891C139.838 334.667 141.217 329.296 140.992 327.513C147.707 328.072 157.693 324.826 161.086 324.647C163.801 324.504 173.161 331.194 177.501 334.557C175.871 330.357 175.485 320.072 175.495 315.454C182.295 310.035 187.807 296.112 189.713 289.827C196.207 292.442 200.836 296.429 202.339 298.096C209.063 306.839 197.601 341.998 191.029 358.485C186.845 355.023 180.814 352.618 159.647 350.714C142.713 349.192 134.51 344.198 132.525 341.891Z" fill="#1F3155"/>
<path d="M150.915 304.528L151.97 299.3C135.376 297.374 127.537 284.75 125.692 278.679L119.963 285.894C121.162 312.237 141.097 309.293 150.915 304.528Z" fill="#111C32"/>
<path d="M132.754 272.79C143.595 278.876 149.279 290.363 150.765 295.346C138.073 294.728 130.645 282.141 128.517 275.925L132.754 272.79Z" fill="#111C32"/>
<path d="M153.908 275.147C155.323 278.188 154.253 287.772 153.54 292.184C152.271 283.655 141.329 274.189 136.017 270.522L138.302 269.12C137.609 269.026 136.675 268.849 138.482 268.89C140.741 268.943 152.138 271.346 153.908 275.147Z" fill="#111C32"/>
<path d="M159.09 277.241C167.078 281.061 170.613 284.975 171.383 286.455C167.539 293.86 159.302 299.125 155.664 300.832C158.193 296.773 159.002 283.413 159.09 277.241Z" fill="#111C32"/>
<path d="M170.965 254.712C149.833 251.988 127.666 270.581 119.224 280.218C119.375 263.589 126.366 251.443 129.842 247.449C148.556 237.806 165.055 248.273 170.965 254.712Z" fill="#182846"/>
<path d="M124.574 307.945C106.533 284.084 117.47 257.585 125.194 247.318C96.0834 265.077 100.52 289.093 106.377 298.882C108.633 305.168 119.449 307.543 124.574 307.945Z" fill="#182846"/>
<path d="M174.338 290.269C177.869 292.351 180.034 297.107 180.674 299.224C162.712 335.969 121.153 326.232 110.122 309.444C145.155 320.03 167.529 301.071 174.338 290.269Z" fill="#182846"/>
</svg>
