<svg width="1440" height="1843" viewBox="0 0 1440 1843" fill="none" xmlns="http://www.w3.org/2000/svg">
<path d="M68 2H302V9H68V2Z" fill="#F7B81F" stroke="#1F3155" stroke-width="3"/>
<path d="M69 170H112.292H248V177H69V170Z" fill="#F7B81F" stroke="#1F3155" stroke-width="3"/>
<path d="M1370.59 170H1327.26H1191.43V177H1370.59V170Z" fill="#F7B81F" stroke="#1F3155" stroke-width="3"/>
<path d="M1215.85 1811L1219.84 177H1370.99L1367.5 1811H1215.85Z" fill="#F7B81F" stroke="#1F3155" stroke-width="3"/>
<path d="M1254.89 202.477C1252.34 176.183 1227.86 182.37 1227.86 202.477C1232.45 182.37 1246.73 190.103 1246.22 202.477L1242.65 1811H1250.3L1254.89 202.477Z" fill="#1F3155" stroke="#1F3155" stroke-width="3"/>
<path d="M1300.93 202.477C1298.38 176.183 1273.9 182.37 1273.9 202.477C1278.49 182.37 1292.77 190.103 1292.26 202.477L1288.69 1811H1296.34L1300.93 202.477Z" fill="#1F3155" stroke="#1F3155" stroke-width="3"/>
<path d="M1346.97 202.477C1344.42 176.183 1319.95 182.37 1319.95 202.477C1324.53 182.37 1338.81 190.103 1338.3 202.477L1334.73 1811H1342.38L1346.97 202.477Z" fill="#1F3155" stroke="#1F3155" stroke-width="3"/>
<path d="M1192.1 138H1370.59V170H1192.1C1167.31 154.965 1181.77 142.402 1192.1 138Z" fill="#F7B81F" stroke="#1F3155" stroke-width="3"/>
<path d="M1370.99 2H1137.78V9H1370.99V2Z" fill="#F7B81F" stroke="#1F3155" stroke-width="3"/>
<path d="M1235.19 9L1369.85 10C1386.37 18 1374.35 35 1363.84 38C1341.01 19.2 1317.29 26.8333 1308.28 33C1371.95 33 1369.85 69 1363.34 83.5C1350.93 93.5 1341.82 86.6667 1338.81 82C1344.02 58 1322.29 54.3333 1310.78 55.5C1334.31 70 1320.29 88.5 1310.78 93C1348.82 88.2 1359.34 106 1354.83 119C1348.82 129.5 1338.81 124 1336.31 118.5C1335.11 104.5 1321.46 107.333 1314.78 110.5C1319.29 122.5 1334.31 134.5 1344.82 138L1282.25 137.5C1287.75 119 1285.25 106 1292.26 94.5C1285.25 74 1286.75 69.5 1275.24 61.5C1276.74 45.5 1264.73 23 1246.7 22C1238.69 27 1238.86 10.5 1235.19 9Z" fill="#CE9408" stroke="#1F3155" stroke-width="3"/>
<path d="M1157.39 46.9002C1191.85 9.35938 1270.73 101.96 1192.32 138H1278.74C1311.28 134 1310.28 104 1292.26 94.5C1308.27 81 1298.26 55.5 1275.24 61C1293.76 37.5 1270.73 11 1246.2 21.5C1244.7 16 1240.88 11.7396 1237.97 9.35938H1191.64H1164.78H1137.92C1101.96 20.5716 1126.43 64.92 1157.39 46.9002Z" fill="#E9AC19"/>
<path d="M1164.78 9.35938H1137.92C1101.96 20.5716 1126.43 64.92 1157.39 46.9002C1191.85 9.35938 1270.73 101.96 1192.32 138H1278.74C1311.28 134 1310.28 104 1292.26 94.5C1308.27 81 1298.26 55.5 1275.24 61C1293.76 37.5 1270.73 11 1246.2 21.5C1244.7 16 1240.88 11.7396 1237.97 9.35938H1191.64H1164.78ZM1164.78 9.35938C1176.53 11.6469 1182.57 17.7396 1184.13 20.5C1185.33 15.3 1189.63 11 1191.64 9.5" stroke="#1F3155" stroke-width="3"/>
<path d="M1215.04 121.948C1229.36 107.599 1260.59 79.8018 1270.98 83.4057" stroke="#1F3155" stroke-width="3"/>
<path d="M1224.03 80.2299C1225.03 68.3837 1228.83 46.2462 1242.01 45.0449" stroke="#1F3155" stroke-width="3"/>
<path d="M223.966 1841L219.979 177H69L72.488 1841H223.966Z" fill="#F7B81F" stroke="#1F3155" stroke-width="3"/>
<path d="M185 202.799C187.547 176.021 212 182.321 212 202.799C207.415 182.321 193.151 190.197 193.66 202.799L197.226 1841H189.585L185 202.799Z" fill="#1F3155" stroke="#1F3155" stroke-width="3"/>
<path d="M139 202.799C141.547 176.021 166 182.321 166 202.799C161.415 182.321 147.151 190.197 147.66 202.799L151.226 1841H143.585L139 202.799Z" fill="#1F3155" stroke="#1F3155" stroke-width="3"/>
<path d="M93 202.799C95.5472 176.021 120 182.321 120 202.799C115.415 182.321 101.151 190.197 101.66 202.799L105.226 1841H97.5849L93 202.799Z" fill="#1F3155" stroke="#1F3155" stroke-width="3"/>
<path d="M247.323 138H69V170H247.323C272.093 154.965 257.644 142.402 247.323 138Z" fill="#F7B81F" stroke="#1F3155" stroke-width="3"/>
<path d="M204.679 9L70.1419 10C53.6373 18 65.6406 35 76.1435 38C98.9498 19.2 122.656 26.8333 131.659 33C68.0413 33 70.1419 69 76.6436 83.5C89.047 93.5 98.1495 86.6667 101.15 82C95.9489 58 117.655 54.3333 129.158 55.5C105.652 70 119.655 88.5 129.158 93C91.1476 88.2 80.6447 106 85.146 119C91.1476 129.5 101.15 124 103.651 118.5C104.851 104.5 118.488 107.333 125.157 110.5C120.656 122.5 105.652 134.5 95.1487 138L157.666 137.5C152.164 119 154.665 106 147.663 94.5C154.665 74 153.165 69.5 164.668 61.5C163.167 45.5 175.171 23 193.176 22C201.178 27 201.011 10.5 204.679 9Z" fill="#CE9408" stroke="#1F3155" stroke-width="3"/>
<path d="M282.404 46.9002C247.974 9.35938 169.168 101.96 247.508 138H161.167C128.658 134 129.658 104 147.663 94.5C131.659 81 141.661 55.5 164.668 61C146.163 37.5 169.169 11 193.676 21.5C195.176 16 198.989 11.7396 201.895 9.35938H248.191H275.027H301.864C337.79 20.5716 313.34 64.92 282.404 46.9002Z" fill="#E9AC19"/>
<path d="M275.027 9.35938H301.864C337.79 20.5716 313.34 64.92 282.404 46.9002C247.974 9.35938 169.168 101.96 247.508 138H161.167C128.658 134 129.658 104 147.663 94.5C131.659 81 141.661 55.5 164.668 61C146.163 37.5 169.169 11 193.676 21.5C195.176 16 198.989 11.7396 201.895 9.35938H248.191H275.027ZM275.027 9.35938C263.287 11.6469 257.246 17.7396 255.693 20.5C254.492 15.3 250.191 11 248.191 9.5" stroke="#1F3155" stroke-width="3"/>
<path d="M224.809 121.948C210.505 107.599 179.302 79.8018 168.923 83.4057" stroke="#1F3155" stroke-width="3"/>
<path d="M215.828 80.2299C214.83 68.3837 211.037 46.2462 197.864 45.0449" stroke="#1F3155" stroke-width="3"/>
</svg>
