<svg width="1440" height="1381" viewBox="0 0 1440 1381" fill="none" xmlns="http://www.w3.org/2000/svg">
<path d="M68 831L183 831C293 300 622 166.5 720 75.0002L720 37.5002L720 0.00023029L68 0.000244141L68 831Z" fill="#F7B81F" stroke="#1F3155" stroke-width="3"/>
<path d="M720 186.426C392 377.5 277 696.09 260.5 831L183 831C237 395.289 575.5 121.5 720 75.0002L720 186.426Z" fill="#DFA71F" stroke="#1F3155" stroke-width="3"/>
<path d="M720 78.0002L720 20.0002C527.5 123 204.4 379.4 146 831L184.5 831C267 343 603 143 720 78.0002Z" fill="#E9AC19" stroke="#1F3155" stroke-width="3"/>
<path d="M116 730.5C166 376 467 111.5 604.5 46.0002L116 46.0002L116 730.5Z" fill="#E9AC19" stroke="#1F3155" stroke-width="3"/>
<path d="M427 46.0002C460 46.0002 488.5 108 465.5 139.5L457 146.5L448.5 154L440 161.5L432 169L423.5 176.5L415.5 184.5L407 192.5L400 200L384.5 215.5L369 231.5L354 248L340.5 263.5L326.5 280L312.5 297L300 313.5L286.5 330.5L273.5 349L268 357L261 367.5L255 376.5L248.5 386L242.5 395.5L236.5 404.5C191 423.5 116 396.5 116 341L116 46.0002L427 46.0002Z" fill="#DFA71F" stroke="#1F3155" stroke-width="3"/>
<path d="M297.07 301.553C287.874 349.359 240.673 380.533 191.582 371.089C142.49 361.646 110.223 315.186 119.419 267.38C128.615 219.573 175.816 188.4 224.908 197.843C273.999 207.287 306.266 253.746 297.07 301.553Z" fill="#F7B81F" stroke="#1F3155" stroke-width="3"/>
<path d="M266.061 135.027C258.429 174.703 219.251 200.585 178.493 192.745C137.735 184.905 110.956 146.335 118.588 106.659C126.22 66.9824 165.398 41.1004 206.156 48.9407C246.914 56.781 273.693 95.3506 266.061 135.027Z" fill="#F7B81F" stroke="#1F3155" stroke-width="3"/>
<path d="M1371.59 831L1257 831C1147 300 818 166.5 720 75.0003L720 37.5003L720 0.000257983L1371.59 0.000244141L1371.59 831Z" fill="#F7B81F" stroke="#1F3155" stroke-width="3"/>
<path d="M720 186.426C1048 377.5 1163 696.09 1179.5 831L1257 831C1203 395.289 864.5 121.5 720 75.0003L720 186.426Z" fill="#DFA71F" stroke="#1F3155" stroke-width="3"/>
<path d="M720 78.0003L720 20.0003C912.5 123 1235.6 379.4 1294 831L1255.5 831C1173 343 837 143 720 78.0003Z" fill="#E9AC19" stroke="#1F3155" stroke-width="3"/>
<path d="M1324 730.5C1274 376 973 111.5 835.5 46.0003L1324 46.0002L1324 730.5Z" fill="#E9AC19" stroke="#1F3155" stroke-width="3"/>
<path d="M1013 46.0003C980 46.0003 951.5 108 974.5 139.5L983 146.5L991.5 154L1000 161.5L1008 169L1016.5 176.5L1024.5 184.5L1033 192.5L1040 200L1055.5 215.5L1071 231.5L1086 248L1099.5 263.5L1113.5 280L1127.5 297L1140 313.5L1153.5 330.5L1166.5 349L1172 357L1179 367.5L1185 376.5L1191.5 386L1197.5 395.5L1203.5 404.5C1249 423.5 1324 396.5 1324 341L1324 46.0002L1013 46.0003Z" fill="#DFA71F" stroke="#1F3155" stroke-width="3"/>
<path d="M1005.48 144.884C1013.94 188.86 1057.36 217.541 1102.53 208.853C1147.69 200.164 1177.37 157.421 1168.91 113.445C1160.46 69.4683 1117.03 40.7877 1071.87 49.4759C1026.7 58.1641 997.021 100.907 1005.48 144.884Z" fill="#F7B81F" stroke="#1F3155" stroke-width="3"/>
<path d="M1142.93 301.553C1152.13 349.359 1199.33 380.533 1248.42 371.089C1297.51 361.646 1329.78 315.186 1320.58 267.38C1311.38 219.573 1264.18 188.4 1215.09 197.843C1166 207.287 1133.73 253.746 1142.93 301.553Z" fill="#F7B81F" stroke="#1F3155" stroke-width="3"/>
<path d="M1173.94 135.027C1181.57 174.703 1220.75 200.585 1261.51 192.745C1302.26 184.905 1329.04 146.335 1321.41 106.659C1313.78 66.9824 1274.6 41.1004 1233.84 48.9407C1193.09 56.781 1166.31 95.3506 1173.94 135.027Z" fill="#F7B81F" stroke="#1F3155" stroke-width="3"/>
<path d="M296.5 831L68 831L68 870L300 870C326 864 317 831 296.5 831Z" fill="#F7B81F" stroke="#1F3155" stroke-width="3"/>
<path d="M1143.09 831L1371.59 831L1371.59 870L1139.59 870C1113.59 864 1122.59 831 1143.09 831Z" fill="#F7B81F" stroke="#1F3155" stroke-width="3"/>
<path d="M1297.78 112.076C1291.65 117.939 1287.16 118.971 1285.69 118.754C1286.03 124.269 1283.15 132.395 1282.94 135.173C1282.77 137.396 1288.16 145.19 1290.87 148.809C1287.41 147.396 1278.88 146.892 1275.04 146.817C1270.42 152.292 1258.76 156.556 1253.5 158.004C1255.56 163.375 1258.78 167.242 1260.14 168.504C1267.28 174.175 1296.68 165.421 1310.49 160.334C1307.69 156.842 1305.81 151.854 1304.61 134.469C1303.66 120.56 1299.66 113.745 1297.78 112.076Z" fill="#1F3155"/>
<path d="M1238.04 70.7776C1243.9 76.9116 1244.9 81.3749 1244.68 82.8398C1250.23 82.5393 1258.39 85.4552 1261.18 85.6839C1263.42 85.8669 1271.3 80.5719 1274.96 77.9015C1273.52 81.3272 1272.95 89.8021 1272.85 93.6112C1278.32 98.2441 1282.53 109.861 1283.95 115.09C1289.37 113.088 1293.29 109.91 1294.57 108.571C1300.33 101.52 1291.72 72.2434 1286.7 58.4868C1283.17 61.2422 1278.13 63.0827 1260.63 64.1472C1246.62 64.9988 1239.73 68.9223 1238.04 70.7776Z" fill="#1F3155"/>
<path d="M1197.08 129.001C1203.34 123.271 1207.84 122.335 1209.31 122.583C1209.09 117.063 1212.14 109 1212.41 106.227C1212.63 104.008 1207.42 96.1009 1204.78 92.4247C1208.21 93.9111 1216.73 94.5973 1220.56 94.7546C1225.3 89.3799 1237.06 85.3657 1242.34 84.0305C1240.4 78.6173 1237.26 74.6821 1235.93 73.3911C1228.92 67.5686 1199.33 75.6928 1185.41 80.4828C1188.13 84.0345 1189.91 89.0613 1190.73 106.468C1191.39 120.394 1195.23 127.293 1197.08 129.001Z" fill="#1F3155"/>
<path d="M1256.1 168.42C1250.07 162.458 1248.93 158.025 1249.11 156.555C1243.57 157.016 1235.33 154.337 1232.53 154.189C1230.29 154.071 1222.57 159.592 1218.98 162.367C1220.33 158.901 1220.65 150.413 1220.64 146.603C1215.03 142.131 1210.48 130.64 1208.91 125.454C1203.55 127.612 1199.73 130.902 1198.49 132.278C1192.94 139.493 1202.4 168.508 1207.82 182.113C1211.27 179.257 1216.25 177.271 1233.72 175.701C1247.69 174.444 1254.46 170.323 1256.1 168.42Z" fill="#1F3155"/>
<path d="M1240.92 137.586L1240.05 133.272C1253.75 131.682 1260.22 121.264 1261.74 116.254L1266.47 122.209C1265.48 143.948 1249.03 141.518 1240.92 137.586Z" fill="#111C32"/>
<path d="M1255.91 111.394C1246.97 116.416 1242.28 125.896 1241.05 130.008C1251.52 129.498 1257.65 119.111 1259.41 113.982L1255.91 111.394Z" fill="#111C32"/>
<path d="M1238.46 113.339C1237.29 115.849 1238.17 123.758 1238.76 127.4C1239.81 120.36 1248.84 112.549 1253.22 109.522L1251.33 108.366C1251.91 108.288 1252.68 108.142 1251.19 108.176C1249.32 108.219 1239.92 110.202 1238.46 113.339Z" fill="#111C32"/>
<path d="M1234.18 115.067C1227.59 118.219 1224.67 121.449 1224.03 122.671C1227.21 128.782 1234 133.127 1237 134.536C1234.92 131.186 1234.25 120.161 1234.18 115.067Z" fill="#111C32"/>
<path d="M1245.8 105.453C1229.8 108.727 1218.44 121.449 1214.75 127.4C1212.89 124.707 1211.65 102.733 1222.77 99.97C1231.67 97.7599 1241.83 102.704 1245.8 105.453Z" fill="#182846"/>
<path d="M1224.38 96.4754C1241.82 94.2276 1260.11 109.572 1267.08 117.525C1266.95 103.801 1261.18 93.7777 1258.32 90.4815C1242.87 82.5241 1229.26 91.1619 1224.38 96.4754Z" fill="#182846"/>
<path d="M1262.66 140.406C1277.55 120.714 1268.52 98.8466 1262.15 90.3741C1286.17 105.029 1282.51 124.849 1277.68 132.927C1275.82 138.114 1266.89 140.074 1262.66 140.406Z" fill="#182846"/>
<path d="M1221.6 125.818C1218.68 127.537 1216.9 131.461 1216.37 133.209C1231.19 163.532 1265.49 155.497 1274.59 141.642C1245.68 150.379 1227.21 134.733 1221.6 125.818Z" fill="#182846"/>
<path d="M1292.09 273.616C1284.65 280.721 1279.22 281.971 1277.43 281.709C1277.84 288.391 1274.36 298.238 1274.1 301.605C1273.9 304.298 1280.42 313.743 1283.71 318.128C1279.52 316.416 1269.18 315.805 1264.53 315.714C1258.93 322.348 1244.8 327.516 1238.43 329.27C1240.92 335.778 1244.83 340.464 1246.47 341.994C1255.12 348.866 1290.76 338.257 1307.49 332.094C1304.1 327.862 1301.81 321.818 1300.36 300.751C1299.21 283.897 1294.36 275.639 1292.09 273.616Z" fill="#1F3155"/>
<path d="M1219.7 223.572C1226.79 231.005 1228.01 236.414 1227.74 238.189C1234.47 237.825 1244.35 241.358 1247.74 241.635C1250.45 241.857 1260 235.441 1264.44 232.205C1262.68 236.356 1262 246.626 1261.87 251.241C1268.51 256.855 1273.61 270.932 1275.33 277.269C1281.9 274.843 1286.64 270.992 1288.2 269.37C1295.17 260.825 1284.75 225.349 1278.66 208.679C1274.38 212.018 1268.28 214.248 1247.06 215.538C1230.09 216.57 1221.75 221.324 1219.7 223.572Z" fill="#1F3155"/>
<path d="M1170.06 294.126C1177.64 287.182 1183.1 286.048 1184.89 286.349C1184.62 279.659 1188.32 269.889 1188.64 266.528C1188.91 263.84 1182.59 254.258 1179.39 249.804C1183.55 251.605 1193.87 252.436 1198.52 252.627C1204.26 246.114 1218.5 241.25 1224.91 239.632C1222.56 233.072 1218.75 228.304 1217.14 226.739C1208.64 219.684 1172.79 229.528 1155.92 235.333C1159.22 239.637 1161.38 245.728 1162.37 266.821C1163.16 283.696 1167.83 292.055 1170.06 294.126Z" fill="#1F3155"/>
<path d="M1241.58 341.891C1234.27 334.667 1232.89 329.296 1233.11 327.514C1226.4 328.072 1216.41 324.827 1213.02 324.648C1210.31 324.504 1200.95 331.194 1196.61 334.557C1198.24 330.357 1198.62 320.072 1198.61 315.455C1191.81 310.035 1186.3 296.112 1184.39 289.827C1177.9 292.443 1173.27 296.429 1171.77 298.096C1165.04 306.839 1176.51 341.998 1183.08 358.485C1187.26 355.024 1193.29 352.618 1214.46 350.715C1231.39 349.192 1239.6 344.198 1241.58 341.891Z" fill="#1F3155"/>
<path d="M1223.19 304.529L1222.14 299.3C1238.73 297.375 1246.57 284.751 1248.41 278.679L1254.14 285.895C1252.94 312.238 1233.01 309.294 1223.19 304.529Z" fill="#111C32"/>
<path d="M1241.35 272.79C1230.51 278.876 1224.83 290.363 1223.34 295.346C1236.03 294.728 1243.46 282.141 1245.59 275.925L1241.35 272.79Z" fill="#111C32"/>
<path d="M1220.2 275.147C1218.78 278.188 1219.85 287.772 1220.57 292.184C1221.84 283.655 1232.78 274.189 1238.09 270.522L1235.8 269.12C1236.5 269.026 1237.43 268.849 1235.62 268.89C1233.37 268.943 1221.97 271.346 1220.2 275.147Z" fill="#111C32"/>
<path d="M1215.02 277.241C1207.03 281.061 1203.49 284.975 1202.72 286.455C1206.57 293.86 1214.8 299.125 1218.44 300.832C1215.91 296.773 1215.1 283.413 1215.02 277.241Z" fill="#111C32"/>
<path d="M1229.1 265.591C1209.72 269.558 1195.94 284.974 1191.48 292.186C1189.22 288.922 1187.72 262.294 1201.19 258.947C1211.97 256.269 1224.29 262.26 1229.1 265.591Z" fill="#182846"/>
<path d="M1203.14 254.712C1224.27 251.988 1246.44 270.581 1254.88 280.219C1254.73 263.589 1247.74 251.443 1244.26 247.449C1225.55 237.806 1209.05 248.273 1203.14 254.712Z" fill="#182846"/>
<path d="M1249.53 307.945C1267.57 284.084 1256.64 257.585 1248.91 247.318C1278.02 265.077 1273.59 289.093 1267.73 298.882C1265.47 305.168 1254.66 307.543 1249.53 307.945Z" fill="#182846"/>
<path d="M1199.77 290.269C1196.24 292.351 1194.07 297.107 1193.43 299.224C1211.39 335.969 1252.95 326.232 1263.98 309.444C1228.95 320.03 1206.58 301.071 1199.77 290.269Z" fill="#182846"/>
<path d="M1142.42 119.124C1135.61 125.633 1130.63 126.778 1129 126.538C1129.37 132.66 1126.18 141.681 1125.95 144.765C1125.76 147.233 1131.74 155.885 1134.75 159.903C1130.91 158.335 1121.44 157.775 1117.18 157.692C1112.05 163.769 1099.1 168.504 1093.27 170.111C1095.55 176.073 1099.13 180.366 1100.63 181.768C1108.56 188.064 1141.2 178.344 1156.54 172.698C1153.43 168.82 1151.33 163.283 1150.01 143.983C1148.95 128.542 1144.51 120.977 1142.42 119.124Z" fill="#1F3155"/>
<path d="M1076.1 73.2766C1082.6 80.0862 1083.72 85.0412 1083.47 86.6675C1089.63 86.3338 1098.69 89.5709 1101.79 89.8248C1104.27 90.028 1113.03 84.1497 1117.09 81.1852C1115.48 84.9883 1114.85 94.3966 1114.74 98.6254C1120.82 103.769 1125.5 116.665 1127.07 122.471C1133.09 120.248 1137.44 116.72 1138.86 115.234C1145.25 107.405 1135.7 74.9039 1130.12 59.6319C1126.2 62.6908 1120.61 64.734 1101.17 65.9158C1085.63 66.8612 1077.98 71.2169 1076.1 73.2766Z" fill="#1F3155"/>
<path d="M1030.63 137.914C1037.57 131.552 1042.58 130.513 1044.21 130.788C1043.96 124.66 1047.35 115.709 1047.65 112.63C1047.89 110.167 1042.1 101.389 1039.18 97.3078C1042.98 98.9579 1052.44 99.7197 1056.7 99.8943C1061.96 93.9275 1075.01 89.4712 1080.87 87.9889C1078.72 81.9794 1075.24 77.6107 1073.76 76.1775C1065.97 69.7136 1033.13 78.7328 1017.68 84.0504C1020.7 87.9933 1022.67 93.5738 1023.58 112.898C1024.31 128.358 1028.58 136.017 1030.63 137.914Z" fill="#1F3155"/>
<path d="M1096.15 181.674C1089.45 175.055 1088.19 170.135 1088.4 168.502C1082.24 169.014 1073.1 166.04 1069.99 165.876C1067.5 165.745 1058.93 171.874 1054.95 174.955C1056.44 171.107 1056.8 161.684 1056.79 157.454C1050.56 152.489 1045.51 139.733 1043.76 133.976C1037.81 136.372 1033.57 140.024 1032.19 141.551C1026.03 149.561 1036.53 181.772 1042.56 196.876C1046.39 193.705 1051.91 191.501 1071.31 189.757C1086.82 188.362 1094.34 183.787 1096.15 181.674Z" fill="#1F3155"/>
<path d="M1079.3 147.444L1078.34 142.654C1093.54 140.89 1100.72 129.324 1102.41 123.762L1107.66 130.373C1106.56 154.507 1088.3 151.81 1079.3 147.444Z" fill="#111C32"/>
<path d="M1095.94 118.367C1086.01 123.943 1080.8 134.467 1079.44 139.032C1091.07 138.465 1097.88 126.934 1099.83 121.239L1095.94 118.367Z" fill="#111C32"/>
<path d="M1076.56 120.526C1075.27 123.312 1076.25 132.093 1076.9 136.135C1078.06 128.32 1088.09 119.648 1092.95 116.289L1090.86 115.005C1091.49 114.919 1092.35 114.756 1090.7 114.794C1088.63 114.842 1078.18 117.043 1076.56 120.526Z" fill="#111C32"/>
<path d="M1071.81 122.445C1064.5 125.944 1061.26 129.53 1060.55 130.886C1064.07 137.67 1071.62 142.494 1074.95 144.058C1072.64 140.339 1071.9 128.1 1071.81 122.445Z" fill="#111C32"/>
<path d="M1084.72 111.771C1066.96 115.406 1054.34 129.529 1050.25 136.136C1048.18 133.146 1046.8 108.751 1059.15 105.684C1069.03 103.231 1080.31 108.72 1084.72 111.771Z" fill="#182846"/>
<path d="M1060.93 101.805C1080.29 99.3093 1100.6 116.344 1108.34 125.173C1108.2 109.937 1101.79 98.8099 1098.61 95.1506C1081.46 86.3167 1066.35 95.9059 1060.93 101.805Z" fill="#182846"/>
<path d="M1103.44 150.574C1119.96 128.714 1109.94 104.437 1102.87 95.031C1129.54 111.3 1125.47 133.303 1120.11 142.271C1118.04 148.03 1108.13 150.206 1103.44 150.574Z" fill="#182846"/>
<path d="M1057.85 134.38C1054.61 136.288 1052.63 140.645 1052.04 142.584C1068.5 176.248 1106.57 167.327 1116.68 151.947C1084.58 161.646 1064.08 144.277 1057.85 134.38Z" fill="#182846"/>
<path d="M434.52 144.884C426.061 188.86 382.639 217.541 337.474 208.853C292.308 200.164 262.626 157.421 271.085 113.445C279.545 69.4683 322.966 40.7877 368.132 49.4759C413.297 58.1641 442.979 100.907 434.52 144.884Z" fill="#F7B81F" stroke="#1F3155" stroke-width="3"/>
<path d="M297.678 120.03C304.486 126.539 309.465 127.685 311.104 127.444C310.724 133.566 313.919 142.587 314.152 145.672C314.339 148.139 308.361 156.792 305.349 160.809C309.188 159.241 318.662 158.682 322.919 158.598C328.052 164.676 341 169.41 346.832 171.017C344.552 176.979 340.971 181.273 339.465 182.674C331.54 188.97 298.895 179.251 283.564 173.604C286.67 169.727 288.766 164.19 290.092 144.889C291.153 129.449 295.591 121.883 297.678 120.03Z" fill="#1F3155"/>
<path d="M363.997 74.1826C357.494 80.9922 356.376 85.9472 356.63 87.5735C350.466 87.2398 341.408 90.4769 338.305 90.7308C335.823 90.934 327.072 85.0557 323.007 82.0912C324.613 85.8943 325.243 95.3026 325.357 99.5314C319.276 104.675 314.602 117.571 313.025 123.377C307.008 121.154 302.662 117.626 301.241 116.14C294.848 108.311 304.401 75.8099 309.976 60.5379C313.9 63.5968 319.488 65.64 338.923 66.8218C354.472 67.7672 362.118 72.1229 363.997 74.1826Z" fill="#1F3155"/>
<path d="M409.472 138.82C402.524 132.458 397.521 131.419 395.888 131.695C396.135 125.566 392.746 116.615 392.446 113.537C392.205 111.073 397.995 102.295 400.919 98.2143C397.115 99.8644 387.656 100.626 383.401 100.801C378.137 94.834 365.09 90.3777 359.225 88.8954C361.375 82.8859 364.863 78.5172 366.338 77.084C374.124 70.6201 406.972 79.6393 422.422 84.9569C419.401 88.8998 417.425 94.4803 416.517 113.805C415.79 129.264 411.517 136.923 409.472 138.82Z" fill="#1F3155"/>
<path d="M343.945 182.58C350.645 175.961 351.908 171.041 351.702 169.408C357.854 169.92 367.002 166.946 370.111 166.782C372.599 166.651 381.173 172.78 385.15 175.861C383.656 172.013 383.302 162.59 383.312 158.36C389.542 153.395 394.591 140.639 396.337 134.882C402.287 137.278 406.528 140.93 407.905 142.457C414.065 150.467 403.564 182.678 397.543 197.782C393.71 194.611 388.185 192.407 368.792 190.663C353.279 189.268 345.763 184.693 343.945 182.58Z" fill="#1F3155"/>
<path d="M360.794 148.35L361.76 143.56C346.558 141.796 339.376 130.23 337.686 124.668L332.438 131.279C333.536 155.413 351.799 152.716 360.794 148.35Z" fill="#111C32"/>
<path d="M344.155 119.273C354.087 124.849 359.294 135.373 360.656 139.938C349.028 139.371 342.223 127.84 340.273 122.145L344.155 119.273Z" fill="#111C32"/>
<path d="M363.535 121.432C364.832 124.218 363.851 132.999 363.198 137.041C362.035 129.226 352.011 120.554 347.144 117.195L349.238 115.911C348.603 115.825 347.747 115.662 349.402 115.7C351.472 115.748 361.914 117.949 363.535 121.432Z" fill="#111C32"/>
<path d="M368.283 123.351C375.601 126.85 378.84 130.436 379.545 131.792C376.023 138.576 368.477 143.4 365.144 144.964C367.461 141.245 368.202 129.006 368.283 123.351Z" fill="#111C32"/>
<path d="M355.379 112.677C373.14 116.312 385.758 130.435 389.847 137.042C391.918 134.052 393.294 109.657 380.948 106.59C371.071 104.137 359.787 109.626 355.379 112.677Z" fill="#182846"/>
<path d="M379.164 102.711C359.804 100.215 339.496 117.25 331.761 126.079C331.9 110.843 338.305 99.7159 341.489 96.0566C358.635 87.2227 373.75 96.8119 379.164 102.711Z" fill="#182846"/>
<path d="M336.661 151.48C320.133 129.62 330.153 105.343 337.229 95.937C310.56 112.207 314.624 134.209 319.99 143.177C322.057 148.936 331.965 151.112 336.661 151.48Z" fill="#182846"/>
<path d="M382.253 135.286C385.488 137.194 387.471 141.551 388.058 143.49C371.602 177.154 333.528 168.233 323.423 152.853C355.517 162.552 376.016 145.183 382.253 135.286Z" fill="#182846"/>
<path d="M142.22 111.975C148.352 117.837 152.838 118.87 154.314 118.653C153.972 124.167 156.849 132.293 157.06 135.072C157.228 137.295 151.843 145.089 149.13 148.708C152.588 147.295 161.122 146.791 164.957 146.715C169.581 152.19 181.244 156.455 186.497 157.902C184.444 163.273 181.217 167.14 179.861 168.403C172.723 174.074 143.317 165.319 129.506 160.233C132.305 156.74 134.193 151.752 135.387 134.367C136.343 120.459 140.341 113.644 142.22 111.975Z" fill="#1F3155"/>
<path d="M201.96 70.676C196.102 76.81 195.095 81.2734 195.324 82.7383C189.771 82.4377 181.612 85.3536 178.817 85.5823C176.581 85.7653 168.699 80.4703 165.037 77.7999C166.483 81.2257 167.051 89.7005 167.154 93.5097C161.676 98.1425 157.466 109.76 156.046 114.989C150.626 112.987 146.711 109.809 145.431 108.47C139.672 101.418 148.277 72.1419 153.299 58.3852C156.834 61.1406 161.867 62.9811 179.374 64.0456C193.379 64.8973 200.267 68.8207 201.96 70.676Z" fill="#1F3155"/>
<path d="M242.923 128.9C236.665 123.169 232.158 122.233 230.687 122.482C230.909 116.961 227.857 108.898 227.586 106.125C227.37 103.906 232.585 95.9994 235.219 92.3232C231.792 93.8096 223.271 94.4957 219.439 94.653C214.697 89.2783 202.945 85.2642 197.661 83.929C199.598 78.5157 202.74 74.5805 204.069 73.2895C211.082 67.467 240.671 75.5913 254.589 80.3812C251.867 83.9329 250.087 88.9597 249.269 106.367C248.615 120.292 244.765 127.191 242.923 128.9Z" fill="#1F3155"/>
<path d="M183.899 168.318C189.934 162.356 191.072 157.924 190.886 156.453C196.428 156.914 204.669 154.236 207.469 154.088C209.71 153.97 217.433 159.49 221.015 162.266C219.67 158.799 219.351 150.312 219.36 146.501C224.971 142.029 229.52 130.539 231.093 125.353C236.452 127.511 240.272 130.801 241.512 132.176C247.062 139.392 237.603 168.406 232.179 182.012C228.727 179.155 223.749 177.17 206.281 175.599C192.307 174.343 185.537 170.222 183.899 168.318Z" fill="#1F3155"/>
<path d="M199.076 137.485L199.947 133.17C186.253 131.581 179.784 121.163 178.261 116.153L173.533 122.107C174.523 143.846 190.974 141.417 199.076 137.485Z" fill="#111C32"/>
<path d="M184.087 111.293C193.034 116.315 197.724 125.795 198.95 129.907C188.477 129.396 182.346 119.01 180.59 113.88L184.087 111.293Z" fill="#111C32"/>
<path d="M201.544 113.238C202.712 115.747 201.828 123.657 201.24 127.298C200.193 120.259 191.163 112.447 186.779 109.421L188.665 108.264C188.093 108.187 187.322 108.041 188.814 108.075C190.678 108.118 200.083 110.101 201.544 113.238Z" fill="#111C32"/>
<path d="M205.822 114.966C212.414 118.118 215.332 121.348 215.967 122.569C212.794 128.68 205.997 133.025 202.995 134.434C205.082 131.084 205.749 120.059 205.822 114.966Z" fill="#111C32"/>
<path d="M194.197 105.351C210.195 108.625 221.561 121.347 225.245 127.298C227.11 124.605 228.35 102.631 217.228 99.8684C208.332 97.6583 198.167 102.603 194.197 105.351Z" fill="#182846"/>
<path d="M215.62 96.3739C198.181 94.126 179.888 109.47 172.921 117.423C173.046 103.7 178.815 93.6762 181.684 90.3799C197.128 82.4226 210.743 91.0603 215.62 96.3739Z" fill="#182846"/>
<path d="M177.338 140.305C162.45 120.613 171.476 98.7453 177.85 90.2728C153.826 104.928 157.488 124.748 162.321 132.825C164.183 138.013 173.108 139.973 177.338 140.305Z" fill="#182846"/>
<path d="M218.403 125.717C221.318 127.436 223.104 131.36 223.633 133.107C208.809 163.431 174.513 155.395 165.41 141.541C194.32 150.277 212.785 134.631 218.403 125.717Z" fill="#182846"/>
<path d="M148.021 273.616C155.452 280.721 160.887 281.971 162.676 281.709C162.262 288.391 165.749 298.238 166.004 301.605C166.208 304.298 159.683 313.742 156.394 318.128C160.585 316.416 170.926 315.805 175.573 315.714C181.176 322.348 195.309 327.516 201.675 329.27C199.187 335.778 195.277 340.464 193.633 341.994C184.984 348.866 149.351 338.257 132.615 332.094C136.006 327.861 138.294 321.818 139.742 300.75C140.9 283.897 145.744 275.639 148.021 273.616Z" fill="#1F3155"/>
<path d="M220.41 223.572C213.312 231.005 212.092 236.414 212.369 238.189C205.64 237.825 195.754 241.358 192.367 241.635C189.657 241.857 180.106 235.441 175.669 232.205C177.421 236.356 178.109 246.626 178.233 251.241C171.596 256.855 166.494 270.932 164.773 277.269C158.206 274.843 153.461 270.992 151.91 269.37C144.933 260.825 155.359 225.349 161.445 208.679C165.728 212.018 171.827 214.248 193.042 215.538C210.013 216.57 218.359 221.324 220.41 223.572Z" fill="#1F3155"/>
<path d="M270.046 294.126C262.463 287.182 257.002 286.048 255.219 286.348C255.488 279.659 251.789 269.889 251.461 266.528C251.199 263.84 257.518 254.258 260.711 249.803C256.558 251.604 246.233 252.436 241.589 252.627C235.843 246.114 221.602 241.249 215.2 239.632C217.547 233.072 221.354 228.303 222.964 226.739C231.463 219.683 267.317 229.528 284.182 235.332C280.884 239.636 278.727 245.728 277.736 266.821C276.943 283.695 272.279 292.055 270.046 294.126Z" fill="#1F3155"/>
<path d="M198.525 341.891C205.838 334.667 207.217 329.296 206.992 327.513C213.707 328.072 223.693 324.826 227.086 324.647C229.801 324.504 239.161 331.194 243.501 334.557C241.871 330.357 241.485 320.072 241.496 315.454C248.295 310.035 253.807 296.112 255.713 289.827C262.207 292.442 266.836 296.429 268.339 298.096C275.063 306.839 263.601 341.998 257.029 358.485C252.845 355.023 246.814 352.618 225.647 350.714C208.713 349.192 200.51 344.198 198.525 341.891Z" fill="#1F3155"/>
<path d="M216.914 304.528L217.969 299.3C201.375 297.374 193.536 284.75 191.691 278.679L185.962 285.894C187.161 312.237 207.096 309.293 216.914 304.528Z" fill="#111C32"/>
<path d="M198.754 272.79C209.595 278.876 215.279 290.363 216.765 295.345C204.073 294.727 196.645 282.141 194.517 275.925L198.754 272.79Z" fill="#111C32"/>
<path d="M219.908 275.147C221.323 278.188 220.253 287.772 219.54 292.184C218.271 283.655 207.329 274.189 202.017 270.522L204.302 269.12C203.609 269.026 202.675 268.849 204.482 268.89C206.741 268.943 218.138 271.346 219.908 275.147Z" fill="#111C32"/>
<path d="M225.09 277.241C233.078 281.061 236.613 284.975 237.383 286.455C233.539 293.86 225.302 299.125 221.665 300.832C224.193 296.773 225.002 283.413 225.09 277.241Z" fill="#111C32"/>
<path d="M211.004 265.59C230.39 269.558 244.163 284.973 248.627 292.185C250.887 288.922 252.389 262.294 238.913 258.947C228.132 256.268 215.815 262.26 211.004 265.59Z" fill="#182846"/>
<path d="M236.965 254.712C215.833 251.988 193.666 270.581 185.224 280.218C185.375 263.589 192.366 251.443 195.842 247.449C214.556 237.806 231.055 248.273 236.965 254.712Z" fill="#182846"/>
<path d="M190.574 307.945C172.533 284.084 183.47 257.585 191.194 247.318C162.084 265.077 166.52 289.094 172.377 298.882C174.633 305.168 185.449 307.543 190.574 307.945Z" fill="#182846"/>
<path d="M240.338 290.268C243.869 292.351 246.034 297.107 246.674 299.224C228.712 335.969 187.153 326.232 176.123 309.444C211.155 320.03 233.529 301.071 240.338 290.268Z" fill="#182846"/>
</svg>
