<svg width="448" height="186" viewBox="0 0 448 186" fill="none" xmlns="http://www.w3.org/2000/svg">
<path d="M432 71C295.988 73.9571 22.9712 79.4278 19 77.6535" stroke="#1F3155" stroke-width="3"/>
<path d="M433 88L19 91" stroke="#1F3155" stroke-width="3"/>
<path d="M431 58C300.29 63.6081 35.2954 72.845 21 64.9277" stroke="#1F3155" stroke-width="3"/>
<path d="M429 42C310.205 48.6311 62.0913 60.3776 20 54.3149" stroke="#1F3155" stroke-width="3"/>
<path d="M430 42C296.298 44.2639 25.9141 47.4333 14 42" stroke="#1F3155" stroke-width="3"/>
<path d="M437.91 5.74289C439.899 11.718 457.797 160.1 432.938 181.012L414.046 184L5.37262 182.008C4.70973 178.357 4.97489 171.054 11.3387 171.054C17.7024 171.054 288.15 171.718 422.578 172.05C438.597 138.717 435.151 64.5389 427.379 25.6598C425.159 14.5513 422.585 6.32441 420.012 2.75534C420.807 8.3321 415.704 10.3902 413.052 10.7221L10.3452 16.6972C-4.76876 13.5105 4.04771 7.4026 10.3452 4.747L420.012 2.75534C425.315 1.75956 436.319 0.963037 437.91 5.74289Z" fill="#DFA71F"/>
<path d="M414.046 184L432.938 181.012C457.797 160.1 439.899 11.718 437.91 5.74289C436.319 0.963037 425.315 1.75956 420.012 2.75534M414.046 184L5.37262 182.008C4.70973 178.357 4.97489 171.054 11.3387 171.054C17.7024 171.054 288.15 171.718 422.578 172.05M414.046 184C417.358 181.097 420.185 177.029 422.578 172.05M420.012 2.75534L10.3452 4.74701C4.04771 7.4026 -4.76876 13.5105 10.3452 16.6972L413.052 10.7221C415.704 10.3902 420.807 8.3321 420.012 2.75534ZM420.012 2.75534C422.585 6.32441 425.159 14.5513 427.379 25.6598C435.151 64.5389 438.597 138.717 422.578 172.05" stroke="#1F3155" stroke-width="3"/>
<path d="M427 26C305.22 29.8566 52.3282 35.7897 15 28.6699" stroke="#1F3155" stroke-width="3"/>
<path d="M434.5 100C325.955 102.488 97.9447 108.529 97.9447 108.529C97.9447 108.529 40.8413 108.884 19 108.529" stroke="#1F3155" stroke-width="3"/>
<path d="M433.5 115.103C357.713 113.816 204.154 112.593 196.211 118C188.269 123.407 71.2609 122.184 15 120.897" stroke="#1F3155" stroke-width="3"/>
<path d="M432 127C294.662 131.182 22 134.5 18 133.274" stroke="#1F3155" stroke-width="3"/>
<path d="M431 144L16 147" stroke="#1F3155" stroke-width="3"/>
<path d="M428 157C311.186 160.74 65.4464 166.587 17 160.06" stroke="#1F3155" stroke-width="3"/>
</svg>
