<svg width="1172" height="734" viewBox="0 0 1172 734" fill="none" xmlns="http://www.w3.org/2000/svg">
<path d="M1172 19.0129V734H813.5L861 9.00616L1172 19.0129Z" fill="#182846"/>
<path d="M34.5 0L536 10.0068L264 730.498L0 725.494L34.5 0Z" fill="#182846"/>
<path d="M574.227 700.047C554.605 715.285 434.176 741.189 109.437 722.904L42.3803 697.691L26 691.532L53.6417 21.9685L111.484 11.6463L134.007 7.62708C285.905 2.84661 552.5 4.00026 589.071 21.9685C662 11.0225 836 4.00069 1052.33 21.9685L1079.46 25.3432L1097.88 27.6355L1121.94 30.6282L1146 33.6208V708.115L1125.65 711.812L1105.31 715.509L1064.61 722.904C928.558 732.969 640.008 742.49 574.227 700.047Z" fill="white"/>
<path d="M589.071 21.9685L574.227 700.047M589.071 21.9685C552.5 4.00026 285.905 2.84661 134.007 7.62708M589.071 21.9685C662 11.0225 836 4.00069 1052.33 21.9685M574.227 700.047C554.605 715.285 434.176 741.189 109.437 722.904M574.227 700.047C640.008 742.49 928.558 732.969 1064.61 722.904M109.437 722.904L134.007 7.62708M109.437 722.904L42.3803 697.691M134.007 7.62708L111.484 11.6463M1052.33 21.9685L1064.61 722.904M1052.33 21.9685L1079.46 25.3432M1064.61 722.904L1105.31 715.509M1079.46 25.3432V349.131M1079.46 25.3432L1097.88 27.6355M1105.31 715.509V447.728M1105.31 715.509L1125.65 711.812M1125.65 711.812L1146 708.114V33.6208L1121.94 30.6282M1125.65 711.812V603.243M1097.88 27.6355V261.739M1097.88 27.6355L1121.94 30.6282M1121.94 30.6282V111.602M111.484 11.6463L53.6417 21.9685L26 691.532L42.3803 697.691M111.484 11.6463L92.0329 550.359M42.3803 697.691L65.415 225.437" stroke="#1F3155" stroke-width="5"/>
</svg>
