<svg width="684" height="91" viewBox="0 0 684 91" fill="none" xmlns="http://www.w3.org/2000/svg">
<path d="M20.3547 85.1348C-10.484 58.5036 4.02685 7.0106 20.9376 7.13699L664.588 4.94734C692.25 30.7548 683.967 74.0941 664.005 82.9452L20.3547 85.1348Z" fill="#F7B81F" stroke="#1F3155" stroke-width="3"/>
<path d="M35.5982 7.24648C34.4618 9.5532 33.2533 12.5131 32.1274 15.9929C31.3615 18.3602 30.6338 20.9681 29.9931 23.7747C29.3965 26.3875 28.8754 29.1724 28.4688 32.0957C28.1018 34.7351 27.8281 37.4874 27.6769 40.3274C27.5285 43.1153 27.4979 45.9877 27.6127 48.9212C27.7148 51.532 27.932 54.1911 28.2836 56.882C28.6215 59.4687 29.0837 62.0848 29.6871 64.7153C30.2387 67.12 30.9084 69.5369 31.7092 71.9546C32.4203 74.1015 33.2349 76.2492 34.162 78.3896C35.013 80.3542 35.9588 82.3128 37.0066 84.2592C33.4231 84.2324 29.7265 82.0102 26.3206 78.331C24.6329 76.508 23.0166 74.3272 21.5208 71.8784C20.165 69.6589 18.9082 67.2192 17.7869 64.6264C16.709 62.1335 15.7563 59.4991 14.9615 56.7825C14.2012 54.1838 13.5853 51.51 13.1423 48.813C12.6723 45.9516 12.3969 43.0642 12.3501 40.2129C12.3042 37.414 12.4785 34.6499 12.9053 31.9793C13.4247 28.7291 14.3179 25.6176 15.643 22.7506C16.794 20.2604 18.2707 17.9548 20.1111 15.9031C23.752 11.8445 28.8164 8.77974 35.5982 7.24648Z" fill="#F7B81F"/>
<path d="M32.1274 15.9929C33.2533 12.5131 34.4618 9.5532 35.5982 7.24648C28.8164 8.77974 23.752 11.8445 20.1111 15.9031M32.1274 15.9929L20.1111 15.9031M32.1274 15.9929C31.3615 18.3602 30.6338 20.9681 29.9931 23.7747M20.1111 15.9031C18.2707 17.9548 16.794 20.2604 15.643 22.7506M29.9931 23.7747L15.643 22.7506M29.9931 23.7747C29.3965 26.3875 28.8754 29.1724 28.4688 32.0957M15.643 22.7506C14.3179 25.6176 13.4247 28.7291 12.9053 31.9793M28.4688 32.0957L12.9053 31.9793M28.4688 32.0957C28.1018 34.7351 27.8281 37.4874 27.6769 40.3274M12.9053 31.9793C12.4785 34.6499 12.3042 37.414 12.3501 40.2129M27.6769 40.3274L12.3501 40.2129M27.6769 40.3274C27.5285 43.1153 27.4979 45.9877 27.6127 48.9212M12.3501 40.2129C12.3969 43.0642 12.6723 45.9516 13.1423 48.813M27.6127 48.9212L13.1423 48.813M27.6127 48.9212C27.7148 51.532 27.932 54.1911 28.2836 56.882M13.1423 48.813C13.5853 51.51 14.2012 54.1838 14.9615 56.7825M28.2836 56.882L14.9615 56.7825M28.2836 56.882C28.6215 59.4687 29.0837 62.0848 29.6871 64.7153M14.9615 56.7825C15.7563 59.4991 16.709 62.1335 17.7869 64.6264M29.6871 64.7153L17.7869 64.6264M29.6871 64.7153C30.2387 67.12 30.9084 69.5369 31.7092 71.9546M17.7869 64.6264C18.9082 67.2192 20.165 69.6589 21.5208 71.8785M31.7092 71.9546L21.5208 71.8785M31.7092 71.9546C32.4203 74.1015 33.2349 76.2492 34.162 78.3896M21.5208 71.8785C23.0166 74.3272 24.6329 76.508 26.3206 78.331M34.162 78.3896C35.013 80.3542 35.9588 82.3128 37.0066 84.2592C33.4231 84.2324 29.7265 82.0102 26.3206 78.331M34.162 78.3896L26.3206 78.331" stroke="#1F3155" stroke-width="3"/>
<path d="M615.497 83.0871L535.998 83.4002C533.874 80.0397 532.165 76.1248 530.809 70.9493C530.068 68.1198 529.443 65.0894 528.938 61.935C528.47 59.018 528.104 55.9949 527.842 52.9266C527.53 49.2884 527.365 45.5866 527.347 41.9226C527.33 38.5308 527.441 35.1713 527.681 31.9248C527.912 28.7988 528.263 25.7774 528.735 22.9324C529.224 19.99 529.843 17.2364 530.595 14.751C531.668 11.2019 533.071 7.62847 534.691 5.40469L614.19 5.09162C612.685 6.90475 611.321 10.7522 610.304 13.5418C609.536 15.6499 608.903 17.9981 608.397 20.5277C607.778 23.6222 607.349 26.9881 607.098 30.5183C606.868 33.7414 606.786 37.1014 606.841 40.5167C606.878 42.8339 606.979 45.1765 607.139 47.5191C607.231 48.8549 607.342 50.1907 607.471 51.5217C607.537 52.1903 607.607 52.8577 607.681 53.5233C607.908 55.5476 608.179 57.5553 608.49 59.5295C609.039 63.0021 609.714 66.3711 610.506 69.5449C611.851 74.9381 613.539 79.272 615.497 83.0871Z" fill="#F7B81F"/>
<path d="M530.595 14.751C531.668 11.2019 533.071 7.62847 534.691 5.40469L614.19 5.09162C612.685 6.90475 611.321 10.7522 610.304 13.5418M530.595 14.751L610.304 13.5418M530.595 14.751C529.843 17.2364 529.224 19.99 528.735 22.9324M610.304 13.5418C609.536 15.6499 608.903 17.9981 608.397 20.5277M610.304 13.5418L671.217 11.8671M528.735 22.9324L608.397 20.5277M528.735 22.9324C528.263 25.7774 527.912 28.7988 527.681 31.9248M608.397 20.5277C607.778 23.6222 607.349 26.9881 607.098 30.5183M608.397 20.5277L676.25 20.2605M527.681 31.9248L607.098 30.5183M527.681 31.9248C527.441 35.1713 527.33 38.5308 527.347 41.9226M607.098 30.5183C606.868 33.7414 606.786 37.1014 606.841 40.5167M607.098 30.5183L679.28 27.8355M527.347 41.9226L606.841 40.5167M527.347 41.9226C527.365 45.5866 527.53 49.2884 527.842 52.9266M606.841 40.5167C606.878 42.8339 606.979 45.1765 607.139 47.5191M606.841 40.5167L681.208 35.8279M527.842 52.9266L607.471 51.5217M527.842 52.9266C528.104 55.9949 528.47 59.018 528.938 61.935M607.471 51.5217C607.537 52.1903 607.607 52.8577 607.681 53.5233M607.471 51.5217C607.342 50.1907 607.231 48.8549 607.139 47.5191M528.938 61.935L608.49 59.5295M528.938 61.935C529.443 65.0894 530.068 68.1198 530.809 70.9493M608.49 59.5295C609.039 63.0021 609.714 66.3711 610.506 69.5449M608.49 59.5295L680.906 59.8293M608.49 59.5295C608.179 57.5553 607.908 55.5476 607.681 53.5233M530.809 70.9493C532.165 76.1248 533.874 80.0397 535.998 83.4002L615.497 83.0871C613.539 79.272 611.851 74.9381 610.506 69.5449M530.809 70.9493L610.506 69.5449M610.506 69.5449L677.173 69.0431M607.681 53.5233L681.875 51.8254M607.139 47.5191L682.325 44.0809" stroke="#1F3155" stroke-width="3"/>
</svg>
