<svg width="684" height="603" viewBox="0 0 684 603" fill="none" xmlns="http://www.w3.org/2000/svg">
<path d="M20.3542 85.1348C-10.4845 58.5036 4.02636 7.0106 20.9371 7.13699L664.588 4.94734C692.25 30.7548 683.967 74.0941 664.005 82.9452L20.3542 85.1348Z" fill="#F7B81F" stroke="#1F3155" stroke-width="3"/>
<path d="M521 154C384.988 156.957 111.971 162.428 108 160.654" stroke="#1F3155" stroke-width="3"/>
<path d="M522 171L108 174" stroke="#1F3155" stroke-width="3"/>
<path d="M520 141C389.29 146.608 124.295 155.845 110 147.928" stroke="#1F3155" stroke-width="3"/>
<path d="M518 125C399.205 131.631 151.091 143.378 109 137.315" stroke="#1F3155" stroke-width="3"/>
<path d="M519 125C385.298 127.264 114.914 130.433 103 125" stroke="#1F3155" stroke-width="3"/>
<path d="M526.91 88.7429C528.899 94.718 546.797 243.1 521.938 264.012L503.046 267L94.3726 265.008C93.7097 261.357 93.9749 254.054 100.339 254.054C106.702 254.054 377.15 254.718 511.578 255.05C527.597 221.717 524.151 147.539 516.379 108.66C514.159 97.5513 511.585 89.3244 509.012 85.7553C509.807 91.3321 504.704 93.3902 502.052 93.7221L99.3452 99.6972C84.2312 96.5105 93.0477 90.4026 99.3452 87.747L509.012 85.7553C514.315 84.7596 525.319 83.963 526.91 88.7429Z" fill="#CE9408"/>
<path d="M503.046 267L521.938 264.012C546.797 243.1 528.899 94.718 526.91 88.7429C525.319 83.963 514.315 84.7596 509.012 85.7553M503.046 267L94.3726 265.008C93.7097 261.357 93.9749 254.054 100.339 254.054C106.702 254.054 377.15 254.718 511.578 255.05M503.046 267C506.358 264.097 509.185 260.029 511.578 255.05M509.012 85.7553L99.3452 87.747C93.0477 90.4026 84.2312 96.5105 99.3452 99.6972L502.052 93.7221C504.704 93.3902 509.807 91.3321 509.012 85.7553ZM509.012 85.7553C511.585 89.3244 514.159 97.5513 516.379 108.66C524.151 147.539 527.597 221.717 511.578 255.05" stroke="#1F3155" stroke-width="3"/>
<path d="M516 109C394.22 112.857 141.328 118.79 104 111.67" stroke="#1F3155" stroke-width="3"/>
<path d="M523.5 183C414.955 185.488 186.945 191.529 186.945 191.529C186.945 191.529 129.841 191.884 108 191.529" stroke="#1F3155" stroke-width="3"/>
<path d="M522.5 198.103C446.713 196.816 293.154 195.593 285.211 201C277.269 206.407 160.261 205.184 104 203.897" stroke="#1F3155" stroke-width="3"/>
<path d="M521 210C383.662 214.182 111 217.5 107 216.274" stroke="#1F3155" stroke-width="3"/>
<path d="M520 227L105 230" stroke="#1F3155" stroke-width="3"/>
<path d="M517 240C400.186 243.74 154.446 249.587 106 243.06" stroke="#1F3155" stroke-width="3"/>
<path d="M35.5975 7.24672C34.4611 9.55345 33.2526 12.5134 32.1267 15.9932C31.3608 18.3605 30.6331 20.9684 29.9923 23.7749C29.3958 26.3877 28.8746 29.1727 28.4681 32.0959C28.101 34.7354 27.8274 37.4876 27.6762 40.3277C27.5277 43.1155 27.4972 45.9879 27.6119 48.9214C27.7141 51.5322 27.9313 54.1914 28.2829 56.8823C28.6208 59.469 29.0829 62.085 29.6864 64.7156C30.2379 67.1203 30.9076 69.5371 31.7084 71.9548C32.4196 74.1018 33.2341 76.2494 34.1613 78.3899C35.0123 80.3545 35.9581 82.313 37.0059 84.2594C33.4223 84.2326 29.7257 82.0104 26.3198 78.3313C24.6322 76.5082 23.0159 74.3274 21.5201 71.8787C20.1643 69.6591 18.9074 67.2195 17.7862 64.6266C16.7082 62.1338 15.7556 59.4993 14.9608 56.7827C14.2005 54.1841 13.5846 51.5102 13.1416 48.8133C12.6716 45.9519 12.3962 43.0645 12.3494 40.2131C12.3035 37.4142 12.4778 34.6501 12.9045 31.9796C13.4239 28.7294 14.3172 25.6178 15.6423 22.7508C16.7932 20.2607 18.2699 17.955 20.1104 15.9034C23.7513 11.8447 28.8157 8.77998 35.5975 7.24672Z" fill="#F7B81F"/>
<path d="M32.1267 15.9932C33.2526 12.5134 34.4611 9.55345 35.5975 7.24672C28.8157 8.77998 23.7513 11.8447 20.1104 15.9034M32.1267 15.9932L20.1104 15.9034M32.1267 15.9932C31.3608 18.3605 30.6331 20.9684 29.9923 23.7749M20.1104 15.9034C18.2699 17.955 16.7932 20.2607 15.6423 22.7508M29.9923 23.7749L15.6423 22.7508M29.9923 23.7749C29.3958 26.3877 28.8746 29.1727 28.4681 32.0959M15.6423 22.7508C14.3172 25.6178 13.4239 28.7294 12.9045 31.9796M28.4681 32.0959L12.9045 31.9796M28.4681 32.0959C28.101 34.7354 27.8274 37.4876 27.6762 40.3277M12.9045 31.9796C12.4778 34.6501 12.3035 37.4142 12.3494 40.2131M27.6762 40.3277L12.3494 40.2131M27.6762 40.3277C27.5277 43.1155 27.4972 45.9879 27.6119 48.9214M12.3494 40.2131C12.3962 43.0645 12.6716 45.9519 13.1416 48.8133M27.6119 48.9214L13.1416 48.8133M27.6119 48.9214C27.7141 51.5322 27.9313 54.1914 28.2829 56.8823M13.1416 48.8133C13.5846 51.5102 14.2005 54.1841 14.9608 56.7827M28.2829 56.8823L14.9608 56.7827M28.2829 56.8823C28.6208 59.469 29.0829 62.085 29.6863 64.7156M14.9608 56.7827C15.7556 59.4993 16.7082 62.1338 17.7862 64.6266M29.6863 64.7156L17.7862 64.6266M29.6863 64.7156C30.2379 67.1203 30.9076 69.5371 31.7084 71.9548M17.7862 64.6266C18.9074 67.2195 20.1643 69.6591 21.5201 71.8787M31.7084 71.9548L21.5201 71.8787M31.7084 71.9548C32.4196 74.1018 33.2341 76.2494 34.1613 78.3899M21.5201 71.8787C23.0159 74.3274 24.6322 76.5082 26.3198 78.3313M34.1613 78.3899C35.0123 80.3545 35.9581 82.313 37.0059 84.2594C33.4223 84.2326 29.7257 82.0104 26.3198 78.3313M34.1613 78.3899L26.3198 78.3313" stroke="#1F3155" stroke-width="3"/>
<path d="M615.497 83.0873L535.998 83.4004C533.874 80.0399 532.164 76.1251 530.808 70.9495C530.067 68.1201 529.443 65.0897 528.937 61.9353C528.47 59.0182 528.104 55.9951 527.841 52.9268C527.53 49.2886 527.364 45.5868 527.346 41.9228C527.33 38.531 527.441 35.1716 527.68 31.9251C527.911 28.799 528.262 25.7776 528.735 22.9327C529.224 19.9903 529.843 17.2367 530.594 14.7513C531.668 11.2022 533.07 7.62871 534.69 5.40494L614.19 5.09186C612.684 6.90499 611.32 10.7524 610.304 13.542C609.536 15.6502 608.902 17.9983 608.396 20.528C607.777 23.6224 607.349 26.9884 607.097 30.5186C606.868 33.7416 606.786 37.1016 606.841 40.5169C606.878 42.8341 606.978 45.1767 607.139 47.5193C607.23 48.8551 607.341 50.1909 607.471 51.5219C607.536 52.1905 607.606 52.8579 607.681 53.5236C607.908 55.5479 608.178 57.5556 608.49 59.5298C609.038 63.0024 609.714 66.3714 610.506 69.5451C611.851 74.9384 613.539 79.2722 615.497 83.0873Z" fill="#F7B81F"/>
<path d="M530.594 14.7513C531.668 11.2022 533.07 7.62871 534.69 5.40494L614.19 5.09186C612.684 6.90499 611.32 10.7524 610.304 13.542M530.594 14.7513L610.304 13.542M530.594 14.7513C529.843 17.2367 529.224 19.9903 528.735 22.9327M610.304 13.542C609.536 15.6502 608.902 17.9984 608.396 20.528M610.304 13.542L671.217 11.8673M528.735 22.9327L608.396 20.528M528.735 22.9327C528.262 25.7776 527.911 28.799 527.68 31.9251M608.396 20.528C607.777 23.6224 607.349 26.9884 607.097 30.5186M608.396 20.528L676.25 20.2608M527.68 31.9251L607.097 30.5186M527.68 31.9251C527.441 35.1716 527.33 38.531 527.346 41.9228M607.097 30.5186C606.868 33.7416 606.786 37.1016 606.841 40.5169M607.097 30.5186L679.28 27.8357M527.346 41.9228L606.841 40.5169M527.346 41.9228C527.364 45.5868 527.53 49.2886 527.841 52.9268M606.841 40.5169C606.878 42.8341 606.978 45.1767 607.139 47.5193M606.841 40.5169L681.208 35.8282M527.841 52.9268L607.471 51.5219M527.841 52.9268C528.104 55.9951 528.47 59.0182 528.937 61.9353M607.471 51.5219C607.536 52.1905 607.606 52.8579 607.681 53.5236M607.471 51.5219C607.341 50.1909 607.23 48.8551 607.139 47.5193M528.937 61.9353L608.49 59.5298M528.937 61.9353C529.443 65.0897 530.067 68.12 530.808 70.9495M608.49 59.5298C609.038 63.0024 609.714 66.3714 610.506 69.5451M608.49 59.5298L680.906 59.8296M608.49 59.5298C608.178 57.5556 607.908 55.5479 607.681 53.5236M530.808 70.9495C532.164 76.1251 533.874 80.0399 535.998 83.4004L615.497 83.0873C613.539 79.2722 611.851 74.9384 610.506 69.5451M530.808 70.9495L610.506 69.5451M610.506 69.5451L677.172 69.0433M607.681 53.5236L681.874 51.8257M607.139 47.5193L682.324 44.0812" stroke="#1F3155" stroke-width="3"/>
<path d="M15.1186 391.052C1.06101 346.52 7.1129 288.483 11.896 265.031L643.564 268.823C663.364 284.816 651.76 394.875 642.808 394.821L15.1186 391.052Z" fill="#1F3155"/>
<path d="M55.7192 515.824C37.5792 496.663 39.7562 395.833 56.6925 391.011L569.559 395.01C583.847 398.292 583.618 504.09 568.624 514.87L55.7192 515.824Z" fill="white" stroke="#1F3155" stroke-width="3"/>
<path d="M97.6321 515.317C83.1313 501.338 80.6308 402.982 95.6319 391.999H72.1295C57.1284 402.982 59.6289 501.338 74.1297 515.317H97.6321Z" fill="#182846" stroke="#182846" stroke-width="3"/>
<path d="M524.037 513.819C538.537 499.84 542.539 405.978 527.537 394.994H551.539C566.54 405.978 564.04 499.84 549.54 513.819H524.037Z" fill="#182846" stroke="#182846" stroke-width="3"/>
<path d="M20.3538 595.207C-10.3755 568.449 4.34617 517.016 21.2563 517.212L664.91 517.659C692.466 543.58 684.006 586.885 664.008 595.654L20.3538 595.207Z" fill="#1F3155" stroke="#E9AC19" stroke-width="3"/>
<path d="M32.4092 526.114C33.5493 522.639 34.77 519.684 35.9158 517.382C29.1278 518.887 24.0509 521.931 20.3934 525.975M32.4092 526.114L20.3934 525.975M32.4092 526.114C31.6336 528.478 30.8953 531.083 30.243 533.887M20.3934 525.975C18.5446 528.019 17.0584 530.318 15.8973 532.804M30.243 533.887L15.8973 532.804M30.243 533.887C29.6358 536.497 29.1032 539.28 28.6847 542.201M15.8973 532.804C14.5604 535.665 13.6544 538.773 13.1217 542.021M28.6847 542.201L13.1217 542.021M28.6847 542.201C28.3068 544.839 28.0219 547.59 27.8591 550.43M13.1217 542.021C12.6841 544.69 12.4984 547.453 12.5329 550.252M27.8591 550.43L12.5329 550.252M27.8591 550.43C27.6992 553.217 27.6569 556.089 27.7596 559.023M12.5329 550.252C12.568 553.104 12.8315 555.992 13.2898 558.856M27.7596 559.023L13.2898 558.856M27.7596 559.023C27.851 561.634 28.0574 564.294 28.3979 566.987M13.2898 558.856C13.7218 561.554 14.3267 564.231 15.0763 566.833M28.3979 566.987L15.0763 566.833M28.3979 566.987C28.7253 569.575 29.1767 572.193 29.7693 574.826M15.0763 566.833C15.86 569.552 16.8019 572.191 17.8696 574.688M29.7693 574.826L17.8696 574.688M29.7693 574.826C30.311 577.233 30.9708 579.652 31.7617 582.073M17.8696 574.688C18.9802 577.285 20.227 579.73 21.5737 581.955M31.7617 582.073L21.5737 581.955M31.7617 582.073C32.464 584.223 33.2698 586.374 34.1882 588.518M21.5737 581.955C23.0595 584.41 24.6668 586.598 26.347 588.427M34.1882 588.518C35.0311 590.486 35.9689 592.449 37.0087 594.399C33.4253 594.358 29.7378 592.121 26.347 588.427M34.1882 588.518L26.347 588.427" stroke="#E9AC19" stroke-width="3"/>
<path d="M530.878 526.914C531.966 523.369 533.383 519.802 535.012 517.585L614.512 517.597C612.999 519.404 611.62 523.246 610.592 526.031M530.878 526.914L610.592 526.031M530.878 526.914C530.116 529.396 529.486 532.147 528.985 535.088M610.592 526.031C609.815 528.136 609.172 530.482 608.656 533.009M610.592 526.031L671.511 524.606M528.985 535.088L608.656 533.009M528.985 535.088C528.501 537.931 528.138 540.951 527.894 544.076M608.656 533.009C608.024 536.101 607.582 539.465 607.316 542.995M608.656 533.009L676.51 533.02M527.894 544.076L607.316 542.995M527.894 544.076C527.641 547.321 527.516 550.68 527.519 554.072M607.316 542.995C607.073 546.217 606.977 549.576 607.018 552.992M607.316 542.995L679.509 540.608M527.519 554.072L607.018 552.992M527.519 554.072C527.522 557.736 527.672 561.439 527.969 565.078M607.018 552.992C607.046 555.309 607.137 557.652 607.288 559.995M607.018 552.992L681.404 548.608M527.969 565.078L607.604 563.999M527.969 565.078C528.219 568.147 528.572 571.172 529.028 574.091M607.604 563.999C607.666 564.668 607.733 565.336 607.805 566.002M607.604 563.999C607.479 562.668 607.374 561.332 607.288 559.995M529.028 574.091L608.59 572.011M529.028 574.091C529.52 577.247 530.132 580.28 530.862 583.113M608.59 572.011C609.124 575.486 609.786 578.858 610.564 582.035M608.59 572.011L681.004 572.608M608.59 572.011C608.286 570.036 608.024 568.027 607.805 566.002M530.862 583.113C532.197 588.294 533.89 592.216 536 595.585L615.5 595.597C613.558 591.774 611.888 587.434 610.564 582.035M530.862 583.113L610.564 582.035M610.564 582.035L677.232 581.806M607.805 566.002L682.005 564.608M607.288 559.995L682.487 556.865" stroke="#E9AC19" stroke-width="3"/>
</svg>
