<svg width="684" height="93" viewBox="0 0 684 93" fill="none" xmlns="http://www.w3.org/2000/svg">
<path d="M20.3539 85.2067C-10.3754 58.4493 4.34626 7.01624 21.2564 7.21191L664.911 7.65933C692.466 33.5799 684.006 76.8849 664.008 85.6541L20.3539 85.2067Z" fill="#1F3155" stroke="#E9AC19" stroke-width="3"/>
<path d="M32.4098 16.1137C33.5499 12.6385 34.7705 9.68359 35.9164 7.38154C29.1284 8.88701 24.0515 11.931 20.394 15.9747M32.4098 16.1137L20.394 15.9747M32.4098 16.1137C31.6342 18.4778 30.8958 21.0827 30.2436 23.8866M20.394 15.9747C18.5451 18.0188 17.059 20.3183 15.8979 22.8038M30.2436 23.8866L15.8979 22.8038M30.2436 23.8866C29.6364 26.497 29.1038 29.2797 28.6853 32.2013M15.8979 22.8038C14.561 25.6653 13.655 28.7732 13.1223 32.0212M28.6853 32.2013L13.1223 32.0212M28.6853 32.2013C28.3074 34.8393 28.0225 37.5904 27.8596 40.4298M13.1223 32.0212C12.6846 34.69 12.499 37.4534 12.5335 40.2524M27.8596 40.4298L12.5335 40.2524M27.8596 40.4298C27.6998 43.217 27.6575 46.0893 27.7602 49.0232M12.5335 40.2524C12.5686 43.1039 12.8321 45.9924 13.2904 48.8557M27.7602 49.0232L13.2904 48.8557M27.7602 49.0232C27.8516 51.6344 28.0579 54.2944 28.3985 56.9867M13.2904 48.8557C13.7223 51.5545 14.3273 54.2308 15.0769 56.8326M28.3985 56.9867L15.0769 56.8326M28.3985 56.9867C28.7258 59.5748 29.1772 62.1927 29.7699 64.8257M15.0769 56.8326C15.8606 59.5524 16.8024 62.1908 17.8702 64.688M29.7699 64.8257L17.8702 64.688M29.7699 64.8257C30.3116 67.2326 30.9714 69.6522 31.7623 72.0732M17.8702 64.688C18.9808 67.2854 20.2276 69.7302 21.5743 71.9553M31.7623 72.0732L21.5743 71.9553M31.7623 72.0732C32.4646 74.223 33.2704 76.374 34.1887 78.5182M21.5743 71.9553C23.0601 74.4101 24.6674 76.5975 26.3476 78.4275M34.1887 78.5182C35.0317 80.4863 35.9695 82.4487 37.0093 84.3993C33.4259 84.3579 29.7384 82.1206 26.3476 78.4275M34.1887 78.5182L26.3476 78.4275" stroke="#E9AC19" stroke-width="3"/>
<path d="M530.878 16.914C531.966 13.3693 533.383 9.80166 535.012 7.58455L614.512 7.59718C612.999 9.40413 611.62 13.246 610.592 16.0314M530.878 16.914L610.592 16.0314M530.878 16.914C530.116 19.3963 529.486 22.1474 528.985 25.0877M610.592 16.0314C609.815 18.1363 609.172 20.4819 608.656 23.0094M610.592 16.0314L671.511 14.6062M528.985 25.0877L608.656 23.0094M528.985 25.0877C528.501 27.9307 528.138 30.9506 527.894 34.0757M608.656 23.0094C608.024 26.1013 607.582 29.4655 607.316 32.9946M608.656 23.0094L676.51 23.0202M527.894 34.0757L607.316 32.9946M527.894 34.0757C527.641 37.3212 527.516 40.6802 527.519 44.0721M607.316 32.9946C607.073 36.2167 606.977 39.5764 607.018 42.9918M607.316 32.9946L679.509 30.6075M527.519 44.0721L607.018 42.9918M527.519 44.0721C527.521 47.7361 527.672 51.4385 527.968 55.078M607.018 42.9918C607.046 45.3092 607.137 47.6522 607.288 49.9954M607.018 42.9918L681.404 38.6078M527.968 55.078L607.603 53.9993M527.968 55.078C528.218 58.1473 528.572 61.1719 529.027 64.0909M607.603 53.9993C607.666 54.6682 607.733 55.3359 607.805 56.0018M607.603 53.9993C607.479 52.6678 607.373 51.3316 607.288 49.9954M529.027 64.0909L608.59 62.0113M529.027 64.0909C529.52 67.2473 530.132 70.2802 530.862 73.1127M608.59 62.0113C609.123 65.4861 609.785 68.8579 610.564 72.0348M608.59 62.0113L681.004 62.6078M608.59 62.0113C608.286 60.0358 608.024 58.027 607.805 56.0018M530.862 73.1127C532.196 78.2938 533.89 82.2156 536 85.5847L615.5 85.5974C613.558 81.7742 611.887 77.4335 610.564 72.0348M530.862 73.1127L610.564 72.0348M610.564 72.0348L677.232 71.8062M607.805 56.0018L682.005 54.6079M607.288 49.9954L682.487 46.8653" stroke="#E9AC19" stroke-width="3"/>
</svg>
