<svg width="540" height="560" viewBox="0 0 540 560" fill="none" xmlns="http://www.w3.org/2000/svg">
<path d="M539 558.694H1.08594V1H539V558.694Z" fill="#F7B81F" stroke="#1F3155"/>
<path d="M29.0916 278.161C29.5303 278.431 29.8243 278.786 29.9736 279.225C30.0483 279.477 30.0856 279.766 30.0856 280.093C30.0856 280.905 29.7963 281.586 29.2176 282.137C28.639 282.687 27.9436 282.963 27.1316 282.963C25.9556 282.963 25.083 282.529 24.5136 281.661L24.4156 282.963H23.9816V279.491H24.3736C24.439 280.377 24.6956 281.115 25.1436 281.703C25.601 282.281 26.2543 282.571 27.1036 282.571C27.365 282.571 27.6123 282.529 27.8456 282.445C28.2283 282.333 28.527 282.123 28.7416 281.815C28.9563 281.497 29.0636 281.133 29.0636 280.723C29.0636 280.293 28.9656 279.957 28.7696 279.715C28.583 279.472 28.2796 279.243 27.8596 279.029C27.7383 278.963 27.5563 278.875 27.3136 278.763C27.0056 278.623 26.819 278.534 26.7536 278.497C26.5763 278.394 26.3803 278.296 26.1656 278.203C25.8016 278.035 25.503 277.885 25.2696 277.755C25.0456 277.615 24.8123 277.442 24.5696 277.237C24.327 277.031 24.145 276.789 24.0236 276.509C23.9116 276.229 23.8556 275.911 23.8556 275.557C23.8556 274.763 24.1123 274.129 24.6256 273.653C25.1483 273.167 25.8016 272.925 26.5856 272.925C27.6123 272.925 28.3543 273.303 28.8116 274.059L28.9936 272.813H29.3576V276.299H28.9796C28.9796 275.487 28.7836 274.782 28.3916 274.185C27.9996 273.587 27.421 273.289 26.6556 273.289C26.1423 273.289 25.7223 273.429 25.3956 273.709C25.0783 273.989 24.9196 274.376 24.9196 274.871C24.9196 275.3 25.0363 275.645 25.2696 275.907C25.503 276.196 25.811 276.443 26.1936 276.649C26.511 276.817 26.7256 276.929 26.8376 276.985C27.2483 277.209 27.5983 277.381 27.8876 277.503C28.429 277.783 28.8303 278.002 29.0916 278.161ZM38.7085 279.785V273.555L37.3785 273.415V273.037H40.4585V273.415L39.1285 273.555V279.925C39.1285 280.905 38.8439 281.656 38.2745 282.179C37.7052 282.701 36.9399 282.963 35.9785 282.963C34.9705 282.963 34.1445 282.711 33.5005 282.207C32.8565 281.693 32.5345 280.956 32.5345 279.995V273.415H31.2045V273.037H35.2645V273.415H33.9345V279.771C33.9345 281.609 34.7092 282.529 36.2585 282.529C37.0239 282.529 37.6212 282.263 38.0505 281.731C38.4892 281.199 38.7085 280.55 38.7085 279.785ZM44.3637 282.851H41.3117V282.473L42.6417 282.333V273.415H41.3117V273.037H44.0277L48.6057 280.471V273.555L47.2757 273.415V273.037H50.3417V273.415L49.0117 273.555V282.963H48.6057L43.0477 274.059V282.333L44.3637 282.473V282.851Z" fill="#1F3155"/>
<path d="M111.852 273.415H110.522V282.473H111.852V282.851H107.792V282.473H109.122V274.185L105.986 282.977H105.608L102.668 274.199V282.277L103.998 282.473V282.851H100.764V282.473L102.262 282.277V273.415H100.932V273.037H103.802L106.336 280.793L109.094 273.037H111.852V273.415ZM117.704 282.963C116.313 282.963 115.212 282.477 114.4 281.507C113.588 280.536 113.182 279.355 113.182 277.965C113.182 276.518 113.583 275.319 114.386 274.367C115.198 273.405 116.304 272.925 117.704 272.925C119.132 272.925 120.238 273.401 121.022 274.353C121.806 275.305 122.198 276.499 122.198 277.937C122.198 278.795 122.011 279.607 121.638 280.373C121.274 281.129 120.742 281.749 120.042 282.235C119.342 282.72 118.562 282.963 117.704 282.963ZM117.704 273.303C117.153 273.303 116.668 273.457 116.248 273.765C115.837 274.073 115.524 274.474 115.31 274.969C115.095 275.454 114.936 275.953 114.834 276.467C114.731 276.98 114.68 277.493 114.68 278.007C114.68 278.856 114.829 279.673 115.128 280.457C115.436 281.231 115.902 281.815 116.528 282.207C116.882 282.44 117.274 282.557 117.704 282.557C118.385 282.557 118.968 282.286 119.454 281.745C119.939 281.203 120.28 280.564 120.476 279.827C120.625 279.295 120.7 278.688 120.7 278.007C120.7 277.475 120.653 276.957 120.56 276.453C120.466 275.949 120.312 275.449 120.098 274.955C119.892 274.46 119.58 274.063 119.16 273.765C118.749 273.457 118.264 273.303 117.704 273.303ZM126.539 282.851H123.487V282.473L124.817 282.333V273.415H123.487V273.037H126.203L130.781 280.471V273.555L129.451 273.415V273.037H132.517V273.415L131.187 273.555V282.963H130.781L125.223 274.059V282.333L126.539 282.473V282.851Z" fill="#1F3155"/>
<path d="M181.229 275.893H180.851V273.037H188.789V275.893H188.411L187.935 273.471H185.513V282.473H186.843V282.851H182.783V282.473H184.113V273.471H181.691L181.229 275.893ZM197.279 279.785V273.555L195.949 273.415V273.037H199.029V273.415L197.699 273.555V279.925C197.699 280.905 197.414 281.656 196.845 282.179C196.276 282.701 195.51 282.963 194.549 282.963C193.541 282.963 192.715 282.711 192.071 282.207C191.427 281.693 191.105 280.956 191.105 279.995V273.415H189.775V273.037H193.835V273.415H192.505V279.771C192.505 281.609 193.28 282.529 194.829 282.529C195.594 282.529 196.192 282.263 196.621 281.731C197.06 281.199 197.279 280.55 197.279 279.785ZM207.12 282.851H199.868V282.473H201.198V273.415H199.868V273.037H206.756V275.907H206.378L205.902 273.415H202.598V277.615H204.656L204.95 275.977H205.328V279.617H204.964L204.656 277.993H202.598V282.473H206.266L206.742 279.841H207.12V282.851Z" fill="#1F3155"/>
<path d="M260.053 273.415V273.037H264.085V273.415H262.825L265.457 280.807L267.641 273.555L266.311 273.415V273.037H269.419V273.415L268.089 273.555L265.247 282.963H264.827L262.783 277.489L260.907 282.963H260.487L256.889 273.415H255.559V273.037H259.675V273.415H258.415L261.187 280.793L262.559 276.845L261.313 273.415H260.053ZM277.229 282.851H269.977V282.473H271.307V273.415H269.977V273.037H276.865V275.907H276.487L276.011 273.415H272.707V277.615H274.765L275.059 275.977H275.437V279.617H275.073L274.765 277.993H272.707V282.473H276.375L276.851 279.841H277.229V282.851ZM282.928 282.851H278.7V282.473H280.03V273.415H278.7V273.037H282.872C284.496 273.037 285.686 273.433 286.442 274.227C287.207 275.02 287.59 276.205 287.59 277.783C287.59 279.285 287.175 280.508 286.344 281.451C285.513 282.384 284.375 282.851 282.928 282.851ZM281.43 282.473H282.746C283.353 282.473 283.88 282.333 284.328 282.053C284.785 281.773 285.135 281.404 285.378 280.947C285.621 280.48 285.798 279.99 285.91 279.477C286.031 278.954 286.092 278.413 286.092 277.853C286.092 277.255 286.041 276.709 285.938 276.215C285.845 275.72 285.681 275.253 285.448 274.815C285.224 274.376 284.893 274.035 284.454 273.793C284.015 273.541 283.488 273.415 282.872 273.415H281.43V282.473Z" fill="#1F3155"/>
<path d="M333.346 275.893H332.968V273.037H340.906V275.893H340.528L340.052 273.471H337.63V282.473H338.96V282.851H334.9V282.473H336.23V273.471H333.808L333.346 275.893ZM352.126 273.415H350.796V282.473H352.126V282.851H348.066V282.473H349.396V278.035H344.762V282.473H346.092V282.851H342.032V282.473H343.362V273.415H342.032V273.037H346.092V273.415H344.762V277.657H349.396V273.415H348.066V273.037H352.126V273.415ZM360.675 279.785V273.555L359.345 273.415V273.037H362.425V273.415L361.095 273.555V279.925C361.095 280.905 360.811 281.656 360.241 282.179C359.672 282.701 358.907 282.963 357.945 282.963C356.937 282.963 356.111 282.711 355.467 282.207C354.823 281.693 354.501 280.956 354.501 279.995V273.415H353.171V273.037H357.231V273.415H355.901V279.771C355.901 281.609 356.676 282.529 358.225 282.529C358.991 282.529 359.588 282.263 360.017 281.731C360.456 281.199 360.675 280.55 360.675 279.785Z" fill="#1F3155"/>
<path d="M417.216 282.851H413.016V282.473H414.346V273.415H413.016V273.037H419.904V275.907H419.526L419.05 273.415H415.746V277.755H417.93L418.238 276.117H418.616V279.757H418.252L417.93 278.133H415.746V282.473H417.216V282.851ZM427.129 281.633C427.092 281.455 427.05 281.171 427.003 280.779C426.938 280.219 426.872 279.724 426.807 279.295C426.714 278.744 426.536 278.399 426.275 278.259C426.014 278.109 425.584 278.035 424.987 278.035H423.895V282.473H425.365V282.851H421.165V282.473H422.495V273.415H421.165V273.037H425.127C427.386 273.037 428.515 273.774 428.515 275.249C428.515 275.921 428.258 276.495 427.745 276.971C427.232 277.437 426.63 277.717 425.939 277.811V277.867C427.32 277.876 428.081 278.333 428.221 279.239C428.324 279.92 428.384 280.345 428.403 280.513C428.45 280.942 428.51 281.343 428.585 281.717C428.697 282.221 429.042 282.473 429.621 282.473H429.887V282.851H428.935C428.422 282.851 428.016 282.767 427.717 282.599C427.428 282.421 427.232 282.099 427.129 281.633ZM423.895 277.657H424.987C425.65 277.657 426.158 277.451 426.513 277.041C426.868 276.621 427.045 276.079 427.045 275.417C427.045 274.717 426.872 274.208 426.527 273.891C426.191 273.573 425.668 273.415 424.959 273.415H423.895V277.657ZM434.932 273.415H433.602V282.473H434.932V282.851H430.872V282.473H432.202V273.415H430.872V273.037H434.932V273.415Z" fill="#1F3155"/>
<path d="M494.451 278.161C494.89 278.431 495.184 278.786 495.333 279.225C495.408 279.477 495.445 279.766 495.445 280.093C495.445 280.905 495.156 281.586 494.577 282.137C493.998 282.687 493.303 282.963 492.491 282.963C491.315 282.963 490.442 282.529 489.873 281.661L489.775 282.963H489.341V279.491H489.733C489.798 280.377 490.055 281.115 490.503 281.703C490.96 282.281 491.614 282.571 492.463 282.571C492.724 282.571 492.972 282.529 493.205 282.445C493.588 282.333 493.886 282.123 494.101 281.815C494.316 281.497 494.423 281.133 494.423 280.723C494.423 280.293 494.325 279.957 494.129 279.715C493.942 279.472 493.639 279.243 493.219 279.029C493.098 278.963 492.916 278.875 492.673 278.763C492.365 278.623 492.178 278.534 492.113 278.497C491.936 278.394 491.74 278.296 491.525 278.203C491.161 278.035 490.862 277.885 490.629 277.755C490.405 277.615 490.172 277.442 489.929 277.237C489.686 277.031 489.504 276.789 489.383 276.509C489.271 276.229 489.215 275.911 489.215 275.557C489.215 274.763 489.472 274.129 489.985 273.653C490.508 273.167 491.161 272.925 491.945 272.925C492.972 272.925 493.714 273.303 494.171 274.059L494.353 272.813H494.717V276.299H494.339C494.339 275.487 494.143 274.782 493.751 274.185C493.359 273.587 492.78 273.289 492.015 273.289C491.502 273.289 491.082 273.429 490.755 273.709C490.438 273.989 490.279 274.376 490.279 274.871C490.279 275.3 490.396 275.645 490.629 275.907C490.862 276.196 491.17 276.443 491.553 276.649C491.87 276.817 492.085 276.929 492.197 276.985C492.608 277.209 492.958 277.381 493.247 277.503C493.788 277.783 494.19 278.002 494.451 278.161ZM500.592 272.841L504.162 282.473H505.492V282.851H501.32V282.473H502.65L501.67 279.743H498.366L497.54 282.277L498.73 282.473V282.851H495.72V282.473L497.12 282.263L500.2 272.841H500.592ZM499.976 274.759L498.492 279.365H501.516L499.976 274.759ZM505.737 275.893H505.359V273.037H513.297V275.893H512.919L512.443 273.471H510.021V282.473H511.351V282.851H507.291V282.473H508.621V273.471H506.199L505.737 275.893Z" fill="#1F3155"/>
<path d="M12.6138 295.741C13.6138 295.741 14.4671 295.988 15.1738 296.481C15.8938 296.975 16.2538 297.695 16.2538 298.641C16.2538 299.535 15.9271 300.288 15.2738 300.901C14.6204 301.501 13.8404 301.855 12.9338 301.961V302.041C13.5871 302.081 14.1671 302.188 14.6738 302.361C15.1938 302.535 15.6404 302.841 16.0138 303.281C16.3871 303.721 16.5738 304.268 16.5738 304.921C16.5738 305.401 16.4738 305.855 16.2738 306.281C15.9138 306.935 15.4004 307.428 14.7338 307.761C14.0671 308.095 13.3404 308.261 12.5538 308.261C11.6604 308.261 10.9071 308.055 10.2938 307.641C9.69375 307.241 9.39375 306.621 9.39375 305.781C9.39375 305.461 9.50042 305.188 9.71375 304.961C9.94042 304.748 10.2138 304.641 10.5338 304.641C10.8271 304.641 11.0604 304.721 11.2337 304.881C11.4071 305.041 11.4938 305.261 11.4938 305.541C11.4938 305.821 11.4004 306.055 11.2138 306.241C11.0004 306.428 10.7604 306.521 10.4938 306.521C10.3604 306.521 10.2338 306.501 10.1138 306.461C10.4204 307.275 11.1004 307.681 12.1538 307.681C12.9404 307.681 13.5338 307.408 13.9338 306.861C14.3471 306.328 14.5538 305.655 14.5538 304.841C14.5538 303.975 14.3404 303.341 13.9138 302.941C13.4871 302.528 12.8404 302.321 11.9738 302.321H11.4538V301.781H11.9738C12.7471 301.781 13.3204 301.521 13.6938 301.001C14.0804 300.468 14.2738 299.801 14.2738 299.001C14.2738 297.375 13.4938 296.561 11.9338 296.561C11.2938 296.561 10.8071 296.748 10.4738 297.121C10.1138 297.481 9.93375 297.888 9.93375 298.341V298.521C9.93375 298.548 9.94708 298.601 9.97375 298.681C10.0671 298.561 10.1738 298.468 10.2938 298.401C10.4538 298.335 10.5938 298.301 10.7138 298.301C11.0071 298.301 11.2471 298.395 11.4338 298.581C11.6071 298.768 11.6938 299.001 11.6938 299.281C11.6938 299.535 11.6004 299.755 11.4138 299.941C11.2004 300.128 10.9671 300.221 10.7138 300.221C10.3004 300.221 9.97375 300.055 9.73375 299.721C9.50708 299.375 9.39375 298.988 9.39375 298.561C9.39375 297.668 9.70042 296.975 10.3138 296.481C10.9404 295.988 11.7071 295.741 12.6138 295.741ZM22.928 295.541C24.3946 295.541 25.5146 295.968 26.288 296.821C27.0746 297.675 27.468 298.828 27.468 300.281C27.468 301.655 27.0413 302.788 26.188 303.681C25.348 304.561 24.2546 305.001 22.908 305.001C21.4413 305.001 20.248 304.575 19.328 303.721C18.4213 302.855 17.968 301.708 17.968 300.281C17.968 298.868 18.4413 297.728 19.388 296.861C20.348 295.981 21.528 295.541 22.928 295.541ZM23.568 304.321C24.5813 304.321 25.3813 303.915 25.968 303.101C26.5546 302.275 26.848 301.335 26.848 300.281C26.848 298.335 26.1346 297.041 24.708 296.401C24.2813 296.241 23.8546 296.161 23.428 296.161C22.308 296.161 21.4546 296.561 20.868 297.361C20.2946 298.161 20.008 299.135 20.008 300.281C20.008 301.415 20.328 302.375 20.968 303.161C21.608 303.935 22.4746 304.321 23.568 304.321Z" fill="#1F3155"/>
<path d="M14.7678 340.516C16.2345 340.516 17.3545 340.943 18.1278 341.796C18.9145 342.65 19.3078 343.803 19.3078 345.256C19.3078 346.63 18.8811 347.763 18.0278 348.656C17.1878 349.536 16.0945 349.976 14.7478 349.976C13.2811 349.976 12.0878 349.55 11.1678 348.696C10.2611 347.83 9.80781 346.683 9.80781 345.256C9.80781 343.843 10.2811 342.703 11.2278 341.836C12.1878 340.956 13.3678 340.516 14.7678 340.516ZM15.4078 349.296C16.4211 349.296 17.2211 348.89 17.8078 348.076C18.3945 347.25 18.6878 346.31 18.6878 345.256C18.6878 343.31 17.9745 342.016 16.5478 341.376C16.1211 341.216 15.6945 341.136 15.2678 341.136C14.1478 341.136 13.2945 341.536 12.7078 342.336C12.1345 343.136 11.8478 344.11 11.8478 345.256C11.8478 346.39 12.1678 347.35 12.8078 348.136C13.4478 348.91 14.3145 349.296 15.4078 349.296ZM25.3863 340.976C26.5063 340.976 27.4396 341.35 28.1863 342.096C28.9463 342.936 29.3263 343.99 29.3263 345.256C29.3263 346.536 28.9263 347.65 28.1263 348.596C27.3263 349.53 26.3063 349.996 25.0663 349.996C23.5996 349.996 22.5063 349.496 21.7863 348.496C21.0663 347.496 20.7063 346.25 20.7063 344.756C20.7063 342.596 21.3463 340.79 22.6263 339.336C23.9196 337.883 25.6263 336.963 27.7463 336.576L27.7863 337.116C26.5996 337.276 25.5329 337.87 24.5863 338.896C23.6396 339.91 23.0463 341.03 22.8063 342.256L22.8863 342.276C23.1396 341.85 23.4863 341.53 23.9263 341.316C24.3796 341.09 24.8663 340.976 25.3863 340.976ZM25.0462 349.456C25.5129 349.456 25.9063 349.323 26.2263 349.056C26.5596 348.79 26.8063 348.436 26.9663 347.996C27.1263 347.543 27.2329 347.11 27.2863 346.696C27.3529 346.27 27.3863 345.836 27.3863 345.396C27.3863 342.823 26.6196 341.536 25.0863 341.536C24.6196 341.536 24.2129 341.67 23.8663 341.936C23.5329 342.203 23.2863 342.556 23.1263 342.996C22.9663 343.436 22.8529 343.87 22.7863 344.296C22.7196 344.71 22.6863 345.143 22.6863 345.596C22.6863 346.33 22.7996 347.056 23.0263 347.776C23.2529 348.483 23.6329 348.963 24.1663 349.216C24.4463 349.376 24.7396 349.456 25.0462 349.456Z" fill="#1F3155"/>
<path d="M9.70781 385.432V384.892H14.6078V385.432H13.1078V393.252H14.6078V393.792H9.70781V393.252H11.2078V385.432H9.70781ZM19.3364 384.692C20.3364 384.692 21.1897 384.939 21.8964 385.432C22.6164 385.926 22.9764 386.646 22.9764 387.592C22.9764 388.486 22.6497 389.239 21.9964 389.852C21.3431 390.452 20.5631 390.806 19.6564 390.912V390.992C20.3097 391.032 20.8897 391.139 21.3964 391.312C21.9164 391.486 22.3631 391.792 22.7364 392.232C23.1097 392.672 23.2964 393.219 23.2964 393.872C23.2964 394.352 23.1964 394.806 22.9964 395.232C22.6364 395.886 22.1231 396.379 21.4564 396.712C20.7897 397.046 20.0631 397.212 19.2764 397.212C18.3831 397.212 17.6297 397.006 17.0164 396.592C16.4164 396.192 16.1164 395.572 16.1164 394.732C16.1164 394.412 16.2231 394.139 16.4364 393.912C16.6631 393.699 16.9364 393.592 17.2564 393.592C17.5497 393.592 17.7831 393.672 17.9564 393.832C18.1297 393.992 18.2164 394.212 18.2164 394.492C18.2164 394.772 18.1231 395.006 17.9364 395.192C17.7231 395.379 17.4831 395.472 17.2164 395.472C17.0831 395.472 16.9564 395.452 16.8364 395.412C17.1431 396.226 17.8231 396.632 18.8764 396.632C19.6631 396.632 20.2564 396.359 20.6564 395.812C21.0697 395.279 21.2764 394.606 21.2764 393.792C21.2764 392.926 21.0631 392.292 20.6364 391.892C20.2097 391.479 19.5631 391.272 18.6964 391.272H18.1764V390.732H18.6964C19.4697 390.732 20.0431 390.472 20.4164 389.952C20.8031 389.419 20.9964 388.752 20.9964 387.952C20.9964 386.326 20.2164 385.512 18.6564 385.512C18.0164 385.512 17.5297 385.699 17.1964 386.072C16.8364 386.432 16.6564 386.839 16.6564 387.292V387.472C16.6564 387.499 16.6697 387.552 16.6964 387.632C16.7897 387.512 16.8964 387.419 17.0164 387.352C17.1764 387.286 17.3164 387.252 17.4364 387.252C17.7297 387.252 17.9697 387.346 18.1564 387.532C18.3297 387.719 18.4164 387.952 18.4164 388.232C18.4164 388.486 18.3231 388.706 18.1364 388.892C17.9231 389.079 17.6897 389.172 17.4364 389.172C17.0231 389.172 16.6964 389.006 16.4564 388.672C16.2297 388.326 16.1164 387.939 16.1164 387.512C16.1164 386.619 16.4231 385.926 17.0364 385.432C17.6631 384.939 18.4297 384.692 19.3364 384.692Z" fill="#1F3155"/>
<path d="M16.6678 430.709C16.6678 431.602 16.2745 432.489 15.4878 433.369C14.7145 434.249 13.8678 434.849 12.9478 435.169H16.0878L17.1678 432.789H17.7078L17.1678 436.769H9.80781V436.289C11.0745 436.022 12.2011 435.409 13.1878 434.449C14.1878 433.489 14.6878 432.395 14.6878 431.169C14.6878 430.435 14.5078 429.849 14.1478 429.409C13.8011 428.955 13.2678 428.729 12.5478 428.729C11.9345 428.729 11.4345 428.909 11.0478 429.269C10.6745 429.629 10.4878 430.109 10.4878 430.709C10.4878 430.989 10.5145 431.202 10.5678 431.349C10.7545 431.069 11.0145 430.929 11.3478 430.929C11.6411 430.929 11.8811 431.022 12.0678 431.209C12.2278 431.395 12.3078 431.622 12.3078 431.889C12.3078 432.142 12.2145 432.362 12.0278 432.549C11.8411 432.735 11.6145 432.829 11.3478 432.829C11.1211 432.829 10.9145 432.769 10.7278 432.649C10.1678 432.342 9.88781 431.722 9.88781 430.789C9.88781 429.829 10.2211 429.069 10.8878 428.509C11.5678 427.949 12.3878 427.669 13.3478 427.669C14.3345 427.669 15.1345 427.942 15.7478 428.489C16.3611 429.022 16.6678 429.762 16.6678 430.709ZM24.3967 427.469C25.8634 427.469 26.9834 427.895 27.7567 428.749C28.5434 429.602 28.9367 430.755 28.9367 432.209C28.9367 433.582 28.5101 434.715 27.6567 435.609C26.8167 436.489 25.7234 436.929 24.3767 436.929C22.9101 436.929 21.7167 436.502 20.7967 435.649C19.8901 434.782 19.4367 433.635 19.4367 432.209C19.4367 430.795 19.9101 429.655 20.8567 428.789C21.8167 427.909 22.9967 427.469 24.3967 427.469ZM25.0367 436.249C26.0501 436.249 26.8501 435.842 27.4367 435.029C28.0234 434.202 28.3167 433.262 28.3167 432.209C28.3167 430.262 27.6034 428.969 26.1767 428.329C25.7501 428.169 25.3234 428.089 24.8967 428.089C23.7767 428.089 22.9234 428.489 22.3367 429.289C21.7634 430.089 21.4767 431.062 21.4767 432.209C21.4767 433.342 21.7967 434.302 22.4367 435.089C23.0767 435.862 23.9434 436.249 25.0367 436.249Z" fill="#1F3155"/>
<path d="M16.6678 474.685C16.6678 475.578 16.2745 476.465 15.4878 477.345C14.7145 478.225 13.8678 478.825 12.9478 479.145H16.0878L17.1678 476.765H17.7078L17.1678 480.745H9.80781V480.265C11.0745 479.998 12.2011 479.385 13.1878 478.425C14.1878 477.465 14.6878 476.371 14.6878 475.145C14.6878 474.411 14.5078 473.825 14.1478 473.385C13.8011 472.931 13.2678 472.705 12.5478 472.705C11.9345 472.705 11.4345 472.885 11.0478 473.245C10.6745 473.605 10.4878 474.085 10.4878 474.685C10.4878 474.965 10.5145 475.178 10.5678 475.325C10.7545 475.045 11.0145 474.905 11.3478 474.905C11.6411 474.905 11.8811 474.998 12.0678 475.185C12.2278 475.371 12.3078 475.598 12.3078 475.865C12.3078 476.118 12.2145 476.338 12.0278 476.525C11.8411 476.711 11.6145 476.805 11.3478 476.805C11.1211 476.805 10.9145 476.745 10.7278 476.625C10.1678 476.318 9.88781 475.698 9.88781 474.765C9.88781 473.805 10.2211 473.045 10.8878 472.485C11.5678 471.925 12.3878 471.645 13.3478 471.645C14.3345 471.645 15.1345 471.918 15.7478 472.465C16.3611 472.998 16.6678 473.738 16.6678 474.685ZM21.5167 483.385C21.4767 483.291 21.4567 483.205 21.4567 483.125C21.4567 482.898 21.5367 482.705 21.6967 482.545C21.8567 482.371 22.0767 482.285 22.3567 482.285C22.6234 482.285 22.8367 482.365 22.9967 482.525C23.1567 482.685 23.2367 482.891 23.2367 483.145C23.2367 483.451 23.1301 483.698 22.9167 483.885C22.7167 484.071 22.4567 484.165 22.1367 484.165C21.6967 484.165 21.3301 484.051 21.0367 483.825C20.7434 483.611 20.5967 483.291 20.5967 482.865C20.5967 482.545 20.6701 482.258 20.8167 482.005C20.9634 481.751 21.0834 481.531 21.1767 481.345L26.0767 473.265H21.2767L20.1767 475.645H19.6367L20.3167 471.665H27.4167V472.165L21.6367 481.625C21.5967 481.691 21.5434 481.791 21.4767 481.925C21.4101 482.058 21.3567 482.158 21.3167 482.225C21.2234 482.398 21.1767 482.598 21.1767 482.825C21.1767 482.945 21.2034 483.065 21.2567 483.185C21.3234 483.305 21.4101 483.371 21.5167 483.385Z" fill="#1F3155"/>
<path d="M14.3538 515.42C15.8204 515.42 16.9404 515.847 17.7138 516.7C18.5004 517.554 18.8938 518.707 18.8938 520.16C18.8938 521.534 18.4671 522.667 17.6138 523.56C16.7738 524.44 15.6804 524.88 14.3338 524.88C12.8671 524.88 11.6738 524.454 10.7538 523.6C9.84708 522.734 9.39375 521.587 9.39375 520.16C9.39375 518.747 9.86708 517.607 10.8138 516.74C11.7738 515.86 12.9538 515.42 14.3538 515.42ZM14.9938 524.2C16.0071 524.2 16.8071 523.794 17.3938 522.98C17.9804 522.154 18.2738 521.214 18.2738 520.16C18.2738 518.214 17.5604 516.92 16.1338 516.28C15.7071 516.12 15.2804 516.04 14.8538 516.04C13.7338 516.04 12.8804 516.44 12.2938 517.24C11.7204 518.04 11.4338 519.014 11.4338 520.16C11.4338 521.294 11.7538 522.254 12.3938 523.04C13.0338 523.814 13.9004 524.2 14.9938 524.2ZM28.8322 524.72H26.8522V527.42H28.4922V527.96H23.4122V527.42H25.0522V524.72H19.9922V524.22L26.3122 515.32H26.8522V523.4H27.7722L28.8122 520.96H29.3522L28.8322 524.72ZM21.3722 523.4H25.0522V518.12L21.3722 523.4Z" fill="#1F3155"/>
<path d="M91.8264 515.42C93.2931 515.42 94.4131 515.847 95.1864 516.7C95.9731 517.554 96.3664 518.707 96.3664 520.16C96.3664 521.534 95.9397 522.667 95.0864 523.56C94.2464 524.44 93.1531 524.88 91.8064 524.88C90.3397 524.88 89.1464 524.454 88.2264 523.6C87.3197 522.734 86.8664 521.587 86.8664 520.16C86.8664 518.747 87.3397 517.607 88.2864 516.74C89.2464 515.86 90.4264 515.42 91.8264 515.42ZM92.4664 524.2C93.4797 524.2 94.2797 523.794 94.8664 522.98C95.4531 522.154 95.7464 521.214 95.7464 520.16C95.7464 518.214 95.0331 516.92 93.6064 516.28C93.1797 516.12 92.7531 516.04 92.3264 516.04C91.2064 516.04 90.3531 516.44 89.7664 517.24C89.1931 518.04 88.9064 519.014 88.9064 520.16C88.9064 521.294 89.2264 522.254 89.8664 523.04C90.5064 523.814 91.3731 524.2 92.4664 524.2ZM97.7248 525.6C97.7248 525.294 97.8248 525.02 98.0248 524.78C98.2382 524.554 98.4982 524.44 98.8048 524.44C99.1115 524.44 99.3448 524.527 99.5048 524.7C99.6515 524.887 99.7248 525.107 99.7248 525.36C99.7248 525.64 99.6382 525.88 99.4648 526.08C99.2915 526.28 99.0648 526.38 98.7848 526.38C98.7048 526.38 98.6248 526.367 98.5448 526.34C98.9848 527.1 99.7182 527.48 100.745 527.48C101.358 527.48 101.865 527.28 102.265 526.88C102.678 526.494 102.952 526.04 103.085 525.52C103.232 525.014 103.305 524.46 103.305 523.86C103.305 522.98 103.098 522.214 102.685 521.56C102.272 520.894 101.652 520.56 100.825 520.56C99.7982 520.56 99.1715 521.02 98.9448 521.94H98.5648V515.54H103.445L104.285 513.5H104.825L104.305 517.14H99.1248V520.72C99.6582 520.187 100.398 519.92 101.345 519.92C102.585 519.92 103.558 520.234 104.265 520.86C104.985 521.487 105.345 522.407 105.345 523.62C105.345 524.967 104.925 526.04 104.085 526.84C103.258 527.654 102.178 528.06 100.845 528.06C100.045 528.06 99.3248 527.84 98.6848 527.4C98.0448 526.96 97.7248 526.36 97.7248 525.6Z" fill="#1F3155"/>
<path d="M171.471 518.419C172.938 518.419 174.058 518.845 174.831 519.699C175.618 520.552 176.011 521.705 176.011 523.159C176.011 524.532 175.584 525.665 174.731 526.559C173.891 527.439 172.798 527.879 171.451 527.879C169.984 527.879 168.791 527.452 167.871 526.599C166.964 525.732 166.511 524.585 166.511 523.159C166.511 521.745 166.984 520.605 167.931 519.739C168.891 518.859 170.071 518.419 171.471 518.419ZM172.111 527.199C173.124 527.199 173.924 526.792 174.511 525.979C175.098 525.152 175.391 524.212 175.391 523.159C175.391 521.212 174.678 519.919 173.251 519.279C172.824 519.119 172.398 519.039 171.971 519.039C170.851 519.039 169.998 519.439 169.411 520.239C168.838 521.039 168.551 522.012 168.551 523.159C168.551 524.292 168.871 525.252 169.511 526.039C170.151 526.812 171.018 527.199 172.111 527.199ZM182.089 518.879C183.209 518.879 184.143 519.252 184.889 519.999C185.649 520.839 186.029 521.892 186.029 523.159C186.029 524.439 185.629 525.552 184.829 526.499C184.029 527.432 183.009 527.899 181.769 527.899C180.303 527.899 179.209 527.399 178.489 526.399C177.769 525.399 177.409 524.152 177.409 522.659C177.409 520.499 178.049 518.692 179.329 517.239C180.623 515.785 182.329 514.865 184.449 514.479L184.489 515.019C183.303 515.179 182.236 515.772 181.289 516.799C180.343 517.812 179.749 518.932 179.509 520.159L179.589 520.179C179.843 519.752 180.189 519.432 180.629 519.219C181.083 518.992 181.569 518.879 182.089 518.879ZM181.749 527.359C182.216 527.359 182.609 527.225 182.929 526.959C183.263 526.692 183.509 526.339 183.669 525.899C183.829 525.445 183.936 525.012 183.989 524.599C184.056 524.172 184.089 523.739 184.089 523.299C184.089 520.725 183.323 519.439 181.789 519.439C181.323 519.439 180.916 519.572 180.569 519.839C180.236 520.105 179.989 520.459 179.829 520.899C179.669 521.339 179.556 521.772 179.489 522.199C179.423 522.612 179.389 523.045 179.389 523.499C179.389 524.232 179.503 524.959 179.729 525.679C179.956 526.385 180.336 526.865 180.869 527.119C181.149 527.279 181.443 527.359 181.749 527.359Z" fill="#1F3155"/>
<path d="M247.533 518.419C249 518.419 250.12 518.845 250.893 519.699C251.68 520.552 252.073 521.705 252.073 523.159C252.073 524.532 251.647 525.665 250.793 526.559C249.953 527.439 248.86 527.879 247.513 527.879C246.047 527.879 244.853 527.452 243.933 526.599C243.027 525.732 242.573 524.585 242.573 523.159C242.573 521.745 243.047 520.605 243.993 519.739C244.953 518.859 246.133 518.419 247.533 518.419ZM248.173 527.199C249.187 527.199 249.987 526.792 250.573 525.979C251.16 525.152 251.453 524.212 251.453 523.159C251.453 521.212 250.74 519.919 249.313 519.279C248.887 519.119 248.46 519.039 248.033 519.039C246.913 519.039 246.06 519.439 245.473 520.239C244.9 521.039 244.613 522.012 244.613 523.159C244.613 524.292 244.933 525.252 245.573 526.039C246.213 526.812 247.08 527.199 248.173 527.199ZM255.552 530.359C255.512 530.265 255.492 530.179 255.492 530.099C255.492 529.872 255.572 529.679 255.732 529.519C255.892 529.345 256.112 529.259 256.392 529.259C256.659 529.259 256.872 529.339 257.032 529.499C257.192 529.659 257.272 529.865 257.272 530.119C257.272 530.425 257.165 530.672 256.952 530.859C256.752 531.045 256.492 531.139 256.172 531.139C255.732 531.139 255.365 531.025 255.072 530.799C254.779 530.585 254.632 530.265 254.632 529.839C254.632 529.519 254.705 529.232 254.852 528.979C254.999 528.725 255.119 528.505 255.212 528.319L260.112 520.239H255.312L254.212 522.619H253.672L254.352 518.639H261.452V519.139L255.672 528.599C255.632 528.665 255.579 528.765 255.512 528.899C255.445 529.032 255.392 529.132 255.352 529.199C255.259 529.372 255.212 529.572 255.212 529.799C255.212 529.919 255.239 530.039 255.292 530.159C255.359 530.279 255.445 530.345 255.552 530.359Z" fill="#1F3155"/>
<path d="M323.588 518.419C325.055 518.419 326.175 518.845 326.948 519.699C327.735 520.552 328.128 521.705 328.128 523.159C328.128 524.532 327.701 525.665 326.848 526.559C326.008 527.439 324.915 527.879 323.568 527.879C322.101 527.879 320.908 527.452 319.988 526.599C319.081 525.732 318.628 524.585 318.628 523.159C318.628 521.745 319.101 520.605 320.048 519.739C321.008 518.859 322.188 518.419 323.588 518.419ZM324.228 527.199C325.241 527.199 326.041 526.792 326.628 525.979C327.215 525.152 327.508 524.212 327.508 523.159C327.508 521.212 326.795 519.919 325.368 519.279C324.941 519.119 324.515 519.039 324.088 519.039C322.968 519.039 322.115 519.439 321.528 520.239C320.955 521.039 320.668 522.012 320.668 523.159C320.668 524.292 320.988 525.252 321.628 526.039C322.268 526.812 323.135 527.199 324.228 527.199ZM334.147 520.939L334.507 521.159C334.613 521.225 334.78 521.332 335.007 521.479C335.233 521.625 335.407 521.732 335.527 521.799C336.633 522.572 337.187 523.412 337.187 524.319C337.187 525.399 336.767 526.272 335.927 526.939C335.1 527.605 334.133 527.939 333.027 527.939C332.013 527.939 331.12 527.699 330.347 527.219C329.587 526.725 329.207 526.005 329.207 525.059C329.207 523.685 330.107 522.572 331.907 521.719C331.293 521.319 330.967 521.105 330.927 521.079C329.86 520.279 329.327 519.379 329.327 518.379C329.327 517.419 329.68 516.639 330.387 516.039C331.093 515.425 331.933 515.119 332.907 515.119C333.893 515.119 334.747 515.352 335.467 515.819C336.2 516.285 336.567 516.979 336.567 517.899C336.567 518.525 336.327 519.105 335.847 519.639C335.38 520.172 334.813 520.605 334.147 520.939ZM330.867 517.459C330.867 517.859 331.02 518.272 331.327 518.699C331.633 519.112 331.933 519.432 332.227 519.659C332.533 519.885 332.92 520.152 333.387 520.459L333.687 520.659C334.113 520.139 334.427 519.659 334.627 519.219C334.84 518.779 334.947 518.272 334.947 517.699C334.947 517.125 334.733 516.625 334.307 516.199C334.133 516.039 333.907 515.905 333.627 515.799C333.373 515.719 333.113 515.679 332.847 515.679C332.46 515.679 332.1 515.772 331.767 515.959C331.433 516.132 331.193 516.379 331.047 516.699C330.927 516.925 330.867 517.179 330.867 517.459ZM333.187 527.399C333.84 527.399 334.387 527.192 334.827 526.779C335.28 526.365 335.507 525.839 335.507 525.199C335.507 524.745 335.38 524.359 335.127 524.039C334.887 523.719 334.54 523.399 334.087 523.079C333.887 522.932 333.473 522.665 332.847 522.279L332.387 521.999C331.947 522.332 331.573 522.779 331.267 523.339C330.973 523.885 330.827 524.419 330.827 524.939C330.827 525.712 331.027 526.319 331.427 526.759C331.827 527.185 332.413 527.399 333.187 527.399Z" fill="#1F3155"/>
<path d="M400.651 518.419C402.117 518.419 403.237 518.845 404.011 519.699C404.797 520.552 405.191 521.705 405.191 523.159C405.191 524.532 404.764 525.665 403.911 526.559C403.071 527.439 401.977 527.879 400.631 527.879C399.164 527.879 397.971 527.452 397.051 526.599C396.144 525.732 395.691 524.585 395.691 523.159C395.691 521.745 396.164 520.605 397.111 519.739C398.071 518.859 399.251 518.419 400.651 518.419ZM401.291 527.199C402.304 527.199 403.104 526.792 403.691 525.979C404.277 525.152 404.571 524.212 404.571 523.159C404.571 521.212 403.857 519.919 402.431 519.279C402.004 519.119 401.577 519.039 401.151 519.039C400.031 519.039 399.177 519.439 398.591 520.239C398.017 521.039 397.731 522.012 397.731 523.159C397.731 524.292 398.051 525.252 398.691 526.039C399.331 526.812 400.197 527.199 401.291 527.199ZM410.509 527.039C409.362 527.039 408.429 526.679 407.709 525.959C407.002 525.225 406.649 524.292 406.649 523.159C406.649 521.932 407.042 520.905 407.829 520.079C408.629 519.239 409.629 518.819 410.829 518.819C412.202 518.819 413.242 519.279 413.949 520.199C414.656 521.119 415.009 522.272 415.009 523.659C415.009 525.819 414.396 527.559 413.169 528.879C411.956 530.199 410.282 531.052 408.149 531.439L408.109 530.899C409.296 530.739 410.362 530.145 411.309 529.119C412.256 528.105 412.849 526.985 413.089 525.759L413.009 525.739C412.782 526.152 412.436 526.472 411.969 526.699C411.502 526.925 411.016 527.039 410.509 527.039ZM410.849 519.359C410.276 519.359 409.809 519.579 409.449 520.019C409.089 520.445 408.856 520.912 408.749 521.419C408.642 521.912 408.589 522.445 408.589 523.019C408.589 523.539 408.656 524.052 408.789 524.559C408.936 525.052 409.189 525.499 409.549 525.899C409.909 526.285 410.356 526.479 410.889 526.479C411.369 526.479 411.776 526.279 412.109 525.879C412.456 525.465 412.696 525.012 412.829 524.519C412.962 524.012 413.029 523.519 413.029 523.039C413.029 522.665 412.989 522.285 412.909 521.899C412.842 521.512 412.736 521.119 412.589 520.719C412.442 520.319 412.216 519.992 411.909 519.739C411.602 519.485 411.249 519.359 410.849 519.359Z" fill="#1F3155"/>
<path d="M474.649 519.359V518.819H479.549V519.359H478.049V527.179H479.549V527.719H474.649V527.179H476.149V519.359H474.649ZM486.018 518.419C487.484 518.419 488.604 518.845 489.378 519.699C490.164 520.552 490.558 521.705 490.558 523.159C490.558 524.532 490.131 525.665 489.278 526.559C488.438 527.439 487.344 527.879 485.998 527.879C484.531 527.879 483.338 527.452 482.418 526.599C481.511 525.732 481.058 524.585 481.058 523.159C481.058 521.745 481.531 520.605 482.478 519.739C483.438 518.859 484.618 518.419 486.018 518.419ZM486.658 527.199C487.671 527.199 488.471 526.792 489.058 525.979C489.644 525.152 489.938 524.212 489.938 523.159C489.938 521.212 489.224 519.919 487.798 519.279C487.371 519.119 486.944 519.039 486.518 519.039C485.398 519.039 484.544 519.439 483.958 520.239C483.384 521.039 483.098 522.012 483.098 523.159C483.098 524.292 483.418 525.252 484.058 526.039C484.698 526.812 485.564 527.199 486.658 527.199Z" fill="#1F3155"/>
<path d="M93.7264 474.685C93.7264 475.578 93.3331 476.465 92.5464 477.345C91.7731 478.225 90.9264 478.825 90.0064 479.145H93.1464L94.2264 476.765H94.7664L94.2264 480.745H86.8664V480.265C88.1331 479.998 89.2597 479.385 90.2464 478.425C91.2464 477.465 91.7464 476.371 91.7464 475.145C91.7464 474.411 91.5664 473.825 91.2064 473.385C90.8597 472.931 90.3264 472.705 89.6064 472.705C88.9931 472.705 88.4931 472.885 88.1064 473.245C87.7331 473.605 87.5464 474.085 87.5464 474.685C87.5464 474.965 87.5731 475.178 87.6264 475.325C87.8131 475.045 88.0731 474.905 88.4064 474.905C88.6997 474.905 88.9397 474.998 89.1264 475.185C89.2864 475.371 89.3664 475.598 89.3664 475.865C89.3664 476.118 89.2731 476.338 89.0864 476.525C88.8997 476.711 88.6731 476.805 88.4064 476.805C88.1797 476.805 87.9731 476.745 87.7864 476.625C87.2264 476.318 86.9464 475.698 86.9464 474.765C86.9464 473.805 87.2797 473.045 87.9464 472.485C88.6264 471.925 89.4464 471.645 90.4064 471.645C91.3931 471.645 92.1931 471.918 92.8064 472.465C93.4197 472.998 93.7264 473.738 93.7264 474.685ZM101.115 473.965L101.475 474.185C101.582 474.251 101.749 474.358 101.975 474.505C102.202 474.651 102.375 474.758 102.495 474.825C103.602 475.598 104.155 476.438 104.155 477.345C104.155 478.425 103.735 479.298 102.895 479.965C102.069 480.631 101.102 480.965 99.9953 480.965C98.982 480.965 98.0886 480.725 97.3153 480.245C96.5553 479.751 96.1753 479.031 96.1753 478.085C96.1753 476.711 97.0753 475.598 98.8753 474.745C98.262 474.345 97.9353 474.131 97.8953 474.105C96.8286 473.305 96.2953 472.405 96.2953 471.405C96.2953 470.445 96.6486 469.665 97.3553 469.065C98.062 468.451 98.902 468.145 99.8753 468.145C100.862 468.145 101.715 468.378 102.435 468.845C103.169 469.311 103.535 470.005 103.535 470.925C103.535 471.551 103.295 472.131 102.815 472.665C102.349 473.198 101.782 473.631 101.115 473.965ZM97.8353 470.485C97.8353 470.885 97.9886 471.298 98.2953 471.725C98.602 472.138 98.902 472.458 99.1953 472.685C99.502 472.911 99.8886 473.178 100.355 473.485L100.655 473.685C101.082 473.165 101.395 472.685 101.595 472.245C101.809 471.805 101.915 471.298 101.915 470.725C101.915 470.151 101.702 469.651 101.275 469.225C101.102 469.065 100.875 468.931 100.595 468.825C100.342 468.745 100.082 468.705 99.8153 468.705C99.4286 468.705 99.0686 468.798 98.7353 468.985C98.402 469.158 98.162 469.405 98.0153 469.725C97.8953 469.951 97.8353 470.205 97.8353 470.485ZM100.155 480.425C100.809 480.425 101.355 480.218 101.795 479.805C102.249 479.391 102.475 478.865 102.475 478.225C102.475 477.771 102.349 477.385 102.095 477.065C101.855 476.745 101.509 476.425 101.055 476.105C100.855 475.958 100.442 475.691 99.8153 475.305L99.3553 475.025C98.9153 475.358 98.542 475.805 98.2353 476.365C97.942 476.911 97.7953 477.445 97.7953 477.965C97.7953 478.738 97.9953 479.345 98.3953 479.785C98.7953 480.211 99.382 480.425 100.155 480.425Z" fill="#1F3155"/>
<path d="M173.371 477.683C173.371 478.576 172.978 479.463 172.191 480.343C171.418 481.223 170.571 481.823 169.651 482.143H172.791L173.871 479.763H174.411L173.871 483.743H166.511V483.263C167.778 482.996 168.904 482.383 169.891 481.423C170.891 480.463 171.391 479.37 171.391 478.143C171.391 477.41 171.211 476.823 170.851 476.383C170.504 475.93 169.971 475.703 169.251 475.703C168.638 475.703 168.138 475.883 167.751 476.243C167.378 476.603 167.191 477.083 167.191 477.683C167.191 477.963 167.218 478.176 167.271 478.323C167.458 478.043 167.718 477.903 168.051 477.903C168.344 477.903 168.584 477.996 168.771 478.183C168.931 478.37 169.011 478.596 169.011 478.863C169.011 479.116 168.918 479.336 168.731 479.523C168.544 479.71 168.318 479.803 168.051 479.803C167.824 479.803 167.618 479.743 167.431 479.623C166.871 479.316 166.591 478.696 166.591 477.763C166.591 476.803 166.924 476.043 167.591 475.483C168.271 474.923 169.091 474.643 170.051 474.643C171.038 474.643 171.838 474.916 172.451 475.463C173.064 475.996 173.371 476.736 173.371 477.683ZM180.06 483.063C178.913 483.063 177.98 482.703 177.26 481.983C176.553 481.25 176.2 480.316 176.2 479.183C176.2 477.956 176.593 476.93 177.38 476.103C178.18 475.263 179.18 474.843 180.38 474.843C181.753 474.843 182.793 475.303 183.5 476.223C184.207 477.143 184.56 478.296 184.56 479.683C184.56 481.843 183.947 483.583 182.72 484.903C181.507 486.223 179.833 487.076 177.7 487.463L177.66 486.923C178.847 486.763 179.913 486.17 180.86 485.143C181.807 484.13 182.4 483.01 182.64 481.783L182.56 481.763C182.333 482.176 181.987 482.496 181.52 482.723C181.053 482.95 180.567 483.063 180.06 483.063ZM180.4 475.383C179.827 475.383 179.36 475.603 179 476.043C178.64 476.47 178.407 476.936 178.3 477.443C178.193 477.936 178.14 478.47 178.14 479.043C178.14 479.563 178.207 480.076 178.34 480.583C178.487 481.076 178.74 481.523 179.1 481.923C179.46 482.31 179.907 482.503 180.44 482.503C180.92 482.503 181.327 482.303 181.66 481.903C182.007 481.49 182.247 481.036 182.38 480.543C182.513 480.036 182.58 479.543 182.58 479.063C182.58 478.69 182.54 478.31 182.46 477.923C182.393 477.536 182.287 477.143 182.14 476.743C181.993 476.343 181.767 476.016 181.46 475.763C181.153 475.51 180.8 475.383 180.4 475.383Z" fill="#1F3155"/>
<path d="M245.793 474.643C246.793 474.643 247.647 474.89 248.353 475.383C249.073 475.876 249.433 476.596 249.433 477.543C249.433 478.436 249.107 479.19 248.453 479.803C247.8 480.403 247.02 480.756 246.113 480.863V480.943C246.767 480.983 247.347 481.09 247.853 481.263C248.373 481.436 248.82 481.743 249.193 482.183C249.567 482.623 249.753 483.17 249.753 483.823C249.753 484.303 249.653 484.756 249.453 485.183C249.093 485.836 248.58 486.33 247.913 486.663C247.247 486.996 246.52 487.163 245.733 487.163C244.84 487.163 244.087 486.956 243.473 486.543C242.873 486.143 242.573 485.523 242.573 484.683C242.573 484.363 242.68 484.09 242.893 483.863C243.12 483.65 243.393 483.543 243.713 483.543C244.007 483.543 244.24 483.623 244.413 483.783C244.587 483.943 244.673 484.163 244.673 484.443C244.673 484.723 244.58 484.956 244.393 485.143C244.18 485.33 243.94 485.423 243.673 485.423C243.54 485.423 243.413 485.403 243.293 485.363C243.6 486.176 244.28 486.583 245.333 486.583C246.12 486.583 246.713 486.31 247.113 485.763C247.527 485.23 247.733 484.556 247.733 483.743C247.733 482.876 247.52 482.243 247.093 481.843C246.667 481.43 246.02 481.223 245.153 481.223H244.633V480.683H245.153C245.927 480.683 246.5 480.423 246.873 479.903C247.26 479.37 247.453 478.703 247.453 477.903C247.453 476.276 246.673 475.463 245.113 475.463C244.473 475.463 243.987 475.65 243.653 476.023C243.293 476.383 243.113 476.79 243.113 477.243V477.423C243.113 477.45 243.127 477.503 243.153 477.583C243.247 477.463 243.353 477.37 243.473 477.303C243.633 477.236 243.773 477.203 243.893 477.203C244.187 477.203 244.427 477.296 244.613 477.483C244.787 477.67 244.873 477.903 244.873 478.183C244.873 478.436 244.78 478.656 244.593 478.843C244.38 479.03 244.147 479.123 243.893 479.123C243.48 479.123 243.153 478.956 242.913 478.623C242.687 478.276 242.573 477.89 242.573 477.463C242.573 476.57 242.88 475.876 243.493 475.383C244.12 474.89 244.887 474.643 245.793 474.643ZM256.108 474.443C257.574 474.443 258.694 474.87 259.468 475.723C260.254 476.576 260.648 477.73 260.648 479.183C260.648 480.556 260.221 481.69 259.368 482.583C258.528 483.463 257.434 483.903 256.088 483.903C254.621 483.903 253.428 483.476 252.508 482.623C251.601 481.756 251.148 480.61 251.148 479.183C251.148 477.77 251.621 476.63 252.568 475.763C253.528 474.883 254.708 474.443 256.108 474.443ZM256.748 483.223C257.761 483.223 258.561 482.816 259.148 482.003C259.734 481.176 260.028 480.236 260.028 479.183C260.028 477.236 259.314 475.943 257.888 475.303C257.461 475.143 257.034 475.063 256.608 475.063C255.488 475.063 254.634 475.463 254.048 476.263C253.474 477.063 253.188 478.036 253.188 479.183C253.188 480.316 253.508 481.276 254.148 482.063C254.788 482.836 255.654 483.223 256.748 483.223Z" fill="#1F3155"/>
<path d="M323.588 474.443C325.055 474.443 326.175 474.87 326.948 475.723C327.735 476.576 328.128 477.73 328.128 479.183C328.128 480.556 327.701 481.69 326.848 482.583C326.008 483.463 324.915 483.903 323.568 483.903C322.101 483.903 320.908 483.476 319.988 482.623C319.081 481.756 318.628 480.61 318.628 479.183C318.628 477.77 319.101 476.63 320.048 475.763C321.008 474.883 322.188 474.443 323.588 474.443ZM324.228 483.223C325.241 483.223 326.041 482.816 326.628 482.003C327.215 481.176 327.508 480.236 327.508 479.183C327.508 477.236 326.795 475.943 325.368 475.303C324.941 475.143 324.515 475.063 324.088 475.063C322.968 475.063 322.115 475.463 321.528 476.263C320.955 477.063 320.668 478.036 320.668 479.183C320.668 480.316 320.988 481.276 321.628 482.063C322.268 482.836 323.135 483.223 324.228 483.223ZM329.427 475.383V474.843H334.327V475.383H332.827V483.203H334.327V483.743H329.427V483.203H330.927V475.383H329.427Z" fill="#1F3155"/>
<path d="M400.651 474.443C402.117 474.443 403.237 474.87 404.011 475.723C404.797 476.576 405.191 477.73 405.191 479.183C405.191 480.556 404.764 481.69 403.911 482.583C403.071 483.463 401.977 483.903 400.631 483.903C399.164 483.903 397.971 483.476 397.051 482.623C396.144 481.756 395.691 480.61 395.691 479.183C395.691 477.77 396.164 476.63 397.111 475.763C398.071 474.883 399.251 474.443 400.651 474.443ZM401.291 483.223C402.304 483.223 403.104 482.816 403.691 482.003C404.277 481.176 404.571 480.236 404.571 479.183C404.571 477.236 403.857 475.943 402.431 475.303C402.004 475.143 401.577 475.063 401.151 475.063C400.031 475.063 399.177 475.463 398.591 476.263C398.017 477.063 397.731 478.036 397.731 479.183C397.731 480.316 398.051 481.276 398.691 482.063C399.331 482.836 400.197 483.223 401.291 483.223ZM413.449 477.683C413.449 478.576 413.056 479.463 412.269 480.343C411.496 481.223 410.649 481.823 409.729 482.143H412.869L413.949 479.763H414.489L413.949 483.743H406.589V483.263C407.856 482.996 408.982 482.383 409.969 481.423C410.969 480.463 411.469 479.37 411.469 478.143C411.469 477.41 411.289 476.823 410.929 476.383C410.582 475.93 410.049 475.703 409.329 475.703C408.716 475.703 408.216 475.883 407.829 476.243C407.456 476.603 407.269 477.083 407.269 477.683C407.269 477.963 407.296 478.176 407.349 478.323C407.536 478.043 407.796 477.903 408.129 477.903C408.422 477.903 408.662 477.996 408.849 478.183C409.009 478.37 409.089 478.596 409.089 478.863C409.089 479.116 408.996 479.336 408.809 479.523C408.622 479.71 408.396 479.803 408.129 479.803C407.902 479.803 407.696 479.743 407.509 479.623C406.949 479.316 406.669 478.696 406.669 477.763C406.669 476.803 407.002 476.043 407.669 475.483C408.349 474.923 409.169 474.643 410.129 474.643C411.116 474.643 411.916 474.916 412.529 475.463C413.142 475.996 413.449 476.736 413.449 477.683Z" fill="#1F3155"/>
<path d="M479.709 474.443C481.176 474.443 482.296 474.87 483.069 475.723C483.856 476.576 484.249 477.73 484.249 479.183C484.249 480.556 483.823 481.69 482.969 482.583C482.129 483.463 481.036 483.903 479.689 483.903C478.223 483.903 477.029 483.476 476.109 482.623C475.203 481.756 474.749 480.61 474.749 479.183C474.749 477.77 475.223 476.63 476.169 475.763C477.129 474.883 478.309 474.443 479.709 474.443ZM480.349 483.223C481.363 483.223 482.163 482.816 482.749 482.003C483.336 481.176 483.629 480.236 483.629 479.183C483.629 477.236 482.916 475.943 481.489 475.303C481.063 475.143 480.636 475.063 480.209 475.063C479.089 475.063 478.236 475.463 477.649 476.263C477.076 477.063 476.789 478.036 476.789 479.183C476.789 480.316 477.109 481.276 477.749 482.063C478.389 482.836 479.256 483.223 480.349 483.223ZM488.868 474.643C489.868 474.643 490.721 474.89 491.428 475.383C492.148 475.876 492.508 476.596 492.508 477.543C492.508 478.436 492.181 479.19 491.528 479.803C490.874 480.403 490.094 480.756 489.188 480.863V480.943C489.841 480.983 490.421 481.09 490.928 481.263C491.448 481.436 491.894 481.743 492.268 482.183C492.641 482.623 492.828 483.17 492.828 483.823C492.828 484.303 492.728 484.756 492.528 485.183C492.168 485.836 491.654 486.33 490.988 486.663C490.321 486.996 489.594 487.163 488.808 487.163C487.914 487.163 487.161 486.956 486.548 486.543C485.948 486.143 485.648 485.523 485.648 484.683C485.648 484.363 485.754 484.09 485.968 483.863C486.194 483.65 486.468 483.543 486.788 483.543C487.081 483.543 487.314 483.623 487.488 483.783C487.661 483.943 487.748 484.163 487.748 484.443C487.748 484.723 487.654 484.956 487.468 485.143C487.254 485.33 487.014 485.423 486.748 485.423C486.614 485.423 486.488 485.403 486.368 485.363C486.674 486.176 487.354 486.583 488.408 486.583C489.194 486.583 489.788 486.31 490.188 485.763C490.601 485.23 490.808 484.556 490.808 483.743C490.808 482.876 490.594 482.243 490.168 481.843C489.741 481.43 489.094 481.223 488.228 481.223H487.708V480.683H488.228C489.001 480.683 489.574 480.423 489.948 479.903C490.334 479.37 490.528 478.703 490.528 477.903C490.528 476.276 489.748 475.463 488.188 475.463C487.548 475.463 487.061 475.65 486.728 476.023C486.368 476.383 486.188 476.79 486.188 477.243V477.423C486.188 477.45 486.201 477.503 486.228 477.583C486.321 477.463 486.428 477.37 486.548 477.303C486.708 477.236 486.848 477.203 486.968 477.203C487.261 477.203 487.501 477.296 487.688 477.483C487.861 477.67 487.948 477.903 487.948 478.183C487.948 478.436 487.854 478.656 487.668 478.843C487.454 479.03 487.221 479.123 486.968 479.123C486.554 479.123 486.228 478.956 485.988 478.623C485.761 478.276 485.648 477.89 485.648 477.463C485.648 476.57 485.954 475.876 486.568 475.383C487.194 474.89 487.961 474.643 488.868 474.643Z" fill="#1F3155"/>
<path d="M93.7264 430.709C93.7264 431.602 93.3331 432.489 92.5464 433.369C91.7731 434.249 90.9264 434.849 90.0064 435.169H93.1464L94.2264 432.789H94.7664L94.2264 436.769H86.8664V436.289C88.1331 436.022 89.2597 435.409 90.2464 434.449C91.2464 433.489 91.7464 432.395 91.7464 431.169C91.7464 430.435 91.5664 429.849 91.2064 429.409C90.8597 428.955 90.3264 428.729 89.6064 428.729C88.9931 428.729 88.4931 428.909 88.1064 429.269C87.7331 429.629 87.5464 430.109 87.5464 430.709C87.5464 430.989 87.5731 431.202 87.6264 431.349C87.8131 431.069 88.0731 430.929 88.4064 430.929C88.6997 430.929 88.9397 431.022 89.1264 431.209C89.2864 431.395 89.3664 431.622 89.3664 431.889C89.3664 432.142 89.2731 432.362 89.0864 432.549C88.8997 432.735 88.6731 432.829 88.4064 432.829C88.1797 432.829 87.9731 432.769 87.7864 432.649C87.2264 432.342 86.9464 431.722 86.9464 430.789C86.9464 429.829 87.2797 429.069 87.9464 428.509C88.6264 427.949 89.4464 427.669 90.4064 427.669C91.3931 427.669 92.1931 427.942 92.8064 428.489C93.4197 429.022 93.7264 429.762 93.7264 430.709ZM96.3953 428.409V427.869H101.295V428.409H99.7953V436.229H101.295V436.769H96.3953V436.229H97.8953V428.409H96.3953Z" fill="#1F3155"/>
<path d="M173.371 433.707C173.371 434.6 172.978 435.487 172.191 436.367C171.418 437.247 170.571 437.847 169.651 438.167H172.791L173.871 435.787H174.411L173.871 439.767H166.511V439.287C167.778 439.02 168.904 438.407 169.891 437.447C170.891 436.487 171.391 435.394 171.391 434.167C171.391 433.434 171.211 432.847 170.851 432.407C170.504 431.954 169.971 431.727 169.251 431.727C168.638 431.727 168.138 431.907 167.751 432.267C167.378 432.627 167.191 433.107 167.191 433.707C167.191 433.987 167.218 434.2 167.271 434.347C167.458 434.067 167.718 433.927 168.051 433.927C168.344 433.927 168.584 434.02 168.771 434.207C168.931 434.394 169.011 434.62 169.011 434.887C169.011 435.14 168.918 435.36 168.731 435.547C168.544 435.734 168.318 435.827 168.051 435.827C167.824 435.827 167.618 435.767 167.431 435.647C166.871 435.34 166.591 434.72 166.591 433.787C166.591 432.827 166.924 432.067 167.591 431.507C168.271 430.947 169.091 430.667 170.051 430.667C171.038 430.667 171.838 430.94 172.451 431.487C173.064 432.02 173.371 432.76 173.371 433.707ZM183 433.707C183 434.6 182.607 435.487 181.82 436.367C181.047 437.247 180.2 437.847 179.28 438.167H182.42L183.5 435.787H184.04L183.5 439.767H176.14V439.287C177.407 439.02 178.533 438.407 179.52 437.447C180.52 436.487 181.02 435.394 181.02 434.167C181.02 433.434 180.84 432.847 180.48 432.407C180.133 431.954 179.6 431.727 178.88 431.727C178.267 431.727 177.767 431.907 177.38 432.267C177.007 432.627 176.82 433.107 176.82 433.707C176.82 433.987 176.847 434.2 176.9 434.347C177.087 434.067 177.347 433.927 177.68 433.927C177.973 433.927 178.213 434.02 178.4 434.207C178.56 434.394 178.64 434.62 178.64 434.887C178.64 435.14 178.547 435.36 178.36 435.547C178.173 435.734 177.947 435.827 177.68 435.827C177.453 435.827 177.247 435.767 177.06 435.647C176.5 435.34 176.22 434.72 176.22 433.787C176.22 432.827 176.553 432.067 177.22 431.507C177.9 430.947 178.72 430.667 179.68 430.667C180.667 430.667 181.467 430.94 182.08 431.487C182.693 432.02 183 432.76 183 433.707Z" fill="#1F3155"/>
<path d="M249.433 433.707C249.433 434.6 249.04 435.487 248.253 436.367C247.48 437.247 246.633 437.847 245.713 438.167H248.853L249.933 435.787H250.473L249.933 439.767H242.573V439.287C243.84 439.02 244.967 438.407 245.953 437.447C246.953 436.487 247.453 435.394 247.453 434.167C247.453 433.434 247.273 432.847 246.913 432.407C246.567 431.954 246.033 431.727 245.313 431.727C244.7 431.727 244.2 431.907 243.813 432.267C243.44 432.627 243.253 433.107 243.253 433.707C243.253 433.987 243.28 434.2 243.333 434.347C243.52 434.067 243.78 433.927 244.113 433.927C244.407 433.927 244.647 434.02 244.833 434.207C244.993 434.394 245.073 434.62 245.073 434.887C245.073 435.14 244.98 435.36 244.793 435.547C244.607 435.734 244.38 435.827 244.113 435.827C243.887 435.827 243.68 435.767 243.493 435.647C242.933 435.34 242.653 434.72 242.653 433.787C242.653 432.827 242.987 432.067 243.653 431.507C244.333 430.947 245.153 430.667 246.113 430.667C247.1 430.667 247.9 430.94 248.513 431.487C249.127 432.02 249.433 432.76 249.433 433.707ZM255.032 430.667C256.032 430.667 256.885 430.914 257.592 431.407C258.312 431.9 258.672 432.62 258.672 433.567C258.672 434.46 258.345 435.214 257.692 435.827C257.038 436.427 256.258 436.78 255.352 436.887V436.967C256.005 437.007 256.585 437.114 257.092 437.287C257.612 437.46 258.058 437.767 258.432 438.207C258.805 438.647 258.992 439.194 258.992 439.847C258.992 440.327 258.892 440.78 258.692 441.207C258.332 441.86 257.818 442.354 257.152 442.687C256.485 443.02 255.758 443.187 254.972 443.187C254.078 443.187 253.325 442.98 252.712 442.567C252.112 442.167 251.812 441.547 251.812 440.707C251.812 440.387 251.918 440.114 252.132 439.887C252.358 439.674 252.632 439.567 252.952 439.567C253.245 439.567 253.478 439.647 253.652 439.807C253.825 439.967 253.912 440.187 253.912 440.467C253.912 440.747 253.818 440.98 253.632 441.167C253.418 441.354 253.178 441.447 252.912 441.447C252.778 441.447 252.652 441.427 252.532 441.387C252.838 442.2 253.518 442.607 254.572 442.607C255.358 442.607 255.952 442.334 256.352 441.787C256.765 441.254 256.972 440.58 256.972 439.767C256.972 438.9 256.758 438.267 256.332 437.867C255.905 437.454 255.258 437.247 254.392 437.247H253.872V436.707H254.392C255.165 436.707 255.738 436.447 256.112 435.927C256.498 435.394 256.692 434.727 256.692 433.927C256.692 432.3 255.912 431.487 254.352 431.487C253.712 431.487 253.225 431.674 252.892 432.047C252.532 432.407 252.352 432.814 252.352 433.267V433.447C252.352 433.474 252.365 433.527 252.392 433.607C252.485 433.487 252.592 433.394 252.712 433.327C252.872 433.26 253.012 433.227 253.132 433.227C253.425 433.227 253.665 433.32 253.852 433.507C254.025 433.694 254.112 433.927 254.112 434.207C254.112 434.46 254.018 434.68 253.832 434.867C253.618 435.054 253.385 435.147 253.132 435.147C252.718 435.147 252.392 434.98 252.152 434.647C251.925 434.3 251.812 433.914 251.812 433.487C251.812 432.594 252.118 431.9 252.732 431.407C253.358 430.914 254.125 430.667 255.032 430.667Z" fill="#1F3155"/>
<path d="M325.488 433.707C325.488 434.6 325.095 435.487 324.308 436.367C323.535 437.247 322.688 437.847 321.768 438.167H324.908L325.988 435.787H326.528L325.988 439.767H318.628V439.287C319.895 439.02 321.021 438.407 322.008 437.447C323.008 436.487 323.508 435.394 323.508 434.167C323.508 433.434 323.328 432.847 322.968 432.407C322.621 431.954 322.088 431.727 321.368 431.727C320.755 431.727 320.255 431.907 319.868 432.267C319.495 432.627 319.308 433.107 319.308 433.707C319.308 433.987 319.335 434.2 319.388 434.347C319.575 434.067 319.835 433.927 320.168 433.927C320.461 433.927 320.701 434.02 320.888 434.207C321.048 434.394 321.128 434.62 321.128 434.887C321.128 435.14 321.035 435.36 320.848 435.547C320.661 435.734 320.435 435.827 320.168 435.827C319.941 435.827 319.735 435.767 319.548 435.647C318.988 435.34 318.708 434.72 318.708 433.787C318.708 432.827 319.041 432.067 319.708 431.507C320.388 430.947 321.208 430.667 322.168 430.667C323.155 430.667 323.955 430.94 324.568 431.487C325.181 432.02 325.488 432.76 325.488 433.707ZM336.797 439.767H334.817V442.467H336.457V443.007H331.377V442.467H333.017V439.767H327.957V439.267L334.277 430.367H334.817V438.447H335.737L336.777 436.007H337.317L336.797 439.767ZM329.337 438.447H333.017V433.167L329.337 438.447Z" fill="#1F3155"/>
<path d="M404.551 433.707C404.551 434.6 404.157 435.487 403.371 436.367C402.597 437.247 401.751 437.847 400.831 438.167H403.971L405.051 435.787H405.591L405.051 439.767H397.691V439.287C398.957 439.02 400.084 438.407 401.071 437.447C402.071 436.487 402.571 435.394 402.571 434.167C402.571 433.434 402.391 432.847 402.031 432.407C401.684 431.954 401.151 431.727 400.431 431.727C399.817 431.727 399.317 431.907 398.931 432.267C398.557 432.627 398.371 433.107 398.371 433.707C398.371 433.987 398.397 434.2 398.451 434.347C398.637 434.067 398.897 433.927 399.231 433.927C399.524 433.927 399.764 434.02 399.951 434.207C400.111 434.394 400.191 434.62 400.191 434.887C400.191 435.14 400.097 435.36 399.911 435.547C399.724 435.734 399.497 435.827 399.231 435.827C399.004 435.827 398.797 435.767 398.611 435.647C398.051 435.34 397.771 434.72 397.771 433.787C397.771 432.827 398.104 432.067 398.771 431.507C399.451 430.947 400.271 430.667 401.231 430.667C402.217 430.667 403.017 430.94 403.631 431.487C404.244 432.02 404.551 432.76 404.551 433.707ZM407.28 440.647C407.28 440.34 407.38 440.067 407.58 439.827C407.793 439.6 408.053 439.487 408.36 439.487C408.666 439.487 408.9 439.574 409.06 439.747C409.206 439.934 409.28 440.154 409.28 440.407C409.28 440.687 409.193 440.927 409.02 441.127C408.846 441.327 408.62 441.427 408.34 441.427C408.26 441.427 408.18 441.414 408.1 441.387C408.54 442.147 409.273 442.527 410.3 442.527C410.913 442.527 411.42 442.327 411.82 441.927C412.233 441.54 412.506 441.087 412.64 440.567C412.786 440.06 412.86 439.507 412.86 438.907C412.86 438.027 412.653 437.26 412.24 436.607C411.826 435.94 411.206 435.607 410.38 435.607C409.353 435.607 408.726 436.067 408.5 436.987H408.12V430.587H413L413.84 428.547H414.38L413.86 432.187H408.68V435.767C409.213 435.234 409.953 434.967 410.9 434.967C412.14 434.967 413.113 435.28 413.82 435.907C414.54 436.534 414.9 437.454 414.9 438.667C414.9 440.014 414.48 441.087 413.64 441.887C412.813 442.7 411.733 443.107 410.4 443.107C409.6 443.107 408.88 442.887 408.24 442.447C407.6 442.007 407.28 441.407 407.28 440.647Z" fill="#1F3155"/>
<path d="M481.609 433.707C481.609 434.6 481.216 435.487 480.429 436.367C479.656 437.247 478.809 437.847 477.889 438.167H481.029L482.109 435.787H482.649L482.109 439.767H474.749V439.287C476.016 439.02 477.143 438.407 478.129 437.447C479.129 436.487 479.629 435.394 479.629 434.167C479.629 433.434 479.449 432.847 479.089 432.407C478.743 431.954 478.209 431.727 477.489 431.727C476.876 431.727 476.376 431.907 475.989 432.267C475.616 432.627 475.429 433.107 475.429 433.707C475.429 433.987 475.456 434.2 475.509 434.347C475.696 434.067 475.956 433.927 476.289 433.927C476.583 433.927 476.823 434.02 477.009 434.207C477.169 434.394 477.249 434.62 477.249 434.887C477.249 435.14 477.156 435.36 476.969 435.547C476.783 435.734 476.556 435.827 476.289 435.827C476.063 435.827 475.856 435.767 475.669 435.647C475.109 435.34 474.829 434.72 474.829 433.787C474.829 432.827 475.163 432.067 475.829 431.507C476.509 430.947 477.329 430.667 478.289 430.667C479.276 430.667 480.076 430.94 480.689 431.487C481.303 432.02 481.609 432.76 481.609 433.707ZM489.058 430.927C490.178 430.927 491.111 431.3 491.858 432.047C492.618 432.887 492.998 433.94 492.998 435.207C492.998 436.487 492.598 437.6 491.798 438.547C490.998 439.48 489.978 439.947 488.738 439.947C487.271 439.947 486.178 439.447 485.458 438.447C484.738 437.447 484.378 436.2 484.378 434.707C484.378 432.547 485.018 430.74 486.298 429.287C487.591 427.834 489.298 426.914 491.418 426.527L491.458 427.067C490.271 427.227 489.205 427.82 488.258 428.847C487.311 429.86 486.718 430.98 486.478 432.207L486.558 432.227C486.811 431.8 487.158 431.48 487.598 431.267C488.051 431.04 488.538 430.927 489.058 430.927ZM488.718 439.407C489.185 439.407 489.578 439.274 489.898 439.007C490.231 438.74 490.478 438.387 490.638 437.947C490.798 437.494 490.905 437.06 490.958 436.647C491.025 436.22 491.058 435.787 491.058 435.347C491.058 432.774 490.291 431.487 488.758 431.487C488.291 431.487 487.885 431.62 487.538 431.887C487.205 432.154 486.958 432.507 486.798 432.947C486.638 433.387 486.525 433.82 486.458 434.247C486.391 434.66 486.358 435.094 486.358 435.547C486.358 436.28 486.471 437.007 486.698 437.727C486.925 438.434 487.305 438.914 487.838 439.167C488.118 439.327 488.411 439.407 488.718 439.407Z" fill="#1F3155"/>
<path d="M86.7664 385.432V384.892H91.6664V385.432H90.1664V393.252H91.6664V393.792H86.7664V393.252H88.2664V385.432H86.7664ZM101.715 393.792H99.735V396.492H101.375V397.032H96.295V396.492H97.935V393.792H92.875V393.292L99.195 384.392H99.735V392.472H100.655L101.695 390.032H102.235L101.715 393.792ZM94.255 392.472H97.935V387.192L94.255 392.472Z" fill="#1F3155"/>
<path d="M163.825 385.432V384.892H168.725V385.432H167.225V393.252H168.725V393.792H163.825V393.252H165.325V385.432H163.825ZM170.194 394.672C170.194 394.366 170.294 394.092 170.494 393.852C170.707 393.626 170.967 393.512 171.274 393.512C171.58 393.512 171.814 393.599 171.974 393.772C172.12 393.959 172.194 394.179 172.194 394.432C172.194 394.712 172.107 394.952 171.934 395.152C171.76 395.352 171.534 395.452 171.254 395.452C171.174 395.452 171.094 395.439 171.014 395.412C171.454 396.172 172.187 396.552 173.214 396.552C173.827 396.552 174.334 396.352 174.734 395.952C175.147 395.566 175.42 395.112 175.554 394.592C175.7 394.086 175.774 393.532 175.774 392.932C175.774 392.052 175.567 391.286 175.154 390.632C174.74 389.966 174.12 389.632 173.294 389.632C172.267 389.632 171.64 390.092 171.414 391.012H171.034V384.612H175.914L176.754 382.572H177.294L176.774 386.212H171.594V389.792C172.127 389.259 172.867 388.992 173.814 388.992C175.054 388.992 176.027 389.306 176.734 389.932C177.454 390.559 177.814 391.479 177.814 392.692C177.814 394.039 177.394 395.112 176.554 395.912C175.727 396.726 174.647 397.132 173.314 397.132C172.514 397.132 171.794 396.912 171.154 396.472C170.514 396.032 170.194 395.432 170.194 394.672Z" fill="#1F3155"/>
<path d="M240.884 385.432V384.892H245.784V385.432H244.284V393.252H245.784V393.792H240.884V393.252H242.384V385.432H240.884ZM251.972 384.952C253.092 384.952 254.026 385.326 254.772 386.072C255.532 386.912 255.912 387.966 255.912 389.232C255.912 390.512 255.512 391.626 254.712 392.572C253.912 393.506 252.892 393.972 251.652 393.972C250.186 393.972 249.092 393.472 248.372 392.472C247.652 391.472 247.292 390.226 247.292 388.732C247.292 386.572 247.932 384.766 249.212 383.312C250.506 381.859 252.212 380.939 254.332 380.552L254.372 381.092C253.186 381.252 252.119 381.846 251.172 382.872C250.226 383.886 249.632 385.006 249.392 386.232L249.472 386.252C249.726 385.826 250.072 385.506 250.512 385.292C250.966 385.066 251.452 384.952 251.972 384.952ZM251.632 393.432C252.099 393.432 252.492 393.299 252.812 393.032C253.146 392.766 253.392 392.412 253.552 391.972C253.712 391.519 253.819 391.086 253.872 390.672C253.939 390.246 253.972 389.812 253.972 389.372C253.972 386.799 253.206 385.512 251.672 385.512C251.206 385.512 250.799 385.646 250.452 385.912C250.119 386.179 249.872 386.532 249.712 386.972C249.552 387.412 249.439 387.846 249.372 388.272C249.306 388.686 249.272 389.119 249.272 389.572C249.272 390.306 249.386 391.032 249.612 391.752C249.839 392.459 250.219 392.939 250.752 393.192C251.032 393.352 251.326 393.432 251.632 393.432Z" fill="#1F3155"/>
<path d="M317.942 385.432V384.892H322.842V385.432H321.342V393.252H322.842V393.792H317.942V393.252H319.442V385.432H317.942ZM326.431 396.432C326.391 396.339 326.371 396.252 326.371 396.172C326.371 395.946 326.451 395.752 326.611 395.592C326.771 395.419 326.991 395.332 327.271 395.332C327.537 395.332 327.751 395.412 327.911 395.572C328.071 395.732 328.151 395.939 328.151 396.192C328.151 396.499 328.044 396.746 327.831 396.932C327.631 397.119 327.371 397.212 327.051 397.212C326.611 397.212 326.244 397.099 325.951 396.872C325.657 396.659 325.511 396.339 325.511 395.912C325.511 395.592 325.584 395.306 325.731 395.052C325.877 394.799 325.997 394.579 326.091 394.392L330.991 386.312H326.191L325.091 388.692H324.551L325.231 384.712H332.331V385.212L326.551 394.672C326.511 394.739 326.457 394.839 326.391 394.972C326.324 395.106 326.271 395.206 326.231 395.272C326.137 395.446 326.091 395.646 326.091 395.872C326.091 395.992 326.117 396.112 326.171 396.232C326.237 396.352 326.324 396.419 326.431 396.432Z" fill="#1F3155"/>
<path d="M395.005 385.432V384.892H399.905V385.432H398.405V393.252H399.905V393.792H395.005V393.252H396.505V385.432H395.005ZM406.033 387.012L406.393 387.232C406.5 387.299 406.667 387.406 406.893 387.552C407.12 387.699 407.293 387.806 407.413 387.872C408.52 388.646 409.073 389.486 409.073 390.392C409.073 391.472 408.653 392.346 407.813 393.012C406.987 393.679 406.02 394.012 404.913 394.012C403.9 394.012 403.007 393.772 402.233 393.292C401.473 392.799 401.093 392.079 401.093 391.132C401.093 389.759 401.993 388.646 403.793 387.792C403.18 387.392 402.853 387.179 402.813 387.152C401.747 386.352 401.213 385.452 401.213 384.452C401.213 383.492 401.567 382.712 402.273 382.112C402.98 381.499 403.82 381.192 404.793 381.192C405.78 381.192 406.633 381.426 407.353 381.892C408.087 382.359 408.453 383.052 408.453 383.972C408.453 384.599 408.213 385.179 407.733 385.712C407.267 386.246 406.7 386.679 406.033 387.012ZM402.753 383.532C402.753 383.932 402.907 384.346 403.213 384.772C403.52 385.186 403.82 385.506 404.113 385.732C404.42 385.959 404.807 386.226 405.273 386.532L405.573 386.732C406 386.212 406.313 385.732 406.513 385.292C406.727 384.852 406.833 384.346 406.833 383.772C406.833 383.199 406.62 382.699 406.193 382.272C406.02 382.112 405.793 381.979 405.513 381.872C405.26 381.792 405 381.752 404.733 381.752C404.347 381.752 403.987 381.846 403.653 382.032C403.32 382.206 403.08 382.452 402.933 382.772C402.813 382.999 402.753 383.252 402.753 383.532ZM405.073 393.472C405.727 393.472 406.273 393.266 406.713 392.852C407.167 392.439 407.393 391.912 407.393 391.272C407.393 390.819 407.267 390.432 407.013 390.112C406.773 389.792 406.427 389.472 405.973 389.152C405.773 389.006 405.36 388.739 404.733 388.352L404.273 388.072C403.833 388.406 403.46 388.852 403.153 389.412C402.86 389.959 402.713 390.492 402.713 391.012C402.713 391.786 402.913 392.392 403.313 392.832C403.713 393.259 404.3 393.472 405.073 393.472Z" fill="#1F3155"/>
<path d="M474.649 385.432V384.892H479.549V385.432H478.049V393.252H479.549V393.792H474.649V393.252H476.149V385.432H474.649ZM484.978 393.112C483.831 393.112 482.898 392.752 482.178 392.032C481.471 391.299 481.118 390.366 481.118 389.232C481.118 388.006 481.511 386.979 482.298 386.152C483.098 385.312 484.098 384.892 485.298 384.892C486.671 384.892 487.711 385.352 488.418 386.272C489.124 387.192 489.478 388.346 489.478 389.732C489.478 391.892 488.864 393.632 487.638 394.952C486.424 396.272 484.751 397.126 482.618 397.512L482.578 396.972C483.764 396.812 484.831 396.219 485.778 395.192C486.724 394.179 487.318 393.059 487.558 391.832L487.478 391.812C487.251 392.226 486.904 392.546 486.438 392.772C485.971 392.999 485.484 393.112 484.978 393.112ZM485.318 385.432C484.744 385.432 484.278 385.652 483.918 386.092C483.558 386.519 483.324 386.986 483.218 387.492C483.111 387.986 483.058 388.519 483.058 389.092C483.058 389.612 483.124 390.126 483.258 390.632C483.404 391.126 483.658 391.572 484.018 391.972C484.378 392.359 484.824 392.552 485.358 392.552C485.838 392.552 486.244 392.352 486.578 391.952C486.924 391.539 487.164 391.086 487.298 390.592C487.431 390.086 487.498 389.592 487.498 389.112C487.498 388.739 487.458 388.359 487.378 387.972C487.311 387.586 487.204 387.192 487.058 386.792C486.911 386.392 486.684 386.066 486.378 385.812C486.071 385.559 485.718 385.432 485.318 385.432Z" fill="#1F3155"/>
<path d="M91.8264 340.516C93.2931 340.516 94.4131 340.943 95.1864 341.796C95.9731 342.65 96.3664 343.803 96.3664 345.256C96.3664 346.63 95.9397 347.763 95.0864 348.656C94.2464 349.536 93.1531 349.976 91.8064 349.976C90.3397 349.976 89.1464 349.55 88.2264 348.696C87.3197 347.83 86.8664 346.683 86.8664 345.256C86.8664 343.843 87.3397 342.703 88.2864 341.836C89.2464 340.956 90.4264 340.516 91.8264 340.516ZM92.4664 349.296C93.4797 349.296 94.2797 348.89 94.8664 348.076C95.4531 347.25 95.7464 346.31 95.7464 345.256C95.7464 343.31 95.0331 342.016 93.6064 341.376C93.1797 341.216 92.7531 341.136 92.3264 341.136C91.2064 341.136 90.3531 341.536 89.7664 342.336C89.1931 343.136 88.9064 344.11 88.9064 345.256C88.9064 346.39 89.2264 347.35 89.8664 348.136C90.5064 348.91 91.3731 349.296 92.4664 349.296ZM99.8448 352.456C99.8048 352.363 99.7848 352.276 99.7848 352.196C99.7848 351.97 99.8648 351.776 100.025 351.616C100.185 351.443 100.405 351.356 100.685 351.356C100.952 351.356 101.165 351.436 101.325 351.596C101.485 351.756 101.565 351.963 101.565 352.216C101.565 352.523 101.458 352.77 101.245 352.956C101.045 353.143 100.785 353.236 100.465 353.236C100.025 353.236 99.6582 353.123 99.3648 352.896C99.0715 352.683 98.9248 352.363 98.9248 351.936C98.9248 351.616 98.9982 351.33 99.1448 351.076C99.2915 350.823 99.4115 350.603 99.5048 350.416L104.405 342.336H99.6048L98.5048 344.716H97.9648L98.6448 340.736H105.745V341.236L99.9648 350.696C99.9248 350.763 99.8715 350.863 99.8048 350.996C99.7382 351.13 99.6848 351.23 99.6448 351.296C99.5515 351.47 99.5048 351.67 99.5048 351.896C99.5048 352.016 99.5315 352.136 99.5848 352.256C99.6515 352.376 99.7382 352.443 99.8448 352.456Z" fill="#1F3155"/>
<path d="M168.885 340.516C170.352 340.516 171.472 340.943 172.245 341.796C173.032 342.65 173.425 343.803 173.425 345.256C173.425 346.63 172.998 347.763 172.145 348.656C171.305 349.536 170.212 349.976 168.865 349.976C167.398 349.976 166.205 349.55 165.285 348.696C164.378 347.83 163.925 346.683 163.925 345.256C163.925 343.843 164.398 342.703 165.345 341.836C166.305 340.956 167.485 340.516 168.885 340.516ZM169.525 349.296C170.538 349.296 171.338 348.89 171.925 348.076C172.512 347.25 172.805 346.31 172.805 345.256C172.805 343.31 172.092 342.016 170.665 341.376C170.238 341.216 169.812 341.136 169.385 341.136C168.265 341.136 167.412 341.536 166.825 342.336C166.252 343.136 165.965 344.11 165.965 345.256C165.965 346.39 166.285 347.35 166.925 348.136C167.565 348.91 168.432 349.296 169.525 349.296ZM179.443 343.036L179.803 343.256C179.91 343.323 180.077 343.43 180.303 343.576C180.53 343.723 180.703 343.83 180.823 343.896C181.93 344.67 182.483 345.51 182.483 346.416C182.483 347.496 182.063 348.37 181.223 349.036C180.397 349.703 179.43 350.036 178.323 350.036C177.31 350.036 176.417 349.796 175.643 349.316C174.883 348.823 174.503 348.103 174.503 347.156C174.503 345.783 175.403 344.67 177.203 343.816C176.59 343.416 176.263 343.203 176.223 343.176C175.157 342.376 174.623 341.476 174.623 340.476C174.623 339.516 174.977 338.736 175.683 338.136C176.39 337.523 177.23 337.216 178.203 337.216C179.19 337.216 180.043 337.45 180.763 337.916C181.497 338.383 181.863 339.076 181.863 339.996C181.863 340.623 181.623 341.203 181.143 341.736C180.677 342.27 180.11 342.703 179.443 343.036ZM176.163 339.556C176.163 339.956 176.317 340.37 176.623 340.796C176.93 341.21 177.23 341.53 177.523 341.756C177.83 341.983 178.217 342.25 178.683 342.556L178.983 342.756C179.41 342.236 179.723 341.756 179.923 341.316C180.137 340.876 180.243 340.37 180.243 339.796C180.243 339.223 180.03 338.723 179.603 338.296C179.43 338.136 179.203 338.003 178.923 337.896C178.67 337.816 178.41 337.776 178.143 337.776C177.757 337.776 177.397 337.87 177.063 338.056C176.73 338.23 176.49 338.476 176.343 338.796C176.223 339.023 176.163 339.276 176.163 339.556ZM178.483 349.496C179.137 349.496 179.683 349.29 180.123 348.876C180.577 348.463 180.803 347.936 180.803 347.296C180.803 346.843 180.677 346.456 180.423 346.136C180.183 345.816 179.837 345.496 179.383 345.176C179.183 345.03 178.77 344.763 178.143 344.376L177.683 344.096C177.243 344.43 176.87 344.876 176.563 345.436C176.27 345.983 176.123 346.516 176.123 347.036C176.123 347.81 176.323 348.416 176.723 348.856C177.123 349.283 177.71 349.496 178.483 349.496Z" fill="#1F3155"/>
<path d="M245.944 340.516C247.41 340.516 248.53 340.943 249.304 341.796C250.09 342.65 250.484 343.803 250.484 345.256C250.484 346.63 250.057 347.763 249.204 348.656C248.364 349.536 247.27 349.976 245.924 349.976C244.457 349.976 243.264 349.55 242.344 348.696C241.437 347.83 240.984 346.683 240.984 345.256C240.984 343.843 241.457 342.703 242.404 341.836C243.364 340.956 244.544 340.516 245.944 340.516ZM246.584 349.296C247.597 349.296 248.397 348.89 248.984 348.076C249.57 347.25 249.864 346.31 249.864 345.256C249.864 343.31 249.15 342.016 247.724 341.376C247.297 341.216 246.87 341.136 246.444 341.136C245.324 341.136 244.47 341.536 243.884 342.336C243.31 343.136 243.024 344.11 243.024 345.256C243.024 346.39 243.344 347.35 243.984 348.136C244.624 348.91 245.49 349.296 246.584 349.296ZM255.802 349.136C254.655 349.136 253.722 348.776 253.002 348.056C252.295 347.323 251.942 346.39 251.942 345.256C251.942 344.03 252.335 343.003 253.122 342.176C253.922 341.336 254.922 340.916 256.122 340.916C257.495 340.916 258.535 341.376 259.242 342.296C259.949 343.216 260.302 344.37 260.302 345.756C260.302 347.916 259.689 349.656 258.462 350.976C257.249 352.296 255.575 353.15 253.442 353.536L253.402 352.996C254.589 352.836 255.655 352.243 256.602 351.216C257.549 350.203 258.142 349.083 258.382 347.856L258.302 347.836C258.075 348.25 257.729 348.57 257.262 348.796C256.795 349.023 256.309 349.136 255.802 349.136ZM256.142 341.456C255.569 341.456 255.102 341.676 254.742 342.116C254.382 342.543 254.149 343.01 254.042 343.516C253.935 344.01 253.882 344.543 253.882 345.116C253.882 345.636 253.949 346.15 254.082 346.656C254.229 347.15 254.482 347.596 254.842 347.996C255.202 348.383 255.649 348.576 256.182 348.576C256.662 348.576 257.069 348.376 257.402 347.976C257.749 347.563 257.989 347.11 258.122 346.616C258.255 346.11 258.322 345.616 258.322 345.136C258.322 344.763 258.282 344.383 258.202 343.996C258.135 343.61 258.029 343.216 257.882 342.816C257.735 342.416 257.509 342.09 257.202 341.836C256.895 341.583 256.542 341.456 256.142 341.456Z" fill="#1F3155"/>
<path d="M317.942 341.456V340.916H322.842V341.456H321.342V349.276H322.842V349.816H317.942V349.276H319.442V341.456H317.942ZM329.311 340.516C330.777 340.516 331.897 340.943 332.671 341.796C333.457 342.65 333.851 343.803 333.851 345.256C333.851 346.63 333.424 347.763 332.571 348.656C331.731 349.536 330.637 349.976 329.291 349.976C327.824 349.976 326.631 349.55 325.711 348.696C324.804 347.83 324.351 346.683 324.351 345.256C324.351 343.843 324.824 342.703 325.771 341.836C326.731 340.956 327.911 340.516 329.311 340.516ZM329.951 349.296C330.964 349.296 331.764 348.89 332.351 348.076C332.937 347.25 333.231 346.31 333.231 345.256C333.231 343.31 332.517 342.016 331.091 341.376C330.664 341.216 330.237 341.136 329.811 341.136C328.691 341.136 327.837 341.536 327.251 342.336C326.677 343.136 326.391 344.11 326.391 345.256C326.391 346.39 326.711 347.35 327.351 348.136C327.991 348.91 328.857 349.296 329.951 349.296Z" fill="#1F3155"/>
<path d="M395.005 341.456V340.916H399.905V341.456H398.405V349.276H399.905V349.816H395.005V349.276H396.505V341.456H395.005ZM401.313 341.456V340.916H406.213V341.456H404.713V349.276H406.213V349.816H401.313V349.276H402.813V341.456H401.313Z" fill="#1F3155"/>
<path d="M472.059 341.456V340.916H476.959V341.456H475.459V349.276H476.959V349.816H472.059V349.276H473.559V341.456H472.059ZM485.328 343.756C485.328 344.65 484.935 345.536 484.148 346.416C483.375 347.296 482.528 347.896 481.608 348.216H484.748L485.828 345.836H486.368L485.828 349.816H478.468V349.336C479.735 349.07 480.861 348.456 481.848 347.496C482.848 346.536 483.348 345.443 483.348 344.216C483.348 343.483 483.168 342.896 482.808 342.456C482.461 342.003 481.928 341.776 481.208 341.776C480.595 341.776 480.095 341.956 479.708 342.316C479.335 342.676 479.148 343.156 479.148 343.756C479.148 344.036 479.175 344.25 479.228 344.396C479.415 344.116 479.675 343.976 480.008 343.976C480.301 343.976 480.541 344.07 480.728 344.256C480.888 344.443 480.968 344.67 480.968 344.936C480.968 345.19 480.875 345.41 480.688 345.596C480.501 345.783 480.275 345.876 480.008 345.876C479.781 345.876 479.575 345.816 479.388 345.696C478.828 345.39 478.548 344.77 478.548 343.836C478.548 342.876 478.881 342.116 479.548 341.556C480.228 340.996 481.048 340.716 482.008 340.716C482.995 340.716 483.795 340.99 484.408 341.536C485.021 342.07 485.328 342.81 485.328 343.756Z" fill="#1F3155"/>
<path d="M90.0864 296.741C91.0864 296.741 91.9397 296.987 92.6464 297.481C93.3664 297.974 93.7264 298.694 93.7264 299.641C93.7264 300.534 93.3997 301.287 92.7464 301.901C92.0931 302.501 91.3131 302.854 90.4064 302.961V303.041C91.0597 303.081 91.6397 303.187 92.1464 303.361C92.6664 303.534 93.1131 303.841 93.4864 304.281C93.8597 304.721 94.0464 305.267 94.0464 305.921C94.0464 306.401 93.9464 306.854 93.7464 307.281C93.3864 307.934 92.8731 308.427 92.2064 308.761C91.5397 309.094 90.8131 309.261 90.0264 309.261C89.1331 309.261 88.3797 309.054 87.7664 308.641C87.1664 308.241 86.8664 307.621 86.8664 306.781C86.8664 306.461 86.9731 306.187 87.1864 305.961C87.4131 305.747 87.6864 305.641 88.0064 305.641C88.2997 305.641 88.5331 305.721 88.7064 305.881C88.8797 306.041 88.9664 306.261 88.9664 306.541C88.9664 306.821 88.8731 307.054 88.6864 307.241C88.4731 307.427 88.2331 307.521 87.9664 307.521C87.8331 307.521 87.7064 307.501 87.5864 307.461C87.8931 308.274 88.5731 308.681 89.6264 308.681C90.4131 308.681 91.0064 308.407 91.4064 307.861C91.8197 307.327 92.0264 306.654 92.0264 305.841C92.0264 304.974 91.8131 304.341 91.3864 303.941C90.9597 303.527 90.3131 303.321 89.4464 303.321H88.9264V302.781H89.4464C90.2197 302.781 90.7931 302.521 91.1664 302.001C91.5531 301.467 91.7464 300.801 91.7464 300.001C91.7464 298.374 90.9664 297.561 89.4064 297.561C88.7664 297.561 88.2797 297.747 87.9464 298.121C87.5864 298.481 87.4064 298.887 87.4064 299.341V299.521C87.4064 299.547 87.4197 299.601 87.4464 299.681C87.5397 299.561 87.6464 299.467 87.7664 299.401C87.9264 299.334 88.0664 299.301 88.1864 299.301C88.4797 299.301 88.7197 299.394 88.9064 299.581C89.0797 299.767 89.1664 300.001 89.1664 300.281C89.1664 300.534 89.0731 300.754 88.8864 300.941C88.6731 301.127 88.4397 301.221 88.1864 301.221C87.7731 301.221 87.4464 301.054 87.2064 300.721C86.9797 300.374 86.8664 299.987 86.8664 299.561C86.8664 298.667 87.1731 297.974 87.7864 297.481C88.4131 296.987 89.1797 296.741 90.0864 296.741ZM95.3406 297.481V296.941H100.241V297.481H98.7406V305.301H100.241V305.841H95.3406V305.301H96.8406V297.481H95.3406Z" fill="#1F3155"/>
<path d="M168.885 298.54C170.352 298.54 171.472 298.967 172.245 299.82C173.032 300.673 173.425 301.827 173.425 303.28C173.425 304.653 172.998 305.787 172.145 306.68C171.305 307.56 170.212 308 168.865 308C167.398 308 166.205 307.573 165.285 306.72C164.378 305.853 163.925 304.707 163.925 303.28C163.925 301.867 164.398 300.727 165.345 299.86C166.305 298.98 167.485 298.54 168.885 298.54ZM169.525 307.32C170.538 307.32 171.338 306.913 171.925 306.1C172.512 305.273 172.805 304.333 172.805 303.28C172.805 301.333 172.092 300.04 170.665 299.4C170.238 299.24 169.812 299.16 169.385 299.16C168.265 299.16 167.412 299.56 166.825 300.36C166.252 301.16 165.965 302.133 165.965 303.28C165.965 304.413 166.285 305.373 166.925 306.16C167.565 306.933 168.432 307.32 169.525 307.32ZM174.723 299.48V298.94H179.623V299.48H178.123V307.3H179.623V307.84H174.723V307.3H176.223V299.48H174.723Z" fill="#1F3155"/>
<path d="M245.944 296.541C247.41 296.541 248.53 296.967 249.304 297.821C250.09 298.674 250.484 299.827 250.484 301.281C250.484 302.654 250.057 303.787 249.204 304.681C248.364 305.561 247.27 306.001 245.924 306.001C244.457 306.001 243.264 305.574 242.344 304.721C241.437 303.854 240.984 302.707 240.984 301.281C240.984 299.867 241.457 298.727 242.404 297.861C243.364 296.981 244.544 296.541 245.944 296.541ZM246.584 305.321C247.597 305.321 248.397 304.914 248.984 304.101C249.57 303.274 249.864 302.334 249.864 301.281C249.864 299.334 249.15 298.041 247.724 297.401C247.297 297.241 246.87 297.161 246.444 297.161C245.324 297.161 244.47 297.561 243.884 298.361C243.31 299.161 243.024 300.134 243.024 301.281C243.024 302.414 243.344 303.374 243.984 304.161C244.624 304.934 245.49 305.321 246.584 305.321ZM258.742 299.781C258.742 300.674 258.349 301.561 257.562 302.441C256.789 303.321 255.942 303.921 255.022 304.241H258.162L259.242 301.861H259.782L259.242 305.841H251.882V305.361C253.149 305.094 254.275 304.481 255.262 303.521C256.262 302.561 256.762 301.467 256.762 300.241C256.762 299.507 256.582 298.921 256.222 298.481C255.875 298.027 255.342 297.801 254.622 297.801C254.009 297.801 253.509 297.981 253.122 298.341C252.749 298.701 252.562 299.181 252.562 299.781C252.562 300.061 252.589 300.274 252.642 300.421C252.829 300.141 253.089 300.001 253.422 300.001C253.715 300.001 253.955 300.094 254.142 300.281C254.302 300.467 254.382 300.694 254.382 300.961C254.382 301.214 254.289 301.434 254.102 301.621C253.915 301.807 253.689 301.901 253.422 301.901C253.195 301.901 252.989 301.841 252.802 301.721C252.242 301.414 251.962 300.794 251.962 299.861C251.962 298.901 252.295 298.141 252.962 297.581C253.642 297.021 254.462 296.741 255.422 296.741C256.409 296.741 257.209 297.014 257.822 297.561C258.435 298.094 258.742 298.834 258.742 299.781Z" fill="#1F3155"/>
<path d="M323.002 296.541C324.469 296.541 325.589 296.967 326.362 297.821C327.149 298.674 327.542 299.827 327.542 301.281C327.542 302.654 327.116 303.787 326.262 304.681C325.422 305.561 324.329 306.001 322.982 306.001C321.516 306.001 320.322 305.574 319.402 304.721C318.496 303.854 318.042 302.707 318.042 301.281C318.042 299.867 318.516 298.727 319.462 297.861C320.422 296.981 321.602 296.541 323.002 296.541ZM323.642 305.321C324.656 305.321 325.456 304.914 326.042 304.101C326.629 303.274 326.922 302.334 326.922 301.281C326.922 299.334 326.209 298.041 324.782 297.401C324.356 297.241 323.929 297.161 323.502 297.161C322.382 297.161 321.529 297.561 320.942 298.361C320.369 299.161 320.082 300.134 320.082 301.281C320.082 302.414 320.402 303.374 321.042 304.161C321.682 304.934 322.549 305.321 323.642 305.321ZM332.161 296.741C333.161 296.741 334.014 296.987 334.721 297.481C335.441 297.974 335.801 298.694 335.801 299.641C335.801 300.534 335.474 301.287 334.821 301.901C334.167 302.501 333.387 302.854 332.481 302.961V303.041C333.134 303.081 333.714 303.187 334.221 303.361C334.741 303.534 335.187 303.841 335.561 304.281C335.934 304.721 336.121 305.267 336.121 305.921C336.121 306.401 336.021 306.854 335.821 307.281C335.461 307.934 334.947 308.427 334.281 308.761C333.614 309.094 332.887 309.261 332.101 309.261C331.207 309.261 330.454 309.054 329.841 308.641C329.241 308.241 328.941 307.621 328.941 306.781C328.941 306.461 329.047 306.187 329.261 305.961C329.487 305.747 329.761 305.641 330.081 305.641C330.374 305.641 330.607 305.721 330.781 305.881C330.954 306.041 331.041 306.261 331.041 306.541C331.041 306.821 330.947 307.054 330.761 307.241C330.547 307.427 330.307 307.521 330.041 307.521C329.907 307.521 329.781 307.501 329.661 307.461C329.967 308.274 330.647 308.681 331.701 308.681C332.487 308.681 333.081 308.407 333.481 307.861C333.894 307.327 334.101 306.654 334.101 305.841C334.101 304.974 333.887 304.341 333.461 303.941C333.034 303.527 332.387 303.321 331.521 303.321H331.001V302.781H331.521C332.294 302.781 332.867 302.521 333.241 302.001C333.627 301.467 333.821 300.801 333.821 300.001C333.821 298.374 333.041 297.561 331.481 297.561C330.841 297.561 330.354 297.747 330.021 298.121C329.661 298.481 329.481 298.887 329.481 299.341V299.521C329.481 299.547 329.494 299.601 329.521 299.681C329.614 299.561 329.721 299.467 329.841 299.401C330.001 299.334 330.141 299.301 330.261 299.301C330.554 299.301 330.794 299.394 330.981 299.581C331.154 299.767 331.241 300.001 331.241 300.281C331.241 300.534 331.147 300.754 330.961 300.941C330.747 301.127 330.514 301.221 330.261 301.221C329.847 301.221 329.521 301.054 329.281 300.721C329.054 300.374 328.941 299.987 328.941 299.561C328.941 298.667 329.247 297.974 329.861 297.481C330.487 296.987 331.254 296.741 332.161 296.741Z" fill="#1F3155"/>
<path d="M400.065 296.541C401.531 296.541 402.651 296.967 403.425 297.821C404.211 298.674 404.605 299.827 404.605 301.281C404.605 302.654 404.178 303.787 403.325 304.681C402.485 305.561 401.391 306.001 400.045 306.001C398.578 306.001 397.385 305.574 396.465 304.721C395.558 303.854 395.105 302.707 395.105 301.281C395.105 299.867 395.578 298.727 396.525 297.861C397.485 296.981 398.665 296.541 400.065 296.541ZM400.705 305.321C401.718 305.321 402.518 304.914 403.105 304.101C403.691 303.274 403.985 302.334 403.985 301.281C403.985 299.334 403.271 298.041 401.845 297.401C401.418 297.241 400.991 297.161 400.565 297.161C399.445 297.161 398.591 297.561 398.005 298.361C397.431 299.161 397.145 300.134 397.145 301.281C397.145 302.414 397.465 303.374 398.105 304.161C398.745 304.934 399.611 305.321 400.705 305.321ZM414.543 305.841H412.563V308.541H414.203V309.081H409.123V308.541H410.763V305.841H405.703V305.341L412.023 296.441H412.563V304.521H413.483L414.523 302.081H415.063L414.543 305.841ZM407.083 304.521H410.763V299.241L407.083 304.521Z" fill="#1F3155"/>
<path d="M477.119 296.541C478.586 296.541 479.706 296.967 480.479 297.821C481.266 298.674 481.659 299.827 481.659 301.281C481.659 302.654 481.233 303.787 480.379 304.681C479.539 305.561 478.446 306.001 477.099 306.001C475.633 306.001 474.439 305.574 473.519 304.721C472.613 303.854 472.159 302.707 472.159 301.281C472.159 299.867 472.633 298.727 473.579 297.861C474.539 296.981 475.719 296.541 477.119 296.541ZM477.759 305.321C478.773 305.321 479.573 304.914 480.159 304.101C480.746 303.274 481.039 302.334 481.039 301.281C481.039 299.334 480.326 298.041 478.899 297.401C478.473 297.241 478.046 297.161 477.619 297.161C476.499 297.161 475.646 297.561 475.059 298.361C474.486 299.161 474.199 300.134 474.199 301.281C474.199 302.414 474.519 303.374 475.159 304.161C475.799 304.934 476.666 305.321 477.759 305.321ZM483.018 306.721C483.018 306.414 483.118 306.141 483.318 305.901C483.531 305.674 483.791 305.561 484.098 305.561C484.404 305.561 484.638 305.647 484.798 305.821C484.944 306.007 485.018 306.227 485.018 306.481C485.018 306.761 484.931 307.001 484.758 307.201C484.584 307.401 484.358 307.501 484.078 307.501C483.998 307.501 483.918 307.487 483.838 307.461C484.278 308.221 485.011 308.601 486.038 308.601C486.651 308.601 487.158 308.401 487.558 308.001C487.971 307.614 488.244 307.161 488.378 306.641C488.524 306.134 488.598 305.581 488.598 304.981C488.598 304.101 488.391 303.334 487.978 302.681C487.564 302.014 486.944 301.681 486.118 301.681C485.091 301.681 484.464 302.141 484.238 303.061H483.858V296.661H488.738L489.578 294.621H490.118L489.598 298.261H484.418V301.841C484.951 301.307 485.691 301.041 486.638 301.041C487.878 301.041 488.851 301.354 489.558 301.981C490.278 302.607 490.638 303.527 490.638 304.741C490.638 306.087 490.218 307.161 489.378 307.961C488.551 308.774 487.471 309.181 486.138 309.181C485.338 309.181 484.618 308.961 483.978 308.521C483.338 308.081 483.018 307.481 483.018 306.721Z" fill="#1F3155"/>
</svg>
