<svg width="540" height="544" viewBox="0 0 540 544" fill="none" xmlns="http://www.w3.org/2000/svg">
<path d="M78.6456 250.426L1.08594 250.354V272.842H78.6456M78.6456 250.426V272.842M78.6456 250.426L155.705 250.498M78.6456 272.842H155.705M155.705 250.498V272.842M155.705 250.498L232.764 250.569M155.705 272.842H232.764M232.764 250.569V272.842M232.764 250.569L309.823 250.641M232.764 272.842H309.823M309.823 250.641V272.842M309.823 250.641L386.883 250.712M309.823 272.842H386.883M386.883 250.712V272.842M386.883 250.712L463.942 250.784M386.883 272.842H463.942M463.942 250.784L539 250.854V272.842H463.942M463.942 250.784V272.842" stroke="#1F3155"/>
<path d="M78.646 272.842V543L155.705 542.693V272.842M232.764 272.842V542.693M309.824 542.693V272.842M386.883 272.842V542.693M463.942 272.842V542.693M1.08632 317.317H539M539 362.293H1M539 407.268H1.086M1.086 451.743H539M539 495.719H1.086" stroke="#1F3155"/>
<path d="M209.504 206.824H207.224V222.352H209.504V223H202.544V222.352H204.824V214.744H196.88V222.352H199.16V223H192.2V222.352H194.48V206.824H192.2V206.176H199.16V206.824H196.88V214.096H204.824V206.824H202.544V206.176H209.504V206.824ZM219.528 223.192C217.144 223.192 215.256 222.36 213.864 220.696C212.472 219.032 211.776 217.008 211.776 214.624C211.776 212.144 212.464 210.088 213.84 208.456C215.232 206.808 217.128 205.984 219.528 205.984C221.976 205.984 223.872 206.8 225.216 208.432C226.56 210.064 227.232 212.112 227.232 214.576C227.232 216.048 226.912 217.44 226.272 218.752C225.648 220.048 224.736 221.112 223.536 221.944C222.336 222.776 221 223.192 219.528 223.192ZM219.528 206.632C218.584 206.632 217.752 206.896 217.032 207.424C216.328 207.952 215.792 208.64 215.424 209.488C215.056 210.32 214.784 211.176 214.608 212.056C214.432 212.936 214.344 213.816 214.344 214.696C214.344 216.152 214.6 217.552 215.112 218.896C215.64 220.224 216.44 221.224 217.512 221.896C218.12 222.296 218.792 222.496 219.528 222.496C220.696 222.496 221.696 222.032 222.528 221.104C223.36 220.176 223.944 219.08 224.28 217.816C224.536 216.904 224.664 215.864 224.664 214.696C224.664 213.784 224.584 212.896 224.424 212.032C224.264 211.168 224 210.312 223.632 209.464C223.28 208.616 222.744 207.936 222.024 207.424C221.32 206.896 220.488 206.632 219.528 206.632ZM241.587 223H229.419V222.352H231.699V206.824H229.419V206.176H236.355V206.824H234.075V222.352H240.195L241.203 217.288H241.827L241.587 223ZM252.209 206.824V206.176H257.513V206.824L255.305 207.064L250.985 215.272V222.352H253.265V223H246.305V222.352H248.585V215.248L243.617 206.824H241.337V206.176H248.633V206.824H246.401L250.697 214.312L254.489 207.064L252.209 206.824ZM273.463 214.96C274.215 215.424 274.719 216.032 274.975 216.784C275.103 217.216 275.167 217.712 275.167 218.272C275.167 219.664 274.671 220.832 273.679 221.776C272.687 222.72 271.495 223.192 270.103 223.192C268.087 223.192 266.591 222.448 265.615 220.96L265.447 223.192H264.703V217.24H265.375C265.487 218.76 265.927 220.024 266.695 221.032C267.479 222.024 268.599 222.52 270.055 222.52C270.503 222.52 270.927 222.448 271.327 222.304C271.983 222.112 272.495 221.752 272.863 221.224C273.231 220.68 273.415 220.056 273.415 219.352C273.415 218.616 273.247 218.04 272.911 217.624C272.591 217.208 272.071 216.816 271.351 216.448C271.143 216.336 270.831 216.184 270.415 215.992C269.887 215.752 269.567 215.6 269.455 215.536C269.151 215.36 268.815 215.192 268.447 215.032C267.823 214.744 267.311 214.488 266.911 214.264C266.527 214.024 266.127 213.728 265.711 213.376C265.295 213.024 264.983 212.608 264.775 212.128C264.583 211.648 264.487 211.104 264.487 210.496C264.487 209.136 264.927 208.048 265.807 207.232C266.703 206.4 267.823 205.984 269.167 205.984C270.927 205.984 272.199 206.632 272.983 207.928L273.295 205.792H273.919V211.768H273.271C273.271 210.376 272.935 209.168 272.263 208.144C271.591 207.12 270.599 206.608 269.287 206.608C268.407 206.608 267.687 206.848 267.127 207.328C266.583 207.808 266.311 208.472 266.311 209.32C266.311 210.056 266.511 210.648 266.911 211.096C267.311 211.592 267.839 212.016 268.495 212.368C269.039 212.656 269.407 212.848 269.599 212.944C270.303 213.328 270.903 213.624 271.399 213.832C272.327 214.312 273.015 214.688 273.463 214.96ZM285.317 223.192C282.933 223.192 281.045 222.36 279.653 220.696C278.261 219.032 277.565 217.008 277.565 214.624C277.565 212.144 278.253 210.088 279.629 208.456C281.021 206.808 282.917 205.984 285.317 205.984C287.765 205.984 289.661 206.8 291.005 208.432C292.349 210.064 293.021 212.112 293.021 214.576C293.021 216.048 292.701 217.44 292.061 218.752C291.437 220.048 290.525 221.112 289.325 221.944C288.125 222.776 286.789 223.192 285.317 223.192ZM285.317 206.632C284.373 206.632 283.541 206.896 282.821 207.424C282.117 207.952 281.581 208.64 281.213 209.488C280.845 210.32 280.573 211.176 280.397 212.056C280.221 212.936 280.133 213.816 280.133 214.696C280.133 216.152 280.389 217.552 280.901 218.896C281.429 220.224 282.229 221.224 283.301 221.896C283.909 222.296 284.581 222.496 285.317 222.496C286.485 222.496 287.485 222.032 288.317 221.104C289.149 220.176 289.733 219.08 290.069 217.816C290.325 216.904 290.453 215.864 290.453 214.696C290.453 213.784 290.373 212.896 290.213 212.032C290.053 211.168 289.789 210.312 289.421 209.464C289.069 208.616 288.533 207.936 287.813 207.424C287.109 206.896 286.277 206.632 285.317 206.632ZM307.832 217.744V207.064L305.552 206.824V206.176H310.832V206.824L308.552 207.064V217.984C308.552 219.664 308.064 220.952 307.088 221.848C306.112 222.744 304.8 223.192 303.152 223.192C301.424 223.192 300.008 222.76 298.904 221.896C297.8 221.016 297.248 219.752 297.248 218.104V206.824H294.968V206.176H301.928V206.824H299.648V217.72C299.648 220.872 300.976 222.448 303.632 222.448C304.944 222.448 305.968 221.992 306.704 221.08C307.456 220.168 307.832 219.056 307.832 217.744ZM324.438 223H312.27V222.352H314.55V206.824H312.27V206.176H319.206V206.824H316.926V222.352H323.046L324.054 217.288H324.678L324.438 223ZM335.807 214.96C336.559 215.424 337.063 216.032 337.319 216.784C337.447 217.216 337.511 217.712 337.511 218.272C337.511 219.664 337.015 220.832 336.023 221.776C335.031 222.72 333.839 223.192 332.447 223.192C330.431 223.192 328.935 222.448 327.959 220.96L327.791 223.192H327.047V217.24H327.719C327.831 218.76 328.271 220.024 329.039 221.032C329.823 222.024 330.943 222.52 332.399 222.52C332.847 222.52 333.271 222.448 333.671 222.304C334.327 222.112 334.839 221.752 335.207 221.224C335.575 220.68 335.759 220.056 335.759 219.352C335.759 218.616 335.591 218.04 335.255 217.624C334.935 217.208 334.415 216.816 333.695 216.448C333.487 216.336 333.175 216.184 332.759 215.992C332.231 215.752 331.911 215.6 331.799 215.536C331.495 215.36 331.159 215.192 330.791 215.032C330.167 214.744 329.655 214.488 329.255 214.264C328.871 214.024 328.471 213.728 328.055 213.376C327.639 213.024 327.327 212.608 327.119 212.128C326.927 211.648 326.831 211.104 326.831 210.496C326.831 209.136 327.271 208.048 328.151 207.232C329.047 206.4 330.167 205.984 331.511 205.984C333.271 205.984 334.543 206.632 335.327 207.928L335.639 205.792H336.263V211.768H335.615C335.615 210.376 335.279 209.168 334.607 208.144C333.935 207.12 332.943 206.608 331.631 206.608C330.751 206.608 330.031 206.848 329.471 207.328C328.927 207.808 328.655 208.472 328.655 209.32C328.655 210.056 328.855 210.648 329.255 211.096C329.655 211.592 330.183 212.016 330.839 212.368C331.383 212.656 331.751 212.848 331.943 212.944C332.647 213.328 333.247 213.624 333.743 213.832C334.671 214.312 335.359 214.688 335.807 214.96Z" fill="#1F3155"/>
<path d="M67.982 183H50.978V180.894L58.388 180.114V130.428H50.978V128.322H66.11L91.616 169.74V131.208L84.206 130.428V128.322H101.288V130.428L93.878 131.208V183.624H91.616L60.65 134.016V180.114L67.982 180.894V183ZM132.784 183.624C125.036 183.624 118.9 180.92 114.376 175.512C109.852 170.104 107.59 163.526 107.59 155.778C107.59 147.718 109.826 141.036 114.298 135.732C118.822 130.376 124.984 127.698 132.784 127.698C140.74 127.698 146.902 130.35 151.27 135.654C155.638 140.958 157.822 147.614 157.822 155.622C157.822 160.406 156.782 164.93 154.702 169.194C152.674 173.406 149.71 176.864 145.81 179.568C141.91 182.272 137.568 183.624 132.784 183.624ZM132.784 129.804C129.716 129.804 127.012 130.662 124.672 132.378C122.384 134.094 120.642 136.33 119.446 139.086C118.25 141.79 117.366 144.572 116.794 147.432C116.222 150.292 115.936 153.152 115.936 156.012C115.936 160.744 116.768 165.294 118.432 169.662C120.148 173.978 122.748 177.228 126.232 179.412C128.208 180.712 130.392 181.362 132.784 181.362C136.58 181.362 139.83 179.854 142.534 176.838C145.238 173.822 147.136 170.26 148.228 166.152C149.06 163.188 149.476 159.808 149.476 156.012C149.476 153.048 149.216 150.162 148.696 147.354C148.176 144.546 147.318 141.764 146.122 139.008C144.978 136.252 143.236 134.042 140.896 132.378C138.608 130.662 135.904 129.804 132.784 129.804ZM197.48 130.428V128.322H214.796V130.428L207.386 131.208L189.368 183.624H187.028L166.514 130.428H159.104V128.322H182.348V130.428H174.938L190.616 172.392L204.89 131.208L197.48 130.428ZM258.349 183H217.945V180.894H225.355V130.428H217.945V128.322H256.321V144.312H254.215L251.563 130.428H233.155V153.828H244.621L246.259 144.702H248.365V164.982H246.337L244.621 155.934H233.155V180.894H253.591L256.243 166.23H258.349V183ZM328.241 130.428H320.831V180.894H328.241V183H305.621V180.894H313.031V134.718L295.559 183.702H293.453L277.073 134.796V179.802L284.483 180.894V183H266.465V180.894L274.811 179.802V130.428H267.401V128.322H283.391L297.509 171.534L312.875 128.322H328.241V130.428ZM357.177 183H334.869V180.894H342.279V130.428H334.869V128.322H356.709C368.929 128.322 375.039 132.378 375.039 140.49C375.039 144.13 373.739 147.094 371.139 149.382C368.539 151.67 365.367 153.1 361.623 153.672V153.984C365.783 154.348 369.319 155.57 372.231 157.65C375.143 160.094 376.599 163.266 376.599 167.166C376.599 170.598 375.611 173.562 373.635 176.058C371.711 178.502 369.319 180.27 366.459 181.362C363.599 182.454 360.505 183 357.177 183ZM350.079 180.894H356.475C360.323 180.894 363.235 179.646 365.211 177.15C367.239 174.654 368.253 171.43 368.253 167.478C368.253 159.158 364.327 154.998 356.475 154.998H350.079V180.894ZM350.079 152.892H356.475C359.959 152.892 362.533 151.774 364.197 149.538C365.861 147.302 366.693 144.364 366.693 140.724C366.693 133.86 363.131 130.428 356.007 130.428H350.079V152.892ZM424.023 183H383.619V180.894H391.029V130.428H383.619V128.322H421.995V144.312H419.889L417.237 130.428H398.829V153.828H410.295L411.933 144.702H414.039V164.982H412.011L410.295 155.934H398.829V180.894H419.265L421.917 166.23H424.023V183ZM465.444 176.214C465.236 175.226 465.002 173.64 464.742 171.456C464.378 168.336 464.014 165.58 463.65 163.188C463.13 160.12 462.142 158.196 460.686 157.416C459.23 156.584 456.838 156.168 453.51 156.168H447.426V180.894H455.616V183H432.216V180.894H439.626V130.428H432.216V128.322H454.29C466.874 128.322 473.166 132.43 473.166 140.646C473.166 144.39 471.736 147.588 468.876 150.24C466.016 152.84 462.662 154.4 458.814 154.92V155.232C466.51 155.284 470.748 157.832 471.528 162.876C472.1 166.672 472.438 169.038 472.542 169.974C472.802 172.366 473.14 174.602 473.556 176.682C474.18 179.49 476.104 180.894 479.328 180.894H480.81V183H475.506C472.646 183 470.384 182.532 468.72 181.596C467.108 180.608 466.016 178.814 465.444 176.214ZM447.426 154.062H453.51C457.202 154.062 460.036 152.918 462.012 150.63C463.988 148.29 464.976 145.274 464.976 141.582C464.976 137.682 464.014 134.848 462.09 133.08C460.218 131.312 457.306 130.428 453.354 130.428H447.426V154.062Z" fill="#1F3155"/>
<path d="M246.595 22.8723C252.36 29.0746 264.065 26.6167 269.197 24.6125L268.194 26.6625C256.412 30.3013 248.44 26.5305 245.927 24.1902L245.088 22.8734L246.595 22.8723Z" fill="#1F3155" stroke="#1F3155"/>
<path d="M259.276 39.345C263.343 29.9165 269.117 39.6543 271.561 45.9826L269.555 49.058C247.833 46.1007 253.741 41.512 259.276 39.345Z" fill="#1F3155" stroke="#1F3155"/>
<path d="M258.97 57.1314C249.995 50.8043 262.347 49.4042 269.993 49.3531C270.503 50.6045 271.408 51.039 271.836 51.2547C261.813 68.3715 259.592 62.4056 258.97 57.1314Z" fill="#1F3155" stroke="#1F3155"/>
<path d="M299.378 73.6278C295.697 76.1677 288.505 82.8868 289.181 89.4441C289.962 88.9068 291.69 87.8907 292.36 88.1244C293.198 88.4165 289.35 91.0542 292.87 95.7357C293.148 94.8085 294.273 92.7193 296.549 91.7808C298.825 90.8424 298.945 88.266 298.721 87.0951C299.168 88.2658 300.398 90.7241 301.738 91.1916C301.57 90.411 301.568 88.2934 302.905 86.0674C304.577 83.285 303.902 78.6014 302.391 74.0647L304.904 75.0876C305.187 79.7715 307.763 89.3721 315.8 90.3031C316.359 91.3273 318.548 93.4922 322.834 93.9575C324.081 94.229 326.604 94.9815 327.381 95.9338C327.43 96.01 327.478 96.0821 327.524 96.1498C327.487 96.0767 327.438 96.0047 327.381 95.9338C326.469 94.5272 325.043 91.7405 325.677 90.2959C326.345 88.7731 323.831 85.6619 322.49 84.2967C323.439 84.1984 325.369 83.8555 325.503 83.2699C325.669 82.5378 314.779 73.0311 306.744 74.0616L302.893 73.0397L304.231 71.7213C308.917 70.5957 318.758 67.3487 320.629 63.3658L319.457 62.7812C321.017 60.8771 324.071 56.5714 323.801 54.5808C323.021 55.2645 321.192 56.632 320.12 56.6328C318.781 56.6337 317.61 57.2201 314.933 58.9786L314.93 55.6119C310.356 58.25 301.546 64.9313 302.89 70.5513C302.222 71.43 301.051 72.3092 299.543 71.5784L299.042 72.8961C299.545 73.0421 299.712 73.3348 299.378 73.6278Z" fill="#1F3155" stroke="#1F3155"/>
<path d="M255.652 91.071C254.984 92.9451 251.136 95.4656 249.295 96.4916C250.769 96.7248 253.368 95.9031 254.484 95.4632C257.297 95.9296 260.454 94.6782 261.681 93.9942C266.366 90.6241 264.188 89.4546 263.182 88.138C262.177 86.8213 256.487 88.7283 255.652 91.071Z" fill="#1F3155" stroke="#1F3155"/>
<path d="M260.555 90.3428C259.774 90.5873 257.409 91.9845 254.198 95.617" stroke="#1F3155"/>
<path d="M260.366 66.9224C265 69.066 272.997 75.9595 267.248 85.8004" stroke="#1F3155"/>
<path d="M269.562 54.9128C270.29 57.2055 270.106 62.9047 262.207 66.1893" stroke="#1F3155"/>
<path d="M278.945 63.3962C269.978 69.7263 270.848 58.0837 272.405 51.5443L275.919 50.3707C292.939 62.5371 284.972 63.9774 278.945 63.3962Z" fill="#1F3155" stroke="#1F3155"/>
<path d="M291.074 49.2892C294.47 58.9186 282.454 53.767 276.086 50.0776L275.589 46.8877C294.824 37.5803 293.927 44.6106 291.074 49.2892Z" fill="#1F3155" stroke="#1F3155"/>
<path d="M277.902 33.9272C289.398 33.2223 281.161 42.2149 275.605 46.7992L271.896 45.8355C265.899 27.342 273.339 30.435 277.902 33.9272Z" fill="#1F3155" stroke="#1F3155"/>
<path d="M270.054 48.6182C270.055 49.9789 271.341 51.1913 273.072 51.19C274.802 51.1888 276.086 49.9745 276.085 48.6139C276.084 47.2532 274.798 46.0408 273.067 46.0421C271.336 46.0434 270.052 47.2576 270.054 48.6182Z" fill="#1F3155" stroke="#1F3155"/>
<path d="M324.489 73.6708C324.279 73.6644 324.054 73.6573 323.818 73.6496C312.763 72.9362 307.601 54.4625 306.717 45.5178C302.183 31.4076 290.402 24.0607 283.759 21.6747C267.951 17.002 255.634 20.8168 249.946 25.2123C241.961 31.3829 238.378 42.4374 242.943 54.8471C247.508 67.2567 266.728 68.1944 272.419 67.6459C289.56 65.9941 296.919 70.5557 298.875 72.8964L299.543 71.5785C286.144 64.562 284.305 67.4057 264.717 66.3952C249.047 65.5868 243.78 55.322 243.274 50.5407C238.059 24.1962 261.994 19.6899 273.546 20.8038C294.172 21.9599 304.536 40.9817 305.714 47.1287C304.38 52.5457 314.778 72.7996 314.946 73.0922C315.071 73.3106 320.546 73.5421 323.818 73.6496C324.039 73.6638 324.263 73.671 324.489 73.6708Z" fill="#1F3155" stroke="#1F3155"/>
<path d="M308.4 54.006L306.725 54.0011C304.711 47.6789 295.833 42.689 291.814 40.9842C294.893 39.5767 297.003 40.8828 297.674 41.7118C299.413 40.0711 300.965 41.0263 301.524 41.709L304.542 46.0982C304.934 47.6105 306.12 50.547 307.726 50.1945C309.735 49.7539 309.898 45.0697 309.896 42.7276C309.894 40.854 311.344 40.2869 312.07 40.2376C314.076 37.1914 316.922 37.4041 318.094 37.8911C315.25 39.6498 311.071 46.3862 310.906 49.3139C310.775 51.6561 309.18 53.4199 308.4 54.006Z" fill="#1F3155" stroke="#1F3155"/>
<path d="M280.355 93.9586C282.345 87.8344 279.494 83.4003 277.612 81.8289C276.88 82.0561 275.399 82.4762 275.328 82.3393C274.76 84.2786 275.146 88.6951 280.355 93.9586Z" fill="#1F3155"/>
<path d="M279.45 96.1728C283.024 88.9098 279.714 83.584 277.612 81.8289C276.88 82.0561 275.399 82.4762 275.328 82.3393M275.457 81.9769C275.411 82.0858 275.367 82.2068 275.328 82.3393M281.438 95.0003C275.201 89.2826 274.723 84.4053 275.328 82.3393" stroke="#1F3155"/>
<path d="M264.383 67.5051C268.235 68.9173 275.437 73.2351 276.112 78.0359" stroke="#1F3155"/>
<path d="M273.934 80.2333C273.935 81.1897 274.846 82.0747 276.114 82.0738C277.383 82.0728 278.292 81.1865 278.291 80.2301C278.29 79.2737 277.379 78.3887 276.111 78.3896C274.843 78.3906 273.933 79.2769 273.934 80.2333Z" fill="#1F3155" stroke="#1F3155"/>
<path d="M263.731 87.7059C263.732 88.6623 264.643 89.5473 265.911 89.5464C267.18 89.5455 268.089 88.6592 268.088 87.7028C268.087 86.7464 267.176 85.8614 265.908 85.8623C264.64 85.8632 263.73 86.7495 263.731 87.7059Z" fill="#1F3155" stroke="#1F3155"/>
<path d="M275.047 15.6791C279.067 18.0183 279.293 21.2385 278.904 22.5562L278.904 22.9953C269.933 25.8123 268.922 30.6142 269.538 32.6631C265.112 25.9914 271.035 22.2691 274.55 21.2419C268.251 17.265 268.233 9.53616 269.011 6.16888C269.348 8.36432 271.027 13.34 275.047 15.6791Z" fill="#1F3155" stroke="#1F3155"/>
<path d="M242.74 18.7765C243.745 18.5318 246.055 18.2472 247.261 19.066C248.467 19.8849 251.781 19.4043 253.287 19.0617L251.78 18.1845C253.119 18.2323 256.501 18.0054 259.312 16.7152C257.582 16.7165 253.888 16.6313 252.95 16.2807C251.778 15.8424 246.588 15.8462 242.739 17.6055C243.072 15.8487 242.767 11.9845 238.882 10.5821C237.542 9.94875 234.895 7.95015 235.026 5.02248C234.469 5.31564 233.286 6.01912 233.019 6.48772C232.685 7.07348 231.016 12.3443 237.882 15.5597C238.887 16.0469 240.429 17.4315 238.555 19.0723C236.682 20.7131 234.648 17.9041 233.865 16.2945C233.696 14.0502 231.382 9.85563 223.481 11.0324C224.989 11.9584 227.514 14.43 227.672 17.0309C228.541 18.5353 230.489 21.6544 235.712 21.4164C234.652 22.3931 232.434 25.0197 232.035 27.7134C231.653 30.2875 229.507 31.7311 228.344 32.1955L228.189 32.2539C228.238 32.2366 228.29 32.2171 228.344 32.1955L231.703 30.934L234.545 27.1261L235.383 27.711C236.442 26.6855 238.56 24.0785 238.558 21.8535C238.671 23.0245 239.399 25.7173 241.409 27.1211C241.743 26.6817 242.412 25.5395 242.411 24.4855L245.428 27.9965C245.817 26.8739 246.261 24.3071 244.921 23.0199L246.595 22.726C246.37 21.5063 245.285 19.0089 242.74 18.7765Z" fill="#1F3155" stroke="#1F3155"/>
<path d="M227.051 10.5862C226.511 5.31699 230.73 5.65548 232.907 6.48338C231.573 9.97737 234.583 13.937 237.32 15.1344C239.858 16.245 239.772 17.3581 239.372 17.8713C237.73 21.2924 234.925 18.2134 233.899 16.1607C232.359 11.7132 228.083 10.5862 227.051 10.5862Z" fill="#1F3155" stroke="#1F3155"/>
<path d="M308.373 26.7798C306.499 28.4206 308.053 42.1986 309.063 48.8825C308.767 49.6675 307.469 50.8237 307.351 49.7016C307.353 49.7019 307.276 48.9164 307.053 46.6883C306.512 41.302 306.256 30.5872 306.196 25.9031C297.088 25.09 291.458 19.4243 289.781 16.6931L292.125 16.6914C287.969 12.7129 286.817 9.47391 286.76 8.35171C291.849 8.58223 295.691 10.9801 296.975 12.1502L297.308 10.247C301.327 11.298 306.021 18.3403 307.699 21.9498C306.014 11.119 315.885 4.8175 316.388 4.96352C316.79 5.08033 317.115 6.57316 317.227 7.30497C317.36 6.48515 320.405 4.61905 321.911 3.78848L327.266 1.0034C326.764 1.54048 325.694 3.31733 325.429 6.128C325.164 8.93867 323.314 12.2774 322.423 13.5955C323.628 13.2433 324.934 13.4473 325.436 13.5933C325.44 17.3406 314.842 22.7741 309.543 25.0224C317.71 22.0889 325.448 26.2307 328.296 28.6683L326.288 29.548C327.182 29.9865 328.935 31.2734 328.803 32.9129C328.67 34.5525 330.871 37.2052 331.989 38.3266C327.703 38.3297 322.834 35.1129 320.935 33.5041C321.071 35.3777 319.878 36.7252 319.264 37.1648C314.307 35.1777 309.938 29.4135 308.373 26.7798Z" fill="#1F3155"/>
<path d="M307.053 46.8347C307.185 48.122 307.348 49.7012 307.351 49.7016M307.351 49.7016C307.353 49.7019 307.276 48.9165 307.053 46.6883C306.512 41.302 306.256 30.5872 306.196 25.9031C297.088 25.09 291.458 19.4243 289.781 16.6931L292.125 16.6914C287.969 12.7129 286.817 9.47391 286.76 8.35171C291.849 8.58223 295.691 10.9801 296.975 12.1502L297.308 10.247C301.327 11.298 306.021 18.3403 307.699 21.9498C306.014 11.119 315.885 4.8175 316.388 4.96352C316.79 5.08033 317.115 6.57316 317.227 7.30497C317.36 6.48516 320.405 4.61905 321.911 3.78848L327.266 1.0034C326.764 1.54048 325.694 3.31733 325.429 6.128C325.164 8.93867 323.314 12.2774 322.423 13.5955C323.628 13.2433 324.934 13.4473 325.436 13.5933C325.44 17.3406 314.842 22.7741 309.543 25.0224C317.71 22.0889 325.448 26.2307 328.296 28.6683L326.288 29.548C327.182 29.9865 328.935 31.2734 328.803 32.9129C328.67 34.5525 330.871 37.2052 331.989 38.3266C327.703 38.3297 322.834 35.1129 320.935 33.5041C321.071 35.3777 319.878 36.7252 319.264 37.1648C314.307 35.1777 309.938 29.4135 308.373 26.7798C306.499 28.4206 308.053 42.1986 309.063 48.8825C308.767 49.6675 307.469 50.8237 307.351 49.7016Z" stroke="#1F3155"/>
<path d="M236.235 41.47C239.176 35.6127 243.373 36.1951 245.104 37.2185C242.835 45.7687 248.408 49.1704 251.477 49.6561C246.659 53.1727 242.991 44.9782 241.759 40.4413C241.201 40.3929 239.784 41.3795 238.583 45.7132C237.382 50.0469 235.295 50.351 234.402 49.9613C230.788 51.8375 228.208 50.0633 227.37 48.9417C229.1 48.8917 233.294 47.3272 236.235 41.47Z" fill="#1F3155" stroke="#1F3155"/>
<path d="M236.436 76.3079C241.253 71.6203 242.558 59.7138 242.609 54.3465L241.715 50.6937C242.665 64.5112 237.549 73.4283 234.929 76.1626C234.923 69.3706 230.9 64.7479 228.89 63.2856L228.557 65.3352C226.678 61.0037 222.86 59.5329 221.186 59.339C220.519 63.0867 223.034 66.2662 224.374 67.3875C223.704 66.9196 222.532 66.7057 222.03 66.6573C223.642 72.3942 229.628 76.6544 232.42 78.0673C224.788 80.1807 220.319 87.542 219.039 90.9584L221.549 89.7855C222.623 92.1268 221.109 96.4217 220.218 98.2765C224.102 98.3908 227.189 93.9289 228.247 91.6836C229.185 91.9171 229.868 94.5124 230.093 95.7809C231.699 94.6087 234.434 83.9698 235.601 78.7969C244.815 85.0845 254.525 86.2485 255.195 85.8089C255.73 85.4572 255.193 83.8084 254.857 83.028C255.862 83.2712 258.106 83.6111 259.042 83.0249C259.979 82.4387 262.558 82.4857 263.729 82.5824C262.119 79.3047 257.14 77.903 254.852 77.6119C254.406 77.6611 253.781 77.6713 254.852 77.3192C255.923 76.9671 256.971 75.7075 257.361 75.1217C249.993 72.9021 240.341 74.9876 236.436 76.3079Z" fill="#1F3155" stroke="#1F3155"/>
</svg>
