<svg width="264" height="782" viewBox="0 0 264 782" fill="none" xmlns="http://www.w3.org/2000/svg">
<path d="M236.424 95.5C237.226 63.1 255.814 40.3333 265 34V753C244.958 743 234.42 706.167 232.415 690C211.171 683.6 204.356 672.667 203.354 667C225.401 639.8 236.424 588.667 238.929 566.5L236.424 325.5C184.314 302.7 112.646 325.5 91.6176 345C85.6049 343 81.2783 332.333 79.6082 326.5C64.7434 322.667 35.2143 312.2 36.016 301C36.8177 289.8 63.0572 281 76.0848 277C77.6882 266.2 81.9305 257.667 85.1039 256C142.024 292 209.884 288.833 235.438 282.5C253.977 171.5 211.409 137.191 205.859 122.5C202.837 114.5 225.401 99.6667 236.424 95.5Z" fill="#E9AC19"/>
<path fill-rule="evenodd" clip-rule="evenodd" d="M213.097 705.547C220.283 747.92 250.027 772.171 264 779V752.017C237.651 730.431 231.728 701.383 232.061 689.558C211.7 683.162 203.615 671.902 202.118 667.072C197.627 669.237 185.849 673.268 174.671 672.069C179.861 694.854 202.451 703.882 213.097 705.547ZM218.088 340.283L235.554 324.793C174.471 302.007 113.287 328.957 90.3313 345.279C83.9435 339.283 79.3523 329.123 77.8551 324.793C48.7108 318.397 37.0996 306.138 34.9371 300.808C40.9257 286.417 64.7136 279.155 75.859 277.323C75.859 264.132 82.5129 257.503 85.8399 255.837C132.95 293.413 204.28 290.148 234.057 283.819C251.623 200.273 221.414 141.411 204.114 122.423C205.711 109.232 226.072 99.2713 236.053 95.9401C234.456 63.561 254.019 41.1421 264 33.98V2.5C233.259 16.0912 220.583 55.9659 218.087 73.9543C187.704 81.0659 176.268 109.589 174.239 123.439C174.215 123.602 174.193 123.763 174.171 123.922C230.464 189.88 225.906 245.344 216.59 264.831C156.705 277.223 96.8189 240.014 74.3618 219.86C63.5824 226.656 60.5549 245.344 60.3885 253.838C32.8411 258.635 9.98475 287.816 2 301.807C12.3802 323.394 46.9144 338.117 62.884 342.781C60.8879 357.572 73.364 373.928 79.8516 380.257C121.372 333.487 189.309 334.12 218.088 340.283Z" fill="#F7B81F"/>
<path d="M218.088 549.648C219.285 606.411 189.642 654.913 174.671 672.069C185.849 673.268 197.627 669.237 202.118 667.072C232.859 627.098 238.881 572.133 238.049 549.648L235.554 324.793L218.088 340.283C217.589 386.42 216.89 492.884 218.088 549.648Z" fill="#F7B81F"/>
<path d="M213.097 705.547C220.283 747.92 250.027 772.171 264 779V752.017C237.651 730.431 231.728 701.383 232.061 689.558M213.097 705.547C202.451 703.882 179.861 694.854 174.671 672.069M213.097 705.547L232.061 689.558M174.671 672.069C189.642 654.913 219.285 606.411 218.088 549.648C216.89 492.884 217.589 386.42 218.088 340.283M174.671 672.069C185.849 673.268 197.627 669.237 202.118 667.072M218.088 340.283C189.309 334.12 121.372 333.487 79.8516 380.257M218.088 340.283L235.554 324.793M79.8516 380.257C73.364 373.928 60.8879 357.572 62.884 342.781M79.8516 380.257L90.3313 345.279M62.884 342.781C46.9144 338.117 12.3802 323.394 2 301.807M62.884 342.781L77.8551 324.793M2 301.807C9.98475 287.816 32.8411 258.635 60.3885 253.838M2 301.807L34.9371 300.808M60.3885 253.838C60.5549 245.344 63.5824 226.656 74.3618 219.86M60.3885 253.838L75.859 277.323M74.3618 219.86C96.8189 240.014 156.705 277.223 216.59 264.831M74.3618 219.86C74.3618 235.85 82.0139 250.507 85.8399 255.837M216.59 264.831C225.906 245.344 230.464 189.88 174.171 123.922C174.193 123.763 174.215 123.602 174.239 123.439M216.59 264.831L234.057 283.819M218.087 73.9543C220.583 55.9659 233.259 16.0912 264 2.5V33.98C254.019 41.1421 234.456 63.561 236.053 95.9401M218.087 73.9543L236.053 95.9401M218.087 73.9543C187.704 81.0659 176.268 109.589 174.239 123.439M236.053 95.9401C226.072 99.2713 205.711 109.232 204.114 122.423M204.114 122.423L174.239 123.439M204.114 122.423C221.414 141.411 251.623 200.273 234.057 283.819M234.057 283.819C204.28 290.148 132.95 293.413 85.8399 255.837M85.8399 255.837C82.5129 257.503 75.859 264.132 75.859 277.323M75.859 277.323C64.7136 279.155 40.9257 286.417 34.9371 300.808M34.9371 300.808C37.0996 306.138 48.7108 318.397 77.8551 324.793M77.8551 324.793C79.3523 329.123 83.9435 339.283 90.3313 345.279M90.3313 345.279C113.287 328.957 174.471 302.007 235.554 324.793M235.554 324.793L238.049 549.648C238.881 572.133 232.859 627.098 202.118 667.072M202.118 667.072C203.615 671.902 211.7 683.162 232.061 689.558" stroke="#1F3155" stroke-width="3"/>
</svg>
