<svg width="515" height="698" viewBox="0 0 515 698" fill="none" xmlns="http://www.w3.org/2000/svg">
<rect x="55.9492" width="460" height="661" transform="rotate(4.85552 55.9492 0)" fill="#F7B81F"/>
<path fill-rule="evenodd" clip-rule="evenodd" d="M122.533 40.6915C122.18 44.8482 122.354 45.1349 125.4 45.3932L128.644 45.6683L125.725 84.1558L122.807 122.643L117.577 131.675C113.197 139.24 112.252 141.844 111.752 147.714C111.202 154.178 111.405 154.985 114.38 158.133C116.889 160.79 117.294 161.842 116.206 162.881C115.184 163.856 115.376 163.856 116.92 162.879C118.582 161.828 119.293 161.855 120.254 163.007C121.212 164.151 120.972 164.708 119.153 165.567C117.875 166.171 116.35 166.638 115.764 166.604C115.178 166.57 113.365 168.185 111.736 170.193C107.416 175.515 107.519 183.577 112.054 195.122C113.961 199.978 115.817 205.357 116.178 207.074C116.803 210.043 116.851 210.066 117.156 207.557C117.332 206.105 116.037 200.227 114.277 194.494C110.589 182.476 110.474 172.67 113.988 169.704C115.886 168.101 115.885 168.282 113.981 172.584C111.686 177.766 112.393 184.007 115.441 185.483C118.117 186.779 118.405 185.653 116.097 182.917C112.901 179.129 114.692 170.178 118.889 168.964C121.343 168.253 125.278 172.49 123.232 173.64C122.195 174.223 122.423 174.438 123.982 174.343C125.845 174.231 126.222 174.935 126.211 178.508C126.202 181.844 125.654 183.125 123.774 184.217C121.37 185.613 121.301 186.188 115.891 249.751C112.316 291.763 110.816 313.908 111.541 313.969C112.266 314.031 114.532 291.93 118.111 249.875C123.539 186.104 123.591 185.673 126.102 183.556C127.97 181.982 128.533 180.574 128.26 178.159C128.057 176.364 128.583 173.665 129.429 172.161C130.626 170.034 130.696 168.901 129.746 167.047C128.871 165.339 128.893 164.355 129.825 163.57C131.315 162.314 131.894 158.187 130.768 156.851C130.35 156.356 130.178 153.788 130.386 151.143C130.62 148.183 130.101 145.464 129.037 144.067C127.461 141.998 127.65 137.799 131.187 96.2349L135.065 50.6714L164.319 53.1517L193.572 55.632L196.736 59.3813C199.616 62.7957 200.39 63.1244 205.406 63.0693C210.089 63.016 210.986 63.3272 211.398 65.1501C212.174 68.5822 215.935 72.0188 219.219 72.2973C225.105 72.7964 227.788 67.8082 225.095 61.3701L223.767 58.1921L232.122 58.9005C239.096 59.4918 240.35 59.8746 239.7 61.215C238.653 63.3757 240.656 63.4363 242.111 61.2879C243.165 59.732 243.516 59.7796 246.131 61.8272C248.889 63.9883 249.388 64.0295 259.535 62.9135C265.331 62.2768 269.886 61.3856 269.657 60.9348C269.429 60.483 266.891 59.5835 264.02 58.9342C261.148 58.2861 256.714 57.2781 254.167 56.6944C251.536 56.0912 248.139 56.0774 246.301 56.6617C243.688 57.4924 242.467 57.3108 239.952 55.7154C235.968 53.1895 233.036 52.9621 227.237 54.7299C222.664 56.1234 222.472 56.0837 217.322 52.6876C213.558 50.2059 210.319 49.0351 205.888 48.5547C200.423 47.962 199.372 48.2118 196.827 50.7069L193.95 53.5283L163.977 51.2189L134.004 48.9094L129.76 95.366C125.804 138.677 125.636 142.012 127.288 144.631C129.893 148.761 129.094 153.046 125.035 156.712C120.682 160.643 119.526 160.572 117.744 156.267C115.464 150.764 116.379 146.666 120.54 143.729C124.562 140.89 124.472 140.535 120.121 142.086C116.334 143.438 114.121 148.587 115.128 153.699C116.164 158.958 115.218 159.392 113.987 154.223C112.755 149.057 113.929 144.705 119.827 132.59L124.439 123.115L127.732 84.4284L131.024 45.7408L161.996 48.7101C188.94 51.2933 192.986 51.4636 193.109 50.0193C193.232 48.5751 189.209 48.059 162.222 46.0573L131.194 43.7543L131.48 40.3855C131.752 37.1916 131.536 36.996 127.339 36.6402L122.91 36.2647L122.533 40.6915ZM431.511 65.8241L431.224 69.1928L400.251 66.239C373.312 63.6685 369.26 63.4999 369.137 64.9441C369.014 66.3884 373.031 66.9017 400.025 68.8918L431.055 71.1793L427.717 110.397L424.379 149.615L426.736 156.179C431.274 168.824 432.095 178.52 428.927 182.104C427.336 183.904 427.312 183.64 428.692 179.612C430.763 173.564 429.12 169.136 424.003 166.984L420.248 165.405L423.851 119.597L427.454 73.79L397.589 71.0304L367.723 68.272L365.383 65.0338C363.305 62.1579 362.334 61.7546 356.713 61.4262C352.217 61.1643 348.768 61.7658 344.814 63.5006C339.357 65.8959 339.148 65.9016 334.226 63.7509C327.91 60.9927 327.33 60.9569 322.287 63.0096C318.78 64.4377 317.855 64.4451 316.259 63.0557C313.966 61.0623 309.563 60.6142 300.762 61.4799C290.322 62.5075 290.178 62.823 298.819 65.746C308.806 69.1231 313.402 69.6465 315.385 67.6321C317.436 65.5499 318.599 65.8012 319.2 68.456C319.508 69.8164 320.351 70.4831 321.387 70.1831C322.683 69.8081 322.809 69.3171 321.932 68.0567C320.978 66.6862 322.168 66.5352 329.212 67.1324L337.633 67.8464L335.521 71.4506C332.783 76.1263 333.442 80.5963 337.053 81.8343C341.587 83.3903 345.298 82.112 347.585 78.2084C349.653 74.6774 349.833 74.6158 354.955 75.6665C359.768 76.6542 360.518 76.4792 363.968 73.5715L367.732 70.3984L396.985 72.8787L426.239 75.359L422.361 120.922C418.841 162.277 418.293 166.664 416.421 168.409C415.228 169.521 414.147 172.285 413.855 174.966C413.577 177.517 412.859 180.471 412.259 181.532C411.617 182.669 411.59 184.64 412.192 186.328C412.932 188.4 412.831 189.785 411.828 191.328C411.064 192.503 410.724 194.327 411.073 195.381C411.421 196.436 411.591 199.651 411.451 202.525C411.298 205.649 411.878 208.648 412.893 209.98C414.447 212.019 414.133 217.592 409.206 275.48C405.679 316.923 404.203 338.783 404.929 338.845C405.654 338.906 407.912 316.887 411.478 274.995C416.812 212.321 416.879 211.016 414.842 209.268C412.463 207.227 412.552 200.716 414.997 198.038C416.405 196.494 420.83 194.171 422.149 194.282C423.336 194.383 425.563 201.214 425.324 204.022C425.189 205.61 423.737 208.026 422.077 209.426C418.289 212.619 418.243 213.184 421.872 211.889C425.526 210.584 428.074 204.231 426.829 199.525C426.011 196.435 426.045 196.392 427.532 198.64C429.736 201.975 427.855 209.778 422.141 220.995C419.608 225.97 417.47 231.306 417.391 232.854L417.247 235.667L418.336 232.973C418.934 231.491 421.662 226.455 424.397 221.783C432.611 207.752 432.665 198.164 424.563 192.872C422.518 191.537 421.016 190.074 421.224 189.622C421.432 189.168 423.437 187.778 425.681 186.534C427.924 185.29 430.516 183.096 431.44 181.661C434.268 177.263 433.636 168.567 429.719 157.982L426.158 148.363L429.786 109.936L433.413 71.5086L436.657 71.7836C439.704 72.0419 439.924 71.7886 440.278 67.6319L440.655 63.2051L436.226 62.8297C432.029 62.4738 431.783 62.6301 431.511 65.8241ZM129.176 41.2547C129.05 42.7299 128.249 43.4054 126.773 43.2803C125.298 43.1552 124.622 42.3544 124.748 40.8792C124.873 39.404 125.674 38.7284 127.15 38.8536C128.626 38.9787 129.302 39.7795 129.176 41.2547ZM438.064 67.4442C437.938 68.9194 437.137 69.5949 435.661 69.4698C434.185 69.3447 433.51 68.5439 433.635 67.0687C433.761 65.5935 434.562 64.9179 436.038 65.043C437.513 65.1682 438.189 65.9689 438.064 67.4442ZM280.062 56.5402C279.419 58.4118 277.843 59.7429 275.474 60.4137L271.866 61.4353L275.368 62.8681C278.428 64.1208 278.844 64.8059 278.661 68.3027C278.546 70.5034 278.679 73.8275 278.955 75.6901C279.381 78.5552 279.688 77.947 280.955 71.7409C282.382 64.7514 282.612 64.3841 285.823 63.9597C289.514 63.4712 288.931 61.5012 284.905 60.8522C283.597 60.6421 282.598 59.7102 282.669 58.7688C282.739 57.8328 282.402 56.3061 281.919 55.3778C281.229 54.0497 280.833 54.2982 280.062 56.5402ZM215.906 54.0066C217.213 54.8698 218.271 55.6829 218.259 55.8134C218.238 56.0313 199.05 54.2127 196.832 53.7827C195.04 53.4368 198.781 50.6352 201.233 50.4885C204.966 50.2645 213.249 52.2497 215.906 54.0066ZM364.376 65.8781C365.045 66.6705 365.569 67.5932 365.54 67.9275C365.512 68.2617 360.548 68.1173 354.511 67.6054C346.15 66.8965 343.821 66.3825 344.74 65.4505C347.058 63.0955 362.309 63.4278 364.376 65.8781ZM237.167 56.4156C237.147 56.6502 235.617 56.9352 233.768 57.0481C231.918 57.161 230.44 56.8429 230.483 56.3393C230.525 55.8358 232.055 55.5508 233.882 55.7057C235.709 55.8606 237.187 56.1799 237.167 56.4156ZM332.727 64.9224C332.971 65.4023 331.024 65.614 328.4 65.3915C325.776 65.1691 323.892 64.6326 324.213 64.2006C324.533 63.7685 326.482 63.5569 328.541 63.7315C330.6 63.9061 332.485 64.4426 332.727 64.9224ZM213.836 59.6776C206.95 62.1646 200.403 61.644 197.66 58.3929L195.466 55.7925L207.051 56.8685L218.637 57.9455L213.836 59.6776ZM364.149 71.1703C364.001 72.9067 359.872 74.1907 355.597 73.8282C351.76 73.5029 344.153 70.2785 344.26 69.0225C344.288 68.6871 348.795 68.7928 354.276 69.2575C359.939 69.7376 364.201 70.5638 364.149 71.1703ZM222.942 61.1875C225.986 65.9912 222.729 72.4354 218.203 70.5659C216.074 69.6853 211.954 64.4103 212.096 62.7447C212.152 62.0785 219.351 59.2333 221.2 59.1471C221.44 59.1351 222.224 60.0532 222.942 61.1875ZM228.67 60.4426C227.02 61.8342 227.608 64.2494 229.548 64.0438C230.632 63.9284 231.577 63.1357 231.649 62.2825C231.798 60.535 229.929 59.3812 228.67 60.4426ZM329.832 69.8079C328.348 71.315 329.001 72.6879 331.294 72.8823C332.942 73.0221 333.557 70.2006 332.111 69.1282C331.6 68.7494 330.575 69.0548 329.832 69.8079ZM344.24 71.4073C346.488 72.6357 348.299 73.9763 348.264 74.3858C348.229 74.7952 347.082 76.3265 345.715 77.7901C339.329 84.6245 332.926 79.9406 337.513 71.79C339.321 68.5758 339.08 68.5889 344.24 71.4073ZM400.492 76.7329C398.484 78.5323 397.948 79.9404 398.203 82.7353C398.387 84.7429 398.698 88.0898 398.896 90.1721C399.244 93.8655 399.121 93.99 393.798 95.3132C386.622 97.0969 384.363 96.8073 381.616 93.7509C379.631 91.5428 379.348 91.4664 379.452 93.165C379.765 98.3068 387.792 100.358 395.428 97.2472C400.804 95.0556 401.498 96.3228 396.249 98.7458C393.923 99.8204 392.83 101.005 393.147 102.106C393.446 103.135 392.998 103.752 392.014 103.668C391.12 103.592 390.324 104.277 390.246 105.19C390.169 106.103 390.852 106.914 391.766 106.991C392.679 107.069 393.49 106.385 393.568 105.472C393.646 104.559 394.445 103.874 395.344 103.95C396.243 104.027 397.913 102.899 399.054 101.444C402.143 97.5044 402.263 99.074 399.279 104.397C397.836 106.971 396.549 110.198 396.419 111.566C396.136 114.556 399.474 118.826 402.179 118.933C403.729 118.994 403.798 118.853 402.517 118.237C401.634 117.812 400.591 116.885 400.2 116.178C398.04 112.263 403.233 98.4484 406.305 99.9373C411.466 102.438 417.829 103.403 420.342 102.067C426.561 98.7566 422.079 91.7264 413.274 90.9799C409.562 90.6651 409.343 90.4303 409.616 87.047C409.971 82.6351 408.36 78.5036 405.368 76.152C403.337 74.5553 402.856 74.6126 400.492 76.7329ZM152.273 57.9824C150.897 59.8577 149.633 63.0121 149.463 64.9895C149.166 68.4254 148.962 68.5698 144.873 68.2231C137.449 67.5936 131.527 73.4864 135.578 77.4715C137.151 79.0194 145.704 79.4146 149.735 78.1257C151.325 77.6162 152.111 78.5222 153.521 82.4918C155.938 89.2967 155.443 94.1671 152.139 96.0851C149.273 97.7504 151.109 98.3899 154.529 96.9176C157.993 95.4267 158.919 90.2874 156.821 84.1973C154.446 77.3045 154.563 76.6501 157.41 80.8987C158.996 83.267 160.331 84.1716 161.667 83.7844C163.204 83.3395 163.41 82.7462 162.644 80.9691C162.11 79.73 160.704 78.3155 159.518 77.8249C158.332 77.3353 157.403 76.4595 157.452 75.8796C157.502 75.2997 159.429 75.9982 161.736 77.4333C168.618 81.7119 177.07 81.2224 177.47 76.5212C177.649 74.4107 177.579 74.4104 175.116 76.4867C172.293 78.8668 168.548 78.4122 161.739 74.8653L157.874 72.8511L159.899 67.7393C162.489 61.205 162.633 59.1528 160.668 56.8226C158.135 53.8212 155.005 54.2536 152.273 57.9824ZM158.163 64.5679C157.016 71.3482 156.835 71.5848 153.682 70.4681C151.702 69.7663 151.361 68.8345 151.686 65.0175C152.186 59.1399 155.324 54.9951 157.586 57.2213C158.742 58.3581 158.892 60.2658 158.163 64.5679ZM407.442 86.5774C407.106 90.5227 406.626 91.377 404.543 91.7377C403.169 91.9746 401.897 91.9938 401.717 91.779C401.536 91.5641 401.303 88.8145 401.199 85.6679C401.067 81.6662 401.503 79.4471 402.651 78.2803C404.146 76.763 404.452 76.848 406.069 79.2312C407.157 80.8349 407.689 83.6812 407.442 86.5774ZM150.133 72.5749C150.697 74.1587 150.909 75.6659 150.602 75.9241C150.294 76.1834 147.226 76.3891 143.782 76.3814C138.809 76.3711 137.413 76.0008 137.004 74.5851C136.351 72.3271 138.43 70.1781 141.6 69.8361C147.505 69.1987 149.112 69.7139 150.133 72.5749ZM419.674 95.4249C423.009 99.3784 419.823 100.758 411.351 99.0276C405.766 97.8863 405.527 97.7022 406.883 95.5844C407.67 94.3526 408.896 93.0086 409.606 92.5961C411.372 91.5699 417.989 93.4284 419.674 95.4249ZM154.811 73.0863C156.639 73.9714 156.932 77.0483 155.174 76.8992C154.588 76.8495 153.658 75.7675 153.11 74.4948C152.032 71.9936 152.226 71.8338 154.811 73.0863ZM404.427 95.8031C403.671 96.9652 402.572 97.8752 401.985 97.8255C400.42 97.6927 400.939 94.6747 402.615 94.1581C405.36 93.3129 405.791 93.7039 404.427 95.8031ZM160.942 80.7323C161.267 81.3729 161.034 81.8547 160.425 81.8031C159.816 81.7515 159.053 81.1851 158.728 80.5445C158.403 79.9039 158.636 79.4221 159.245 79.4737C159.854 79.5253 160.618 80.0917 160.942 80.7323ZM277.65 91.7422C277.546 92.9595 277.959 93.9978 278.568 94.0494C279.177 94.101 279.76 93.1473 279.864 91.9299C279.967 90.7125 279.554 89.6743 278.945 89.6227C278.336 89.571 277.753 90.5248 277.65 91.7422ZM396.537 101.313C396.096 102.222 395.518 102.708 395.253 102.393C394.987 102.079 395.144 101.317 395.601 100.703C396.843 99.0291 397.451 99.4263 396.537 101.313ZM162.179 85.8532C162.101 86.7662 162.785 87.5766 163.698 87.654C164.612 87.7315 165.423 87.0478 165.5 86.1348C165.578 85.2218 164.894 84.4114 163.981 84.334C163.068 84.2565 162.257 84.9402 162.179 85.8532ZM244.132 92.4974C243.96 94.5149 245.781 96.3535 246.963 95.3558C247.375 95.0084 246.942 93.8113 246 92.6948C244.422 90.8232 244.276 90.8075 244.132 92.4974ZM310.056 99.4702C309.637 100.334 309.692 101.336 310.178 101.698C310.663 102.058 311.405 101.385 311.825 100.201C312.702 97.7271 311.202 97.1072 310.056 99.4702ZM275.6 102.715C275.445 104.541 275.161 106.399 274.97 106.842C274.78 107.285 275.73 107.903 277.084 108.214C279.29 108.72 279.585 108.312 279.928 104.275C280.249 100.509 279.948 99.7398 278.097 99.5829C276.375 99.4368 275.82 100.133 275.6 102.715ZM246.422 101.976C246.055 102.286 246.135 104.299 246.601 106.45C247.456 110.407 251.354 112.454 251.64 109.096C252.014 104.705 248.643 100.104 246.422 101.976ZM305.515 107.356C304.712 107.763 303.592 109.947 303.024 112.211C302.126 115.791 302.259 116.298 304.043 116.109C306.859 115.809 310.028 109.623 308.259 107.881C307.553 107.187 306.318 106.95 305.515 107.356ZM213.564 106.14C212.651 107.37 215.562 110.53 216.714 109.559C217.154 109.187 216.797 108.035 215.922 106.996C214.975 105.874 214.02 105.526 213.564 106.14ZM338.041 118.283C336.359 119.701 336.068 121.218 337.458 121.336C338.472 121.422 340.427 118.226 339.808 117.493C339.618 117.268 338.823 117.624 338.041 118.283ZM274.365 114.593C273.349 117.577 274.445 122.124 276.216 122.274C277.32 122.368 278.06 120.939 278.567 117.736C279.203 113.726 279.003 113.036 277.16 112.879C275.978 112.779 274.721 113.55 274.365 114.593ZM248.862 115.532C248.834 115.856 249.387 117.909 250.09 120.095C251.419 124.23 254.69 125.796 254.951 122.422C255.307 117.817 254.169 115.389 251.55 115.167C250.1 115.044 248.89 115.208 248.862 115.532ZM297.523 123.457C295.761 128.544 297.733 130.567 300.836 126.854C303.543 123.612 303.676 119.586 301.082 119.366C299.586 119.24 298.586 120.389 297.523 123.457ZM219.799 114.36C218.992 117.263 219.255 118.779 220.905 120.735C222.9 123.1 225.929 122.944 226.14 120.465C226.33 118.226 220.33 112.448 219.799 114.36ZM327.397 126.735C324.658 129.233 324.536 132.502 327.173 132.725C329.089 132.888 334.098 126.97 333.328 125.452C332.4 123.62 330.318 124.07 327.397 126.735ZM273.868 128.589C272.57 131.267 273.264 135.4 275.036 135.55C276.189 135.648 276.795 134.533 277.019 131.909C277.353 127.986 275.24 125.76 273.868 128.589ZM226.743 126.479C226.543 128.827 229.829 133.389 231.844 133.56C234.402 133.777 234.611 132.342 232.57 128.567C231.035 125.724 226.932 124.255 226.743 126.479ZM318.52 136.094C315.588 139.232 315.1 141.734 317.382 141.927C319.287 142.089 323.876 138.19 324.04 136.27C324.271 133.559 320.986 133.455 318.52 136.094ZM253.963 129.595C253.108 130.747 255.576 137.802 256.874 137.912C258.842 138.079 259.173 136.475 257.949 132.697C256.795 129.134 255.218 127.905 253.963 129.595ZM292.895 134.929C291.082 138.698 291.045 140.809 292.788 140.957C293.599 141.026 294.934 139.415 295.754 137.378C296.951 134.408 296.945 133.528 295.726 132.938C294.774 132.477 293.717 133.221 292.895 134.929ZM189.611 130.401C189.591 130.63 190.27 131.501 191.119 132.337C192.383 133.581 192.69 133.53 192.815 132.059C192.899 131.072 192.22 130.201 191.307 130.123C190.394 130.046 189.63 130.171 189.611 130.401ZM356.028 146.393C354.657 148.241 355.904 148.622 358.326 147.094C360.32 145.836 360.369 145.639 358.728 145.469C357.7 145.361 356.484 145.778 356.028 146.393ZM235.738 138.712C235.576 140.611 240.098 145.659 241.16 144.763C242.426 143.697 242.246 142.773 240.236 140.016C238.14 137.14 235.926 136.499 235.738 138.712ZM308.77 146.142C305.867 148.748 305.744 152.516 308.59 151.693C311.021 150.99 313.769 146.248 312.57 144.827C311.903 144.037 310.62 144.482 308.77 146.142ZM197.541 136.136C196.709 137.257 201.599 142.143 203.735 142.324C206.526 142.56 206.937 140.048 204.474 137.799C201.787 135.347 198.68 134.601 197.541 136.136ZM273.081 145.417C272.9 147.547 273.25 149.332 273.859 149.384C274.468 149.435 275.114 147.735 275.295 145.604C275.477 143.474 275.127 141.689 274.518 141.637C273.909 141.585 273.263 143.286 273.081 145.417ZM345.186 149.858C345.134 150.467 344.344 150.901 343.431 150.824C342.508 150.746 341.686 151.667 341.582 152.896C341.352 155.591 344.262 156.064 347.936 153.929C351.466 151.88 351.524 149.281 348.048 148.986C346.525 148.857 345.237 149.249 345.186 149.858ZM257.633 143.497C257.491 145.16 259.553 150.4 260.378 150.47C262.14 150.62 262.381 149.178 261.122 146.008C259.827 142.748 257.82 141.304 257.633 143.497ZM286.899 148.539C285.115 153.475 286.724 154.535 289.232 150.078C291.164 146.643 291.17 146.393 289.311 146.235C288.469 146.164 287.384 147.2 286.899 148.539ZM208.681 144.491C208.991 147.098 214.011 150.378 216.548 149.632C218.523 149.052 218.464 148.767 215.815 146.053C212.517 142.672 208.356 141.762 208.681 144.491ZM330.827 156.431C329.508 157.568 328.795 159.154 329.111 160.247C329.604 161.95 329.993 161.956 333.426 160.324C335.501 159.338 337.26 157.811 337.335 156.933C337.539 154.536 333.396 154.216 330.827 156.431ZM243.744 149.896C243.682 151.437 247.662 156.403 248.435 155.751C249.698 154.687 247.279 149.36 245.462 149.206C244.536 149.127 243.763 149.438 243.744 149.896ZM298.506 157.099C295.703 159.86 296.816 162.15 299.841 159.847C302.11 158.121 303.121 155.209 301.5 155.071C301.026 155.031 299.68 155.944 298.506 157.099ZM221.919 151.397C220.395 152.684 221.148 154.657 223.717 156.1C227.199 158.057 228.511 158.142 228.649 156.419C228.774 154.84 222.973 150.51 221.919 151.397ZM425.842 170.781C428.272 174.474 428.155 178.092 425.466 182.358C423.12 186.083 422.49 186.115 418.833 182.7C416.674 180.685 416.384 179.889 417.58 179.266C418.773 178.645 418.684 178.413 417.201 178.274C414.706 178.041 415.017 172.868 417.721 169.633C420.296 166.549 423.342 166.98 425.842 170.781ZM272.004 158.078C271.955 158.651 272.387 159.469 272.964 159.897C273.541 160.325 274.079 159.898 274.16 158.95C274.24 158.001 273.808 157.182 273.199 157.131C272.59 157.079 272.052 157.505 272.004 158.078ZM318.592 162.781C316.738 163.857 316.214 164.74 316.928 165.587C318.299 167.211 324.925 165.17 325.104 163.069C325.28 161.006 321.906 160.856 318.592 162.781ZM261.98 158.13C261.951 158.587 262.346 159.75 262.858 160.713C263.612 162.129 263.834 161.987 264.02 159.975C264.145 158.606 263.75 157.444 263.141 157.393C262.532 157.341 262.01 157.673 261.98 158.13ZM282.638 159.789C282.197 160.16 281.785 161.254 281.721 162.219C281.626 163.66 281.847 163.631 282.952 162.054C284.319 160.106 284.103 158.553 282.638 159.789ZM233.417 160.324C232.607 161.415 237.772 165.77 238.823 164.882C239.213 164.554 238.553 163.204 237.356 161.882C234.913 159.187 234.408 158.987 233.417 160.324ZM252.68 162.381C252.602 163.303 253.261 164.408 254.144 164.836C255.028 165.263 255.787 165.191 255.83 164.677C255.874 164.162 255.216 163.058 254.367 162.222C253.11 160.986 252.797 161.015 252.68 162.381ZM289.649 166.403C289.192 167.017 289.062 167.809 289.359 168.162C290.085 169.021 292.363 167.808 292.474 166.502C292.594 165.088 290.675 165.02 289.649 166.403ZM307.637 168.491C304.853 169.708 303.144 171.931 304.879 172.078C306.745 172.236 312.295 169.103 311.818 168.16C311.14 166.822 311.523 166.792 307.637 168.491ZM175.256 161.137C174.847 161.688 175.538 162.226 176.791 162.333C179.465 162.559 179.786 161.967 177.572 160.895C176.708 160.476 175.665 160.585 175.256 161.137ZM128.933 159.668C128.485 161.614 127.552 162.121 124.467 162.093L120.567 162.057L124.125 159.562C128.524 156.476 129.661 156.501 128.933 159.668ZM185.092 163.133C183.938 164.688 185.348 166.025 189.435 167.254C193.313 168.42 195.254 166.94 193.381 164.248C191.978 162.234 186.324 161.474 185.092 163.133ZM268.767 169.902C266.478 170.498 264.105 173.203 263.867 175.488C263.76 176.508 262.865 178.024 261.876 178.858C258.958 181.318 257.334 185.739 257.671 190.304C257.865 192.931 257.49 194.826 256.696 195.228C255.985 195.588 255.298 197.131 255.169 198.657C254.97 200.994 254.565 201.282 252.62 200.479C250.654 199.666 250.371 199.884 250.724 201.937C251.043 203.778 250.365 204.673 247.866 205.707C245.517 206.68 243.765 208.812 241.677 213.241C237.646 221.79 232.62 230.335 231.197 231.056C230.543 231.387 227.734 234.244 224.955 237.404C222.177 240.565 218.4 243.844 216.562 244.693C212.734 246.459 212.327 247.585 214.754 249.696C215.772 250.581 216.072 251.724 215.494 252.503C214.028 254.478 207.347 256.327 203.007 255.959C198.167 255.548 192.982 256.983 193.76 258.517C194.084 259.158 195.883 259.813 197.756 259.972L201.162 260.261L198.346 262.098C196.797 263.109 194.379 264.191 192.972 264.505C189.808 265.208 189.51 267.492 192.171 270.645C196.45 275.718 202.343 274.181 212.604 265.315C216.853 261.644 220.66 258.887 221.066 259.189C221.472 259.49 221.969 261.195 222.171 262.979C222.544 266.282 227.016 273.6 228.752 273.747C229.278 273.792 230.944 271.577 232.453 268.824C233.962 266.072 236.639 262.604 238.402 261.117C240.165 259.63 242.399 256.784 243.366 254.792C245.045 251.329 245.072 251.461 243.955 257.759C243.312 261.383 241.602 268.511 240.153 273.599C238.226 280.373 237.278 287.01 236.618 298.38C235.18 323.153 234.722 326.75 231.992 334.772C229.769 341.301 229.562 342.972 230.5 346.797C231.842 352.275 234.394 354.504 237.314 352.752C240.945 350.572 246.116 349.011 247.495 349.678C249.495 350.647 250.518 362.163 249.163 368.481C245.806 384.146 245.648 385.53 247.188 385.792C256.931 387.454 260.778 387.441 262.796 385.739C264.799 384.051 264.878 383.488 263.81 378.475C262.528 372.455 263.522 356.188 265.317 353.823C266.252 352.591 266.978 352.601 269.25 353.878C274.3 356.715 281.889 356.568 288.465 353.505C291.772 351.965 294.865 350.183 295.338 349.546C295.811 348.909 294.784 346.931 293.057 345.15C286.007 337.883 284.198 326.185 286.954 305.679C288.319 295.527 288.453 289.761 287.584 278.735C286.975 271.02 286.39 262.193 286.284 259.118L286.091 253.528L287.492 257.435C288.263 259.585 290.035 262.595 291.429 264.126C292.823 265.656 293.859 268.149 293.73 269.666C293.6 271.183 294.506 273.823 295.742 275.534C298.604 279.496 301.213 278.856 304.637 273.356C306.042 271.097 307.38 269.267 307.612 269.287C307.843 269.306 310.872 272.811 314.344 277.075C321.481 285.842 328.059 289.928 332.177 288.155C333.521 287.577 334.654 286.7 334.696 286.205C334.867 284.193 331.702 277.809 329.842 276.416C327.574 274.718 327.275 272.649 329.45 273.702C331.41 274.652 334.037 273.178 333.23 271.583C332.869 270.871 331.437 270.192 330.047 270.074C322.86 269.465 312.022 262.581 314.017 259.893C315.119 258.408 309.442 245.193 304.75 238.317C302.109 234.449 299.364 228.205 297.622 222.111C295.196 213.622 294.116 211.586 290.098 207.939C286.839 204.98 285.573 203.022 285.95 201.524C286.25 200.338 285.959 198.598 285.304 197.659C284.615 196.669 284.512 194.578 285.06 192.689C285.594 190.849 285.536 189.388 284.927 189.336C284.334 189.286 283.969 187.811 284.119 186.059C284.268 184.309 283.695 182.192 282.846 181.357C281.997 180.521 281.378 178.958 281.469 177.883C281.896 172.865 274.718 168.356 268.767 169.902ZM418.614 184.599L421.699 187.659L417.852 187.003C414.82 186.486 413.974 185.812 413.862 183.826C413.682 180.611 414.771 180.788 418.614 184.599ZM246.052 169.185C245.662 169.71 246.062 170.489 246.943 170.916C247.823 171.341 248.581 171.237 248.628 170.684C248.756 169.183 246.868 168.085 246.052 169.185ZM350.326 177.901C347.563 178.259 347.394 182.371 350.132 182.603C353.69 182.905 358.346 181.147 357.983 179.639C357.642 178.227 354.067 177.416 350.326 177.901ZM363.866 179.309C363.748 180.695 364.923 180.795 367.188 179.59C368.604 178.837 368.463 178.615 366.45 178.43C365.08 178.305 363.918 178.7 363.866 179.309ZM198.034 166.968C196.995 169.111 197.152 169.236 202.635 170.626C206.778 171.676 207.294 171.569 207.459 169.629C207.591 168.081 206.666 167.173 204.243 166.472C199.426 165.077 198.932 165.116 198.034 166.968ZM295.083 175.149C294.997 176.164 295.477 176.86 296.15 176.697C296.823 176.535 297.414 175.928 297.464 175.351C297.513 174.773 297.032 174.076 296.397 173.802C295.761 173.529 295.17 174.134 295.083 175.149ZM337.411 178.967C335.828 179.135 334.811 180.037 334.698 181.372C334.554 183.061 335.299 183.575 338.256 183.825C342.128 184.154 345.405 182.053 344.329 179.931C343.708 178.704 342.056 178.475 337.411 178.967ZM212.359 170.933C211.22 172.468 211.442 172.636 216.384 173.971C220.043 174.957 220.538 174.844 220.355 173.061C220.114 170.712 213.775 169.025 212.359 170.933ZM322.74 181.018C321.953 181.262 321.243 182.227 321.164 183.165C321.051 184.487 321.813 184.782 324.537 184.474C326.473 184.254 328.492 184.112 329.024 184.157C329.557 184.203 330.057 183.493 330.134 182.579C330.274 180.94 325.953 180.029 322.74 181.018ZM225.982 174.733C225.87 176.04 226.873 176.611 229.704 176.851C231.835 177.032 233.622 176.682 233.673 176.073C233.725 175.464 233.146 174.907 232.385 174.833C231.625 174.761 229.907 174.306 228.568 173.823C226.779 173.176 226.094 173.418 225.982 174.733ZM128.081 169.628C128.131 171.318 127.641 172.656 126.992 172.601C126.343 172.546 125.855 171.991 125.908 171.367C125.961 170.744 124.77 169.639 123.262 168.915C119.848 167.276 121.145 165.169 125.079 165.966C127.337 166.423 128.011 167.245 128.081 169.628ZM310.916 182.378C309.224 182.45 307.785 183.137 307.719 183.904C307.641 184.826 308.746 185.229 310.977 185.093C316.873 184.732 316.814 182.126 310.916 182.378ZM420.015 191.439C420.355 191.842 419.014 193.316 417.034 194.713C414.172 196.733 413.27 196.928 412.631 195.669C411.437 193.311 413.936 190.242 416.851 190.489C418.25 190.608 419.674 191.035 420.015 191.439ZM240.995 179.146C241.94 180.266 242.531 180.316 243.652 179.371C244.772 178.426 244.503 178.106 242.436 177.931C240.369 177.755 240.05 178.026 240.995 179.146ZM296.497 184.744C296.445 185.352 297.15 185.914 298.063 185.991C298.977 186.068 299.766 185.634 299.818 185.025C299.87 184.416 299.165 183.855 298.252 183.778C297.338 183.7 296.549 184.135 296.497 184.744ZM210.022 191.572C208.428 192.482 206.451 193.945 205.629 194.823C204.319 196.222 204.152 196.145 204.27 194.201C204.386 192.31 203.873 192.493 200.783 195.451C198.791 197.357 197.125 199.332 197.082 199.839C197.039 200.345 196.381 200.459 195.62 200.09C194.858 199.722 191.083 202.259 187.23 205.728L180.223 212.035L177.197 208.191C173.961 204.083 171.549 203.595 169.306 206.595C168.24 208.022 168.257 208.716 169.377 209.555C170.182 210.157 170.466 211.419 170.008 212.363C169.112 214.213 163.574 214.138 159.787 212.225C158.554 211.603 157.006 211.575 156.133 212.159C155.092 212.857 153.322 212.663 150.48 211.543C141.719 208.088 138.565 209.308 141.81 214.894C146.288 222.601 152.037 226.865 163.022 230.626C169.899 232.982 173.07 233.035 173.26 230.801C173.33 229.979 173.744 230.043 174.554 231.003C175.468 232.086 175.324 232.842 173.937 234.239C172.942 235.243 171.453 237.337 170.63 238.894C169.37 241.272 169.436 242.054 171.043 243.776C172.113 244.922 173.581 245.51 174.374 245.107C175.172 244.704 175.468 244.827 175.051 245.388C174.644 245.937 174.66 247.077 175.087 247.919C176.075 249.87 186.402 250.988 188.695 249.393C189.623 248.748 190.682 248.575 191.048 249.009C191.415 249.444 191.757 249.308 191.808 248.708C191.859 248.107 193.538 246.069 195.539 244.179C197.539 242.289 199.232 240.085 199.301 239.281C199.369 238.478 199.976 237.867 200.651 237.924C201.325 237.981 201.671 237.32 201.42 236.453C201.17 235.587 201.571 234.367 202.312 233.742C204.661 231.762 201.711 229.831 194.624 228.712C187.532 227.59 184.441 225.403 190.698 225.934C194.501 226.256 199.568 223.041 199.814 220.149C199.879 219.385 202.274 216.862 205.135 214.542C207.997 212.221 210.988 209.312 211.782 208.077C214.044 204.562 216.587 195.577 216.124 192.733C215.625 189.659 213.938 189.337 210.022 191.572ZM322.45 200.243C322.753 200.84 322.542 201.559 321.984 201.842C320.623 202.531 321.415 212.577 323.163 216.799C323.932 218.655 326.365 222.104 328.57 224.465C330.776 226.825 332.797 230.088 333.061 231.714C333.699 235.637 337.866 238.792 342.07 238.535C344.741 238.371 345.139 238.602 344.067 239.692C343.329 240.441 341.105 240.915 339.126 240.748C337.145 240.58 333.921 240.624 331.961 240.846C328.845 241.198 328.408 241.647 328.488 244.405C328.537 246.14 329.539 248.874 330.713 250.48C331.886 252.086 332.527 253.67 332.136 254C331.17 254.815 337.788 261.774 341.05 263.373C344.93 265.274 352.317 264.377 353.197 261.897C353.594 260.778 354.368 260.195 354.918 260.602C356.446 261.735 359.411 257.795 358.887 255.328C358.632 254.127 357.607 252.104 356.609 250.832C354.668 248.36 355.421 244.349 357.388 246.68C358.88 248.448 363.397 248.678 371.013 247.369C378.697 246.049 382.016 244.434 388.051 239.076C395.724 232.265 394.032 229.264 383.626 231.224C380.54 231.805 378.912 231.659 377.95 230.712C377.01 229.788 375.674 229.652 373.532 230.265C369.664 231.371 366.08 231.061 364.059 229.448C362.696 228.358 362.773 228.018 364.65 226.819C366.401 225.701 366.612 224.99 365.769 223.034C364.377 219.801 361.732 219.768 357.81 222.933C353.642 226.296 351.389 225.374 347.135 218.564C345.319 215.657 343.434 213.171 342.946 213.037C342.458 212.904 341.441 212.692 340.685 212.567C339.929 212.442 338.288 210.585 337.037 208.441C335.774 206.276 334.095 204.736 333.262 204.978C332.435 205.217 330.221 204.063 328.341 202.414C324.969 199.456 321.382 198.134 322.45 200.243ZM110.195 261.128C105.924 308.155 105.458 311.771 103.711 311.486C102.676 311.317 101.865 311.499 101.908 311.891C101.952 312.281 101.501 313.894 100.907 315.472C99.6621 318.783 101.113 323.117 103.535 323.323C104.934 323.441 104.618 329.799 101.243 369.453C98.6573 399.833 97.7236 415.246 98.4938 414.856C99.2397 414.478 101.054 397.873 103.54 368.666L107.421 323.066L105.023 321.762C103.456 320.911 102.707 319.499 102.861 317.692C103.014 315.885 103.992 314.62 105.68 314.044L108.264 313.163L112.569 262.583C115.308 230.402 116.496 211.723 115.835 211.233C115.158 210.731 113.2 228.052 110.195 261.128ZM417.785 236.92C417.289 237.338 414.951 260.388 412.589 288.141L408.295 338.602L410.693 339.905C412.259 340.757 413.009 342.168 412.855 343.976C412.701 345.783 411.724 347.048 410.036 347.623L407.452 348.504L403.565 394.17C401.037 423.876 400.065 439.868 400.786 439.929C401.505 439.99 403.226 424.358 405.704 395.241C409.342 352.503 409.615 350.416 411.698 349.52C415.482 347.89 416.23 343.261 413.296 339.629L410.731 336.452L414.708 286.306C416.896 258.726 418.281 236.502 417.785 236.92ZM177.273 270.578C175.562 271.703 174.088 273.475 174 274.514C173.908 275.589 172.393 276.815 170.49 277.355C166.138 278.587 163.235 285.536 165.08 290.305C167.105 295.543 168.651 294.936 168.586 288.928C168.532 284.021 168.843 283.281 171.77 281.357C173.555 280.183 175.914 279.299 177.015 279.392C178.114 279.486 179.364 279.09 179.793 278.513C180.221 277.937 179.794 277.399 178.845 277.318C175.97 277.075 177.157 274.165 181.227 271.483C184.606 269.256 184.786 268.928 182.726 268.742C181.439 268.626 178.985 269.453 177.273 270.578ZM340.548 282.962C340.508 283.425 341.515 284.389 342.783 285.102C345.834 286.815 347.671 290.614 345.706 291.145C343.258 291.807 343.994 293.244 347.263 294.191C352.508 295.71 354.039 298.504 352.937 304.542C351.968 309.842 352.532 311.093 354.799 308.678C358.805 304.412 357.303 294.132 352.43 292.461C351.011 291.974 349.911 290.861 349.986 289.985C350.188 287.617 345.481 282.529 342.884 282.309C341.638 282.204 340.587 282.497 340.548 282.962ZM186.038 283.742C184.761 284.342 182.914 285.505 181.935 286.326C180.365 287.644 180.552 287.746 183.534 287.194C185.392 286.849 189.739 286.828 193.192 287.148C197.869 287.58 199.361 287.353 199.044 286.258C198.222 283.417 190.085 281.843 186.038 283.742ZM325.197 295.921C321.444 298.1 321.838 299.558 325.898 298.518C329.14 297.687 331.642 298.079 337.673 300.363C341.118 301.667 340.842 299.693 337.22 297.118C333.42 294.416 328.612 293.937 325.197 295.921ZM208.892 287.101C206.84 287.792 204.506 289.523 203.706 290.945C202.641 292.838 201.102 293.588 197.97 293.741C191.26 294.068 188.289 297.108 187.38 304.579C186.959 308.033 186.565 311.198 186.503 311.612C186.441 312.025 185.361 312.595 184.104 312.88C181.274 313.52 177.755 318.898 178.012 322.189C178.177 324.288 178.51 324.078 180.34 320.728C183.844 314.317 191.113 312.955 195.54 317.879L197.837 320.436L201.83 318.412C207.758 315.412 213.345 316.265 217.129 320.751C219.96 324.106 220.124 324.843 219.074 329.509C217.799 335.183 219.467 334.962 221.677 329.165C223.247 325.048 221.311 319.533 216.964 315.742C213.455 312.68 205.722 311.835 201.599 314.061C199.234 315.339 198.569 315.307 196.875 313.834C195.792 312.891 193.808 312.027 192.468 311.914C187.623 311.503 187.932 303.852 192.965 299.609C195.698 297.304 197.478 296.733 200.99 297.031C205.039 297.374 205.528 297.135 205.734 294.71C206.187 289.387 215.567 287.236 219.577 291.534C221.101 293.168 221.471 293.244 221.581 291.945C221.727 290.227 216.561 286.062 214.116 285.926C213.295 285.881 210.944 286.409 208.892 287.101ZM302.634 295.436C301.156 296.438 300.246 297.848 300.611 298.568C301.065 299.465 301.991 299.275 303.545 297.966C306.059 295.846 309.423 296.477 312.99 299.737C315.213 301.769 315.478 302.373 315.263 304.903C315.179 305.889 316.942 306.779 320.306 307.45C324.096 308.205 326.087 309.324 327.756 311.632C329.98 314.71 330.542 322.228 328.43 320.662C327.837 320.222 327.613 320.65 327.907 321.667C328.282 322.964 327.712 323.38 325.78 323.217C324.328 323.094 322.001 323.654 320.61 324.463C319.084 325.349 317.853 325.482 317.506 324.798C317.19 324.174 315.14 323.002 312.95 322.192C303.956 318.869 294.657 324.28 293.891 333.28C293.494 337.941 295.53 342.055 297.151 339.87C297.571 339.305 297.434 338.488 296.848 338.052C294.611 336.392 296.295 330.945 300.018 327.806C304.516 324.014 310.638 324.034 314.729 327.853C316.173 329.202 317.822 330.345 318.394 330.393C318.964 330.441 320.418 329.562 321.623 328.438C325.918 324.434 336.66 328.644 336.191 334.147C336.095 335.284 336.487 336.564 337.064 336.992C338.749 338.242 338.662 333.298 336.937 329.715C336.066 327.908 334.422 325.915 333.283 325.286C331.628 324.374 331.26 322.817 331.445 317.522C331.729 309.449 331.581 308.058 330.5 308.606C330.039 308.84 329.105 308.232 328.425 307.256C327.747 306.28 325.394 305.036 323.198 304.492C320.303 303.774 318.773 302.572 317.628 300.117C314.994 294.468 307.508 292.131 302.634 295.436ZM164.406 297.906C161.272 300.901 160.887 306.162 163.469 310.741L165.88 315.019L162.447 317.79C154.747 324.004 153.689 339.673 160.344 348.93C165.86 356.602 173.356 360.795 184.236 362.296C194.855 363.759 196.258 361.957 185.922 360.13C172.905 357.829 161.026 347.891 160.079 338.51C159.145 329.257 163.519 319.77 170.262 316.425L173.134 315L170.658 313.391C163.762 308.914 162.576 303.567 167.497 299.149C170.085 296.826 170.128 296.647 168.139 296.517C166.966 296.441 165.286 297.067 164.406 297.906ZM352.153 314.656C353.357 316.177 354.23 318.737 354.093 320.344C353.856 323.124 349.717 327.661 346.477 328.691C345.419 329.027 345.776 329.993 347.688 331.973C360.009 344.731 353.465 364.307 334.88 370.281C332.614 371.009 327.732 371.664 324.03 371.737C313.434 371.944 314.263 373.89 325.095 374.239C340.425 374.731 351.538 368.512 356.55 356.634C359.648 349.294 357.341 335.217 352.491 331.864C351.365 331.086 351.728 330.071 354.229 326.995C358.942 321.203 357.784 312.554 352.234 312.084C349.983 311.893 349.982 311.915 352.153 314.656ZM110.057 318.302C109.935 319.729 110.429 320.561 111.276 320.356C112.059 320.168 112.756 319.348 112.825 318.537C112.894 317.726 112.346 316.801 111.606 316.483C110.805 316.139 110.178 316.876 110.057 318.302ZM402.561 342.723C402.821 345.185 406.009 345.799 406.211 343.428C406.288 342.523 405.449 341.529 404.346 341.218C402.891 340.808 402.402 341.22 402.561 342.723ZM104.641 381.937C99.7272 439.67 99.6523 441.205 101.628 443.546C105.906 448.617 101.077 459.105 94.7113 458.565C93.2067 458.437 90.8692 452.033 91.145 448.792C91.2794 447.213 92.7168 444.802 94.3386 443.435C96.0457 441.995 96.6811 440.897 95.8485 440.827C91.74 440.478 88.755 447.289 89.9614 454.261C90.4474 457.068 90.3167 457.384 89.2092 456.09C86.6442 453.092 88.726 442.73 94.0648 431.925C98.8285 422.283 100.679 415.867 98.3567 417.044C97.7437 417.354 97.457 418.351 97.7188 419.258C97.9817 420.165 95.694 425.072 92.6336 430.162C83.7795 444.891 83.3936 453.263 91.275 459.595C94.7298 462.37 95.2607 464.923 92.2577 464.32C91.464 464.161 91.0356 464.294 91.3071 464.614C91.5776 464.935 90.1399 466.445 88.1124 467.967C84.9364 470.354 84.2887 471.636 83.4358 477.228C82.5429 483.082 82.8248 484.683 86.2977 493.521C88.417 498.912 90.4029 504.849 90.7125 506.714L91.2735 510.106L91.6807 506.672C91.9039 504.783 90.868 499.803 89.3786 495.606C85.5563 484.833 84.7711 477.459 86.8792 472.12C88.9618 466.844 89.9199 467.366 87.9459 472.702C87.0059 475.243 86.81 477.506 87.3783 479.279C88.565 482.984 91.1022 486.662 91.9684 485.932C92.3611 485.602 91.7317 484.205 90.5709 482.829C86.741 478.29 89.8613 468.186 94.9596 468.618C97.4019 468.825 99.6896 471.818 98.5649 473.333C98.1178 473.935 98.5296 474.494 99.4785 474.575C101.837 474.775 101.233 481.157 98.6267 483.586C96.8571 485.236 96.2314 490.4 92.7412 532.221C90.5933 557.955 88.8468 579.261 88.8608 579.569C88.8747 579.876 102.599 581.15 119.359 582.398C145.612 584.355 149.813 584.895 149.694 586.3C149.233 591.716 162.057 594.246 170.872 590.479C174.141 589.081 177.165 588.518 178.689 589.023C180.055 589.475 183.911 590.332 187.259 590.925C191.993 591.766 193.707 591.638 194.971 590.354C197.006 588.287 199.012 588.416 200.613 590.716C202.211 593.011 206.755 593.29 217.253 591.734L225.723 590.479L217.72 587.918C208.103 584.84 203.514 584.381 200.628 586.204C198.745 587.395 198.214 587.263 196.442 585.163C195.327 583.841 194.051 583.089 193.608 583.494C193.165 583.898 193.406 584.503 194.144 584.839C197.854 586.53 194.415 587.434 187.154 586.676L179 585.826L180.766 583.046C184.52 577.136 183.095 571.953 177.586 571.486C172.98 571.095 171.06 572 168.831 575.616L166.787 578.93L170.989 575.559C175.345 572.066 178.3 571.926 179.96 575.137C180.929 577.01 179.986 581.008 177.963 583.6C177.077 584.735 175.992 584.474 172.217 582.214C163.045 576.726 152.73 576.469 150.576 581.676C149.781 583.596 148.27 583.556 120.238 580.876L90.7369 578.056L94.2417 533.208C97.6665 489.391 97.81 488.256 100.505 483.801C102.212 480.979 103.095 478.21 102.824 476.537C102.583 475.051 103.093 472.574 103.96 471.034C105.196 468.837 105.277 467.732 104.338 465.9C103.581 464.422 103.559 463.12 104.28 462.355C104.906 461.689 105.28 460.13 105.111 458.889C104.941 457.649 104.989 454.648 105.216 452.22C105.445 449.765 104.806 446.097 103.775 443.953C101.998 440.259 102.127 437.678 106.908 381.508C110.169 343.185 111.511 322.884 110.787 322.823C110.063 322.762 107.938 343.203 104.641 381.937ZM398.03 406.794C393.047 465.338 392.949 466.142 390.472 468.362C388.59 470.049 388.031 471.545 388.235 474.357C388.386 476.418 387.841 478.994 387.026 480.082C385.927 481.546 385.785 482.92 386.477 485.362C387.082 487.493 386.984 489.294 386.205 490.446C385.54 491.427 385.295 493.103 385.66 494.17C386.026 495.236 386.21 498.477 386.072 501.37C385.922 504.497 386.502 507.526 387.501 508.838C389.027 510.84 388.793 515.296 384.993 556.847L380.803 602.649L352.012 600.426L323.221 598.202L320.309 594.672C317.957 591.82 316.462 591.063 312.513 590.728C309.826 590.501 305.782 590.907 303.529 591.631C301.275 592.356 298.937 592.581 298.331 592.133C297.727 591.685 297.511 591.868 297.852 592.541C298.756 594.325 294.814 595.139 293.858 593.365C292.332 590.532 292.091 586.421 293.352 584.751C295.467 581.951 297.912 582.507 301.951 586.706C304.88 589.753 305.549 590.112 304.728 588.205C302.848 583.836 300.56 581.912 296.875 581.6C290.674 581.074 288.501 585.37 291.412 592.399L292.848 595.87L284.505 594.939C276.863 594.087 274.139 592.876 277.732 591.926C278.516 591.72 278.779 591.073 278.316 590.49C277.839 589.89 276.442 590.501 275.097 591.9L272.72 594.37L270.451 591.925C268.302 589.61 267.795 589.529 260.857 590.386C256.828 590.884 252.114 591.283 250.382 591.273C244.736 591.24 246.091 592.536 254.389 595.111C264.582 598.273 267.341 598.51 270.995 596.536C273.687 595.082 274.045 595.112 275.748 596.939C278.05 599.406 285.525 600.146 290.849 598.433C293.507 597.58 295.002 597.562 295.417 598.379C296.707 600.926 304.998 604.534 310.737 605.044C315.876 605.501 317.093 605.176 319.975 602.574L323.294 599.577L339.52 600.919C348.445 601.658 361.85 602.765 369.311 603.378L382.876 604.495L386.793 557.663C390.313 515.578 390.544 510.546 389.068 508.006C386.564 503.698 387.438 499.306 391.475 495.902C395.876 492.192 396.963 492.289 398.726 496.547C401.023 502.092 399.534 507.47 394.88 510.453C393.851 511.113 393.507 511.694 394.116 511.746C398.452 512.114 402.466 505.203 401.359 499.275C400.391 494.089 401.071 493.453 402.565 498.149C404.055 502.833 401.428 512.288 395.977 521.853C393.856 525.575 392.047 530.187 391.955 532.102C391.844 534.398 392.029 534.846 392.495 533.416C392.885 532.223 395.615 526.96 398.565 521.722C401.514 516.483 404.347 509.897 404.861 507.086C406.019 500.743 403.779 493.956 400.11 492.697C394.98 490.938 394.972 488.835 400.085 485.905C408.934 480.832 410.035 472.786 404.046 456.926C402.014 451.542 400.236 445.874 400.094 444.329C399.886 442.037 399.753 442.197 399.374 445.195C399.118 447.217 400.146 452.494 401.658 456.923C405.195 467.288 406.141 476.592 404.083 480.77C403.245 482.469 402.332 483.59 402.053 483.26C401.775 482.93 402.174 481.355 402.942 479.76C405.324 474.806 402.778 466.85 398.698 466.504C397.407 466.395 397.532 466.946 399.219 468.809C400.439 470.155 401.651 472.568 401.911 474.17C402.456 477.528 398.92 484.377 396.762 484.139C394.491 483.89 391.661 480.805 392.224 479.194C392.51 478.375 392.503 478.062 392.207 478.501C391.02 480.259 389.769 477.651 390.075 474.056C390.284 471.607 391.252 469.625 392.776 468.53C395.096 466.862 395.268 465.453 400.164 407.926C403.404 369.855 404.806 348.754 404.128 348.252C403.433 347.737 401.372 367.529 398.03 406.794ZM187.865 332.244C186.417 333.463 186.087 334.811 186.501 337.81C187.469 344.832 191.582 348.262 200.751 349.696C202.998 350.047 203.104 350.446 202.017 354.48C200.402 360.472 200.123 367.112 201.283 371.977C202.538 377.242 208.356 384.29 212.778 385.902C217.568 387.648 218.774 386.771 215.077 384.228C209.303 380.258 207.611 378.235 205.806 373.156C203.649 367.077 204.069 359.268 206.84 353.954C207.95 351.827 208.584 350.064 208.249 350.036C207.916 350.008 208.264 349.028 209.023 347.86C210.363 345.799 210.172 345.738 202.615 345.798C194.952 345.86 194.774 345.8 191.618 342.059C188.978 338.931 188.548 337.583 189.186 334.454C189.612 332.362 189.919 330.647 189.867 330.643C189.816 330.638 188.915 331.359 187.865 332.244ZM324.774 345.156C325.59 352.379 318.266 356.812 308.743 354.858C302.545 353.587 302.331 353.91 304.311 361.525C305.912 367.681 305.234 375.817 302.72 380.639C300.297 385.284 294.204 390.54 290.554 391.133C289.046 391.378 287.772 392.077 287.72 392.685C287.579 394.343 292.845 393.179 297.852 390.446C305.894 386.056 310.192 375.323 308.849 362.983C308.429 359.116 308.519 359.006 312.043 359.05C318.275 359.132 322.502 357.596 324.751 354.438C327.424 350.681 327.994 345.321 325.935 343.295C324.606 341.986 324.445 342.245 324.774 345.156ZM136.453 361.911C135.987 367.395 144.245 380.98 152.272 387.931C157.879 392.786 167.452 397.797 171.838 398.175C174.705 398.421 174.146 397.825 167.748 393.821C163.673 391.268 160.209 388.727 160.052 388.174C159.894 387.62 159.138 387.115 158.372 387.05C156.294 386.874 145.242 372.765 141.738 365.814C138.483 359.357 136.778 358.098 136.453 361.911ZM167.213 362.912C164.384 365.297 169.137 372.659 174.731 374.556C177.989 375.661 187.811 374.276 187.946 372.692C187.991 372.163 185.163 371.479 181.663 371.173C174.461 370.545 170.512 368.556 169.025 364.808C168.466 363.397 167.649 362.544 167.213 362.912ZM367.043 380.443C366.25 381.111 365.563 382.099 365.518 382.64C365.341 384.713 357.582 392.688 356.478 391.929C355.839 391.489 355.663 391.582 356.087 392.136C357.095 393.453 349.524 400.035 348.162 399.025C347.587 398.597 347.414 398.835 347.777 399.553C348.502 400.983 343.558 403.799 332.847 408.057C327.713 410.097 326.644 410.879 328.408 411.3C337.625 413.505 359.403 400.801 366.741 388.94C371.087 381.916 371.265 376.882 367.043 380.443ZM337.936 380.808C335.433 383.214 334.043 383.552 327.404 383.365C323.196 383.247 319.718 383.573 319.675 384.089C319.544 385.625 328.316 388.319 332.073 387.898C336.584 387.393 340.512 384.594 341.744 381.008C342.996 377.365 341.594 377.292 337.936 380.808ZM156.9 372.702C154.672 374.581 155.061 376.339 158.45 379.72C162.653 383.912 164.167 382.867 161.911 377.332C159.749 372.027 158.772 371.124 156.9 372.702ZM343.735 390.625C342.3 392.582 341.049 395.074 340.954 396.16C340.812 397.793 341.183 397.963 343.096 397.139C344.37 396.59 346.342 394.954 347.48 393.503C349.368 391.096 349.409 390.697 347.947 388.965C346.485 387.231 346.115 387.378 343.735 390.625ZM184.436 377.284C181.816 379.944 181.171 384.299 182.766 388.559C184.484 393.144 187.397 395.084 193.318 395.586C198.236 396.003 198.382 394.245 193.541 392.904C191.263 392.274 188.77 390.419 187.184 388.172C184.987 385.061 184.745 383.812 185.656 380.278C186.798 375.849 186.52 375.167 184.436 377.284ZM320.448 392.345C320.164 398.492 316.498 402.18 309.814 403.041C305.353 403.617 305.282 403.686 307.85 404.983C315.951 409.075 326.859 399.076 323.762 390.398C322.213 386.058 320.698 386.949 320.448 392.345ZM200.965 390.052C200.381 396.916 203.869 402.054 209.434 402.526C211.743 402.722 211.514 401.655 208.68 399.009C207.318 397.738 205.471 394.375 204.576 391.538C202.63 385.364 201.407 384.86 200.965 390.052ZM300.708 399.058C299.724 401.552 297.464 404.337 295.254 405.783C291.069 408.52 291.293 410.119 295.762 409.392C300.919 408.553 304.813 403.082 304.249 397.468C303.871 393.705 302.596 394.278 300.708 399.058ZM138.482 392.799C138.775 395.543 147.297 400.602 152.35 401.03C157.193 401.441 157.864 399.339 153.405 397.724C151.956 397.199 148.651 395.512 146.06 393.975C140.401 390.617 138.213 390.278 138.482 392.799ZM355.256 411.489C353.029 412.442 349.136 413.964 346.605 414.874L342.004 416.528L346.78 417.293C352.36 418.187 361.994 414.955 362.829 411.909C363.516 409.407 360.519 409.24 355.256 411.489ZM354.22 423.783C345.912 424.191 335.597 424.527 331.297 424.528C326.998 424.53 321.718 424.612 319.563 424.709C297.485 425.709 235.585 421.342 204.59 416.598C195.038 415.136 174.419 411.615 158.77 408.773C143.121 405.931 130.094 403.795 129.823 404.024C129.073 404.656 133.63 405.825 155.721 410.667C173.692 414.606 185.629 416.958 206.17 420.605C232.897 425.351 283.431 428.832 314.26 428.052C334.799 427.531 371.854 424.825 371.376 423.88C371.102 423.343 370.531 422.934 370.104 422.972C369.677 423.01 362.529 423.375 354.22 423.783ZM103.677 458.768C103.548 460.29 103.065 461.539 102.605 461.546C102.145 461.553 100.654 461.67 99.2928 461.807C95.725 462.167 95.3434 460.322 98.6875 458.882C100.257 458.206 101.577 457.239 101.62 456.733C101.663 456.227 102.197 455.856 102.806 455.907C103.415 455.959 103.807 457.246 103.677 458.768ZM391.537 482.258C392.644 483.381 393.266 484.682 392.919 485.15C392.572 485.617 393.171 485.744 394.25 485.432C395.599 485.042 395.922 485.255 395.282 486.116C394.771 486.805 393.035 487.08 391.423 486.727C389.187 486.238 388.47 485.379 388.396 483.1C388.281 479.616 388.796 479.478 391.537 482.258ZM102.834 467.493C103.391 468.292 103.346 469.503 102.729 470.334C101.866 471.495 101.031 471.161 98.4946 468.63C96.5653 466.706 95.8826 465.346 96.7413 465.136C98.6784 464.662 101.67 465.82 102.834 467.493ZM395.252 491.849C395.2 492.458 394.471 492.898 393.632 492.827C392.794 492.756 391.424 493.392 390.588 494.241C388.344 496.52 387.094 495.982 387.36 492.852C387.567 490.429 388.075 490.126 391.471 490.414C393.602 490.595 395.303 491.241 395.252 491.849ZM211.101 480.597C210.747 484.756 210.566 484.935 206.53 485.172C204.219 485.308 197.818 485.335 192.306 485.234C173.936 484.896 120.477 487.84 118.941 489.272C118.267 489.902 122.609 489.875 145.142 489.113C165.18 488.435 196.295 488.387 203.972 489.021L210.339 489.547L209.891 494.804L209.445 500.061L241.549 502.801L273.654 505.541L274.103 500.266L274.552 494.992L279.268 495.392C284.049 495.797 322.547 501.983 329.585 503.476C340.74 505.843 361.4 509.241 362.711 508.924C365.481 508.255 308.815 496.161 290.371 493.485C274.701 491.211 274.867 491.292 275.307 486.117L275.682 481.712L243.576 478.989L211.469 476.267L211.101 480.597ZM272.223 493.401L271.768 502.559L241.83 500.02L211.894 497.482L212.631 488.813C213.037 484.045 213.619 479.933 213.924 479.676C214.229 479.418 227.575 480.341 243.579 481.726L272.679 484.244L272.223 493.401ZM231.07 483.85C230.302 484.63 229.225 486.813 228.678 488.7C228.13 490.588 227.315 492.102 226.867 492.064C226.419 492.026 226.396 490.766 226.817 489.266C227.78 485.839 225.92 483.066 222.46 482.772C219.079 482.486 217.022 486.372 217.98 491.234C218.516 493.959 218.322 494.683 217.081 494.578C216.211 494.504 215.455 494.942 215.403 495.55C215.352 496.159 216.786 496.782 218.592 496.935C220.832 497.125 222.349 496.481 223.371 494.91C224.838 492.654 224.897 492.652 226.265 494.877C227.58 497.012 227.737 497.037 228.925 495.303C230.543 492.942 232.14 493.06 231.731 495.512C231.48 497.017 232.491 497.572 236.651 498.211C241.43 498.946 242.003 498.772 243.232 496.218C245.212 492.101 245.67 484.446 243.912 484.866C243.13 485.051 241.848 486.248 241.064 487.523C238.58 491.563 237.733 491.45 238.874 487.23C240.26 482.1 238.074 481.391 236.546 486.475L235.484 490.007L235.158 486.727C234.785 482.973 233.102 481.787 231.07 483.85ZM252.54 485.959C250.11 488.009 249.297 496.547 251.342 498.558C252.557 499.754 253.446 499.525 256.023 497.352C259.192 494.681 261.54 494.69 258.907 497.364C257.535 498.758 257.98 500.275 259.806 500.43C260.328 500.474 261.342 499.293 262.058 497.804C262.774 496.315 264.515 494.779 265.927 494.389L268.494 493.679L266.088 492.685C263.774 491.728 263.094 489.586 264.678 488.249C265.096 487.898 266.326 488.186 267.411 488.891C268.936 489.882 269.419 489.791 269.529 488.496C269.675 486.785 266.701 485.494 262.347 485.377C261.014 485.341 259.924 485.581 259.925 485.909C259.93 487.92 259.318 488.076 257.918 486.415C257.042 485.378 255.899 484.493 255.377 484.449C254.856 484.405 253.579 485.084 252.54 485.959ZM255.312 494.789L253.234 498.201L253.595 493.123C254.009 487.307 255.327 485.453 256.551 488.969C257.145 490.672 256.781 492.376 255.312 494.789ZM223.925 487.142C223.831 488.244 223.002 490.009 222.081 491.067C220.508 492.874 220.43 492.83 220.782 490.334C221.394 486.004 224.27 483.082 223.925 487.142ZM260.684 492.18C259.611 494.393 259.019 494.072 259.246 491.399C259.353 490.146 259.891 489.455 260.443 489.864C260.995 490.273 261.103 491.316 260.684 492.18ZM231.58 490.531C230.394 491.523 230.279 491.385 231.013 489.859C231.522 488.803 232.193 488.241 232.505 488.611C232.818 488.98 232.402 489.844 231.58 490.531ZM239.572 495.133C238.722 495.849 237.218 496.044 236.23 495.566C233.441 494.216 234.215 493.244 237.836 493.551C240.512 493.778 240.832 494.07 239.572 495.133ZM90.0146 511.206C89.5196 511.625 87.7643 527.819 86.1151 547.196L83.1168 582.426L79.729 582.138C76.4906 581.864 76.3399 582.036 76.3312 586.03C76.3216 589.982 76.5454 590.247 80.4437 590.904C84.4804 591.586 84.5729 591.521 84.8928 587.762L85.2197 583.921L116.758 586.773C134.179 588.348 148.19 589.182 148.058 588.636C147.926 588.093 133.764 586.544 116.585 585.192L85.3507 582.735L88.1338 546.591C89.664 526.711 90.5096 510.788 90.0146 511.206ZM388.37 572.702L385.351 608.18L354.391 605.212C333.151 603.176 323.259 602.602 322.878 603.388C322.493 604.184 331.89 605.319 353.773 607.122L385.22 609.712L384.914 613.309C384.62 616.767 384.779 616.92 389.036 617.281L393.465 617.656L393.842 613.23C394.198 609.048 394.034 608.787 390.897 608.521L387.576 608.24L390.59 572.826C392.537 549.954 393.212 537.378 392.497 537.318C391.782 537.257 390.32 549.788 388.37 572.702ZM115.149 538.134C117.256 540.9 116.91 544.986 114.093 550.593C111.938 554.881 111.767 554.974 107.958 553.892C105.802 553.28 102.672 552.4 101.001 551.936C98.9813 551.376 97.1771 551.69 95.6246 552.873C90.6608 556.651 93.5238 561.675 101.684 563.507C106.643 564.619 106.675 564.656 106.809 569.566C107.036 577.828 111.831 581.74 116.452 577.433C118.414 575.604 118.569 574.736 117.844 569.663C116.674 561.483 116.793 561.188 121.877 559.639C127.923 557.796 133.054 558.293 134.693 560.882C135.574 562.273 136.051 562.469 136.159 561.485C136.247 560.682 135.728 559.325 135.005 558.469C132.434 555.422 129.11 554.937 123.656 556.815C116.526 559.272 115.451 559.012 119.86 555.901C121.87 554.483 123.273 552.846 122.978 552.264C122.683 551.681 123.218 551.271 124.167 551.351C126.12 551.517 126.75 548.742 125.045 547.477C124.429 547.021 123.564 547.669 123.12 548.92C122.676 550.171 121.666 551.139 120.875 551.072C120.083 551.005 118.249 552.228 116.8 553.792C115.35 555.355 114.475 555.908 114.853 555.02C115.231 554.133 116.603 550.945 117.902 547.937C120.134 542.766 120.171 542.3 118.581 539.356C117.656 537.645 116.132 536.179 115.194 536.1C113.705 535.973 113.7 536.231 115.149 538.134ZM360.021 559.335C357.481 562.375 357.373 565.068 359.55 571.196C361.646 577.098 361.085 578.658 358.669 573.644C357.71 571.654 356.353 570.373 355.471 570.628C354.599 570.881 354.003 570.335 354.086 569.358C354.299 566.86 352.603 566.031 350.874 567.787C349.643 569.037 349.795 569.506 351.722 570.411C353.013 571.016 354.002 571.857 353.92 572.28C353.465 574.638 353.853 575.363 356.494 577.1C360.731 579.886 357.916 579.269 352.936 576.321C350.601 574.938 347.681 573.705 346.449 573.58C343.39 573.269 339.02 575.965 338.868 578.257C338.753 579.991 338.868 579.995 340.379 578.322C342.546 575.921 347.55 576.454 353.515 579.72L358.346 582.365L356.074 587.821C354.045 592.697 353.953 593.608 355.209 596.381C355.982 598.087 357.693 599.733 359.011 600.039C362.272 600.796 366.637 594.983 366.538 590.014C366.469 586.531 366.624 586.399 370.396 586.714C375.366 587.131 381.833 584.004 382.083 581.064C382.186 579.851 381.069 577.918 379.602 576.768C377.156 574.853 376.41 574.777 370.712 575.853L364.491 577.029L362.685 572.598C360.138 566.349 360.842 559.857 364.204 558.572L366.797 557.583L364.376 557.303C363.043 557.147 361.084 558.062 360.021 559.335ZM230.433 554.797C229.47 555.305 226.142 555.512 223.039 555.259C218.995 554.928 216.829 555.326 215.393 556.666C212.732 559.147 212.672 560.776 215.315 558.826C216.461 557.981 218.509 557.052 219.87 556.761C222.625 556.172 228.779 558.982 230.662 561.691C231.927 563.51 232.557 568.364 231.469 567.903C231.129 567.759 229.907 568.44 228.751 569.414C226.2 571.565 218.255 571.101 215.526 568.642C214.495 567.713 213.346 565.5 212.974 563.724L212.298 560.495L211.928 563.808C211.638 566.405 212.345 567.76 215.204 570.084C218.868 573.062 223.397 573.647 229.532 571.934C231.328 571.433 231.517 571.571 230.417 572.577C226.439 576.215 213.817 573.995 201.475 567.485C190.264 561.572 187.677 560.634 186.143 561.927C185.143 562.77 185.393 563.072 187.107 563.088C188.379 563.1 194.287 565.972 200.236 569.471C217.678 579.732 226.6 579.868 234.079 569.992L237.758 565.133L239.562 567.793C240.555 569.256 241.316 571.051 241.254 571.782C241.038 574.314 247.654 578.899 252.905 579.856C258.988 580.966 263.666 580.02 275.884 575.215C280.846 573.264 286.493 571.769 288.434 571.891C291.794 572.105 291.848 572.047 289.556 570.693C287.552 569.509 284.903 569.952 273.719 573.341C258.897 577.831 248.915 578.18 244.872 574.346C242.954 572.527 242.984 572.494 245.562 573.569C247.043 574.186 250.669 574.891 253.62 575.135C260.231 575.682 263.549 572.936 263.822 566.691C263.987 562.933 263.946 562.879 263.24 565.929C262.067 570.996 258.186 573.861 253.079 573.428C248.797 573.065 242.551 569.639 242.712 567.744C242.871 565.885 247.948 560.708 248.911 561.423C249.444 561.818 249.92 561.668 249.969 561.089C250.136 559.138 255.801 559.045 258.916 560.944C262.409 563.072 264.139 562.482 261.468 560.073C260.481 559.181 257.34 558.238 254.488 557.978C251.637 557.716 248.131 556.939 246.698 556.25C244.902 555.387 243.181 555.377 241.156 556.219C239.542 556.889 237.834 557.014 237.362 556.495C235.763 554.742 232.194 553.867 230.433 554.797ZM235.384 557.716C236.416 559.728 236.547 562.253 235.715 564.065C235.211 565.159 234.209 564.446 232.166 561.535C230.598 559.305 229.576 557.126 229.894 556.693C230.82 555.428 234.569 556.127 235.384 557.716ZM247.406 558.456C247.73 559.097 247.546 559.583 246.997 559.536C246.449 559.49 244.918 561.108 243.593 563.131C241.8 565.876 241 566.397 240.449 565.182C239.626 563.364 240.175 560.241 241.667 558.248C242.841 556.681 246.575 556.816 247.406 558.456ZM121.335 552.647C121.315 552.876 120.37 553.674 119.233 554.419C117.36 555.646 117.324 555.604 118.85 553.966C120.454 552.245 121.412 551.736 121.335 552.647ZM357.165 574.172C358.391 576.043 358.349 576.079 356.711 574.554C355.717 573.629 354.918 572.683 354.938 572.453C355.015 571.543 355.875 572.205 357.165 574.172ZM106.659 556.129C110.353 557.066 110.506 557.283 109.146 559.664C107.969 561.724 106.87 562.124 103.272 561.796C98.1706 561.334 94.5829 558.679 95.7638 556.242C96.6145 554.487 100.045 554.451 106.659 556.129ZM379.272 581.341C379.141 582.878 377.911 583.826 375.252 584.443C370.108 585.635 366.691 584.515 365.527 581.255C364.692 578.915 364.891 578.524 367.044 578.272C368.406 578.112 371.758 578.239 374.491 578.554C378.674 579.036 379.43 579.477 379.272 581.341ZM114.861 558.841C114.787 559.71 113.793 560.582 112.651 560.778C110.272 561.189 110.052 560.127 112.151 558.358C114.067 556.743 115.025 556.913 114.861 558.841ZM363.247 580.709C364.172 582.857 364.071 583.077 362.501 582.317C361.501 581.832 360.473 581.419 360.218 581.397C359.964 581.376 359.819 580.611 359.897 579.698C360.104 577.264 362.011 577.84 363.247 580.709ZM115.091 565.351C115.341 566.751 115.393 569.782 115.205 572.083C114.803 577.011 111.9 578.666 109.777 575.179C108.1 572.424 108.749 563.801 110.679 563.207C113.547 562.323 114.644 562.856 115.091 565.351ZM363.992 585.061C365.731 585.209 364.271 595.817 362.327 597.169C359.34 599.247 357.288 597.24 357.696 592.643C358.248 586.411 359.606 583.344 361.422 584.222C362.277 584.637 363.433 585.014 363.992 585.061ZM234.865 586.239C234.142 588.733 233.136 589.62 230.66 589.947C228.87 590.184 227.366 590.836 227.318 591.396C227.243 592.281 230.511 593.221 233.033 593.039C233.495 593.005 233.766 594.976 233.636 597.417C233.505 599.858 233.48 602.364 233.58 602.985C233.68 603.607 233.788 605.247 233.82 606.629C233.869 608.776 234.04 608.67 235.005 605.893C235.625 604.106 236.372 600.533 236.664 597.952C236.956 595.372 237.565 593.35 238.015 593.461C240.469 594.065 243.849 593.689 243.925 592.804C243.973 592.244 242.545 591.33 240.752 590.775C238.253 590 237.545 589.154 237.715 587.151C238.053 583.184 235.947 582.51 234.865 586.239ZM165.226 580.604C167.601 581.485 170.432 582.948 171.519 583.855C173.212 585.268 171.901 585.348 162.305 584.42C152.721 583.493 151.324 583.126 152.569 581.861C154.022 580.385 157.699 578.915 159.796 578.972C160.408 578.988 162.851 579.722 165.226 580.604ZM183.464 582.574C183.367 583.714 184.046 584.317 185.278 584.188C187.65 583.936 187.67 581.959 185.308 581.255C184.323 580.961 183.555 581.51 183.464 582.574ZM285.062 590.228C283.941 591.174 285.054 592.859 286.904 593.016C287.782 593.09 288.563 592.404 288.641 591.491C288.783 589.825 286.498 589.018 285.062 590.228ZM316.372 593.871C318.089 594.952 319.458 596.259 319.415 596.773C319.371 597.289 314.472 597.363 308.528 596.937C297.159 596.124 296.77 595.383 306.369 592.824C311.611 591.426 312.662 591.536 316.372 593.871ZM172.406 587.799C171.36 589.209 163.882 590.379 158.864 589.921C155.001 589.568 150.722 587.316 150.859 585.708C150.885 585.411 155.9 585.549 162.004 586.014C168.293 586.493 172.801 587.266 172.406 587.799ZM192.149 589.648C190.43 590.306 188.349 590.142 185.503 589.123C181.409 587.659 181.439 587.648 188.006 588.165C193.42 588.592 194.188 588.867 192.149 589.648ZM285.525 597.604C282.547 598.129 280.468 597.94 278.885 597.002C277.008 595.889 277.811 595.747 283.219 596.238C289.78 596.833 289.807 596.85 285.525 597.604ZM319.526 600.688C318.03 603.774 308.115 603.616 301.957 600.408C299.83 599.3 298.11 598.151 298.135 597.855C298.161 597.558 303.148 597.737 309.218 598.252C318.228 599.016 320.121 599.463 319.526 600.688ZM82.767 586.535C82.6145 588.328 81.9062 589.011 80.3374 588.878C78.7287 588.742 78.186 587.952 78.3528 585.992C78.5243 583.977 79.139 583.384 80.7824 583.649C82.2928 583.892 82.915 584.796 82.767 586.535ZM391.443 612.849C391.555 614.663 391.021 615.22 389.302 615.074C387.618 614.931 387.071 614.171 387.238 612.21C387.53 608.782 391.225 609.343 391.443 612.849Z" fill="#111C32"/>
<rect x="136.485" y="497" width="221.111" height="41.1734" rx="18.5" transform="rotate(4.85552 136.485 497)" fill="#111C32"/>
<path d="M238.986 401.308L237.222 401.158L236.199 413.194L237.964 413.344L237.921 413.846L232.534 413.389L232.577 412.886L234.342 413.036L234.843 407.139L228.694 406.617L228.193 412.514L229.958 412.664L229.915 413.166L224.529 412.709L224.571 412.206L226.336 412.356L227.358 400.32L225.594 400.17L225.636 399.668L231.023 400.125L230.98 400.628L229.216 400.478L228.737 406.115L234.885 406.637L235.364 401L233.6 400.85L233.642 400.348L239.029 400.806L238.986 401.308Z" fill="#111C32"/>
<path d="M246.345 401.165L249.994 414.366L251.759 414.516L251.716 415.018L246.181 414.548L246.223 414.046L247.988 414.196L246.996 410.458L242.612 410.085L241.23 413.359L242.787 413.754L242.744 414.256L238.751 413.917L238.793 413.415L240.675 413.293L245.825 401.121L246.345 401.165ZM245.311 403.644L242.822 409.597L246.834 409.938L245.311 403.644Z" fill="#111C32"/>
<path d="M258.12 409.697C257.86 409.675 257.583 409.633 257.289 409.571C257.079 409.54 256.792 409.472 256.427 409.366L255.959 414.873L257.909 415.038L257.867 415.541L252.294 415.067L252.337 414.565L254.102 414.715L255.124 402.679L253.359 402.529L253.402 402.027L258.956 402.498C260.207 402.605 261.212 402.952 261.973 403.542C262.735 404.118 263.067 404.984 262.969 406.137C262.862 407.39 262.34 408.326 261.402 408.946C260.477 409.554 259.383 409.805 258.12 409.697ZM257.94 409.176C258.844 409.253 259.553 408.982 260.067 408.364C260.593 407.746 260.896 406.973 260.975 406.043C261.057 405.075 260.889 404.343 260.469 403.845C260.051 403.335 259.359 403.038 258.393 402.956L256.982 402.837L256.473 408.827C256.893 409.012 257.382 409.129 257.94 409.176Z" fill="#111C32"/>
<path d="M269.258 410.644C268.998 410.621 268.721 410.579 268.427 410.517C268.217 410.486 267.93 410.418 267.565 410.312L267.097 415.819L269.047 415.985L269.005 416.487L263.432 416.013L263.475 415.511L265.239 415.661L266.262 403.625L264.497 403.475L264.54 402.973L270.094 403.444C271.344 403.551 272.35 403.898 273.111 404.488C273.873 405.065 274.204 405.93 274.106 407.083C274 408.336 273.478 409.272 272.54 409.892C271.615 410.5 270.521 410.751 269.258 410.644ZM269.077 410.122C269.981 410.199 270.69 409.928 271.204 409.31C271.731 408.693 272.034 407.919 272.113 406.989C272.195 406.021 272.026 405.289 271.607 404.791C271.189 404.281 270.497 403.985 269.531 403.903L268.119 403.783L267.61 409.773C268.031 409.958 268.52 410.075 269.077 410.122Z" fill="#111C32"/>
<path d="M283.376 405.079L283.418 404.576L287.523 404.925L287.481 405.427L285.756 405.468L281.872 411.546L281.406 417.034L283.17 417.184L283.128 417.687L277.741 417.229L277.784 416.727L279.548 416.877L280.016 411.37L276.726 404.514L274.961 404.364L275.004 403.862L280.651 404.341L280.608 404.844L278.88 404.697L281.712 410.783L285.124 405.415L283.376 405.079Z" fill="#111C32"/>
<path d="M164.138 509.048L161.589 508.831L160.286 524.175C160.152 525.751 159.647 527.025 158.772 527.998C157.895 528.988 156.715 529.42 155.23 529.294C154.3 529.215 153.524 528.914 152.901 528.392C152.278 527.888 152.003 527.197 152.078 526.319C152.119 525.836 152.295 525.454 152.607 525.173C152.921 524.875 153.319 524.747 153.802 524.788C154.768 524.87 155.21 525.395 155.128 526.362C155.053 527.24 154.571 527.722 153.681 527.809C153.646 528.004 153.784 528.178 154.096 528.331C154.356 528.444 154.63 528.512 154.916 528.536C155.667 528.6 156.262 528.38 156.702 527.876C157.124 527.352 157.379 526.58 157.466 525.559L158.906 508.603L156.357 508.387L156.419 507.661L164.2 508.322L164.138 509.048Z" fill="#E0E0E0"/>
<path d="M178.234 528.487L164.336 527.307L164.398 526.581L166.947 526.798L168.424 509.412L165.875 509.195L165.936 508.47L179.137 509.591L178.669 515.1L177.945 515.038L177.439 510.178L171.107 509.64L170.422 517.701L174.366 518.036L175.196 514.94L175.921 515.002L175.327 521.988L174.63 521.929L174.304 518.762L170.36 518.427L169.63 527.025L176.659 527.623L178.001 522.648L178.725 522.71L178.234 528.487Z" fill="#E0E0E0"/>
<path d="M192.12 520.6C192.917 521.191 193.423 521.919 193.637 522.786C193.739 523.282 193.764 523.843 193.71 524.47C193.578 526.029 192.912 527.289 191.714 528.252C190.515 529.215 189.137 529.63 187.581 529.498C185.327 529.306 183.726 528.331 182.776 526.572L182.376 529.055L181.544 528.985L182.11 522.321L182.862 522.385C182.842 524.097 183.214 525.554 183.977 526.756C184.759 527.941 185.964 528.602 187.591 528.741C188.092 528.783 188.573 528.743 189.034 528.62C189.786 528.467 190.392 528.113 190.854 527.556C191.317 526.982 191.582 526.301 191.649 525.513C191.719 524.689 191.586 524.028 191.25 523.53C190.932 523.034 190.388 522.546 189.618 522.065C189.396 521.92 189.062 521.72 188.615 521.466C188.047 521.147 187.704 520.946 187.585 520.864C187.262 520.638 186.902 520.418 186.506 520.204C185.836 519.822 185.288 519.487 184.862 519.198C184.455 518.893 184.036 518.524 183.605 518.09C183.173 517.657 182.864 517.161 182.677 516.604C182.508 516.048 182.453 515.43 182.51 514.749C182.64 513.227 183.235 512.05 184.297 511.22C185.377 510.374 186.669 510.014 188.172 510.142C190.139 510.309 191.499 511.156 192.253 512.681L192.805 510.319L193.502 510.378L192.934 517.069L192.209 517.008C192.342 515.449 192.081 514.065 191.427 512.855C190.773 511.644 189.713 510.977 188.246 510.852C187.263 510.769 186.435 510.969 185.763 511.453C185.109 511.939 184.742 512.657 184.661 513.606C184.591 514.43 184.759 515.112 185.163 515.651C185.563 516.245 186.113 516.77 186.813 517.226C187.394 517.6 187.787 517.85 187.992 517.976C188.743 518.473 189.386 518.861 189.92 519.141C190.912 519.767 191.646 520.253 192.12 520.6Z" fill="#E0E0E0"/>
<path d="M210.286 525.283L211.302 513.325L208.776 512.84L208.838 512.114L214.74 512.616L214.679 513.341L212.107 513.393L211.068 525.62C210.908 527.501 210.24 528.896 209.064 529.807C207.888 530.717 206.378 531.094 204.536 530.938C202.604 530.774 201.062 530.156 199.91 529.083C198.76 527.993 198.263 526.526 198.42 524.681L199.493 512.051L196.944 511.835L197.005 511.109L204.786 511.77L204.724 512.496L202.176 512.279L201.139 524.479C200.839 528.008 202.174 529.898 205.143 530.151C206.61 530.275 207.798 529.862 208.708 528.911C209.635 527.961 210.161 526.752 210.286 525.283Z" fill="#E0E0E0"/>
<path d="M225.816 523.462C226.612 524.053 227.118 524.782 227.333 525.648C227.435 526.144 227.459 526.705 227.406 527.332C227.273 528.891 226.608 530.151 225.409 531.114C224.21 532.077 222.833 532.492 221.277 532.36C219.023 532.169 217.421 531.193 216.472 529.435L216.072 531.918L215.24 531.847L215.806 525.183L216.557 525.247C216.538 526.959 216.909 528.416 217.672 529.618C218.454 530.803 219.659 531.465 221.287 531.603C221.788 531.646 222.269 531.605 222.729 531.482C223.481 531.329 224.088 530.975 224.549 530.419C225.012 529.845 225.278 529.163 225.344 528.375C225.414 527.551 225.281 526.89 224.945 526.393C224.627 525.896 224.083 525.408 223.313 524.928C223.091 524.783 222.757 524.583 222.31 524.328C221.743 524.009 221.4 523.809 221.28 523.727C220.957 523.501 220.598 523.281 220.201 523.067C219.531 522.685 218.983 522.35 218.557 522.061C218.151 521.756 217.732 521.386 217.3 520.953C216.869 520.519 216.559 520.024 216.373 519.466C216.204 518.911 216.148 518.293 216.206 517.612C216.335 516.089 216.931 514.913 217.992 514.083C219.073 513.236 220.364 512.877 221.867 513.004C223.834 513.172 225.195 514.018 225.948 515.543L226.5 513.182L227.198 513.241L226.629 519.932L225.905 519.87C226.037 518.312 225.776 516.927 225.123 515.717C224.469 514.507 223.408 513.839 221.942 513.715C220.958 513.631 220.13 513.831 219.458 514.316C218.805 514.801 218.437 515.519 218.357 516.468C218.287 517.292 218.454 517.974 218.859 518.514C219.259 519.107 219.809 519.632 220.508 520.088C221.089 520.463 221.482 520.712 221.688 520.838C222.438 521.335 223.081 521.723 223.616 522.003C224.608 522.629 225.341 523.115 225.816 523.462Z" fill="#E0E0E0"/>
<path d="M250.859 515.413L251.583 515.475L251.047 521.789L250.323 521.728C250.321 518.985 249.378 517.155 247.492 516.237C246.883 515.987 246.292 515.837 245.72 515.789C244.861 515.716 244.083 515.857 243.386 516.213C242.69 516.569 242.118 517.043 241.671 517.637C241.226 518.213 240.842 518.911 240.52 519.731C240.198 520.552 239.961 521.335 239.807 522.08C239.654 522.824 239.545 523.582 239.479 524.352C239.335 526.054 239.457 527.688 239.846 529.255C240.236 530.822 241.01 531.997 242.168 532.781C242.796 533.232 243.504 533.49 244.291 533.557C245.704 533.677 246.872 533.289 247.795 532.393C248.737 531.481 249.351 530.306 249.635 528.869L250.359 528.93L249.855 534.869L249.157 534.81L248.945 532.22C247.66 533.771 245.98 534.459 243.905 534.282C242.188 534.136 240.742 533.553 239.568 532.534C238.395 531.496 237.573 530.253 237.101 528.805C236.631 527.34 236.467 525.774 236.608 524.108C236.753 522.407 237.191 520.856 237.922 519.457C238.655 518.039 239.696 516.919 241.045 516.095C242.396 515.254 243.93 514.906 245.647 515.052C247.704 515.226 249.257 516.134 250.307 517.775L250.859 515.413Z" fill="#E0E0E0"/>
<path d="M273.519 518.34L270.97 518.123L269.493 535.509L272.042 535.725L271.981 536.451L264.2 535.79L264.262 535.064L266.81 535.281L267.534 526.763L258.653 526.008L257.93 534.526L260.478 534.743L260.417 535.468L252.636 534.807L252.698 534.082L255.246 534.298L256.723 516.913L254.174 516.696L254.236 515.971L262.017 516.632L261.955 517.357L259.406 517.141L258.715 525.283L267.596 526.037L268.287 517.895L265.738 517.679L265.8 516.953L273.581 517.614L273.519 518.34Z" fill="#E0E0E0"/>
<path d="M285.881 535.277C285.838 534.93 285.804 534.377 285.779 533.617C285.745 532.532 285.7 531.572 285.645 530.737C285.556 529.665 285.272 528.973 284.794 528.662C284.318 528.333 283.507 528.119 282.362 528.022L280.27 527.844L279.546 536.363L282.363 536.602L282.301 537.327L274.252 536.644L274.314 535.918L276.863 536.135L278.34 518.749L275.791 518.533L275.852 517.807L283.446 518.452C287.774 518.82 289.818 520.419 289.578 523.249C289.468 524.539 288.883 525.599 287.821 526.429C286.762 527.241 285.562 527.681 284.223 527.747L284.214 527.855C286.86 528.098 288.243 529.099 288.364 530.86C288.45 532.184 288.497 533.009 288.505 533.335C288.524 534.166 288.575 534.946 288.657 535.675C288.79 536.661 289.411 537.201 290.52 537.295L291.029 537.338L290.968 538.064L289.143 537.909C288.16 537.825 287.395 537.598 286.85 537.227C286.325 536.839 286.001 536.189 285.881 535.277ZM280.331 527.119L282.424 527.297C283.694 527.405 284.702 527.093 285.449 526.363C286.197 525.614 286.625 524.604 286.733 523.332C286.847 521.989 286.599 520.984 285.989 520.319C285.397 519.655 284.421 519.266 283.062 519.15L281.023 518.977L280.331 527.119Z" fill="#E0E0E0"/>
<path d="M302.175 520.774L299.626 520.557L298.149 537.943L300.698 538.159L300.636 538.885L292.856 538.224L292.917 537.498L295.466 537.715L296.943 520.329L294.394 520.113L294.456 519.387L302.237 520.048L302.175 520.774Z" fill="#E0E0E0"/>
<path d="M313.985 530.952C314.781 531.543 315.287 532.272 315.501 533.138C315.603 533.634 315.628 534.195 315.575 534.822C315.442 536.381 314.777 537.641 313.578 538.604C312.379 539.567 311.002 539.982 309.445 539.85C307.192 539.658 305.59 538.683 304.64 536.925L304.24 539.408L303.409 539.337L303.975 532.673L304.726 532.737C304.707 534.449 305.078 535.906 305.841 537.108C306.623 538.293 307.828 538.955 309.456 539.093C309.956 539.135 310.437 539.095 310.898 538.972C311.65 538.819 312.256 538.465 312.718 537.908C313.181 537.334 313.446 536.653 313.513 535.865C313.583 535.041 313.45 534.38 313.114 533.882C312.796 533.386 312.252 532.898 311.482 532.418C311.26 532.272 310.926 532.073 310.479 531.818C309.912 531.499 309.568 531.299 309.449 531.216C309.126 530.99 308.766 530.77 308.37 530.556C307.7 530.175 307.152 529.839 306.726 529.551C306.32 529.245 305.901 528.876 305.469 528.442C305.037 528.009 304.728 527.513 304.541 526.956C304.372 526.401 304.317 525.782 304.375 525.102C304.504 523.579 305.099 522.403 306.161 521.572C307.242 520.726 308.533 520.367 310.036 520.494C312.003 520.661 313.364 521.508 314.117 523.033L314.669 520.671L315.366 520.731L314.798 527.422L314.074 527.36C314.206 525.801 313.945 524.417 313.291 523.207C312.638 521.996 311.577 521.329 310.11 521.204C309.127 521.121 308.299 521.321 307.627 521.805C306.973 522.291 306.606 523.009 306.526 523.958C306.456 524.782 306.623 525.464 307.027 526.004C307.427 526.597 307.977 527.122 308.677 527.578C309.258 527.952 309.651 528.202 309.857 528.328C310.607 528.825 311.25 529.213 311.784 529.493C312.776 530.119 313.51 530.605 313.985 530.952Z" fill="#E0E0E0"/>
<path d="M319.423 527.03L318.699 526.968L319.165 521.486L334.377 522.779L333.912 528.26L333.187 528.199L332.67 523.473L328.028 523.078L326.561 540.356L329.109 540.573L329.048 541.298L321.267 540.638L321.329 539.912L323.878 540.129L325.345 522.85L320.704 522.456L319.423 527.03Z" fill="#E0E0E0"/>
<path d="M149.727 429.672L157.837 459.008L161.758 459.341L161.664 460.458L149.363 459.413L149.458 458.297L153.379 458.63L151.174 450.323L141.433 449.495L138.362 456.771L141.821 457.648L141.727 458.764L132.852 458.01L132.947 456.894L137.127 456.624L148.572 429.574L149.727 429.672ZM147.43 435.181L141.899 448.411L150.815 449.168L147.43 435.181Z" fill="#111C32"/>
<path d="M180.553 448.113C181.779 449.022 182.557 450.143 182.887 451.476C183.044 452.239 183.081 453.103 183 454.067C182.796 456.465 181.772 458.404 179.928 459.886C178.083 461.367 175.964 462.006 173.57 461.802C170.103 461.508 167.639 460.008 166.178 457.302L165.562 461.122L164.283 461.013L165.153 450.761L166.309 450.859C166.279 453.494 166.851 455.735 168.025 457.584C169.228 459.407 171.082 460.425 173.586 460.638C174.356 460.703 175.096 460.641 175.805 460.451C176.961 460.217 177.895 459.671 178.605 458.816C179.317 457.932 179.725 456.884 179.828 455.672C179.936 454.404 179.731 453.387 179.214 452.622C178.725 451.858 177.888 451.107 176.703 450.368C176.362 450.145 175.848 449.837 175.16 449.446C174.287 448.955 173.759 448.647 173.576 448.52C173.079 448.172 172.525 447.834 171.916 447.505C170.885 446.917 170.042 446.402 169.386 445.957C168.761 445.488 168.116 444.919 167.452 444.252C166.789 443.585 166.313 442.823 166.025 441.966C165.765 441.111 165.68 440.16 165.769 439.113C165.968 436.77 166.884 434.96 168.517 433.683C170.179 432.381 172.167 431.828 174.478 432.024C177.505 432.282 179.598 433.584 180.757 435.931L181.606 432.297L182.679 432.388L181.805 442.682L180.69 442.587C180.894 440.189 180.493 438.059 179.487 436.197C178.481 434.335 176.85 433.309 174.593 433.117C173.08 432.988 171.806 433.296 170.773 434.041C169.767 434.789 169.202 435.893 169.078 437.353C168.97 438.621 169.228 439.67 169.85 440.5C170.465 441.413 171.311 442.221 172.388 442.923C173.282 443.498 173.887 443.883 174.203 444.076C175.357 444.841 176.346 445.438 177.169 445.869C178.694 446.831 179.823 447.579 180.553 448.113Z" fill="#111C32"/>
<path d="M209.568 434.922L210.683 435.017L209.857 444.732L208.743 444.637C208.741 440.417 207.289 437.601 204.388 436.189C203.451 435.804 202.542 435.574 201.661 435.499C200.34 435.387 199.144 435.605 198.072 436.152C197 436.7 196.12 437.43 195.433 438.343C194.748 439.229 194.158 440.303 193.662 441.565C193.167 442.828 192.801 444.032 192.565 445.178C192.33 446.324 192.161 447.489 192.061 448.675C191.838 451.293 192.026 453.807 192.625 456.217C193.225 458.628 194.415 460.436 196.197 461.642C197.164 462.335 198.253 462.733 199.464 462.836C201.638 463.021 203.435 462.424 204.854 461.045C206.304 459.642 207.247 457.834 207.685 455.623L208.799 455.718L208.023 464.854L206.95 464.763L206.623 460.779C204.647 463.165 202.062 464.223 198.87 463.951C196.228 463.727 194.004 462.83 192.197 461.261C190.392 459.664 189.127 457.752 188.402 455.526C187.679 453.271 187.426 450.862 187.644 448.299C187.866 445.681 188.54 443.296 189.665 441.143C190.793 438.962 192.395 437.238 194.47 435.971C196.548 434.676 198.908 434.141 201.55 434.366C204.714 434.635 207.104 436.031 208.719 438.556L209.568 434.922Z" fill="#111C32"/>
<path d="M233.684 466.576L212.302 464.759L212.397 463.643L216.318 463.976L218.59 437.229L214.669 436.896L214.764 435.78L235.072 437.505L234.352 445.98L233.238 445.885L232.459 438.407L222.718 437.58L221.664 449.982L227.732 450.497L229.01 445.734L230.124 445.829L229.211 456.577L228.138 456.486L227.637 451.613L221.57 451.098L220.446 464.327L231.261 465.246L233.324 457.593L234.439 457.687L233.684 466.576Z" fill="#111C32"/>
<path d="M247.06 467.712L238.061 466.947L238.156 465.831L242.112 465.751L244.349 439.417L240.428 439.084L240.523 437.968L248.531 438.648L260.164 461.747L261.899 441.324L258.012 440.578L258.107 439.462L267.147 440.23L267.052 441.346L263.096 441.426L260.736 469.207L259.539 469.105L245.385 441.421L243.309 465.853L247.154 466.596L247.06 467.712Z" fill="#111C32"/>
<path d="M284.635 456.955C285.86 457.864 286.638 458.985 286.968 460.318C287.125 461.081 287.163 461.944 287.081 462.909C286.877 465.307 285.853 467.246 284.009 468.727C282.165 470.208 280.045 470.847 277.651 470.644C274.184 470.349 271.72 468.849 270.259 466.143L269.643 469.963L268.364 469.855L269.235 459.602L270.39 459.701C270.361 462.335 270.932 464.577 272.106 466.425C273.309 468.248 275.163 469.266 277.667 469.479C278.438 469.545 279.177 469.483 279.886 469.293C281.043 469.058 281.976 468.513 282.686 467.657C283.399 466.774 283.806 465.726 283.909 464.513C284.017 463.245 283.813 462.229 283.295 461.463C282.806 460.7 281.969 459.949 280.785 459.209C280.443 458.986 279.929 458.679 279.241 458.287C278.368 457.797 277.84 457.488 277.657 457.361C277.16 457.014 276.607 456.675 275.997 456.346C274.966 455.759 274.123 455.243 273.468 454.799C272.842 454.329 272.198 453.761 271.534 453.094C270.87 452.427 270.394 451.665 270.107 450.807C269.847 449.953 269.761 449.001 269.85 447.954C270.049 445.612 270.965 443.802 272.598 442.525C274.261 441.223 276.248 440.67 278.559 440.866C281.586 441.123 283.679 442.425 284.838 444.772L285.687 441.138L286.76 441.23L285.886 451.523L284.772 451.429C284.975 449.031 284.574 446.901 283.568 445.039C282.562 443.177 280.931 442.15 278.674 441.958C277.161 441.83 275.887 442.138 274.854 442.883C273.848 443.63 273.283 444.734 273.159 446.195C273.051 447.463 273.309 448.512 273.931 449.342C274.547 450.255 275.393 451.062 276.469 451.764C277.363 452.34 277.968 452.724 278.284 452.918C279.439 453.682 280.427 454.28 281.25 454.71C282.776 455.673 283.904 456.421 284.635 456.955Z" fill="#111C32"/>
<path d="M304.438 444.522L300.517 444.189L298.245 470.936L302.166 471.269L302.071 472.385L290.101 471.368L290.196 470.252L294.117 470.585L296.389 443.838L292.468 443.505L292.563 442.389L304.533 443.405L304.438 444.522Z" fill="#111C32"/>
<path d="M319.297 474.181C315.197 473.833 312.072 472.124 309.921 469.055C307.77 465.985 306.869 462.397 307.218 458.29C307.581 454.019 309.065 450.578 311.671 447.967C314.306 445.332 317.687 444.19 321.815 444.54C326.026 444.898 329.167 446.581 331.24 449.588C333.313 452.596 334.169 456.222 333.808 460.466C333.593 463.001 332.839 465.352 331.546 467.519C330.283 469.66 328.559 471.36 326.373 472.617C324.188 473.875 321.829 474.397 319.297 474.181ZM321.72 445.657C320.097 445.519 318.627 445.852 317.312 446.656C316.024 447.463 315.001 448.57 314.244 449.977C313.489 451.356 312.896 452.791 312.465 454.281C312.033 455.771 311.753 457.274 311.624 458.79C311.411 461.298 311.647 463.747 312.331 466.136C313.045 468.501 314.274 470.34 316.02 471.655C317.007 472.432 318.133 472.875 319.399 472.983C321.408 473.153 323.196 472.5 324.763 471.023C326.329 469.546 327.494 467.744 328.257 465.616C328.831 464.082 329.203 462.309 329.374 460.297C329.507 458.726 329.5 457.185 329.351 455.674C329.202 454.162 328.873 452.649 328.365 451.134C327.883 449.622 327.061 448.373 325.897 447.386C324.764 446.373 323.372 445.797 321.72 445.657Z" fill="#111C32"/>
<path d="M345.377 476.064L336.378 475.299L336.473 474.183L340.429 474.103L342.666 447.769L338.745 447.436L338.84 446.32L346.848 447L358.481 470.098L360.216 449.676L356.329 448.93L356.424 447.814L365.464 448.581L365.369 449.698L361.413 449.778L359.053 477.559L357.856 477.457L343.702 449.772L341.626 474.205L345.471 474.948L345.377 476.064Z" fill="#111C32"/>
</svg>
