<svg width="840" height="1088" viewBox="0 0 840 1088" fill="none" xmlns="http://www.w3.org/2000/svg">
<path d="M31.6006 372.324L58.1683 323.531C134.579 292.598 260.688 263.442 305.934 280.005C298.748 231.893 402.155 125.745 456.012 71.2376L523.52 60.5419L820.16 416.985C779.226 434.89 610.757 582.466 603.29 604.859L565.947 632.819C555.606 632.233 374.923 738.153 285.875 791.185L31.6006 372.324Z" fill="white"/>
<path d="M58.1683 323.531L31.6006 372.324L285.875 791.185C374.923 738.153 555.606 632.233 565.947 632.819M58.1683 323.531C134.579 292.598 260.688 263.442 305.934 280.005M58.1683 323.531L305.262 759.616C389.284 713.039 559.052 622.472 565.947 632.819M565.947 632.819L305.934 280.005M565.947 632.819L603.29 604.859C610.756 582.466 779.226 434.89 820.16 416.985L523.52 60.5419L456.012 71.2376M565.947 632.819C571.689 594.772 733.834 452.649 767.016 430.569L456.012 71.2376M305.934 280.005C298.748 231.893 402.155 125.745 456.012 71.2376" stroke="#1F3155" stroke-width="3"/>
<path d="M31.7081 373.007L58.1545 324.08L245.762 653.581C248.219 664.486 236.946 688.576 231.002 699.258L31.7081 373.007Z" fill="#1F3155"/>
<path d="M336.413 761.766L328.196 747.588L435.457 689.748L486.932 663.839L523.754 646.136L552.043 634.86L560.512 632.648L561.896 634.075C553.247 635.815 409.734 716.988 336.413 761.766Z" fill="#1F3155"/>
<path d="M770.937 448.049L759.398 436.631L706.719 479.852L631.122 550.825L604.931 578.059L590.631 593.765L578.206 609.5L568.116 625.739L567.554 631.819L592.679 613.001L604.059 604.276L611.728 593.152L631.735 571.912L657.905 546.084L691.642 515.687L770.937 448.049Z" fill="#1F3155"/>
<path d="M523.863 59.7058L769.537 356.222L728.072 340.597L697.793 328.891L671.219 320.053L457.144 71.329L523.863 59.7058Z" fill="#1F3155"/>
<path d="M286.535 352.043C277.618 356.936 269.378 358.07 261.814 355.445C254.17 352.864 247.911 347.141 243.037 338.276C238.432 329.898 237.225 321.561 239.417 313.265C241.573 305.094 246.745 298.762 254.933 294.269C263.85 289.376 272.536 287.997 280.991 290.133C289.409 292.395 296.011 297.877 300.795 306.58C305.535 315.201 306.48 323.735 303.631 332.18C300.745 340.751 295.046 347.372 286.535 352.043ZM253.2 300.619C247.039 304 243.539 309.15 242.7 316.069C241.905 323.069 243.274 329.782 246.807 336.207C253.335 348.082 262.009 353.591 272.829 352.735C275.959 352.288 278.822 351.352 281.416 349.929C288.225 346.192 292.072 340.905 292.956 334.068C293.759 327.275 292.238 320.381 288.392 313.386C284.592 306.473 279.427 301.684 272.898 299.021C266.413 296.439 259.848 296.972 253.2 300.619Z" fill="#182846"/>
<path d="M349.941 604.662L355.398 604.908C357.024 604.997 359.58 605.166 363.067 605.413C366.553 605.66 369.185 605.786 370.963 605.793C388.341 607.647 399.85 613.703 405.49 623.962C412.209 636.183 412.872 648.683 407.479 661.461C402.238 674.157 393.333 683.953 380.765 690.85C369.257 697.165 357.619 700.017 345.851 699.405C334.151 698.559 325.357 692.78 319.468 682.068C310.925 666.528 314.22 648.322 329.354 627.448C319.901 626.744 314.864 626.366 314.244 626.314C297.153 623.909 285.498 617.049 279.278 605.733C273.306 594.87 272.466 583.842 276.759 572.649C280.97 561.305 288.601 552.6 299.655 546.534C310.86 540.385 322.003 537.707 333.082 538.5C344.314 539.211 352.791 544.771 358.513 555.181C362.412 562.272 363.294 570.331 361.16 579.357C359.178 588.3 355.438 596.735 349.941 604.662ZM291.044 585.726C293.532 590.252 297.845 593.973 303.981 596.89C310.035 599.656 315.433 601.407 320.174 602.144C325.067 602.797 331.117 603.405 338.324 603.967L342.975 604.36C344.586 595.817 345.159 588.433 344.693 582.208C344.378 575.9 342.438 569.502 338.872 563.014C335.305 556.527 329.772 552.198 322.273 550.03C319.309 549.299 315.905 549.203 312.062 549.741C308.687 550.415 305.486 551.583 302.457 553.244C298.066 555.654 294.558 558.954 291.934 563.144C289.227 567.182 288.035 571.469 288.36 576.004C288.408 579.317 289.302 582.557 291.044 585.726ZM379.223 683.743C386.643 679.671 391.566 673.925 393.991 666.506C396.569 659.004 395.867 651.632 391.886 644.39C389.066 639.26 385.222 635.674 380.354 633.632C375.638 631.507 369.71 630.047 362.572 629.251C359.388 628.838 353.035 628.396 343.513 627.926L336.547 627.625C333.624 634.139 332.162 641.52 332.163 649.768C332.233 657.781 333.885 664.73 337.119 670.614C341.93 679.365 347.975 684.983 355.255 687.469C362.451 689.804 370.441 688.562 379.223 683.743Z" fill="#182846"/>
<path d="M259.051 551.168C258.172 550.482 257.521 549.754 257.098 548.985C255.9 546.806 255.649 544.523 256.345 542.139C256.971 539.626 258.634 537.629 261.333 536.148C263.903 534.737 266.382 534.378 268.77 535.07C271.158 535.762 273.022 537.326 274.361 539.762C275.982 542.711 276.258 545.647 275.188 548.571C274.247 551.423 272.234 553.696 269.15 555.389C264.909 557.716 260.776 558.566 256.75 557.938C252.795 557.438 249.69 555.137 247.434 551.034C245.743 547.957 244.934 544.813 245.009 541.601C245.083 538.389 245.077 535.639 244.99 533.35L249.508 429.737L203.242 455.127L205.22 483.83L200.015 486.687L185.531 444.82L253.966 407.265L256.609 412.072L250.904 533.61C250.871 534.462 250.885 535.706 250.947 537.341C251.01 538.975 251.024 540.219 250.991 541.072C251.008 543.232 251.615 545.402 252.813 547.582C253.448 548.735 254.339 549.748 255.487 550.62C256.764 551.421 257.952 551.604 259.051 551.168Z" fill="#182846"/>
<path d="M428.32 601.393C419.684 605.677 411.058 606.371 402.443 603.475C393.367 599.911 386.405 593.25 381.555 583.492C376.655 573.632 375.477 563.525 378.021 553.172C380.617 542.922 386.695 535.426 396.255 530.683C407.564 525.073 417.908 524.743 427.288 529.693C436.668 534.642 444.216 542.869 449.933 554.373C458.202 571.013 460.184 587.378 455.879 603.47C451.471 619.613 441.834 633.228 426.968 644.316L424.592 640.309C433.129 634.537 439.082 625.887 442.451 614.357C445.871 602.929 446.158 592.032 443.312 581.664L442.619 581.816C442.299 586.072 440.851 589.863 438.275 593.19C435.648 596.67 432.329 599.404 428.32 601.393ZM398.477 534.766C394.879 536.551 392.356 539.083 390.91 542.361C389.361 545.691 388.812 549.356 389.262 553.358C389.764 557.462 390.601 561.208 391.772 564.596C392.891 568.138 394.293 571.604 395.978 574.993C405.829 594.817 416.666 601.797 428.489 595.932C432.087 594.147 434.712 591.564 436.364 588.184C437.914 584.855 438.463 581.189 438.012 577.188C437.561 573.186 436.776 569.414 435.657 565.872C434.588 562.433 433.186 558.968 431.451 555.475C428.643 549.826 424.988 544.662 420.484 539.982C416.031 535.405 411.263 533.161 406.181 533.249C403.409 533.088 400.841 533.593 398.477 534.766Z" fill="#182846"/>
<path d="M349.511 436.377L331.893 446.046L345.258 470.358L359.851 462.35L362.524 467.213L317.322 492.019L314.649 487.156L329.242 479.148L315.876 454.835L270.852 479.543L268.377 475.041L280.555 364.038L285.36 361.402L325.358 434.16L333.545 429.667L330.72 402.617L335.525 399.981L349.511 436.377ZM276.597 460.918L309.342 442.949L283.204 395.404L276.597 460.918Z" fill="#182846"/>
<path d="M165.042 379.289C169.398 376.899 173.712 375.946 177.984 376.43C182.315 376.882 185.627 379.194 187.919 383.364C190.083 387.3 190.485 391.4 189.124 395.663C187.732 399.868 185.19 403.289 181.5 405.926L181.694 406.278C184.636 404.893 187.421 403.977 190.047 403.529C192.732 403.05 195.42 403.333 198.111 404.379C200.803 405.425 202.94 407.388 204.522 410.266C205.685 412.38 206.347 414.617 206.509 416.974C206.524 420.713 205.483 424.113 203.386 427.175C201.29 430.237 198.529 432.708 195.102 434.588C191.212 436.724 187.43 437.614 183.758 437.259C180.176 436.931 177.367 434.916 175.333 431.216C174.558 429.806 174.361 428.347 174.741 426.838C175.211 425.357 176.144 424.234 177.537 423.469C178.815 422.768 180.025 422.562 181.167 422.853C182.31 423.143 183.22 423.906 183.898 425.139C184.576 426.373 184.735 427.624 184.374 428.892C183.897 430.224 183.078 431.209 181.916 431.847C181.335 432.165 180.735 432.38 180.116 432.49C183.421 435.341 187.368 435.507 191.956 432.989C195.382 431.109 197.304 428.487 197.722 425.122C198.231 421.785 197.5 418.325 195.531 414.741C193.432 410.923 190.969 408.643 188.142 407.901C185.282 407.1 181.965 407.735 178.19 409.806L175.926 411.049L174.618 408.67L176.883 407.427C180.251 405.579 182.118 403.063 182.485 399.88C182.877 396.606 182.105 393.207 180.167 389.683C176.228 382.517 170.861 380.798 164.066 384.526C161.279 386.056 159.611 388.042 159.064 390.483C158.368 392.93 158.568 395.151 159.666 397.148L160.102 397.941C160.167 398.059 160.354 398.262 160.664 398.551C160.78 397.799 161.018 397.133 161.38 396.552C161.915 395.876 162.444 395.395 162.967 395.108C164.244 394.407 165.516 394.244 166.781 394.621C167.988 395.029 168.93 395.849 169.608 397.083C170.222 398.199 170.348 399.391 169.987 400.66C169.51 401.992 168.72 402.961 167.617 403.566C165.816 404.554 163.99 404.601 162.137 403.706C160.311 402.721 158.881 401.288 157.847 399.408C155.684 395.473 155.34 391.685 156.817 388.046C158.351 384.375 161.093 381.456 165.042 379.289Z" fill="#182846"/>
<path d="M296.273 496.417C291.805 496.196 287.273 497.942 282.678 501.655C278.085 505.301 274.875 509.383 273.046 513.901L273.824 498.211L285.994 493.404L286.128 490.706L266.09 492.419L264.267 529.195L266.667 529.314C268.315 523.05 271.661 517.573 276.707 512.88C281.755 508.121 287.347 505.893 293.482 506.197C297.15 506.378 300.039 507.423 302.15 509.33C304.332 511.175 305.333 513.896 305.155 517.493C305.003 520.558 303.979 523.012 302.083 524.855C300.19 526.631 297.743 527.445 294.742 527.297C293.342 527.227 292.282 527.041 291.561 526.739C293.008 525.875 293.772 524.611 293.855 522.945C293.928 521.479 293.52 520.257 292.633 519.278C291.739 518.432 290.625 517.977 289.292 517.911C288.025 517.848 286.901 518.26 285.922 519.146C284.942 520.033 284.419 521.142 284.353 522.475C284.297 523.607 284.546 524.655 285.099 525.617C286.494 528.491 289.526 530.044 294.194 530.275C298.995 530.513 302.878 529.035 305.844 525.842C308.813 522.583 310.416 518.555 310.654 513.758C310.899 508.828 309.73 504.763 307.148 501.563C304.632 498.367 301.007 496.651 296.273 496.417Z" fill="#182846"/>
<path d="M175.684 351.76L173.451 347.698L210.148 327.56L212.381 331.622L201.148 337.787L233.488 396.615L244.721 390.45L246.955 394.512L210.258 414.65L208.024 410.588L219.258 404.423L186.918 345.595L175.684 351.76Z" fill="#182846"/>
<path d="M324.898 499.271L323.76 497.201L342.587 486.869L343.725 488.939L337.961 492.102L354.439 522.076L360.203 518.914L361.341 520.983L342.514 531.315L341.376 529.245L347.139 526.083L330.661 496.108L324.898 499.271Z" fill="#182846"/>
<path d="M619.538 334.589C612.211 327.738 607.904 320.393 606.618 312.553C605.478 304.727 607.516 298.03 612.733 292.461C618.379 286.433 625.618 283.738 634.45 284.375C643.428 285.027 651.751 288.938 659.419 296.108C668.194 304.313 672.722 312.787 673.003 321.53C673.283 330.273 670.232 338.051 663.849 344.866C653.907 355.48 641.979 360.366 628.065 359.524C614.236 358.761 599.616 352.957 584.205 342.111L586.435 339.218C594.754 345.522 604.301 348.979 615.075 349.59C625.789 350.267 634.735 348.308 641.915 343.714L641.496 343.138C638.145 343.814 634.457 343.316 630.432 341.641C626.406 339.967 622.775 337.616 619.538 334.589ZM657.061 298.881C653.398 295.455 649.403 293.748 645.078 293.759C640.813 293.705 637.174 294.604 634.161 296.457C631.208 298.244 628.412 300.546 625.773 303.363C623.38 305.919 621.443 308.84 619.963 312.126C618.629 315.426 618.192 319.135 618.651 323.251C619.171 327.302 621.136 330.921 624.543 334.108C627.611 336.976 631.13 338.422 635.101 338.448C639.218 338.488 642.839 337.695 645.961 336.067C649.146 334.374 651.842 332.348 654.052 329.989C655.77 328.154 657.264 326.048 658.532 323.67C659.886 321.372 661.015 318.802 661.919 315.96C662.823 313.118 662.879 310.158 662.085 307.081C661.292 304.004 659.617 301.271 657.061 298.881Z" fill="#1F3155"/>
<path d="M493.805 383.026L493.036 386.903C492.796 388.055 492.402 389.862 491.852 392.322C491.302 394.783 490.926 396.651 490.723 397.928C487.581 410.076 482.375 417.225 475.107 419.375C466.449 421.937 458.288 420.093 450.624 413.845C442.996 407.721 437.654 399.502 434.597 389.188C431.798 379.743 431.255 370.848 432.967 362.502C434.822 354.248 439.544 348.999 447.133 346.754C458.142 343.497 469.553 349.245 481.365 363.998C482.878 357.333 483.686 353.783 483.789 353.347C487.256 341.508 492.997 334.403 501.014 332.031C508.709 329.754 515.938 331.198 522.7 336.361C529.568 341.493 534.347 348.595 537.035 357.667C539.761 366.863 540.247 375.369 538.495 383.187C536.78 391.128 532.234 396.19 524.859 398.372C519.836 399.858 514.523 398.997 508.922 395.788C503.358 392.703 498.319 388.449 493.805 383.026ZM512.642 344.203C509.436 345.151 506.546 347.56 503.973 351.431C501.506 355.269 499.77 358.824 498.763 362.095C497.793 365.491 496.723 369.727 495.554 374.804L494.779 378.075C500.126 380.818 504.84 382.6 508.919 383.421C513.036 384.366 517.392 384.158 521.988 382.799C526.584 381.439 530.003 378.265 532.245 373.276C533.049 371.281 533.491 368.853 533.573 365.99C533.515 363.439 533.117 360.921 532.38 358.435C531.312 354.832 529.57 351.698 527.153 349.034C524.843 346.338 522.202 344.686 519.232 344.078C517.083 343.497 514.887 343.538 512.642 344.203ZM439.368 389.398C441.173 395.488 444.339 400.093 448.868 403.213C453.434 406.458 458.282 407.322 463.412 405.804C467.046 404.729 469.796 402.632 471.662 399.512C473.564 396.516 475.172 392.526 476.485 387.542C477.108 385.33 478.104 380.845 479.473 374.087L480.447 369.136C476.559 365.826 471.947 363.405 466.611 361.875C461.419 360.438 456.738 360.335 452.57 361.569C446.37 363.402 442.06 366.705 439.637 371.477C437.322 376.217 437.232 382.191 439.368 389.398Z" fill="#1F3155"/>
<path d="M570.286 260.213L572.332 253.543L623.96 269.355L621.914 276.025L606.109 271.184L576.474 367.774L592.279 372.615L590.232 379.285L538.604 363.472L540.65 356.803L556.455 361.643L586.09 265.053L570.286 260.213Z" fill="#1F3155"/>
<path d="M555.814 283.872L549.92 296.625L568.061 304.995L572.943 294.432L576.571 296.106L561.448 328.826L557.82 327.152L562.702 316.589L544.561 308.219L529.498 340.81L526.138 339.26L485.154 270.963L486.762 267.485L541.051 292.533L543.79 286.607L530.491 272.345L532.099 268.867L555.814 283.872ZM524.737 327.829L535.692 304.127L500.216 287.759L524.737 327.829Z" fill="#1F3155"/>
<path d="M471.17 273.272C478.358 273.924 484.36 275.935 489.176 279.307C494.087 282.687 496.289 287.17 495.782 292.756C495.303 298.027 492.551 302.259 487.526 305.453C482.508 308.567 476.712 310.144 470.137 310.182L470.094 310.654C474.769 311.316 478.881 312.324 482.431 313.676C486.076 315.038 489.122 317.139 491.57 319.978C494.018 322.818 495.067 326.165 494.717 330.02C494.46 332.853 493.498 335.462 491.831 337.85C488.894 341.47 484.939 344.046 479.968 345.579C474.997 347.111 469.684 347.621 464.03 347.108C457.608 346.526 452.303 344.816 448.116 341.977C444.017 339.226 442.193 335.372 442.643 330.416C442.815 328.527 443.728 326.984 445.383 325.786C447.127 324.675 449.149 324.223 451.449 324.432C453.557 324.623 455.192 325.247 456.352 326.304C457.512 327.361 458.017 328.716 457.867 330.368C457.717 332.02 456.921 333.336 455.48 334.316C453.846 335.278 452.071 335.673 450.154 335.499C449.195 335.412 448.296 335.212 447.454 334.897C449.223 339.896 453.893 342.739 461.465 343.425C467.12 343.938 471.531 342.712 474.7 339.747C477.957 336.869 479.803 333.031 480.239 328.232C480.703 323.118 479.509 319.242 476.657 316.604C473.811 313.887 469.273 312.246 463.043 311.681L459.305 311.342L459.595 308.156L463.333 308.495C468.892 308.999 473.152 307.838 476.115 305.013C479.18 302.118 480.927 298.31 481.356 293.59C482.228 283.991 477.056 278.684 465.843 277.667C461.242 277.25 457.644 278.035 455.047 280.02C452.267 281.91 450.755 284.192 450.512 286.867L450.415 287.929C450.401 288.087 450.468 288.41 450.617 288.899C451.352 288.252 452.169 287.771 453.068 287.456C454.253 287.167 455.278 287.061 456.14 287.139C458.249 287.331 459.924 288.038 461.166 289.261C462.312 290.475 462.81 291.908 462.66 293.561C462.524 295.055 461.735 296.293 460.293 297.273C458.66 298.235 456.932 298.634 455.111 298.469C452.14 298.199 449.881 297.003 448.335 294.88C446.891 292.686 446.284 290.331 446.512 287.813C446.991 282.542 449.567 278.651 454.24 276.14C459.009 273.637 464.653 272.681 471.17 273.272Z" fill="#1F3155"/>
<path d="M461.783 267.669C461.581 267.028 461.509 266.444 461.566 265.92C461.728 264.433 462.404 263.223 463.593 262.29C464.791 261.27 466.33 260.863 468.21 261.067C470.001 261.262 471.376 261.943 472.336 263.11C473.295 264.277 473.685 265.691 473.503 267.353C473.284 269.365 472.391 270.905 470.825 271.973C469.348 273.052 467.536 273.474 465.387 273.24C462.433 272.918 460.052 271.906 458.245 270.205C456.428 268.59 455.673 266.384 455.978 263.585C456.207 261.486 456.905 259.659 458.071 258.104C459.237 256.549 460.2 255.194 460.961 254.038L499.646 204.615L467.417 201.104L458.328 215.913L454.702 215.518L462.117 189.905L509.789 195.099L509.431 198.379L463.849 256.211C463.533 256.619 463.103 257.236 462.56 258.062C462.017 258.888 461.587 259.505 461.271 259.913C460.52 260.982 460.063 262.26 459.901 263.747C459.815 264.534 459.908 265.341 460.18 266.167C460.542 267.003 461.076 267.504 461.783 267.669Z" fill="#1F3155"/>
<path d="M516.809 210.716C515.502 209.7 514.712 208.314 514.438 206.557C514.27 204.781 514.761 203.156 515.909 201.682C517.057 200.208 518.299 199.374 519.637 199.179C520.982 199.093 522.194 199.47 523.273 200.309C524.467 201.237 525.165 202.449 525.369 203.945C525.572 205.44 525.15 206.861 524.102 208.207C523.802 208.591 523.446 208.931 523.033 209.228C527.919 209.631 532.284 207.366 536.127 202.432C538.423 199.485 539.467 196.387 539.26 193.139C539.159 189.871 538.25 187.055 536.533 184.691C534.923 182.308 532.839 180.122 530.282 178.133C526.532 175.217 522.491 173.67 518.159 173.491C513.771 173.268 510.029 175.143 506.934 179.116C503.091 184.05 502.706 188.586 505.778 192.724L504.356 194.551L477.08 173.342L495.348 149.89L489.798 139.092L491.82 136.497L505.386 151.059L485.995 175.953L501.252 187.817C500.976 183.486 502.61 179.046 506.154 174.496C510.795 168.537 515.774 164.898 521.091 163.578C526.457 162.195 531.725 163.513 536.896 167.534C542.635 171.997 545.638 177.572 545.902 184.26C546.274 190.928 543.964 197.466 538.973 203.874C535.978 207.718 532.345 210.45 528.074 212.067C523.803 213.685 520.048 213.235 516.809 210.716Z" fill="#1F3155"/>
<path d="M567.7 205.095C571.563 209.415 573.351 215.528 573.065 223.436C572.848 231.281 571.039 238.112 567.638 243.931L583.968 229.354L579.294 212.832L582.103 210.325L596.503 232.077L558.226 266.244L556.15 263.923C561.585 256.753 564.792 248.557 565.773 239.335C566.823 230.051 564.696 222.443 559.392 216.512C556.221 212.966 552.748 210.964 548.974 210.508C545.21 209.925 541.457 211.305 537.712 214.648C534.522 217.495 532.7 220.686 532.246 224.222C531.861 227.696 532.966 230.884 535.56 233.785C536.771 235.139 537.832 236.047 538.743 236.508C538.503 234.288 539.25 232.404 540.984 230.856C542.509 229.495 544.161 228.832 545.939 228.868C547.578 229.028 548.974 229.752 550.127 231.042C551.223 232.267 551.689 233.764 551.525 235.533C551.361 237.302 550.586 238.806 549.199 240.044C548.02 241.096 546.686 241.765 545.196 242.051C540.958 243.168 536.821 241.47 532.785 236.957C528.634 232.315 527.082 227.093 528.128 221.29C529.243 215.426 532.297 210.265 537.29 205.808C542.421 201.228 547.763 198.836 553.317 198.632C558.813 198.363 563.607 200.518 567.7 205.095Z" fill="#1F3155"/>
<path d="M501.843 240.289C505.869 235.382 510.554 232.383 515.898 231.29C521.622 230.411 526.74 231.819 531.253 235.515C535.813 239.25 538.341 244.251 538.838 250.518C539.288 256.746 537.283 262.577 532.826 268.009C527.554 274.435 521.843 277.766 515.692 278.003C509.541 278.24 503.806 276.18 498.486 271.823C490.791 265.52 486.655 257.445 486.079 247.597C485.55 237.69 488.408 227.528 494.651 217.112L496.718 218.512C493.023 224.178 491.302 230.582 491.557 237.726C491.764 244.83 493.621 250.697 497.128 255.328L497.487 255.036C496.878 252.681 496.984 250.228 497.806 247.678C498.628 245.031 499.973 242.568 501.843 240.289ZM530.831 266.521C532.508 264.477 533.447 262.364 533.647 260.184C533.895 257.946 533.523 255.834 532.531 253.849C531.491 251.826 530.331 250.094 529.05 248.654C527.77 247.117 526.346 245.707 524.778 244.423C515.611 236.915 508.271 236.52 502.759 243.238C501.082 245.282 500.095 247.453 499.799 249.75C499.551 251.988 499.923 254.1 500.915 256.085C501.907 258.07 503.044 259.831 504.324 261.367C505.557 262.866 506.981 264.276 508.596 265.599C511.208 267.738 514.205 269.362 517.584 270.47C520.917 271.538 523.993 271.274 526.812 269.677C528.389 268.917 529.728 267.865 530.831 266.521Z" fill="#1F3155"/>
<path d="M236.402 1018.89C236.885 985.385 232.247 909.041 209.839 871.689C187.431 834.336 149.749 779.979 133.708 757.469C130.356 752.441 124.515 739.943 127.964 730.183C132.276 717.982 151.679 630.412 160.3 624.676C159.582 618.932 169.783 609.034 173.231 606.739L214.169 672.826L231.407 698.687C243.57 680.725 246.301 654.736 246.146 643.987C246.766 640.366 248.698 631.271 251.47 623.865C254.241 616.458 256.966 594.561 257.982 584.538C258.054 584.135 258.137 583.727 258.233 583.314L258.715 580.971C260.504 574.357 264.495 567.667 272.09 563.514C274.813 561.795 277.841 560.62 281.098 560.269C283.028 559.865 285.342 560.077 287.716 560.703C289.944 561.231 292.244 562.16 294.599 563.561C296.243 564.499 297.737 565.557 298.943 566.648C306.866 573.82 310.434 583.889 311.152 589.633C311.494 592.372 308.837 648.93 302.451 704.301L329.382 751.197C331.775 754.332 334.001 757.819 336.06 761.605L343.219 757.501C357.056 765.41 382.842 846.663 370.743 889.063C368.389 911.368 380.045 1010.85 400.047 1009.73L236.402 1018.89Z" fill="#E0E0E0"/>
<path d="M914.569 365.463C938.128 389.606 970.834 404.76 984.243 409.319L973.465 435.155L954.062 522.725L951.187 537.081C937.778 532.522 905.215 524.117 882.228 526.968C859.242 529.819 836.736 514.722 828.356 506.818C823.328 500.83 812.267 488.281 808.245 485.98C803.217 483.103 782.387 465.854 772.33 469.435C762.273 473.016 711.191 505.15 710.474 499.406L770.991 448.55C754.713 433.918 747.703 418.485 741.448 409.101C734.553 398.757 690.688 388.953 669.618 385.345C655.491 381.264 624.221 369.509 612.155 355.14C609.684 352.198 608.304 348.879 607.255 345.863C605.797 335.569 607.679 329.285 610.436 324.6C611.18 323.2 612.075 321.881 613.145 320.676C615.804 317.107 620.01 314.996 625.551 314.181C630.26 313.358 636.116 313.503 643.382 314.968C658.008 317.538 675.74 321.334 694.612 328.274C721.009 337.98 748.95 349.564 771.132 356.317L758.695 341.631L737.866 315.049L686.153 256.132C690.751 248.095 704.351 246.097 710.577 246.103L755.113 247.579C767.803 249.505 795.769 253.502 806.113 254.086C816.457 254.67 828.62 262.961 833.408 267.033L862.959 303.367L867.884 309.422L914.569 365.463Z" fill="#E0E0E0"/>
<path d="M214.169 672.826C203.395 667.551 184.72 655.712 178.972 662.025M214.169 672.826L231.407 698.687M214.169 672.826L173.231 606.739C169.783 609.034 159.582 618.932 160.3 624.676C151.679 630.412 132.276 717.982 127.964 730.183C124.515 739.943 130.356 752.441 133.708 757.469C149.749 779.979 187.431 834.336 209.839 871.689C232.247 909.041 236.885 985.385 236.402 1018.89L400.047 1009.73C380.045 1010.85 368.389 911.368 370.743 889.064C382.842 846.663 357.056 765.41 343.219 757.501L336.06 761.605M231.407 698.687C215.124 699.151 181.554 701.37 177.531 706.536M231.407 698.687C227.334 715.913 220.052 751.66 223.499 756.832M231.407 698.687C243.57 680.725 246.301 654.736 246.146 643.987C246.766 640.366 248.698 631.271 251.47 623.865C254.241 616.458 256.966 594.561 257.982 584.538M350.629 896.225C359.413 852.358 354.327 795.197 336.06 761.605M737.866 315.049L686.153 256.132C690.751 248.095 704.351 246.097 710.577 246.103L755.113 247.579C767.803 249.505 795.769 253.502 806.113 254.086C816.457 254.67 828.62 262.961 833.408 267.033L862.959 303.367M737.866 315.049C736.431 303.561 734.422 280.011 737.87 277.716M737.866 315.049L758.695 341.631M758.695 341.631C762.288 323.686 770.912 288.084 776.658 289.238M758.695 341.631L771.132 356.317M783.116 359.601C779.363 358.712 775.352 357.602 771.132 356.317M954.062 522.725C944.725 504.05 878.641 488.915 867.147 490.34C855.654 491.766 827.64 482.407 793.88 464.429C784.62 459.497 777.143 454.081 770.991 448.55M954.062 522.725L951.187 537.081C937.778 532.522 905.215 524.117 882.228 526.968C859.242 529.819 836.736 514.722 828.356 506.818C823.328 500.83 812.267 488.281 808.245 485.98C803.217 483.103 782.387 465.854 772.33 469.435C762.273 473.015 711.191 505.15 710.474 499.406L770.991 448.55M954.062 522.725L973.465 435.155M770.991 448.55C754.713 433.918 747.703 418.485 741.448 409.101C734.553 398.757 690.688 388.953 669.618 385.345C655.491 381.264 624.221 369.509 612.155 355.14C609.684 352.198 608.304 348.879 607.255 345.863M257.982 584.538L258.715 580.971C261.11 572.118 267.449 563.128 281.098 560.269C286.389 559.16 294.569 562.689 298.943 566.648M257.982 584.538C272.22 589.592 302.516 591.646 298.943 566.648M257.982 584.538C260.489 570.437 278.113 549.399 298.943 566.648M298.943 566.648C306.866 573.82 310.434 583.889 311.152 589.633C311.494 592.372 308.837 648.93 302.451 704.301L329.382 751.197C331.775 754.332 334.001 757.819 336.06 761.605M253.613 631.028C262.016 627.51 280.979 622.774 289.598 631.971M676.085 362.377C684.573 352.582 700.16 332.048 694.612 328.274M694.612 328.274C675.74 321.334 658.008 317.538 643.382 314.968M694.612 328.274C721.009 337.98 748.95 349.564 771.132 356.317M607.255 345.863C605.35 332.414 609.146 325.811 613.145 320.676C618.172 313.93 628.722 312.394 643.382 314.968M607.255 345.863C621.904 349.573 649.686 350.564 643.382 314.968M607.255 345.863C606.133 331.032 608.726 307.978 643.382 314.968M862.959 303.367L867.884 309.422L914.569 365.463C938.128 389.606 970.834 404.76 984.243 409.319L973.465 435.155M862.959 303.367L863.57 349.622M936.217 413.276C940.971 421.519 955.076 437.436 973.465 435.155M301.212 741.059C308.73 753.885 319.232 788.009 301.09 821.901" stroke="#1F3155" stroke-width="3"/>
<path d="M334.932 722.785L333.22 723.78L334.578 726.112L335.996 725.288L336.267 725.754L331.875 728.306L331.604 727.84L333.022 727.016L331.664 724.684L327.29 727.226L327.038 726.794L328.026 715.932L328.493 715.66L332.556 722.639L333.352 722.177L333.024 719.547L333.49 719.276L334.932 722.785ZM327.819 725.393L331 723.544L328.345 718.983L327.819 725.393Z" fill="#1F3155"/>
<path d="M339.494 719.347C338.503 719.923 337.515 720.081 336.53 719.821C335.551 719.543 334.776 718.914 334.206 717.935C333.589 716.876 333.413 715.791 333.677 714.682C333.946 713.555 334.6 712.689 335.637 712.087C336.824 711.397 337.955 711.271 339.028 711.711C340.102 712.151 340.987 712.969 341.685 714.167C342.771 716.033 343.116 717.844 342.719 719.6C342.334 721.35 341.316 722.928 339.666 724.333L339.36 723.887C340.306 723.153 340.929 722.104 341.232 720.742C341.54 719.391 341.49 718.126 341.081 716.945L341.002 716.968C341.013 717.439 340.875 717.89 340.585 718.32C340.296 718.75 339.932 719.093 339.494 719.347ZM335.926 712.543C335.43 712.831 335.138 713.255 335.048 713.816C334.951 714.366 334.984 714.886 335.146 715.377C335.302 715.857 335.524 716.344 335.813 716.84C336.074 717.289 336.39 717.699 336.76 718.069C337.135 718.422 337.579 718.68 338.091 718.845C338.597 718.998 339.08 718.941 339.541 718.673C339.956 718.431 340.207 718.054 340.294 717.541C340.386 717.01 340.365 716.498 340.232 716.005C340.093 715.5 339.903 715.041 339.661 714.626C339.473 714.304 339.248 713.996 338.984 713.702C338.732 713.401 338.442 713.115 338.114 712.843C337.786 712.572 337.426 712.403 337.033 712.339C336.641 712.274 336.272 712.342 335.926 712.543Z" fill="#1F3155"/>
<path d="M724.629 433.824L723.023 434.982L724.603 437.169L725.933 436.211L726.249 436.648L722.129 439.618L721.813 439.181L723.144 438.222L721.563 436.034L717.46 438.993L717.167 438.588L717.084 427.681L717.522 427.365L722.251 433.912L722.997 433.374L722.412 430.789L722.85 430.473L724.629 433.824ZM717.806 437.116L720.791 434.965L717.701 430.686L717.806 437.116Z" fill="#1F3155"/>
<path d="M725.83 424.604L726.25 424.572C726.376 424.563 726.573 424.552 726.843 424.539C727.113 424.525 727.316 424.51 727.452 424.494C728.802 424.473 729.743 424.83 730.273 425.565C730.905 426.44 731.076 427.393 730.785 428.425C730.504 429.448 729.915 430.284 729.018 430.931C728.196 431.523 727.331 431.851 726.423 431.914C725.518 431.959 724.788 431.598 724.234 430.831C723.431 429.718 723.509 428.29 724.469 426.546C723.738 426.58 723.348 426.598 723.3 426.6C721.967 426.576 721.008 426.158 720.422 425.348C719.86 424.57 719.691 423.731 719.913 422.832C720.127 421.922 720.628 421.182 721.418 420.613C722.218 420.036 723.047 419.726 723.904 419.683C724.772 419.633 725.475 419.98 726.013 420.726C726.38 421.233 726.525 421.844 726.447 422.556C726.381 423.261 726.175 423.944 725.83 424.604ZM721.133 423.702C721.367 424.026 721.733 424.271 722.232 424.438C722.722 424.593 723.153 424.677 723.523 424.689C723.905 424.694 724.374 424.684 724.932 424.659L725.293 424.646C725.334 423.975 725.308 423.403 725.212 422.929C725.128 422.448 724.918 421.975 724.582 421.511C724.247 421.046 723.781 420.766 723.185 420.669C722.951 420.641 722.689 420.666 722.4 420.743C722.147 420.826 721.913 420.946 721.697 421.102C721.383 421.328 721.146 421.614 720.985 421.96C720.816 422.296 720.766 422.636 720.834 422.981C720.869 423.235 720.969 423.475 721.133 423.702ZM728.832 430.4C729.361 430.018 729.684 429.53 729.799 428.938C729.925 428.338 729.8 427.779 729.426 427.26C729.16 426.893 728.831 426.654 728.439 426.543C728.057 426.424 727.588 426.367 727.033 426.373C726.785 426.371 726.294 426.397 725.559 426.45L725.023 426.492C724.861 427.019 724.819 427.599 724.898 428.232C724.98 428.847 725.174 429.365 725.478 429.786C725.931 430.413 726.448 430.787 727.03 430.91C727.604 431.022 728.204 430.852 728.832 430.4Z" fill="#1F3155"/>
</svg>
