<svg width="172" height="559" viewBox="0 0 172 559" fill="none" xmlns="http://www.w3.org/2000/svg">
<path d="M126.661 548.812C124.772 549.706 119.622 550.957 114.134 548.812C108.646 546.666 97.5299 543.945 92.6581 542.852C85.1018 541.859 70.1086 539.515 70.5859 538.085C71.1824 536.297 47.0222 543.448 43.4429 548.216C42.4487 548.613 40.5795 548.275 41.0567 543.746C41.534 539.217 39.0682 502.329 37.7757 484.452C36.7815 408.769 27.7013 253.802 32.9509 227.581L85.7977 254.126C91.962 263.363 106.319 276.115 114.432 253.232C122.545 230.348 127.556 209.133 129.047 201.386L134.416 205.26L155.295 435.884C155.892 461.707 155.611 512.871 155.611 513.883C155.611 515.356 159.197 530.981 160.116 532.819L161.47 534.45C161.537 534.508 161.589 534.571 161.629 534.641C162.357 535.916 153.252 537.712 151.045 539.158L147.829 540.537L149.638 537.187C141.83 540.512 132.025 545.76 126.661 548.812Z" fill="#F7B81F"/>
<path d="M149.638 537.187C153.263 535.643 156.458 534.514 158.577 534.211C160.432 533.947 161.349 534.151 161.629 534.641M149.638 537.187C141.83 540.512 132.025 545.76 126.661 548.812C124.772 549.706 119.622 550.957 114.134 548.812C108.646 546.666 97.5299 543.945 92.6581 542.852C85.1018 541.859 70.1086 539.515 70.5859 538.085C71.1824 536.297 47.0222 543.448 43.4429 548.216C42.4487 548.613 40.5795 548.275 41.0567 543.746C41.534 539.217 39.0682 502.329 37.7757 484.452C36.7815 408.769 27.7013 253.802 32.9509 227.581L85.7977 254.126C91.962 263.363 106.319 276.115 114.432 253.232C122.545 230.348 127.556 209.133 129.047 201.386L134.416 205.26L155.295 435.884C155.892 461.707 155.611 512.871 155.611 513.883C155.611 515.356 159.197 530.981 160.116 532.819L161.629 534.641M149.638 537.187L147.829 540.537L151.045 539.158C153.252 537.712 162.357 535.916 161.629 534.641" stroke="black"/>
<path d="M155.869 438.716C155.632 439.909 149.441 440.008 146.375 439.909C149.935 424.169 139.552 280.921 133.915 211.265L128.278 206.495C124.025 222.195 114.808 255.801 111.96 264.625C109.112 273.449 99.6971 269.693 95.3457 266.712L41.594 230.939C38.8338 263.623 36.577 305.935 35.4154 332.89C35.0039 336.015 35.3453 389.705 36.8419 438.955C37.3813 456.705 37.6952 473.457 38.2204 487.208C38.2552 488.117 38.1864 489.086 38.2204 489.965C32.9988 488.296 31.5585 485.121 31.8552 483.73C32.3497 482.438 32.5079 479.795 29.185 479.556C25.8622 479.318 25.0314 477.668 25.0314 476.873L17.3176 423.513L3.37348 311.427C1.71204 307.134 1.09889 269.891 1 251.806L5.45027 197.552C6.34032 152.538 10.1972 156.414 11.384 145.086C12.201 137.287 17.0322 120.832 20.3172 110.506C20.8492 108.834 21.3406 107.323 21.7679 106.035C24.1414 97.2108 39.7668 83.4782 47.2828 77.7149C51.7924 67.4602 49.5573 54.9598 47.876 49.9914C46.4915 43.2344 45.9772 26.4414 54.9964 13.3249C64.0157 0.208397 79.3246 0.109029 85.8516 1.69891C92.1809 3.09005 106.442 9.5688 112.85 24.3547C114.624 28.4484 115.863 32.1338 116.704 35.3844C118.901 43.8745 118.383 49.3981 117.597 51.4819C113.443 49.3952 96.2355 65.1946 96.8289 70.2623C97.3036 74.3165 103.752 78.7086 106.916 80.3978C122.818 88.2677 137.475 108.121 141.035 121.536C143.767 122.603 145.755 124.134 147.014 125.411C147.724 126.131 148.202 126.77 148.452 127.2C147.74 138.17 149.625 149.061 150.656 153.135C160.661 176.585 165.96 199.969 166.846 207.687C167.553 213.838 170.308 251.111 171 269.096V363.297C170.051 419.34 169.517 455.112 167.44 465.546L157.946 446.765C165.207 439.47 157.115 436.745 155.935 438.591C155.913 438.634 155.891 438.676 155.869 438.716Z" fill="#1F3155"/>
<path d="M155.869 438.716C155.632 439.909 149.441 440.008 146.375 439.909C149.935 424.169 139.552 280.921 133.915 211.265M155.869 438.716C156.759 436.63 165.363 439.313 157.946 446.765L167.44 465.545C169.517 455.112 170.051 419.34 171 363.297V269.096C170.308 251.111 167.553 213.838 166.846 207.687C165.96 199.969 160.661 176.585 150.656 153.135M155.869 438.716C163.464 424.884 151.304 261.843 144.275 182.051M150.529 152.837C150.571 152.936 150.614 153.035 150.656 153.135M150.656 153.135C149.625 149.061 147.74 138.17 148.452 127.2C148.202 126.77 147.724 126.131 147.014 125.411M47.2828 77.7149C51.7924 67.4602 49.5573 54.9598 47.876 49.9914C46.4915 43.2344 45.9772 26.4414 54.9964 13.3249C64.0157 0.208397 79.3246 0.109029 85.8516 1.69891C92.1809 3.09005 106.442 9.5688 112.85 24.3547C114.624 28.4484 115.863 32.1338 116.704 35.3844M47.2828 77.7149C39.7668 83.4782 24.1414 97.2108 21.7679 106.035C21.3406 107.323 20.8492 108.834 20.3172 110.506M47.2828 77.7149C51.3177 76.284 53.3154 77.7149 53.8098 78.6092C53.4 79.1857 57.0593 83.3104 62.7104 89.1022M50.843 182.051L48.7662 183.839C46.4838 185.272 44.2205 201.749 42.1938 224.083M50.843 182.051C51.5353 181.554 53.0978 180.977 53.8098 182.647L62.3229 193.677M50.843 182.051C49.6563 182.766 48.1728 181.355 47.5795 180.56M65.0839 197.254C66.1717 196.757 67.5167 195.048 64.1938 192.186L62.3229 193.677M65.0839 197.254L62.3229 193.677M65.0839 197.254L56.1822 207.687M42.1938 224.083C41.9915 226.313 41.7915 228.602 41.594 230.939M42.1938 224.083L56.1822 207.687M41.594 230.939C38.8338 263.623 36.577 305.935 35.4154 332.89C35.0039 336.015 35.3453 389.705 36.8419 438.955M41.594 230.939L95.3457 266.712M95.3457 266.712C99.697 269.693 109.112 273.449 111.96 264.625C114.808 255.801 124.025 222.195 128.278 206.495M95.3457 266.712L57.6667 233.622M128.278 206.495L133.915 211.265M128.278 206.495C106.916 219.611 103.119 252.224 89.1153 246.739M133.915 211.265L130.651 175.79C134.368 177.086 139.467 179.265 144.275 182.051M158.243 199.042C158.974 192.574 152.002 186.528 144.275 182.051M56.1822 207.687C67.1599 225.375 91.5481 260.153 101.279 257.768M20.3172 110.506C17.0322 120.832 12.201 137.287 11.384 145.086C10.1972 156.414 6.34032 152.538 5.45027 197.552L1 251.806C1.09889 269.891 1.71204 307.134 3.37348 311.427L17.3176 423.513L25.0314 476.873C25.0314 477.668 25.8622 479.318 29.185 479.556C32.5079 479.795 32.3497 482.438 31.8552 483.73C31.5585 485.121 32.9988 488.296 38.2204 489.965C38.1864 489.086 38.2552 488.117 38.2204 487.208M20.3172 110.506C27.229 106.233 43.6039 98.2243 53.8098 100.371M43.7226 100.734C47.3718 104.445 51.9045 109.003 56.7767 113.828M96.8291 149.622C93.7132 149.622 73.2945 130.186 56.7767 113.828M56.7767 113.828C58.9524 120.372 61.1083 136.56 52.3264 148.961C50.7441 156.215 47.5795 172.69 47.5795 180.56M47.5795 180.56C42.7336 171.816 33.0419 153.492 33.0419 150.154M47.5795 180.56C39.2723 177.778 22.836 171.557 23.548 168.934M47.5795 180.56C37.9867 183.144 17.1396 191.471 10.4939 204.11M47.5795 180.56C43.1292 182.945 33.8133 190.278 32.1519 200.533C30.0751 213.351 19.0978 321.86 20.5812 333.784M147.014 125.411C145.755 124.134 143.767 122.603 141.035 121.536C137.475 108.121 122.818 88.2677 106.916 80.3978C103.752 78.7086 97.3036 74.3165 96.8289 70.2623C96.2355 65.1946 113.443 49.3952 117.597 51.4819C118.383 49.3981 118.901 43.8745 116.704 35.3844M147.014 125.411C145.12 129.684 140.026 138.945 134.805 141.807L102.169 127.2C91.2928 117.052 73.4228 100.082 62.7104 89.1022M93.2689 110.506C104.048 116.287 126.32 125.513 129.168 116.17M69.8308 182.647C84.665 196.359 90.7174 227.481 99.4993 220.804M117.004 197.552C111.663 202.62 105.054 217.405 98.0158 215.736M36.8419 438.955C33.7715 441.042 26.5149 441.995 28.8883 451.833C29.9492 455.499 35.0039 455.958 35.9229 460.094C36.5163 463.672 35.4154 466.321 29.4817 469.421C23.548 472.521 25.6248 475.681 28.5917 477.47C30.3718 478.543 33.7712 479.406 33.932 481.345C34.2287 484.922 36.0405 487.208 38.2204 487.208M36.8419 438.955C37.3813 456.705 37.6952 473.457 38.2204 487.208M22.658 376.711L28.5313 446.767M62.7104 89.1022C60.4358 81.133 56.302 63.0483 57.9634 54.4629C57.8645 52.8731 57.014 49.3356 54.4032 47.9047C58.5568 45.9174 67.1013 39.2001 68.0507 28.23C72.501 27.8325 83.8936 25.8452 93.8622 21.0755C98.7064 26.8388 110.057 37.7692 116.704 35.3844" stroke="#F7B81F"/>
<path d="M59.2674 178.823L68.9891 194.572L65.685 197.829L59.7375 203.691L55.1117 208.251L43.8775 219.325C43.7173 208.52 45.0295 200.662 46.6483 195.002C46.6495 194.997 46.6508 194.993 46.6521 194.988C47.5241 191.942 48.4847 189.532 49.3519 187.643C50.7238 184.654 51.862 182.967 52.0457 182.119C52.4581 180.213 54.0092 179.26 54.7332 179.022C57.3828 176.346 58.86 177.775 59.2674 178.823Z" fill="#1F3155"/>
<path d="M54.7061 179.323C57.1826 184.141 62.8455 194.589 65.685 197.829M65.685 197.829L68.9891 194.572L59.2674 178.823C58.86 177.775 57.3828 176.346 54.7332 179.022C54.0092 179.26 52.4581 180.213 52.0457 182.119C51.862 182.967 50.7238 184.654 49.3519 187.643M65.685 197.829L59.7375 203.691M59.7375 203.691C56.1152 198.681 48.9668 188.458 49.3519 187.643M59.7375 203.691L55.1117 208.251M49.3519 187.643C48.4847 189.532 47.5241 191.942 46.6521 194.988M55.1117 208.251L43.8775 219.325C43.7172 208.512 45.0316 200.65 46.6521 194.988M55.1117 208.251C52.1122 204.421 46.221 196.406 46.6521 194.988" stroke="black"/>
<path d="M125.432 184.503L130.005 180.183L130.663 186.522L132.171 201.054L133.2 210.972C130.951 209.36 128.882 207.919 127.009 206.599C124.186 204.61 121.807 202.894 119.927 201.283C116.122 198.02 114.36 195.183 115.087 191.351L119.819 195.496C124.35 188.879 125.448 185.41 125.432 184.503Z" fill="#1F3155"/>
<path d="M121.56 179.737C123.769 178.586 128.551 177.065 130.005 180.183M130.005 180.183L125.432 184.503C125.448 185.41 124.35 188.879 119.819 195.496M130.005 180.183L130.663 186.522M119.819 195.496L115.087 191.351C114.36 195.183 116.122 198.02 119.927 201.283M119.819 195.496C118.235 197.922 119.231 200.365 119.927 201.283M119.927 201.283L130.663 186.522M119.927 201.283C121.807 202.894 124.186 204.61 127.009 206.599M130.663 186.522L132.171 201.054M132.171 201.054L133.2 210.972C130.951 209.36 128.882 207.919 127.009 206.599M132.171 201.054L127.009 206.599" stroke="black"/>
<path d="M144.702 543.294C150.149 546.363 171.029 561.709 127.15 551.581L144.702 543.294Z" fill="#121C30" stroke="black"/>
<path d="M89.3626 549.823C56.4218 565.197 55.9444 555.416 59.8233 548.603L70.5648 540.062L89.3626 549.823Z" fill="#121C30" stroke="black"/>
<path d="M58.8733 529.26C60.6616 526.48 66.2055 522.111 74.0741 526.877C75.9022 527.984 78.7202 529.338 82.1215 530.815C86.4289 532.685 91.6718 534.753 97.0242 536.768C102.021 538.65 107.113 540.486 111.629 542.072L127.724 534.571L130.704 533.183L156.099 519.857C156.795 524.921 158.071 530.546 160.694 533.644C155.329 531.857 148.747 542.072 127.724 554.279C125.041 555.768 118.365 557.972 113.119 554.875C99.4087 551.003 71.6897 546.237 69.9013 544.45C67.815 545.641 42.4803 554.577 41.8842 554.577C41.2881 554.577 40.692 548.322 41.2881 543.259L52.316 534.48L58.8733 529.26Z" fill="#CE9408"/>
<path d="M111.629 542.072C114.897 543.219 117.863 544.236 120.273 545.046L111.629 542.072ZM111.629 542.072C107.113 540.486 102.021 538.65 97.0242 536.768M111.629 542.072L127.724 534.571M156.099 519.857C156.795 524.921 158.071 530.546 160.694 533.644C155.329 531.857 148.747 542.072 127.724 554.279C125.041 555.768 118.365 557.972 113.119 554.875C99.4087 551.003 71.6897 546.237 69.9013 544.45C67.815 545.641 42.4803 554.577 41.8842 554.577C41.2881 554.577 40.692 548.322 41.2881 543.259L52.316 534.48M156.099 519.857L130.704 533.183M156.099 519.857L137.262 469.69M52.316 534.48L58.8733 529.26C60.6616 526.48 66.2055 522.111 74.0741 526.877C75.9022 527.984 78.7202 529.338 82.1215 530.815M52.316 534.48C50.329 497.891 46.951 424.06 49.3355 421.438M82.1215 530.815L78.8429 262.09M82.1215 530.815C86.4289 532.685 91.6718 534.753 97.0242 536.768M78.8429 262.09C71.3915 260.6 57.0849 258.992 59.4693 264.472M78.8429 262.09C77.5774 263.696 76.0924 265.625 74.4997 267.749M56.4888 297.831C56.6862 292.702 66.8389 277.965 74.4997 267.749M74.4997 267.749C70.3838 329.304 62.7479 453.07 65.1324 455.691M97.0242 536.768L87.1884 272.216C88.5793 268.642 88.8575 260.541 78.8429 256.728L42.1822 232.007M127.724 534.571L113.119 521.516L111.629 514.963M127.724 534.571L130.704 533.183M130.704 533.183L96.7262 329.403M96.7262 329.403L90.467 267.749M96.7262 329.403C99.0368 343.261 102.523 356.336 106.502 367.528M155.741 503.943L137.262 433.65M137.262 387.782C134.977 415.594 120.678 403.198 109.092 374.378M109.092 374.378C111.13 385.101 118.305 407.857 130.704 413.099M109.092 374.378C108.211 372.186 107.346 369.899 106.502 367.528M106.502 367.528C115.961 412.801 134.46 504.002 132.791 506.623M116.696 295.746C111.49 299.321 102.163 312.128 106.502 334.765M37.1152 363.06C38.0757 368.819 39.9879 376.856 42.7606 383.612M57.3829 395.824C51.2346 398.762 46.5502 392.845 42.7606 383.612M42.7606 383.612C41.8841 394.036 54.4024 406.248 52.6141 412.205" stroke="black"/>
<path d="M125.484 185.802L119.938 194.505L106.698 183.662C104.889 181.9 101.323 177.838 101.534 175.693C101.634 174.675 101.48 170.9 101.238 166.47C100.97 161.559 100.595 155.844 100.339 152.196C105.98 150.933 105.263 164.633 105.274 165.526C105.283 166.24 106.288 167.199 106.79 167.59C110.304 163.021 110.498 154.943 110.156 151.475C109.928 149.196 110.072 144.928 112.469 146.088C114.866 147.247 113.236 159.471 112.122 165.438C115.362 162.718 113.984 148.152 113.369 146.671C112.878 145.487 114.147 145.372 114.843 145.462C118.757 153.507 117.446 162.691 116.301 166.277C118.659 164.461 117.904 151.97 116.995 150.792C116.269 149.849 117.28 149.796 117.877 149.887C121.468 151.27 120.511 161.759 119.583 166.83C120.755 165.327 120.018 154.324 122.129 156.381C122.853 157.086 122.911 163.216 122.85 166.193L121.45 173.056C121.184 175.54 121.251 180.797 123.648 181.957C126.045 183.117 125.871 185.004 125.484 185.802Z" fill="#E7D4B3"/>
<path d="M101.238 166.47C100.97 161.559 100.595 155.844 100.339 152.196C105.98 150.933 105.263 164.633 105.274 165.526C105.283 166.24 106.288 167.199 106.79 167.59C110.304 163.021 110.498 154.943 110.156 151.475C109.928 149.196 110.072 144.928 112.469 146.088C114.866 147.247 113.236 159.471 112.122 165.438C115.362 162.718 113.984 148.152 113.369 146.671C112.878 145.487 114.147 145.372 114.843 145.462C118.757 153.507 117.446 162.691 116.301 166.277C118.659 164.461 117.904 151.97 116.995 150.792C116.269 149.849 117.28 149.796 117.877 149.887C121.468 151.27 120.511 161.759 119.583 166.83C120.755 165.327 120.018 154.324 122.129 156.381C122.853 157.086 122.911 163.216 122.85 166.193L121.45 173.056C121.184 175.54 121.251 180.797 123.648 181.957C126.045 183.117 125.871 185.004 125.484 185.802L119.938 194.505L106.698 183.662C104.889 181.9 101.323 177.838 101.534 175.693C101.634 174.675 101.48 170.9 101.238 166.47ZM101.238 166.47C105.292 168.402 113.121 173.758 112.007 179.725" stroke="black"/>
<path d="M64.5816 177.182L61.1106 181.845L67.5908 191.412L69.7492 189.698C69.3978 186.562 76.7274 179.472 80.4361 176.319C88.3325 165.529 89.8019 158.684 90.1723 156.897C90.4686 155.468 89.5493 155.071 89.0526 155.051L84.9494 160.59L90.0552 152.39C90.2941 151.399 90.4762 149.345 89.2938 149.057C88.1115 148.769 84.6348 153.573 83.0443 156.01C82.8186 154.2 89.0441 147.846 89.3903 146.659C89.6673 145.71 88.7432 145.432 88.2465 145.412C87.5313 145.384 82.3432 151.179 79.8386 154.08C79.5888 152.869 84.2157 149.153 85.17 147.69C85.9335 146.52 85.139 145.988 84.6464 145.868C73.4868 150.222 66.62 168.558 64.5816 177.182Z" fill="#E7D4B3" stroke="black"/>
<path d="M98.1955 64.5823H93.727C108.503 51.6771 109.218 47.8533 109.813 44.2685C106.477 30.8854 92.5354 28.5353 85.9817 29.0332C66.6185 32.0205 63.3416 60.4 62.4479 69.6607C61.733 77.0692 60.7599 72.7476 60.3627 69.6607L57.9795 48.4508C68.7037 40.385 71.3848 32.0205 69.5974 29.0332C73.6488 30.2281 91.9396 24.851 93.727 23.0586C96.4081 27.8383 108.026 37.3977 113.984 36.8002C116.069 40.1859 119.286 47.1363 115.473 47.8533C111.66 48.5703 102.366 59.3047 98.1955 64.5823Z" fill="#182846" stroke="#F7B81F"/>
<path d="M70.7558 90.4613H87.0001C81.9463 84.2154 83.4905 74.446 84.8943 70.3421C91.5124 66.4384 104.748 52.9255 107.757 48.4212C110.163 44.8177 106.754 40.1132 104.748 38.2114L96.0247 32.506C92.4148 31.0045 83.2699 29.7433 75.5689 36.71C65.9427 45.4183 64.4386 59.8321 62.9345 70.6424C61.7312 79.2907 63.8369 86.0571 65.0402 88.3593L70.7558 90.4613Z" fill="#E7D4B3"/>
<path d="M95.1222 87.7587C94.32 88.9599 91.5725 91.182 87.0001 90.4613M87.0001 90.4613H70.7558L65.0402 88.3593C63.8369 86.0571 61.7312 79.2907 62.9345 70.6424C64.4386 59.8321 65.9427 45.4183 75.5689 36.71C83.2699 29.7433 92.4148 31.0045 96.0247 32.506L104.748 38.2114C106.754 40.1132 110.163 44.8177 107.757 48.4212C104.748 52.9255 91.5124 66.4384 84.8943 70.3421M87.0001 90.4613C81.9463 84.2154 83.4905 74.446 84.8943 70.3421M84.8943 70.3421C79.5999 73.4651 73.4632 65.8378 71.0566 61.6338" stroke="#1F3155"/>
<path d="M97.1731 49.3884C98.2645 50.1395 100.71 51.8248 99.0965 52.3407C97.4827 52.8566 94.956 51.5511 97.1731 49.3884Z" fill="black"/>
<path d="M95.3545 48.4043C95.8547 48.6067 96.5316 48.9469 97.1731 49.3884M97.1731 49.3884C98.2645 50.1395 100.71 51.8248 99.0965 52.3407C97.4827 52.8566 94.956 51.5511 97.1731 49.3884Z" stroke="black"/>
<path d="M85.8014 40.5407C87.8748 41.3853 89.9028 42.809 90.1487 44.9837C87.6589 45.6341 83.8667 44.1982 85.8014 40.5407Z" fill="black"/>
<path d="M82.4192 39.6119C83.3191 39.7408 84.5683 40.0383 85.8014 40.5407M85.8014 40.5407C87.8748 41.3853 89.9028 42.809 90.1487 44.9837C87.6589 45.6341 83.8667 44.1982 85.8014 40.5407Z" stroke="black"/>
<path d="M80.6247 59.3228L83.6577 62.1961M78.1982 61.3341L82.1412 64.7822" stroke="black"/>
<path d="M82.8779 36.2869C85.8772 35.3966 88.9365 35.9308 92.7756 40.4415M102.373 52.015C102.373 50.4323 101.414 47.0295 97.5745 46.0799L86.777 58.5437L83.7777 55.2794" stroke="black"/>
</svg>
