<svg width="1440" height="97" viewBox="0 0 1440 97" fill="none" xmlns="http://www.w3.org/2000/svg">
<path d="M-10.638 27.3009C-25.7692 30.3884 -33.8507 12.006 -36 2.42883V13.5784C-31.1855 34.8482 -19.6652 34.448 -14.5068 31.5891C-24.4796 65.8954 4.40724 73.6143 19.4525 68.0395C39.2262 116.926 89.0905 91.6251 91.6697 68.0395C128.122 77.9883 135.086 47.027 129.068 34.1621C144.199 36.2205 151.994 20.7255 154 12.7207V2C150.561 17.0948 139.814 28.5873 124.769 29.8738C130.271 61.4356 105.425 65.4666 90.81 63.7513C64.1584 105.348 28.9095 82.6197 21.6018 63.7513C-9.34842 66.4958 -14.9367 44.454 -10.638 27.3009Z" fill="#F7B81F" stroke="black"/>
<path d="M30.4595 22.3271C34.3686 7.56148 45.0049 20.6163 49.9936 29.3881L47.7194 34.3539C15.1123 34.7839 22.7949 26.733 30.4595 22.3271Z" fill="#F7B81F" stroke="black"/>
<path d="M33.9264 48.5597C19.3297 41.2271 37.193 36.4489 48.4301 34.691C49.4555 36.4197 50.8834 36.8596 51.5604 37.0828C40.5822 64.4697 36.0014 56.1819 33.9264 48.5597Z" fill="#F7B81F" stroke="black"/>
<path d="M64.6882 53.3802C52.8896 64.666 51.6081 47.3466 52.4584 37.3839L57.3703 34.8839C85.0868 49.0363 73.683 52.9086 64.6882 53.3802Z" fill="#F7B81F" stroke="black"/>
<path d="M79.427 29.9588C86.5432 43.3772 67.7318 38.4433 57.5517 34.4171L56.1182 29.8339C82.3672 11.9083 82.5945 22.4481 79.427 29.9588Z" fill="#F7B81F" stroke="black"/>
<path d="M56.6695 10.2583C73.4271 6.69111 63.288 21.7331 56.1237 29.7L50.4551 29.0985C37.5632 3.2121 49.1886 6.12498 56.6695 10.2583Z" fill="#F7B81F" stroke="black"/>
<path d="M48.1168 33.633C48.4427 35.7968 50.7527 37.355 53.4001 36.957C56.0474 36.5589 57.7964 34.3906 57.4705 32.2267C57.1447 30.0629 54.8347 28.5047 52.1873 28.9028C49.5399 29.3008 47.791 31.4691 48.1168 33.633Z" fill="#F7B81F" stroke="black"/>
<path d="M179.229 27.3009C164.177 30.3884 156.138 12.006 154 2.42883V13.5784C158.789 34.8482 170.249 34.448 175.38 31.5891C165.46 65.8954 194.195 73.6143 209.161 68.0395C228.83 116.926 278.432 91.6251 280.998 68.0395C317.258 77.9883 324.186 47.027 318.199 34.1621C333.251 36.2205 341.005 20.7255 343 12.7207V2C339.579 17.0948 328.889 28.5873 313.923 29.8738C319.396 61.4356 294.681 65.4666 280.143 63.7513C253.631 105.348 218.568 82.6197 211.299 63.7513C180.511 66.4958 174.952 44.454 179.229 27.3009Z" fill="#F7B81F" stroke="black"/>
<path d="M219.959 21.8984C223.869 7.13277 234.505 20.1876 239.494 28.9594L237.219 33.9252C204.612 34.3552 212.295 26.3043 219.959 21.8984Z" fill="#F7B81F" stroke="black"/>
<path d="M223.426 48.131C208.83 40.7983 226.693 36.0202 237.93 34.2623C238.956 35.991 240.383 36.4309 241.06 36.6541C230.082 64.0409 225.501 55.7532 223.426 48.131Z" fill="#F7B81F" stroke="black"/>
<path d="M254.188 52.9515C242.39 64.2373 241.108 46.9179 241.958 36.9552L246.87 34.4552C274.587 48.6076 263.183 52.4799 254.188 52.9515Z" fill="#F7B81F" stroke="black"/>
<path d="M268.927 29.53C276.043 42.9485 257.232 38.0146 247.052 33.9884L245.618 29.4052C271.867 11.4796 272.094 22.0194 268.927 29.53Z" fill="#F7B81F" stroke="black"/>
<path d="M246.17 9.82955C262.927 6.2624 252.788 21.3044 245.624 29.2713L239.955 28.6698C227.063 2.78339 238.689 5.69627 246.17 9.82955Z" fill="#F7B81F" stroke="black"/>
<path d="M237.617 33.2043C237.943 35.3681 240.253 36.9263 242.9 36.5282C245.547 36.1302 247.296 33.9619 246.971 31.798C246.645 29.6342 244.335 28.076 241.687 28.474C239.04 28.8721 237.291 31.0404 237.617 33.2043Z" fill="#F7B81F" stroke="black"/>
<path d="M409.459 21.3271C413.369 6.56148 424.005 19.6163 428.994 28.3881L426.719 33.3539C394.112 33.7839 401.795 25.733 409.459 21.3271Z" fill="#F7B81F" stroke="black"/>
<path d="M412.926 47.5597C398.33 40.2271 416.193 35.4489 427.43 33.691C428.456 35.4197 429.883 35.8596 430.56 36.0828C419.582 63.4697 415.001 55.1819 412.926 47.5597Z" fill="#F7B81F" stroke="black"/>
<path d="M443.688 52.3802C431.89 63.666 430.608 46.3466 431.458 36.3839L436.37 33.8839C464.087 48.0363 452.683 51.9086 443.688 52.3802Z" fill="#F7B81F" stroke="black"/>
<path d="M458.427 28.9588C465.543 42.3772 446.732 37.4433 436.552 33.4171L435.118 28.8339C461.367 10.9083 461.594 21.4481 458.427 28.9588Z" fill="#F7B81F" stroke="black"/>
<path d="M435.67 9.25826C452.427 5.69111 442.288 20.7331 435.124 28.7L429.455 28.0985C416.563 2.2121 428.189 5.12498 435.67 9.25826Z" fill="#F7B81F" stroke="black"/>
<path d="M427.117 32.633C427.443 34.7968 429.753 36.355 432.4 35.957C435.047 35.5589 436.796 33.3906 436.471 31.2267C436.145 29.0629 433.835 27.5047 431.187 27.9028C428.54 28.3008 426.791 30.4691 427.117 32.633Z" fill="#F7B81F" stroke="black"/>
<path d="M409.459 21.3271C413.369 6.56148 424.005 19.6163 428.994 28.3881L426.719 33.3539C394.112 33.7839 401.795 25.733 409.459 21.3271Z" fill="#F7B81F" stroke="black"/>
<path d="M412.926 47.5597C398.33 40.2271 416.193 35.4489 427.43 33.691C428.456 35.4197 429.883 35.8596 430.56 36.0828C419.582 63.4697 415.001 55.1819 412.926 47.5597Z" fill="#F7B81F" stroke="black"/>
<path d="M443.688 52.3802C431.89 63.666 430.608 46.3466 431.458 36.3839L436.37 33.8839C464.087 48.0363 452.683 51.9086 443.688 52.3802Z" fill="#F7B81F" stroke="black"/>
<path d="M458.427 28.9588C465.543 42.3772 446.732 37.4433 436.552 33.4171L435.118 28.8339C461.367 10.9083 461.594 21.4481 458.427 28.9588Z" fill="#F7B81F" stroke="black"/>
<path d="M435.67 9.25826C452.427 5.69111 442.288 20.7331 435.124 28.7L429.455 28.0985C416.563 2.2121 428.189 5.12498 435.67 9.25826Z" fill="#F7B81F" stroke="black"/>
<path d="M427.117 32.633C427.443 34.7968 429.753 36.355 432.4 35.957C435.047 35.5589 436.796 33.3906 436.471 31.2267C436.145 29.0629 433.835 27.5047 431.187 27.9028C428.54 28.3008 426.791 30.4691 427.117 32.633Z" fill="#F7B81F" stroke="black"/>
<path d="M409.459 21.3271C413.369 6.56148 424.005 19.6163 428.994 28.3881L426.719 33.3539C394.112 33.7839 401.795 25.733 409.459 21.3271Z" fill="#F7B81F" stroke="black"/>
<path d="M412.926 47.5597C398.33 40.2271 416.193 35.4489 427.43 33.691C428.456 35.4197 429.883 35.8596 430.56 36.0828C419.582 63.4697 415.001 55.1819 412.926 47.5597Z" fill="#F7B81F" stroke="black"/>
<path d="M443.688 52.3802C431.89 63.666 430.608 46.3466 431.458 36.3839L436.37 33.8839C464.087 48.0363 452.683 51.9086 443.688 52.3802Z" fill="#F7B81F" stroke="black"/>
<path d="M458.427 28.9588C465.543 42.3772 446.732 37.4433 436.552 33.4171L435.118 28.8339C461.367 10.9083 461.594 21.4481 458.427 28.9588Z" fill="#F7B81F" stroke="black"/>
<path d="M435.67 9.25826C452.427 5.69111 442.288 20.7331 435.124 28.7L429.455 28.0985C416.563 2.2121 428.189 5.12498 435.67 9.25826Z" fill="#F7B81F" stroke="black"/>
<path d="M427.117 32.633C427.443 34.7968 429.753 36.355 432.4 35.957C435.047 35.5589 436.796 33.3906 436.471 31.2267C436.145 29.0629 433.835 27.5047 431.187 27.9028C428.54 28.3008 426.791 30.4691 427.117 32.633Z" fill="#F7B81F" stroke="black"/>
<path d="M343 1.42883C345.149 11.006 353.231 29.3884 368.362 26.3009C364.063 43.454 369.652 65.4957 400.602 62.7512C407.91 81.6197 443.158 104.348 469.81 62.7512C484.425 64.4666 509.271 60.4356 503.769 28.8738C518.814 27.5873 529.561 16.0948 533 1M533 11.7207C530.994 19.7255 523.199 35.2205 508.068 33.1621C514.086 46.027 507.122 76.9883 470.67 67.0395C468.09 90.6251 418.226 115.926 398.452 67.0395C383.407 72.6143 354.52 64.8954 364.493 30.5891C359.335 33.448 347.814 33.8482 343 12.5784" stroke="black"/>
<path d="M343 1.42883C345.149 11.006 353.231 29.3884 368.362 26.3009C364.063 43.454 369.652 65.4957 400.602 62.7512C407.91 81.6197 443.158 104.348 469.81 62.7512C484.425 64.4666 509.271 60.4356 503.769 28.8738C518.814 27.5873 529.561 16.0948 533 1M533 11.7207C530.994 19.7255 523.199 35.2205 508.068 33.1621C514.086 46.027 507.122 76.9883 470.67 67.0395C468.09 90.6251 418.226 115.926 398.452 67.0395C383.407 72.6143 354.52 64.8954 364.493 30.5891C359.335 33.448 347.814 33.8482 343 12.5784" stroke="black"/>
<path d="M343 1.42883C345.149 11.006 353.231 29.3884 368.362 26.3009C364.063 43.454 369.652 65.4957 400.602 62.7512C407.91 81.6197 443.158 104.348 469.81 62.7512C484.425 64.4666 509.271 60.4356 503.769 28.8738C518.814 27.5873 529.561 16.0948 533 1M533 11.7207C530.994 19.7255 523.199 35.2205 508.068 33.1621C514.086 46.027 507.122 76.9883 470.67 67.0395C468.09 90.6251 418.226 115.926 398.452 67.0395C383.407 72.6143 354.52 64.8954 364.493 30.5891C359.335 33.448 347.814 33.8482 343 12.5784" stroke="black"/>
<path d="M368.362 26.3009C353.231 29.3884 345.149 11.006 343 1.42883V12.5784C347.814 33.8482 359.335 33.448 364.493 30.5891C354.52 64.8954 383.407 72.6143 398.452 67.0395C418.226 115.926 468.09 90.6251 470.67 67.0395C507.122 76.9883 514.086 46.027 508.068 33.1621C523.199 35.2205 530.994 19.7255 533 11.7207V1C529.561 16.0948 518.814 27.5873 503.769 28.8738C509.271 60.4356 484.425 64.4666 469.81 62.7513C443.158 104.348 407.91 81.6197 400.602 62.7513C369.652 65.4958 364.063 43.454 368.362 26.3009Z" fill="#F7B81F" stroke="black"/>
<path d="M409.459 21.3271C413.369 6.56148 424.005 19.6163 428.994 28.3881L426.719 33.3539C394.112 33.7839 401.795 25.733 409.459 21.3271Z" fill="#F7B81F" stroke="black"/>
<path d="M412.926 47.5597C398.33 40.2271 416.193 35.4489 427.43 33.691C428.456 35.4197 429.883 35.8596 430.56 36.0828C419.582 63.4697 415.001 55.1819 412.926 47.5597Z" fill="#F7B81F" stroke="black"/>
<path d="M443.688 52.3802C431.89 63.666 430.608 46.3466 431.458 36.3839L436.37 33.8839C464.087 48.0363 452.683 51.9086 443.688 52.3802Z" fill="#F7B81F" stroke="black"/>
<path d="M458.427 28.9588C465.543 42.3772 446.732 37.4433 436.552 33.4171L435.118 28.8339C461.367 10.9083 461.594 21.4481 458.427 28.9588Z" fill="#F7B81F" stroke="black"/>
<path d="M435.67 9.25826C452.427 5.69111 442.288 20.7331 435.124 28.7L429.455 28.0985C416.563 2.2121 428.189 5.12498 435.67 9.25826Z" fill="#F7B81F" stroke="black"/>
<path d="M427.117 32.633C427.443 34.7968 429.753 36.355 432.4 35.957C435.047 35.5589 436.796 33.3906 436.471 31.2267C436.145 29.0629 433.835 27.5047 431.187 27.9028C428.54 28.3008 426.791 30.4691 427.117 32.633Z" fill="#F7B81F" stroke="black"/>
<path d="M598.959 20.8984C602.869 6.13277 613.505 19.1876 618.494 27.9594L616.219 32.9252C583.612 33.3552 591.295 25.3043 598.959 20.8984Z" fill="#F7B81F" stroke="black"/>
<path d="M602.426 47.131C587.83 39.7983 605.693 35.0202 616.93 33.2623C617.956 34.991 619.383 35.4309 620.06 35.6541C609.082 63.0409 604.501 54.7532 602.426 47.131Z" fill="#F7B81F" stroke="black"/>
<path d="M633.188 51.9515C621.39 63.2373 620.108 45.9179 620.958 35.9552L625.87 33.4552C653.587 47.6076 642.183 51.4799 633.188 51.9515Z" fill="#F7B81F" stroke="black"/>
<path d="M647.927 28.53C655.043 41.9485 636.232 37.0146 626.052 32.9884L624.618 28.4052C650.867 10.4796 651.094 21.0194 647.927 28.53Z" fill="#F7B81F" stroke="black"/>
<path d="M625.17 8.82955C641.927 5.2624 631.788 20.3044 624.624 28.2713L618.955 27.6698C606.063 1.78339 617.689 4.69627 625.17 8.82955Z" fill="#F7B81F" stroke="black"/>
<path d="M616.617 32.2043C616.943 34.3681 619.253 35.9263 621.9 35.5282C624.547 35.1302 626.296 32.9619 625.971 30.798C625.645 28.6342 623.335 27.076 620.687 27.474C618.04 27.8721 616.291 30.0404 616.617 32.2043Z" fill="#F7B81F" stroke="black"/>
<path d="M598.959 20.8984C602.869 6.13277 613.505 19.1876 618.494 27.9594L616.219 32.9252C583.612 33.3552 591.295 25.3043 598.959 20.8984Z" fill="#F7B81F" stroke="black"/>
<path d="M602.426 47.131C587.83 39.7983 605.693 35.0202 616.93 33.2623C617.956 34.991 619.383 35.4309 620.06 35.6541C609.082 63.0409 604.501 54.7532 602.426 47.131Z" fill="#F7B81F" stroke="black"/>
<path d="M633.188 51.9515C621.39 63.2373 620.108 45.9179 620.958 35.9552L625.87 33.4552C653.587 47.6076 642.183 51.4799 633.188 51.9515Z" fill="#F7B81F" stroke="black"/>
<path d="M647.927 28.53C655.043 41.9485 636.232 37.0146 626.052 32.9884L624.618 28.4052C650.867 10.4796 651.094 21.0194 647.927 28.53Z" fill="#F7B81F" stroke="black"/>
<path d="M625.17 8.82955C641.927 5.2624 631.788 20.3044 624.624 28.2713L618.955 27.6698C606.063 1.78339 617.689 4.69627 625.17 8.82955Z" fill="#F7B81F" stroke="black"/>
<path d="M616.617 32.2043C616.943 34.3681 619.253 35.9263 621.9 35.5282C624.547 35.1302 626.296 32.9619 625.971 30.798C625.645 28.6342 623.335 27.076 620.687 27.474C618.04 27.8721 616.291 30.0404 616.617 32.2043Z" fill="#F7B81F" stroke="black"/>
<path d="M598.959 20.8984C602.869 6.13277 613.505 19.1876 618.494 27.9594L616.219 32.9252C583.612 33.3552 591.295 25.3043 598.959 20.8984Z" fill="#F7B81F" stroke="black"/>
<path d="M602.426 47.131C587.83 39.7983 605.693 35.0202 616.93 33.2623C617.956 34.991 619.383 35.4309 620.06 35.6541C609.082 63.0409 604.501 54.7532 602.426 47.131Z" fill="#F7B81F" stroke="black"/>
<path d="M633.188 51.9515C621.39 63.2373 620.108 45.9179 620.958 35.9552L625.87 33.4552C653.587 47.6076 642.183 51.4799 633.188 51.9515Z" fill="#F7B81F" stroke="black"/>
<path d="M647.927 28.53C655.043 41.9485 636.232 37.0146 626.052 32.9884L624.618 28.4052C650.867 10.4796 651.094 21.0194 647.927 28.53Z" fill="#F7B81F" stroke="black"/>
<path d="M625.17 8.82955C641.927 5.2624 631.788 20.3044 624.624 28.2713L618.955 27.6698C606.063 1.78339 617.689 4.69627 625.17 8.82955Z" fill="#F7B81F" stroke="black"/>
<path d="M616.617 32.2043C616.943 34.3681 619.253 35.9263 621.9 35.5282C624.547 35.1302 626.296 32.9619 625.971 30.798C625.645 28.6342 623.335 27.076 620.687 27.474C618.04 27.8721 616.291 30.0404 616.617 32.2043Z" fill="#F7B81F" stroke="black"/>
<path d="M533 1.42883C535.138 11.006 543.177 29.3884 558.229 26.3009C553.952 43.454 559.511 65.4957 590.299 62.7512C597.568 81.6197 632.631 104.348 659.143 62.7512C673.681 64.4666 698.396 60.4356 692.923 28.8738C707.889 27.5873 718.579 16.0948 722 1M722 11.7207C720.005 19.7255 712.251 35.2205 697.199 33.1621C703.186 46.027 696.258 76.9883 659.998 67.0395C657.432 90.6251 607.83 115.926 588.161 67.0395C573.195 72.6143 544.46 64.8954 554.38 30.5891C549.249 33.448 537.789 33.8482 533 12.5784" stroke="black"/>
<path d="M533 1.42883C535.138 11.006 543.177 29.3884 558.229 26.3009C553.952 43.454 559.511 65.4957 590.299 62.7512C597.568 81.6197 632.631 104.348 659.143 62.7512C673.681 64.4666 698.396 60.4356 692.923 28.8738C707.889 27.5873 718.579 16.0948 722 1M722 11.7207C720.005 19.7255 712.251 35.2205 697.199 33.1621C703.186 46.027 696.258 76.9883 659.998 67.0395C657.432 90.6251 607.83 115.926 588.161 67.0395C573.195 72.6143 544.46 64.8954 554.38 30.5891C549.249 33.448 537.789 33.8482 533 12.5784" stroke="black"/>
<path d="M533 1.42883C535.138 11.006 543.177 29.3884 558.229 26.3009C553.952 43.454 559.511 65.4957 590.299 62.7512C597.568 81.6197 632.631 104.348 659.143 62.7512C673.681 64.4666 698.396 60.4356 692.923 28.8738C707.889 27.5873 718.579 16.0948 722 1M722 11.7207C720.005 19.7255 712.251 35.2205 697.199 33.1621C703.186 46.027 696.258 76.9883 659.998 67.0395C657.432 90.6251 607.83 115.926 588.161 67.0395C573.195 72.6143 544.46 64.8954 554.38 30.5891C549.249 33.448 537.789 33.8482 533 12.5784" stroke="black"/>
<path d="M558.229 26.3009C543.177 29.3884 535.138 11.006 533 1.42883V12.5784C537.789 33.8482 549.249 33.448 554.38 30.5891C544.46 64.8954 573.195 72.6143 588.161 67.0395C607.83 115.926 657.432 90.6251 659.998 67.0395C696.258 76.9883 703.186 46.027 697.199 33.1621C712.251 35.2205 720.005 19.7255 722 11.7207V1C718.579 16.0948 707.889 27.5873 692.923 28.8738C698.396 60.4356 673.681 64.4666 659.143 62.7513C632.631 104.348 597.568 81.6197 590.299 62.7513C559.511 65.4958 553.952 43.454 558.229 26.3009Z" fill="#F7B81F" stroke="black"/>
<path d="M598.959 20.8984C602.869 6.13277 613.505 19.1876 618.494 27.9594L616.219 32.9252C583.612 33.3552 591.295 25.3043 598.959 20.8984Z" fill="#F7B81F" stroke="black"/>
<path d="M602.426 47.131C587.83 39.7983 605.693 35.0202 616.93 33.2623C617.956 34.991 619.383 35.4309 620.06 35.6541C609.082 63.0409 604.501 54.7532 602.426 47.131Z" fill="#F7B81F" stroke="black"/>
<path d="M633.188 51.9515C621.39 63.2373 620.108 45.9179 620.958 35.9552L625.87 33.4552C653.587 47.6076 642.183 51.4799 633.188 51.9515Z" fill="#F7B81F" stroke="black"/>
<path d="M647.927 28.53C655.043 41.9485 636.232 37.0146 626.052 32.9884L624.618 28.4052C650.867 10.4796 651.094 21.0194 647.927 28.53Z" fill="#F7B81F" stroke="black"/>
<path d="M625.17 8.82955C641.927 5.2624 631.788 20.3044 624.624 28.2713L618.955 27.6698C606.063 1.78339 617.689 4.69627 625.17 8.82955Z" fill="#F7B81F" stroke="black"/>
<path d="M616.617 32.2043C616.943 34.3681 619.253 35.9263 621.9 35.5282C624.547 35.1302 626.296 32.9619 625.971 30.798C625.645 28.6342 623.335 27.076 620.687 27.474C618.04 27.8721 616.291 30.0404 616.617 32.2043Z" fill="#F7B81F" stroke="black"/>
<path d="M747.362 27.3009C732.231 30.3884 724.149 12.006 722 2.42883V13.5784C726.814 34.8482 738.335 34.448 743.493 31.5891C733.52 65.8954 762.407 73.6143 777.452 68.0395C797.226 116.926 847.09 91.6251 849.67 68.0395C886.122 77.9883 893.086 47.027 887.068 34.1621C902.199 36.2205 909.994 20.7255 912 12.7207V2C908.561 17.0948 897.814 28.5873 882.769 29.8738C888.271 61.4356 863.425 65.4666 848.81 63.7513C822.158 105.348 786.91 82.6197 779.602 63.7513C748.652 66.4958 743.063 44.454 747.362 27.3009Z" fill="#F7B81F" stroke="black"/>
<path d="M788.459 22.3271C792.369 7.56148 803.005 20.6163 807.994 29.3881L805.719 34.3539C773.112 34.7839 780.795 26.733 788.459 22.3271Z" fill="#F7B81F" stroke="black"/>
<path d="M791.926 48.5597C777.33 41.2271 795.193 36.4489 806.43 34.691C807.456 36.4197 808.883 36.8596 809.56 37.0828C798.582 64.4697 794.001 56.1819 791.926 48.5597Z" fill="#F7B81F" stroke="black"/>
<path d="M822.688 53.3802C810.89 64.666 809.608 47.3466 810.458 37.3839L815.37 34.8839C843.087 49.0363 831.683 52.9086 822.688 53.3802Z" fill="#F7B81F" stroke="black"/>
<path d="M837.427 29.9588C844.543 43.3772 825.732 38.4433 815.552 34.4171L814.118 29.8339C840.367 11.9083 840.594 22.4481 837.427 29.9588Z" fill="#F7B81F" stroke="black"/>
<path d="M814.67 10.2583C831.427 6.69111 821.288 21.7331 814.124 29.7L808.455 29.0985C795.563 3.2121 807.189 6.12498 814.67 10.2583Z" fill="#F7B81F" stroke="black"/>
<path d="M806.117 33.633C806.443 35.7968 808.753 37.355 811.4 36.957C814.047 36.5589 815.796 34.3906 815.471 32.2267C815.145 30.0629 812.835 28.5047 810.187 28.9028C807.54 29.3008 805.791 31.4691 806.117 33.633Z" fill="#F7B81F" stroke="black"/>
<path d="M937.229 27.3009C922.177 30.3884 914.138 12.006 912 2.42883V13.5784C916.789 34.8482 928.249 34.448 933.38 31.5891C923.46 65.8954 952.195 73.6143 967.161 68.0395C986.83 116.926 1036.43 91.6251 1039 68.0395C1075.26 77.9883 1082.19 47.027 1076.2 34.1621C1091.25 36.2205 1099 20.7255 1101 12.7207V2C1097.58 17.0948 1086.89 28.5873 1071.92 29.8738C1077.4 61.4356 1052.68 65.4666 1038.14 63.7513C1011.63 105.348 976.568 82.6197 969.299 63.7513C938.511 66.4958 932.952 44.454 937.229 27.3009Z" fill="#F7B81F" stroke="black"/>
<path d="M977.959 21.8984C981.869 7.13277 992.505 20.1876 997.494 28.9594L995.219 33.9252C962.612 34.3552 970.295 26.3043 977.959 21.8984Z" fill="#F7B81F" stroke="black"/>
<path d="M981.426 48.131C966.83 40.7983 984.693 36.0202 995.93 34.2623C996.956 35.991 998.383 36.4309 999.06 36.6541C988.082 64.0409 983.501 55.7532 981.426 48.131Z" fill="#F7B81F" stroke="black"/>
<path d="M1012.19 52.9515C1000.39 64.2373 999.108 46.9179 999.958 36.9552L1004.87 34.4552C1032.59 48.6076 1021.18 52.4799 1012.19 52.9515Z" fill="#F7B81F" stroke="black"/>
<path d="M1026.93 29.53C1034.04 42.9485 1015.23 38.0146 1005.05 33.9884L1003.62 29.4052C1029.87 11.4796 1030.09 22.0194 1026.93 29.53Z" fill="#F7B81F" stroke="black"/>
<path d="M1004.17 9.82955C1020.93 6.2624 1010.79 21.3044 1003.62 29.2713L997.955 28.6698C985.063 2.78339 996.689 5.69627 1004.17 9.82955Z" fill="#F7B81F" stroke="black"/>
<path d="M995.617 33.2043C995.943 35.3681 998.253 36.9263 1000.9 36.5282C1003.55 36.1302 1005.3 33.9619 1004.97 31.798C1004.64 29.6342 1002.33 28.076 999.687 28.474C997.04 28.8721 995.291 31.0404 995.617 33.2043Z" fill="#F7B81F" stroke="black"/>
<path d="M1126.36 26.3009C1111.23 29.3884 1103.15 11.006 1101 1.42883V12.5784C1105.81 33.8482 1117.33 33.448 1122.49 30.5891C1112.52 64.8954 1141.41 72.6143 1156.45 67.0395C1176.23 115.926 1226.09 90.6251 1228.67 67.0395C1265.12 76.9883 1272.09 46.027 1266.07 33.1621C1281.2 35.2205 1288.99 19.7255 1291 11.7207V1C1287.56 16.0948 1276.81 27.5873 1261.77 28.8738C1267.27 60.4356 1242.43 64.4666 1227.81 62.7513C1201.16 104.348 1165.91 81.6197 1158.6 62.7513C1127.65 65.4958 1122.06 43.454 1126.36 26.3009Z" fill="#F7B81F" stroke="black"/>
<path d="M1167.46 21.3271C1171.37 6.56148 1182 19.6163 1186.99 28.3881L1184.72 33.3539C1152.11 33.7839 1159.79 25.733 1167.46 21.3271Z" fill="#F7B81F" stroke="black"/>
<path d="M1170.93 47.5597C1156.33 40.2271 1174.19 35.4489 1185.43 33.691C1186.46 35.4197 1187.88 35.8596 1188.56 36.0828C1177.58 63.4697 1173 55.1819 1170.93 47.5597Z" fill="#F7B81F" stroke="black"/>
<path d="M1201.69 52.3802C1189.89 63.666 1188.61 46.3466 1189.46 36.3839L1194.37 33.8839C1222.09 48.0363 1210.68 51.9086 1201.69 52.3802Z" fill="#F7B81F" stroke="black"/>
<path d="M1216.43 28.9588C1223.54 42.3772 1204.73 37.4433 1194.55 33.4171L1193.12 28.8339C1219.37 10.9083 1219.59 21.4481 1216.43 28.9588Z" fill="#F7B81F" stroke="black"/>
<path d="M1193.67 9.25826C1210.43 5.69111 1200.29 20.7331 1193.12 28.7L1187.46 28.0985C1174.56 2.2121 1186.19 5.12498 1193.67 9.25826Z" fill="#F7B81F" stroke="black"/>
<path d="M1185.12 32.633C1185.44 34.7968 1187.75 36.355 1190.4 35.957C1193.05 35.5589 1194.8 33.3906 1194.47 31.2267C1194.14 29.0629 1191.83 27.5047 1189.19 27.9028C1186.54 28.3008 1184.79 30.4691 1185.12 32.633Z" fill="#F7B81F" stroke="black"/>
<path d="M1316.23 26.3009C1301.18 29.3884 1293.14 11.006 1291 1.42883V12.5784C1295.79 33.8482 1307.25 33.448 1312.38 30.5891C1302.46 64.8954 1331.19 72.6143 1346.16 67.0395C1365.83 115.926 1415.43 90.6251 1418 67.0395C1454.26 76.9883 1461.19 46.027 1455.2 33.1621C1470.25 35.2205 1478 19.7255 1480 11.7207V1C1476.58 16.0948 1465.89 27.5873 1450.92 28.8738C1456.4 60.4356 1431.68 64.4666 1417.14 62.7513C1390.63 104.348 1355.57 81.6197 1348.3 62.7513C1317.51 65.4958 1311.95 43.454 1316.23 26.3009Z" fill="#F7B81F" stroke="black"/>
<path d="M1356.96 20.8984C1360.87 6.13277 1371.5 19.1876 1376.49 27.9594L1374.22 32.9252C1341.61 33.3552 1349.29 25.3043 1356.96 20.8984Z" fill="#F7B81F" stroke="black"/>
<path d="M1360.43 47.131C1345.83 39.7983 1363.69 35.0202 1374.93 33.2623C1375.96 34.991 1377.38 35.4309 1378.06 35.6541C1367.08 63.0409 1362.5 54.7532 1360.43 47.131Z" fill="#F7B81F" stroke="black"/>
<path d="M1391.19 51.9515C1379.39 63.2373 1378.11 45.9179 1378.96 35.9552L1383.87 33.4552C1411.59 47.6076 1400.18 51.4799 1391.19 51.9515Z" fill="#F7B81F" stroke="black"/>
<path d="M1405.93 28.53C1413.04 41.9485 1394.23 37.0146 1384.05 32.9884L1382.62 28.4052C1408.87 10.4796 1409.09 21.0194 1405.93 28.53Z" fill="#F7B81F" stroke="black"/>
<path d="M1383.17 8.82955C1399.93 5.2624 1389.79 20.3044 1382.62 28.2713L1376.96 27.6698C1364.06 1.78339 1375.69 4.69627 1383.17 8.82955Z" fill="#F7B81F" stroke="black"/>
<path d="M1374.62 32.2043C1374.94 34.3681 1377.25 35.9263 1379.9 35.5282C1382.55 35.1302 1384.3 32.9619 1383.97 30.798C1383.64 28.6342 1381.33 27.076 1378.69 27.474C1376.04 27.8721 1374.29 30.0404 1374.62 32.2043Z" fill="#F7B81F" stroke="black"/>
</svg>
