<svg width="141" height="118" viewBox="0 0 141 118" fill="none" xmlns="http://www.w3.org/2000/svg">
<path d="M58 0C75.7008 0 89.7926 5.5339 100.276 16.6017C110.758 27.4993 116 41.5469 116 58.7446C116 75.9423 110.587 90.1602 99.76 101.398C88.9333 112.466 75.0134 118 58 118C39.9556 118 25.7778 112.636 15.4667 101.909C5.15554 91.0116 0 76.7085 0 59C0 41.632 5.32741 27.4993 15.9822 16.6017C26.8089 5.5339 40.8148 0 58 0ZM57.7422 111.104C63.757 111.104 68.9126 109.401 73.2089 105.996C77.677 102.42 81.0281 97.9076 83.2622 92.4589C85.4963 86.8398 87.1289 81.3059 88.16 75.8571C89.1911 70.2381 89.7067 64.619 89.7067 59C89.7067 53.2107 89.1911 47.5916 88.16 42.1428C87.3007 36.6941 85.7541 31.1602 83.52 25.5411C81.4578 19.9221 78.1926 15.4098 73.7244 12.0043C69.4281 8.59883 64.1867 6.89609 58 6.89609C52.1571 6.89609 47.0015 8.68398 42.5333 12.2597C38.237 15.6652 34.9719 20.1775 32.7378 25.7965C30.5037 31.2453 28.8711 36.7792 27.84 42.3983C26.8089 48.0173 26.2933 53.5512 26.2933 59C26.2933 74.3247 29.043 86.4993 34.5422 95.5238C40.0415 105.911 47.7748 111.104 57.7422 111.104Z" fill="#F7B81F"/>
<rect x="138" y="18" width="3" height="82" rx="1.5" fill="#F7B81F"/>
</svg>
