<svg width="325" height="279" viewBox="0 0 325 279" fill="none" xmlns="http://www.w3.org/2000/svg">
<path d="M79.6417 63.4697C96.0686 81.1305 129.423 74.1318 144.047 68.4248L141.19 74.2622C107.616 84.6233 84.899 73.8861 77.7371 67.2224L75.3483 63.4729L79.6417 63.4697Z" fill="#F7B81F" stroke="black"/>
<path d="M115.774 110.374C127.366 83.5271 143.817 111.255 150.782 129.275L145.066 138.032C83.1671 129.611 100.004 116.545 115.774 110.374Z" fill="#F7B81F" stroke="black"/>
<path d="M114.906 161.021C89.3297 143.004 124.528 139.018 146.315 138.872C147.768 142.436 150.349 143.673 151.568 144.287C123.007 193.027 116.677 176.039 114.906 161.021Z" fill="#F7B81F" stroke="black"/>
<path d="M230.047 207.994C219.559 215.226 199.065 234.358 200.991 253.03C203.215 251.5 208.142 248.607 210.051 249.272C212.437 250.104 201.472 257.614 211.503 270.945C212.295 268.305 215.502 262.356 221.987 259.684C228.472 257.011 228.815 249.675 228.176 246.341C229.451 249.675 232.956 256.675 236.773 258.006C236.294 255.783 236.289 249.753 240.099 243.415C244.862 235.492 242.941 222.156 238.635 209.238L245.794 212.15C246.601 225.488 253.942 252.825 276.842 255.476C278.435 258.392 284.674 264.557 296.888 265.882C300.44 266.655 307.63 268.797 309.843 271.509C309.984 271.726 310.12 271.931 310.251 272.124C310.145 271.916 310.008 271.711 309.843 271.509C307.246 267.504 303.182 259.569 304.988 255.455C306.892 251.119 299.728 242.26 295.908 238.373C298.611 238.093 304.112 237.117 304.492 235.449C304.967 233.365 273.934 206.295 251.038 209.229L240.064 206.319L243.876 202.565C257.231 199.36 285.272 190.114 290.604 178.773L287.263 177.108C291.71 171.687 300.412 159.426 299.644 153.758C297.419 155.705 292.208 159.599 289.154 159.601C285.338 159.604 282 161.273 274.373 166.281L274.363 156.694C261.331 164.206 236.225 183.231 240.057 199.233C238.151 201.736 234.814 204.239 230.519 202.158L229.091 205.91C230.523 206.326 231.001 207.159 230.047 207.994Z" fill="#F7B81F" stroke="black"/>
<path d="M105.448 257.663C103.544 263 92.5793 270.177 87.3347 273.098C91.5332 273.762 98.9411 271.423 102.12 270.17C110.136 271.498 119.132 267.935 122.629 265.987C135.977 256.391 129.772 253.061 126.906 249.312C124.041 245.562 107.826 250.993 105.448 257.663Z" fill="#F7B81F" stroke="black"/>
<path d="M119.419 255.59C117.193 256.286 110.455 260.264 101.306 270.608" stroke="black"/>
<path d="M118.878 188.901C132.082 195.004 154.871 214.633 138.488 242.655" stroke="black"/>
<path d="M145.084 154.703C147.157 161.232 146.632 177.46 124.124 186.813" stroke="black"/>
<path d="M171.819 178.859C146.267 196.884 148.748 163.732 153.183 145.111L163.197 141.769C211.698 176.413 188.994 180.514 171.819 178.859Z" fill="#F7B81F" stroke="black"/>
<path d="M206.382 138.691C216.061 166.11 181.82 151.441 163.674 140.936L162.257 131.853C217.068 105.35 214.512 125.369 206.382 138.691Z" fill="#F7B81F" stroke="black"/>
<path d="M168.852 94.9483C201.612 92.9412 178.139 118.547 162.307 131.601L151.738 128.856C134.65 76.1971 155.85 85.0044 168.852 94.9483Z" fill="#F7B81F" stroke="black"/>
<path d="M145.566 136.781C145.571 141.277 149.77 145.031 155.092 145.027C160.414 145.023 164.606 141.264 164.602 136.767C164.598 132.27 160.398 128.517 155.076 128.521C149.754 128.525 145.562 132.284 145.566 136.781Z" fill="#F7B81F" stroke="black"/>
<path d="M301.603 208.116C301.004 208.097 300.365 208.077 299.693 208.055C268.19 206.024 253.48 153.421 250.961 127.951C238.043 87.7729 204.471 66.8529 185.542 60.0588C140.497 46.7536 105.397 57.616 89.1897 70.132C66.4367 87.7026 56.2251 119.18 69.2341 154.516C82.2431 189.852 137.01 192.522 153.228 190.96C202.072 186.256 223.042 199.246 228.614 205.91L230.519 202.158C192.337 182.179 187.097 190.276 131.28 187.399C86.6273 185.097 71.6205 155.868 70.1765 142.254C55.3171 67.2388 123.522 54.4073 156.44 57.579C215.215 60.8709 244.747 115.035 248.103 132.538C244.302 147.963 273.933 205.635 274.411 206.468C274.767 207.09 290.369 207.749 299.693 208.055C300.323 208.096 300.96 208.116 301.603 208.116Z" fill="#F7B81F" stroke="black"/>
<path d="M255.753 152.123L250.983 152.109C245.241 134.107 219.944 119.898 208.491 115.044C217.265 111.036 223.279 114.755 225.189 117.116C230.146 112.444 234.569 115.164 236.161 117.108L244.76 129.606C245.877 133.912 249.256 142.273 253.834 141.27C259.558 140.015 260.022 126.677 260.016 120.008C260.011 114.673 264.144 113.058 266.211 112.918C271.927 104.244 280.037 104.849 283.378 106.236C275.273 111.244 263.365 130.426 262.896 138.762C262.521 145.431 257.978 150.454 255.753 152.123Z" fill="#F7B81F" stroke="black"/>
<path d="M175.84 265.885C181.51 248.446 173.388 235.82 168.025 231.346C165.94 231.993 161.718 233.189 161.517 232.799C159.897 238.321 160.998 250.897 175.84 265.885Z" fill="#F7B81F"/>
<path d="M173.261 272.189C183.446 251.508 174.014 236.343 168.025 231.346C165.94 231.993 161.718 233.189 161.517 232.799M161.884 231.767C161.751 232.077 161.628 232.422 161.517 232.799M178.927 268.851C161.153 252.57 159.791 238.682 161.517 232.799" stroke="black"/>
<path d="M130.33 190.559C141.306 194.581 161.83 206.876 163.751 220.545" stroke="black"/>
<path d="M156.624 226.803C156.627 230.148 159.758 232.969 163.762 232.966C167.767 232.964 170.892 230.138 170.889 226.792C170.886 223.447 167.755 220.626 163.751 220.629C159.746 220.631 156.621 223.457 156.624 226.803Z" fill="#F7B81F" stroke="black"/>
<path d="M127.546 248.081C127.549 251.427 130.679 254.248 134.684 254.245C138.689 254.242 141.814 251.417 141.811 248.071C141.808 244.725 138.677 241.904 134.673 241.907C130.668 241.91 127.543 244.736 127.546 248.081Z" fill="#F7B81F" stroke="black"/>
<path d="M160.72 42.9875C172.175 49.6481 172.82 58.8174 171.71 62.5695L171.711 63.8199C146.149 71.8412 143.268 85.5146 145.023 91.3486C132.411 72.3513 149.288 61.7521 159.303 58.8272C141.356 47.503 141.303 25.4956 143.52 15.9074C144.48 22.1588 149.264 36.3268 160.72 42.9875Z" fill="#F7B81F" stroke="black"/>
<path d="M68.6589 51.8072C71.5205 51.1105 78.1028 50.2999 81.5397 52.6315C84.9766 54.9632 94.4207 53.5947 98.7132 52.6191L94.4174 50.1214C98.2339 50.2575 107.869 49.6114 115.88 45.9377C110.951 45.9413 100.424 45.6988 97.7516 44.7004C94.4111 43.4524 79.6229 43.4631 68.6557 48.4728C69.6051 43.4704 68.7359 32.4672 57.6648 28.4739C53.8468 26.6705 46.3042 20.9796 46.6779 12.6431C45.0885 13.4779 41.7194 15.481 40.9574 16.8153C40.0049 18.4833 35.2487 33.4918 54.816 42.6474C57.6796 44.0347 62.0721 47.9774 56.7337 52.6495C51.3953 57.3216 45.5996 49.3231 43.3691 44.7398C42.886 38.3491 36.2915 26.4053 13.7784 29.7561C18.0742 32.3928 25.272 39.4306 25.7206 46.8366C28.1966 51.1204 33.7473 60.0019 48.6303 59.3242C45.6117 62.1051 39.2901 69.5845 38.1525 77.2546C37.0654 84.5841 30.9511 88.6947 27.6361 90.0172L27.1928 90.1836C27.334 90.1341 27.482 90.0787 27.6361 90.0172L37.2071 86.425L45.3065 75.5822L47.6933 77.2477C50.7117 74.3278 56.7472 66.9042 56.7412 60.5688C57.0624 63.903 59.1368 71.5708 64.8651 75.568C65.818 74.3169 67.7231 71.0644 67.7202 68.0634L76.3164 78.0606C77.4265 74.8642 78.6917 67.5553 74.8719 63.8901L79.6415 63.053C79.0021 59.5801 75.9105 52.4689 68.6589 51.8072Z" fill="#F7B81F" stroke="black"/>
<path d="M23.7949 28.9156C22.2541 13.9116 34.2765 14.8754 40.4802 17.2329C36.6788 27.1819 45.2564 38.4566 53.0555 41.8661C60.2894 45.0285 60.0419 48.1982 58.9044 49.6594C54.2251 59.4009 46.2315 50.6335 43.3064 44.7886C38.9198 32.1247 26.7339 28.9156 23.7949 28.9156Z" fill="#F7B81F" stroke="black"/>
<path d="M255.68 74.5963C250.342 79.2684 254.768 118.501 257.648 137.533C256.802 139.768 253.105 143.06 252.769 139.865C252.775 139.866 252.555 137.629 251.918 131.285C250.377 115.948 249.648 85.4377 249.476 72.1C223.523 69.7846 207.479 53.6519 202.701 45.8749L209.38 45.8701C197.539 34.5415 194.254 25.3185 194.092 22.1231C208.595 22.7795 219.541 29.6072 223.202 32.939L224.151 27.5198C235.603 30.5126 248.979 50.5652 253.759 60.8431C248.959 30.0027 277.088 12.0596 278.519 12.4754C279.664 12.808 280.591 17.0588 280.911 19.1426C281.29 16.8082 289.967 11.4945 294.258 9.12952L309.516 1.19912C308.086 2.72845 305.038 7.78793 304.282 15.7912C303.527 23.7945 298.256 33.3015 295.716 37.0546C299.15 36.0518 302.871 36.6326 304.303 37.0484C304.313 47.7187 274.115 63.1902 259.015 69.5922C282.286 61.2392 304.337 73.0328 312.453 79.9737L306.731 82.4787C309.276 83.7273 314.273 87.3916 313.896 92.0601C313.518 96.7287 319.791 104.282 322.974 107.475C310.762 107.484 296.887 98.3246 291.476 93.7436C291.863 99.0785 288.464 102.916 286.716 104.167C272.59 98.5089 260.14 82.0956 255.68 74.5963Z" fill="#F7B81F"/>
<path d="M251.918 131.702C252.294 135.367 252.759 139.864 252.769 139.865M252.769 139.865C252.775 139.866 252.555 137.629 251.918 131.285C250.377 115.948 249.648 85.4377 249.476 72.1C223.523 69.7846 207.479 53.6519 202.701 45.8749L209.38 45.8701C197.539 34.5415 194.254 25.3185 194.092 22.1231C208.595 22.7795 219.541 29.6072 223.202 32.939L224.151 27.5198C235.603 30.5126 248.979 50.5652 253.759 60.8431C248.959 30.0027 277.088 12.0596 278.519 12.4754C279.664 12.808 280.591 17.0588 280.911 19.1426C281.29 16.8082 289.967 11.4945 294.258 9.12952L309.516 1.19912C308.086 2.72845 305.038 7.78793 304.282 15.7912C303.527 23.7945 298.257 33.3015 295.716 37.0546C299.15 36.0518 302.871 36.6326 304.303 37.0484C304.313 47.7187 274.115 63.1902 259.015 69.5922C282.286 61.2392 304.337 73.0328 312.453 79.9737L306.731 82.4787C309.276 83.7273 314.273 87.3916 313.896 92.0601C313.518 96.7287 319.791 104.282 322.974 107.475C310.762 107.484 296.887 98.3246 291.476 93.7436C291.863 99.0785 288.464 102.916 286.716 104.167C272.59 98.5089 260.14 82.0956 255.68 74.5963C250.342 79.2684 254.768 118.501 257.648 137.533C256.802 139.768 253.105 143.06 252.769 139.865Z" stroke="black"/>
<path d="M50.1163 116.426C58.4964 99.7477 70.4558 101.406 75.3879 104.32C68.9233 128.667 84.802 138.353 93.5491 139.736C79.8198 149.749 69.3664 126.416 65.8559 113.497C64.2656 113.359 60.2293 116.169 56.8063 128.509C53.3834 140.849 47.4371 141.714 44.8918 140.605C34.5928 145.947 27.2416 140.895 24.8534 137.702C29.7827 137.559 41.7362 133.105 50.1163 116.426Z" fill="#F7B81F" stroke="black"/>
<path d="M50.6867 215.626C64.4128 202.278 68.1334 168.375 68.2779 153.092L65.7286 142.691C68.4373 182.035 53.8592 207.426 46.393 215.212C46.3746 195.872 34.9132 182.709 29.1848 178.546L28.2362 184.382C22.8817 172.048 12.0012 167.86 7.23026 167.308C5.33223 177.979 12.4964 187.033 16.3158 190.226C14.4063 188.893 11.0665 188.284 9.63523 188.146C14.2303 204.482 31.2881 216.612 39.2425 220.636C17.4952 226.654 4.76224 247.614 1.11417 257.343L8.2666 254.003C11.326 260.67 7.01242 272.899 4.47322 278.181C15.5409 278.506 24.3381 265.801 27.3533 259.408C30.0254 260.073 31.9724 267.463 32.6118 271.075C37.1882 267.737 44.983 237.443 48.3083 222.713C74.5624 240.617 102.234 243.932 104.141 242.68C105.666 241.678 104.135 236.983 103.179 234.761C106.042 235.454 112.435 236.422 115.105 234.752C117.775 233.083 125.122 233.217 128.461 233.492C123.873 224.159 109.685 220.168 103.165 219.339C101.893 219.479 100.112 219.508 103.164 218.506C106.216 217.503 109.202 213.916 110.314 212.248C89.3178 205.928 61.8141 211.867 50.6867 215.626Z" fill="#F7B81F" stroke="black"/>
</svg>
