<svg width="140" height="118" viewBox="0 0 140 118" fill="none" xmlns="http://www.w3.org/2000/svg">
<path d="M43.6659 0V28.5359C50.5154 10.3689 62.5022 1.2854 79.626 1.2854C86.3043 1.2854 91.8695 3.25635 96.3217 7.19826C100.774 11.1402 103 16.4532 103 23.1373C103 27.0792 101.63 30.5069 98.8903 33.4205C96.3218 36.1627 93.0682 37.5338 89.1297 37.5338C85.5337 37.5338 82.5371 36.4198 80.1397 34.1917C77.7424 31.7923 76.5437 28.793 76.5437 25.1939C76.5437 18.6812 79.9685 13.7967 86.818 10.5403C84.5919 9.16921 81.8521 8.48366 78.5986 8.48366C67.8105 8.48366 59.2486 13.7966 52.9128 24.4226C46.7482 34.8773 43.6659 46.0174 43.6659 57.8431V111.059H65.4988V118H0V111.059H19.2644V10.5403H0V3.59911H19.2644L43.6659 0Z" fill="#F7B81F"/>
<rect x="137" y="18" width="3" height="82" rx="1.5" fill="#F7B81F"/>
</svg>
