<svg width="363" height="564" viewBox="0 0 363 564" fill="none" xmlns="http://www.w3.org/2000/svg">
<circle cx="76.1363" cy="63.2331" r="61.5804" transform="rotate(-0.734591 76.1363 63.2331)" fill="#182846"/>
<path d="M274.5 120.5L264 112M154.5 74L135.5 72" stroke="black" stroke-width="3"/>
<circle cx="214.417" cy="80.4089" r="61.5804" transform="rotate(-0.734591 214.417 80.4089)" fill="#182846"/>
<circle cx="326.308" cy="150.712" r="61.5804" transform="rotate(-0.734591 326.308 150.712)" fill="#182846"/>
<path d="M278.562 321.853L339.574 382.656" stroke="black" stroke-width="3"/>
<circle cx="388.057" cy="416.549" r="61.5804" transform="rotate(-0.734591 388.057 416.549)" fill="#182846"/>
<circle cx="233.399" cy="283.178" r="61.5804" transform="rotate(-0.734591 233.399 283.178)" fill="#182846"/>
<path d="M71.3604 368.434L91.7117 320.16L108.686 325.015L125.66 329.869L131.374 353.464L122.209 377.22L154.805 386.976L159.782 405.847L143.983 439.861L104.017 435.639L50.8454 562.1L10.1682 555.183L3.18771 538.366L45.6597 426.92L17.2344 420.521L11.5633 400.307L32.036 361.499L71.3604 368.434Z" fill="#1F3155"/>
<path d="M125.66 329.869L109.306 373.358L122.209 377.22M125.66 329.869L131.374 353.464L122.209 377.22M125.66 329.869L108.686 325.015M154.805 386.976L137.67 422.36M154.805 386.976L122.209 377.22M154.805 386.976L159.782 405.847L143.983 439.861M137.67 422.36L97.0192 417.47M137.67 422.36L143.983 439.861M97.0192 417.47L41.8271 544.634M97.0192 417.47L104.017 435.639M41.8271 544.634L3.18771 538.366M41.8271 544.634L50.8454 562.1M3.18771 538.366L10.1682 555.183L50.8454 562.1M3.18771 538.366L45.6597 426.92M11.5633 400.307L51.6161 411.29L45.6597 426.92M11.5633 400.307L32.036 361.499L71.3604 368.434L91.7117 320.16L108.686 325.015M11.5633 400.307L17.2344 420.521L45.6597 426.92M143.983 439.861L104.017 435.639M104.017 435.639L50.8454 562.1M108.686 325.015C107.788 307.782 119.706 277.064 174.557 292.05" stroke="#111C32" stroke-width="3"/>
<path d="M106.047 343.035L103.277 341.904L95.9897 359.734L98.7594 360.865L98.4553 361.609L90.0005 358.156L90.3047 357.412L93.0743 358.543L100.362 340.713L97.5924 339.581L97.8965 338.837L106.351 342.291L106.047 343.035Z" fill="white"/>
<path d="M134.129 394.23L134.767 394.557L131.799 400.345L131.161 400.018C132.236 397.417 132.092 395.332 130.729 393.762C130.27 393.299 129.789 392.938 129.284 392.68C128.528 392.292 127.762 392.138 126.985 392.217C126.209 392.296 125.5 392.534 124.859 392.931C124.226 393.312 123.601 393.832 122.985 394.49C122.368 395.149 121.844 395.803 121.412 396.452C120.979 397.102 120.582 397.779 120.22 398.486C119.42 400.046 118.89 401.64 118.631 403.27C118.372 404.9 118.619 406.302 119.37 407.475C119.767 408.135 120.313 408.642 121.006 408.997C122.25 409.635 123.47 409.7 124.665 409.193C125.885 408.677 126.906 407.791 127.73 406.533L128.368 406.86L125.577 412.304L124.962 411.989L125.784 409.455C124.001 410.449 122.196 410.478 120.369 409.542C118.856 408.767 117.764 407.678 117.09 406.275C116.425 404.856 116.162 403.373 116.299 401.826C116.444 400.262 116.908 398.717 117.691 397.19C118.491 395.63 119.5 394.322 120.718 393.266C121.944 392.194 123.335 391.518 124.892 391.237C126.456 390.94 127.995 391.179 129.507 391.954C131.319 392.883 132.383 394.319 132.698 396.264L134.129 394.23Z" fill="white"/>
<path d="M43.0816 512.633L43.7196 512.96L40.7512 518.748L40.1132 518.421C41.1884 515.82 41.0443 513.735 39.6809 512.165C39.2221 511.702 38.7407 511.341 38.2366 511.083C37.4804 510.695 36.7141 510.541 35.9375 510.62C35.161 510.699 34.452 510.937 33.8107 511.334C33.1778 511.715 32.5532 512.235 31.9369 512.893C31.3206 513.552 30.7962 514.206 30.3637 514.856C29.9313 515.505 29.534 516.183 29.1719 516.889C28.3719 518.449 27.8425 520.044 27.5835 521.673C27.3246 523.303 27.5707 524.705 28.322 525.878C28.7196 526.538 29.265 527.045 29.9581 527.4C31.2026 528.038 32.4224 528.103 33.6176 527.596C34.8369 527.081 35.8585 526.194 36.6824 524.937L37.3204 525.264L34.5288 530.707L33.9144 530.392L34.7364 527.858C32.9534 528.853 31.1482 528.881 29.3209 527.945C27.8085 527.17 26.7157 526.081 26.0425 524.678C25.3776 523.259 25.1137 521.776 25.2507 520.229C25.3961 518.665 25.8603 517.12 26.6435 515.593C27.4435 514.033 28.4523 512.725 29.6701 511.67C30.8962 510.598 32.2874 509.921 33.8438 509.64C35.4086 509.343 36.9472 509.582 38.4595 510.357C40.2711 511.286 41.3347 512.722 41.6502 514.667L43.0816 512.633Z" fill="white"/>
<path d="M35.8318 392.643L35.5485 393.317L29.8751 390.935L30.1584 390.261L32.6911 391.031L40.5074 385.737L38.9385 374.946L36.5107 373.927L36.7939 373.253L44.5374 376.504L44.2541 377.178L41.8263 376.159L43.0333 384.448L49.6182 379.724L47.2697 378.445L47.5529 377.771L53.3286 380.196L53.0453 380.87L50.5127 380.1L43.159 385.294L44.8019 396.41L47.2297 397.429L46.9465 398.103L39.203 394.852L39.4863 394.178L41.9141 395.197L40.6482 386.619L33.5088 391.374L35.8318 392.643Z" fill="white"/>
</svg>
