<svg width="1011" height="327" viewBox="0 0 1011 327" fill="none" xmlns="http://www.w3.org/2000/svg">
<path d="M48.2989 13.8891C56.0153 7.54792 79.5506 -1.32975 111.96 13.8891L114.9 30.5357C198.77 9.13418 667.546 9.60977 852.741 30.5357V16.268C841.167 -2.75589 981.221 -2.75554 1009 16.268C1005.14 59.8635 991.638 163.224 968.489 227.905C964.63 240.587 956.914 273.086 956.914 301.621C947.268 306.377 919.875 313.035 887.466 301.621L886.247 292.109C669.472 287.353 221.21 282.122 162.366 299.243L164.046 308.755C152.471 334.913 19.3621 325.401 2 308.755L48.2989 13.8891Z" fill="#F7B81F"/>
<path d="M48.2989 13.8891C56.0153 7.54792 79.5506 -1.32975 111.96 13.8891M48.2989 13.8891C71.4483 21.4978 100.385 17.0594 111.96 13.8891M48.2989 13.8891L2 308.755C19.3621 325.401 152.471 334.913 164.046 308.755L162.366 299.243M111.96 13.8891L114.9 30.5357M114.9 30.5357C198.77 9.13418 667.546 9.60977 852.741 30.5357M114.9 30.5357L162.366 299.243M852.741 30.5357V16.268M852.741 30.5357L886.247 292.109M852.741 16.268C841.167 -2.75589 981.221 -2.75554 1009 16.268M852.741 16.268C889.78 25.7801 1003.21 21.0236 1009 16.268M1009 16.268C1005.14 59.8635 991.638 163.224 968.489 227.905C964.63 240.587 956.914 273.086 956.914 301.621C947.268 306.377 919.875 313.035 887.466 301.621L886.247 292.109M886.247 292.109C669.472 287.353 221.21 282.122 162.366 299.243" stroke="#DFA71F" stroke-width="3"/>
<path d="M993.277 18.7619C965.946 11.1548 905.427 -0.509418 882 13.6905C882 15.3812 893.713 18.2554 940.567 16.2266" stroke="#DFA71F" stroke-width="3"/>
</svg>
