<svg width="1011" height="327" viewBox="0 0 1011 327" fill="none" xmlns="http://www.w3.org/2000/svg">
<path d="M48.2989 13.8889C56.0153 7.5477 79.5506 -1.32997 111.96 13.8889L114.9 30.5355C198.77 9.13397 667.546 9.60956 852.741 30.5355V16.2678C841.167 -2.75611 981.221 -2.75576 1009 16.2678C1005.14 59.8633 991.638 163.224 968.489 227.905C964.63 240.587 956.914 273.086 956.914 301.621C947.268 306.377 919.875 313.035 887.466 301.621L886.247 292.109C669.472 287.353 221.21 282.122 162.366 299.243L164.046 308.755C152.471 334.913 19.3621 325.401 2 308.755L48.2989 13.8889Z" fill="#F7B81F"/>
<path d="M48.2989 13.8889C56.0153 7.5477 79.5506 -1.32997 111.96 13.8889M48.2989 13.8889C71.4483 21.4976 100.385 17.0592 111.96 13.8889M48.2989 13.8889L2 308.755C19.3621 325.401 152.471 334.913 164.046 308.755L162.366 299.243M111.96 13.8889L114.9 30.5355M114.9 30.5355C198.77 9.13397 667.546 9.60956 852.741 30.5355M114.9 30.5355L162.366 299.243M852.741 30.5355V16.2678M852.741 30.5355L886.247 292.109M852.741 16.2678C841.167 -2.75611 981.221 -2.75576 1009 16.2678M852.741 16.2678C889.78 25.7799 1003.21 21.0234 1009 16.2678M1009 16.2678C1005.14 59.8633 991.638 163.224 968.489 227.905C964.63 240.587 956.914 273.086 956.914 301.621C947.268 306.377 919.875 313.035 887.466 301.621L886.247 292.109M886.247 292.109C669.472 287.353 221.21 282.122 162.366 299.243" stroke="#DFA71F" stroke-width="3"/>
<path d="M994.277 18.7634C966.946 11.1563 906.427 -0.507953 883 13.692C883 15.3827 894.713 18.2569 941.567 16.228" stroke="#DFA71F" stroke-width="3"/>
</svg>
