<svg width="575" height="746" viewBox="0 0 575 746" fill="none" xmlns="http://www.w3.org/2000/svg">
<path d="M-64.3813 743.866C-69.8813 685.906 -79.4281 564.62 -73.6159 543.152C-69.1284 526.577 -67.6943 467.045 -67.4492 420.48C-67.3803 411.055 -122.484 386.33 -150.045 375.146L-207.132 338.158C-169.112 275.895 -92.0018 151.36 -87.7179 151.323C-64.2927 114.709 -5.46207 39.6654 42.4589 32.3969L68.567 17.0118L90.4125 4.13844C109.601 14.3244 167.525 28.3161 245.706 2.79449L265.607 12.7958C282.448 19.7895 316.457 34.5235 317.768 37.5107C319.407 41.2447 388.717 67.4174 391.46 74.89C394.202 82.3626 436.905 128.042 440.169 133.904C442.78 138.593 528.691 255.399 571.32 313.216L439.333 408.598C441.691 516.025 445.351 732.601 441.126 739.491L-33.2431 743.597L-64.3813 743.866Z" fill="#1F3155"/>
<path d="M-32.0264 150.841L-38.1269 179.273M-38.1269 179.273L-50.5582 237.209L-67.4951 384.069C-67.4082 394.117 -67.3769 406.733 -67.4492 420.48M-38.1269 179.273C-52.8723 169.941 -83.4339 151.286 -87.7179 151.323M-87.7179 151.323C-92.0018 151.36 -169.112 275.895 -207.132 338.158L-150.045 375.146C-122.484 386.33 -67.3803 411.055 -67.4492 420.48M-87.7179 151.323C-64.2927 114.709 -5.46207 39.6654 42.4589 32.3969L90.4125 4.13844C109.601 14.3244 167.525 28.3161 245.706 2.79449L265.607 12.7958M-67.4492 420.48C-67.6943 467.045 -69.1284 526.576 -73.6159 543.152C-79.4281 564.62 -69.8813 685.906 -64.3813 743.866L-33.2431 743.597M265.607 12.7958C282.448 19.7895 316.457 34.5235 317.768 37.5107C319.407 41.2446 388.717 67.4174 391.46 74.89C394.202 82.3626 436.905 128.042 440.169 133.904M265.607 12.7958C194.406 52.8213 104.219 31.8743 68.567 17.0118M440.169 133.904C442.78 138.593 528.691 255.399 571.32 313.216L439.333 408.598M440.169 133.904C433.251 126.681 413.443 152.162 404.403 165.805M439.333 408.598C441.691 516.025 445.351 732.601 441.126 739.491L-33.2431 743.597M439.333 408.598C433.082 345.747 419.115 229.094 404.403 165.805M391.914 127.36C396.032 134.307 400.247 147.927 404.403 165.805M-33.2431 743.597C-43.143 634.093 -56.0505 444.155 -28.4817 560.431" stroke="#111C32" stroke-width="3"/>
<path d="M163.018 350.217L166.196 346.984C175.421 357.661 188.019 357.114 193.166 355.506L190.806 362.953C171.706 374.688 164.322 359.352 163.018 350.217Z" fill="#F7B81F" stroke="#F7B81F"/>
<path d="M193.931 347.786C184.508 343.115 173.732 344.626 169.521 345.965C175.975 354.54 188.353 353.724 193.735 352.244L193.931 347.786Z" fill="#F7B81F" stroke="#F7B81F"/>
<path d="M182.206 334.162C179.395 334.624 173.16 339.947 170.394 342.551C176.997 339.367 188.846 342.495 193.945 344.458L193.847 342.191C194.242 342.631 194.81 343.199 193.923 341.956C192.815 340.402 185.719 333.585 182.206 334.162Z" fill="#F7B81F" stroke="#F7B81F"/>
<path d="M178.206 331.472C171.731 327.713 167.301 327.11 165.895 327.279C162.509 333.5 162.711 341.769 163.235 345.126C164.892 341.421 173.906 334.48 178.206 331.472Z" fill="#F7B81F" stroke="#F7B81F"/>
<path d="M191.998 335.345C180.013 323.692 162.636 321.424 155.445 321.747C156.669 318.609 174.689 304.851 183.436 312.671C190.433 318.927 192.059 330.394 191.998 335.345Z" fill="#F7B81F" stroke="#F7B81F"/>
<path d="M187.34 312.012C199.278 325.48 196.711 349.845 193.935 360.345C205.562 352.302 210.791 341.619 211.953 337.284C209.861 319.603 194.673 313.069 187.34 312.012Z" fill="#F7B81F" stroke="#F7B81F"/>
<path d="M171.89 369.838C197.233 371.057 210.688 350.766 214.247 340.469C215.56 369.288 196.56 377.65 186.896 378.229C181.404 379.652 174.604 373.228 171.89 369.838Z" fill="#F7B81F" stroke="#F7B81F"/>
<path d="M160.725 326.626C157.585 325.153 153.213 325.91 151.42 326.472C134.088 356.563 160.648 380.958 177.69 380.654C153.628 361.225 156.355 336.54 160.725 326.626Z" fill="#F7B81F" stroke="#F7B81F"/>
<path d="M216.497 383.516C207.974 381.713 204.517 378.512 203.853 377.137C199.349 380.615 190.768 382.879 188.278 384.307C186.287 385.45 182.737 394.518 181.212 398.909C180.429 395.163 175.954 387.645 173.814 384.354C166.49 383.605 156.152 376.195 151.899 372.583C148.5 377.428 147.058 382.397 146.761 384.276C146.029 393.6 170.391 413.438 182.664 422.192C184.033 417.802 187.2 413.319 201.334 402.252C212.642 393.399 216.154 386.072 216.497 383.516Z" fill="#F7B81F"/>
<path d="M217.372 309.042C215.509 317.55 212.283 320.984 210.903 321.638C214.35 326.166 216.553 334.762 217.965 337.261C219.094 339.26 228.137 342.873 232.518 344.429C228.767 345.186 221.216 349.607 217.91 351.723C217.108 359.041 209.624 369.324 205.983 373.552C210.804 376.983 215.764 378.461 217.64 378.77C226.961 379.568 246.974 355.35 255.815 343.141C251.434 341.741 246.973 338.543 236.004 324.334C227.229 312.966 219.926 309.403 217.372 309.042Z" fill="#F7B81F"/>
<path d="M144.197 308.029C152.678 310.014 156.066 313.289 156.7 314.678C161.278 311.297 169.906 309.219 172.426 307.844C174.442 306.745 178.185 297.755 179.805 293.398C180.507 297.16 184.819 304.772 186.887 308.109C194.194 309.016 204.37 316.646 208.545 320.348C212.046 315.577 213.596 310.641 213.932 308.769C214.865 299.462 190.935 279.105 178.854 270.089C177.39 274.448 174.128 278.863 159.759 289.623C148.264 298.231 144.595 305.48 144.197 308.029Z" fill="#F7B81F"/>
<path d="M144.514 380.809C146.128 372.25 149.253 368.724 150.613 368.03C147.035 363.604 144.583 355.076 143.099 352.619C141.913 350.654 132.767 347.306 128.343 345.878C132.071 345.013 139.49 340.374 142.733 338.162C143.321 330.824 150.502 320.327 154.019 315.995C149.099 312.705 144.099 311.373 142.214 311.118C132.874 310.592 113.576 335.383 105.094 347.844C109.514 349.116 114.066 352.182 125.444 366.067C134.546 377.174 141.95 380.523 144.514 380.809Z" fill="#F7B81F"/>
<path d="M169.775 207.53L168.755 207.539L168.685 199.437L190.104 199.251L190.175 207.353L189.155 207.362L187.811 200.502L181.275 200.559L181.496 226.097L185.085 226.066L185.094 227.138L174.139 227.233L174.13 226.16L177.719 226.129L177.498 200.592L170.962 200.648L169.775 207.53Z" fill="#F7B81F"/>
<path d="M206.902 210.475L205.85 210.274L207.369 202.315L229.462 206.531L227.943 214.49L226.891 214.289L226.855 207.287L220.114 206.001L215.326 231.087L219.027 231.793L218.826 232.846L207.527 230.69L207.728 229.637L211.429 230.343L216.217 205.257L209.476 203.971L206.902 210.475Z" fill="#F7B81F"/>
<path d="M123.712 241.434L105.591 249.791L105.141 248.817L108.537 247.251L97.7727 223.916L94.3772 225.482L93.928 224.508L104.258 219.744L104.707 220.718L101.311 222.284L112.075 245.619L121.19 241.416L119.181 233.114L120.11 232.685L123.712 241.434Z" fill="#F7B81F"/>
<path d="M59.4846 268.309L57.8796 271.764L81.1898 282.589L82.7948 279.133L83.7676 279.585L78.8681 290.133L77.8954 289.681L79.5004 286.226L68.0794 280.922L62.4873 292.961L73.9082 298.264L75.5132 294.809L76.486 295.261L71.5865 305.808L70.6138 305.356L72.2188 301.901L48.9086 291.077L47.3036 294.532L46.3308 294.08L51.2303 283.533L52.203 283.984L50.598 287.44L61.5146 292.509L67.1067 280.47L56.1902 275.401L54.5852 278.856L53.6124 278.404L58.5118 267.857L59.4846 268.309Z" fill="#F7B81F"/>
<path d="M262.434 225.54L259.152 223.604L246.091 245.737L249.373 247.673L248.828 248.596L238.81 242.686L239.355 241.763L242.637 243.699L249.036 232.855L237.603 226.11L231.203 236.953L234.485 238.889L233.94 239.813L223.922 233.903L224.467 232.98L227.749 234.916L240.81 212.783L237.528 210.847L238.073 209.924L248.091 215.834L247.546 216.757L244.264 214.821L238.148 225.186L249.581 231.931L255.698 221.567L252.416 219.631L252.961 218.707L262.979 224.617L262.434 225.54Z" fill="#F7B81F"/>
<path d="M162.574 228.634L151.02 230.801L150.823 229.747L154.481 229.06L149.743 203.803L146.084 204.49L145.886 203.436L164.834 199.882L166.336 207.884L165.296 208.079L162.683 201.376L153.594 203.081L155.864 215.183L161.872 214.056L161.863 209.329L162.902 209.134L164.807 219.284L163.805 219.472L162.07 215.11L156.062 216.237L158.333 228.338L162.376 227.58L162.574 228.634Z" fill="#F7B81F"/>
<path d="M148.079 232.306L127.935 239.589L127.57 238.58L131.265 237.244L122.525 213.078L118.831 214.414L118.466 213.405L137.599 206.488L140.368 214.145L139.318 214.525L135.592 208.354L126.414 211.672L130.466 222.878L136.183 220.811L135.419 216.145L136.469 215.766L139.981 225.477L138.97 225.843L136.548 221.819L130.831 223.886L135.154 235.838L145.342 232.155L144.125 224.655L145.175 224.275L148.079 232.306Z" fill="#F7B81F"/>
<path d="M266.202 265.897L251.609 251.717L252.356 250.948L255.033 253.549L272.945 235.12L270.268 232.519L271.016 231.75L284.877 245.218L279.202 251.057L278.441 250.318L282.411 244.317L275.762 237.857L267.457 246.402L271.598 250.426L275.429 247.668L276.19 248.408L268.991 255.813L268.259 255.102L270.851 251.195L266.709 247.171L257.85 256.286L265.231 263.458L271.394 259.034L272.155 259.773L266.202 265.897Z" fill="#F7B81F"/>
<path d="M97.2162 258.405L84.6069 275.719L83.7398 275.087L86.0523 271.912L65.2755 256.785L62.963 259.96L62.0959 259.329L74.0724 242.885L80.6554 247.678L79.9982 248.58L73.4545 245.555L67.7097 253.443L77.3435 260.457L80.9218 255.544L77.6758 252.106L78.3331 251.204L86.6824 257.283L86.0495 258.152L81.7889 256.175L78.2105 261.088L88.4866 268.57L94.8643 259.813L89.6547 254.281L90.312 253.378L97.2162 258.405Z" fill="#F7B81F"/>
<path d="M288.065 275.912C286.763 273.604 286.427 271.317 287.058 269.05C287.732 266.795 289.209 265.023 291.49 263.736C293.959 262.342 296.473 261.968 299.031 262.612C301.631 263.268 303.612 264.803 304.976 267.219C306.536 269.983 306.792 272.598 305.743 275.066C304.693 277.533 302.773 279.554 299.982 281.13C295.634 283.583 291.435 284.326 287.384 283.356C283.348 282.414 279.729 280.015 276.527 276.161L277.569 275.467C279.239 277.673 281.645 279.146 284.787 279.885C287.903 280.639 290.831 280.561 293.573 279.651L293.523 279.467C292.433 279.48 291.395 279.146 290.409 278.465C289.422 277.783 288.641 276.932 288.065 275.912ZM303.911 267.872C303.26 266.718 302.287 266.029 300.992 265.804C299.724 265.564 298.52 265.625 297.379 265.986C296.264 266.332 295.13 266.83 293.976 267.481C292.929 268.072 291.972 268.789 291.103 269.633C290.277 270.489 289.666 271.506 289.27 272.685C288.9 273.849 289.018 274.968 289.624 276.041C290.17 277.007 291.034 277.598 292.218 277.815C293.444 278.043 294.629 278.011 295.774 277.719C296.945 277.412 298.014 276.986 298.98 276.44C299.732 276.016 300.451 275.504 301.139 274.904C301.842 274.33 302.512 273.669 303.151 272.919C303.789 272.17 304.189 271.342 304.351 270.437C304.512 269.532 304.366 268.677 303.911 267.872Z" fill="#F7B81F"/>
<path d="M297.418 297.361C296.467 294.888 296.469 292.576 297.424 290.425C298.42 288.293 300.14 286.756 302.585 285.815C305.232 284.797 307.773 284.794 310.209 285.805C312.685 286.833 314.421 288.642 315.417 291.23C316.557 294.192 316.428 296.817 315.03 299.105C313.632 301.393 311.437 303.112 308.445 304.263C303.785 306.055 299.523 306.176 295.657 304.626C291.802 303.104 288.572 300.203 285.968 295.922L287.099 295.388C288.429 297.815 290.595 299.623 293.595 300.813C296.567 302.014 299.476 302.364 302.321 301.864L302.298 301.675C301.218 301.529 300.24 301.047 299.364 300.228C298.487 299.41 297.839 298.454 297.418 297.361ZM314.269 291.721C313.793 290.485 312.931 289.661 311.683 289.249C310.464 288.827 309.263 288.711 308.082 288.901C306.929 289.08 305.734 289.408 304.497 289.884C303.376 290.315 302.323 290.885 301.341 291.593C300.399 292.319 299.645 293.236 299.081 294.344C298.546 295.442 298.499 296.566 298.942 297.716C299.34 298.752 300.109 299.463 301.249 299.85C302.428 300.255 303.606 300.396 304.781 300.274C305.984 300.141 307.104 299.876 308.139 299.477C308.945 299.168 309.731 298.766 310.499 298.273C311.278 297.808 312.038 297.251 312.779 296.603C313.52 295.955 314.037 295.195 314.329 294.323C314.621 293.451 314.601 292.584 314.269 291.721Z" fill="#F7B81F"/>
<path d="M92.6008 488.065L93.5605 488.057L91.3871 494.347L95.4654 494.312L95.1647 495.205L91.0521 495.241L87.5413 505.415C87.3186 506.079 87.2094 506.663 87.2137 507.165C87.2171 507.554 87.3457 507.895 87.5996 508.19C87.8307 508.485 88.2432 508.63 88.8373 508.625C89.8197 508.616 90.7184 508.163 91.5332 507.265C92.348 506.367 92.9904 505.356 93.4605 504.233L94.1859 504.878C93.6252 506.093 92.9826 507.093 92.2582 507.876C91.5338 508.659 90.6137 509.272 89.4979 509.716C88.951 509.88 88.4147 509.965 87.8892 509.97C86.8154 509.979 85.922 509.724 85.2092 509.205C84.519 508.662 84.1694 507.866 84.1603 506.815C84.1575 506.495 84.1889 506.163 84.2545 505.82C84.2748 505.523 84.3631 505.168 84.5195 504.756L87.7963 495.269L85.2944 495.291L85.5952 494.397L88.1313 494.375L92.6008 488.065Z" fill="#F7B81F"/>
<path d="M105.44 493.883C107.36 493.866 108.86 494.367 109.943 495.386C111.026 496.404 111.575 497.85 111.592 499.724C111.614 502.282 110.72 504.609 108.91 506.703C107.1 508.775 104.938 509.822 102.425 509.844C100.575 509.86 99.0854 509.404 97.9578 508.477C96.853 507.55 96.2927 506.184 96.2771 504.38C96.2534 501.638 97.1121 499.209 98.8532 497.092C100.594 494.975 102.79 493.906 105.44 493.883ZM99.6083 505.139C99.6174 506.19 99.7961 507.034 100.144 507.67C100.517 508.49 101.24 508.894 102.314 508.885C103.479 508.875 104.548 508.226 105.519 506.938C106.49 505.651 107.209 504.228 107.676 502.67C108.142 501.09 108.37 499.694 108.359 498.484C108.345 496.839 107.878 495.712 106.959 495.103C106.637 494.923 106.237 494.835 105.757 494.839C104.523 494.85 103.409 495.488 102.415 496.753C101.443 498.018 100.724 499.418 100.258 500.953C99.8138 502.487 99.5974 503.883 99.6083 505.139Z" fill="#F7B81F"/>
<path d="M133.754 493.638C134.485 493.631 135.07 493.855 135.508 494.308C135.946 494.761 136.168 495.353 136.175 496.084C136.179 496.632 136.024 497.113 135.707 497.527C135.391 497.919 134.958 498.116 134.41 498.121C133.953 498.125 133.575 497.991 133.276 497.72C132.999 497.425 132.858 497.049 132.854 496.593C132.846 495.633 133.355 495.012 134.381 494.729C134.358 494.706 134.312 494.684 134.243 494.661C134.197 494.639 134.151 494.617 134.105 494.594C133.968 494.55 133.808 494.528 133.625 494.53C132.848 494.536 132.041 494.955 131.202 495.784C130.387 496.614 129.642 497.683 128.968 498.991C128.317 500.299 127.767 501.48 127.319 502.535C126.894 503.566 126.514 504.575 126.18 505.56L124.876 509.307L121.62 509.335L126.603 495.002L123.518 495.028L123.853 494.066L129.573 493.605C129.585 495.067 129.098 496.831 128.11 498.895L128.214 498.963C128.573 498.229 128.888 497.632 129.158 497.173C129.451 496.691 129.823 496.15 130.275 495.553C130.749 494.932 131.282 494.459 131.874 494.134C132.465 493.809 133.092 493.643 133.754 493.638Z" fill="#F7B81F"/>
<path d="M146.922 495.923C146.918 495.443 146.801 495.078 146.57 494.829C146.317 494.58 145.938 494.457 145.436 494.462C144.248 494.472 143.124 495.327 142.065 497.027C141.006 498.727 140.368 500.32 140.153 501.807C140.951 501.686 141.533 501.566 141.898 501.449C143.152 501.141 144.3 500.457 145.341 499.397C146.406 498.314 146.933 497.156 146.922 495.923ZM145.736 493.534C146.833 493.524 147.794 493.733 148.621 494.16C149.447 494.564 149.864 495.257 149.873 496.24C149.881 497.222 149.546 498.127 148.868 498.956C148.19 499.784 147.316 500.454 146.246 500.966C145.199 501.455 144.14 501.852 143.069 502.159C142.02 502.442 141.005 502.633 140.024 502.733C139.939 503.511 139.898 504.105 139.902 504.516C139.911 505.613 140.148 506.513 140.611 507.217C141.074 507.922 141.819 508.269 142.848 508.26C143.967 508.251 144.957 507.797 145.818 506.898C146.701 505.977 147.343 504.909 147.744 503.694L148.469 504.305C147.956 505.794 147.11 507.035 145.93 508.028C144.773 508.998 143.441 509.489 141.933 509.502C140.219 509.517 138.902 509.06 137.98 508.131C137.058 507.202 136.589 505.881 136.574 504.168C136.551 501.427 137.398 498.975 139.115 496.813C140.856 494.65 143.063 493.557 145.736 493.534Z" fill="#F7B81F"/>
<path d="M159.212 493.417C159.76 493.413 160.309 493.499 160.859 493.677C161.524 493.946 162.099 494.352 162.583 494.896C163.091 495.417 163.347 495.997 163.353 496.637C163.357 497.185 163.201 497.655 162.885 498.046C162.591 498.414 162.181 498.601 161.656 498.605C161.222 498.609 160.855 498.464 160.555 498.169C160.256 497.875 160.104 497.51 160.1 497.076C160.092 496.094 160.578 495.473 161.558 495.213C161.119 494.623 160.351 494.333 159.254 494.342C158.432 494.349 157.771 494.561 157.272 494.976C156.772 495.369 156.526 495.954 156.533 496.73C156.537 497.187 156.689 497.666 156.991 498.166C157.292 498.666 157.558 499.04 157.789 499.29C158.042 499.539 158.422 499.89 158.929 500.342C159.827 501.157 160.507 501.871 160.97 502.483C161.455 503.119 161.701 503.848 161.708 504.67C161.721 506.178 161.149 507.337 159.99 508.146C158.855 508.956 157.51 509.367 155.957 509.381C155.066 509.388 154.184 509.202 153.313 508.821C152.464 508.44 151.865 507.885 151.516 507.157C151.284 506.771 151.166 506.338 151.162 505.858C151.157 505.31 151.302 504.852 151.596 504.484C151.912 504.092 152.333 503.895 152.859 503.89C153.339 503.886 153.728 504.02 154.028 504.291C154.35 504.563 154.513 504.938 154.517 505.418C154.525 506.263 154.028 506.93 153.026 507.418C153.649 508.121 154.566 508.467 155.777 508.457C156.646 508.449 157.375 508.226 157.965 507.787C158.555 507.348 158.847 506.717 158.84 505.894C158.835 505.323 158.625 504.777 158.209 504.255C157.747 503.688 157.136 503.031 156.375 502.283C155.546 501.468 154.888 500.72 154.402 500.039C153.917 499.38 153.67 498.663 153.664 497.886C153.659 497.338 153.769 496.823 153.993 496.341C154.373 495.401 155.053 494.687 156.031 494.199C157.032 493.688 158.092 493.427 159.212 493.417Z" fill="#F7B81F"/>
<path d="M173.501 493.294C174.667 493.284 175.709 493.572 176.628 494.158C177.547 494.744 178.011 495.585 178.021 496.681C178.026 497.253 177.87 497.745 177.554 498.159C177.237 498.55 176.805 498.748 176.256 498.753C175.799 498.757 175.433 498.612 175.156 498.317C174.856 498.023 174.705 497.658 174.701 497.224C174.697 496.745 174.842 496.343 175.136 496.021C175.43 495.676 175.817 495.455 176.296 495.36C175.947 494.655 175.27 494.306 174.264 494.315C173.031 494.326 171.927 494.918 170.955 496.092C170.006 497.265 169.32 498.573 168.898 500.016C168.477 501.459 168.271 502.809 168.282 504.065C168.292 505.162 168.551 506.062 169.06 506.766C169.568 507.447 170.348 507.782 171.399 507.773C172.427 507.764 173.36 507.322 174.198 506.447C175.059 505.571 175.667 504.584 176.023 503.484L176.748 504.06C176.326 505.503 175.48 506.733 174.209 507.749C172.961 508.742 171.594 509.245 170.109 509.258C168.51 509.272 167.249 508.792 166.327 507.817C165.404 506.82 164.936 505.533 164.922 503.957C164.907 502.244 165.225 500.596 165.874 499.014C166.522 497.409 167.516 496.064 168.855 494.979C170.216 493.87 171.765 493.309 173.501 493.294Z" fill="#F7B81F"/>
<path d="M192.487 493.472L195.742 493.444C195.475 494.2 194.851 496.022 193.87 498.909C193.781 499.184 193.648 499.562 193.469 500.043C193.313 500.502 193.201 500.822 193.134 501.006C193.045 501.281 192.912 501.647 192.733 502.106C192.577 502.564 192.488 502.839 192.466 502.931C192.332 503.32 192.165 503.824 191.965 504.443C191.786 504.947 191.697 505.233 191.698 505.302C191.565 505.76 191.5 506.172 191.503 506.537C191.508 507.154 191.831 507.46 192.471 507.454C193.202 507.448 193.861 507.054 194.448 506.272C195.036 505.49 195.485 504.652 195.797 503.758C195.997 503.071 196.107 502.568 196.127 502.248L196.92 502.789C196.66 504.368 195.998 505.813 194.935 507.124C193.895 508.413 192.644 509.063 191.182 509.076C190.36 509.083 189.695 508.906 189.19 508.545C188.684 508.161 188.427 507.58 188.421 506.804C188.419 506.667 188.44 506.415 188.483 506.049C188.505 505.958 188.526 505.843 188.548 505.706C188.592 505.546 188.614 505.431 188.614 505.363C187.196 507.865 185.459 509.125 183.402 509.143C182.443 509.151 181.652 508.873 181.03 508.307C180.408 507.741 180.094 506.99 180.085 506.053C180.079 505.299 180.198 504.522 180.442 503.72L183.619 494.508L180.534 494.535L180.869 493.573L187.309 493.174L183.697 503.555C183.34 504.586 183.165 505.41 183.17 506.027C183.174 506.506 183.314 506.871 183.591 507.12C183.867 507.391 184.211 507.525 184.622 507.522C185.696 507.513 186.673 506.91 187.554 505.715C188.435 504.496 189.12 503.188 189.611 501.79L192.487 493.472Z" fill="#F7B81F"/>
<path d="M209.508 495.381C209.504 494.901 209.387 494.537 209.156 494.287C208.903 494.038 208.524 493.916 208.022 493.92C206.834 493.931 205.71 494.786 204.651 496.485C203.592 498.185 202.954 499.778 202.739 501.265C203.537 501.144 204.119 501.025 204.483 500.907C205.738 500.6 206.886 499.916 207.927 498.856C208.992 497.773 209.519 496.615 209.508 495.381ZM208.322 492.992C209.419 492.983 210.38 493.192 211.207 493.619C212.033 494.023 212.45 494.716 212.459 495.698C212.467 496.68 212.132 497.586 211.454 498.414C210.776 499.242 209.902 499.912 208.832 500.424C207.785 500.913 206.726 501.311 205.655 501.617C204.606 501.9 203.591 502.092 202.61 502.192C202.525 502.969 202.484 503.563 202.488 503.975C202.497 505.071 202.734 505.972 203.197 506.676C203.66 507.38 204.405 507.728 205.434 507.719C206.553 507.709 207.543 507.255 208.404 506.357C209.287 505.435 209.929 504.367 210.33 503.153L211.055 503.763C210.542 505.253 209.696 506.494 208.516 507.486C207.359 508.456 206.027 508.947 204.519 508.96C202.805 508.975 201.488 508.518 200.566 507.59C199.643 506.661 199.175 505.34 199.16 503.627C199.137 500.885 199.984 498.433 201.701 496.271C203.442 494.108 205.649 493.016 208.322 492.992Z" fill="#F7B81F"/>
<path d="M235.043 492.761C235.911 492.754 236.621 492.987 237.174 493.462C237.704 493.983 237.972 494.666 237.98 495.512C237.982 495.809 237.973 496.037 237.951 496.197C237.929 496.289 237.896 496.426 237.852 496.609C237.831 496.792 237.821 496.929 237.821 497.021L237.959 497.088C238.701 495.711 239.515 494.642 240.399 493.88C241.306 493.095 242.422 492.697 243.748 492.686C245.735 492.669 246.737 493.608 246.754 495.504C246.762 496.486 246.488 497.768 245.93 499.349L243.888 504.919C243.755 505.377 243.689 505.731 243.691 505.983C243.694 506.257 243.776 506.485 243.937 506.666C244.122 506.847 244.351 506.937 244.625 506.934C245.47 506.927 246.208 506.349 246.838 505.202C247.467 504.031 247.88 502.897 248.076 501.798L248.869 502.305C247.763 506.496 245.885 508.602 243.234 508.625C242.412 508.632 241.747 508.421 241.241 507.992C240.735 507.562 240.478 506.936 240.471 506.113C240.468 505.771 240.51 505.428 240.599 505.084C240.642 504.833 240.764 504.397 240.965 503.779L242.741 499.103C243.143 498.094 243.34 497.11 243.332 496.151C243.329 495.762 243.223 495.409 243.014 495.091C242.784 494.819 242.405 494.685 241.88 494.69C241.103 494.696 240.285 495.206 239.425 496.219C238.588 497.208 237.912 498.231 237.395 499.286C236.902 500.341 236.499 501.362 236.188 502.347L234.115 508.362L230.859 508.39L234.137 498.972C234.494 498.009 234.669 497.094 234.661 496.226C234.653 495.243 234.169 494.756 233.209 494.765C232.387 494.772 231.535 495.327 230.653 496.432C229.794 497.536 229.118 498.638 228.625 499.739C228.132 500.817 227.707 501.895 227.351 502.971L225.479 508.436L222.223 508.464L227.171 494.132L224.087 494.158L224.421 493.196L230.21 492.734C230.218 493.694 230.021 494.735 229.62 495.858L229.219 497.095L229.357 497.163C230.771 494.249 232.666 492.782 235.043 492.761Z" fill="#F7B81F"/>
<path d="M261.585 494.93C261.581 494.451 261.464 494.086 261.233 493.837C260.979 493.588 260.601 493.465 260.099 493.47C258.911 493.48 257.787 494.335 256.728 496.035C255.668 497.734 255.031 499.328 254.815 500.815C255.614 500.694 256.196 500.574 256.56 500.457C257.814 500.149 258.962 499.465 260.004 498.405C261.069 497.322 261.596 496.164 261.585 494.93ZM260.399 492.542C261.496 492.532 262.457 492.741 263.284 493.168C264.11 493.572 264.527 494.265 264.535 495.248C264.544 496.23 264.209 497.135 263.531 497.963C262.852 498.792 261.978 499.462 260.909 499.974C259.862 500.463 258.803 500.86 257.732 501.166C256.683 501.45 255.668 501.641 254.686 501.741C254.602 502.519 254.561 503.113 254.565 503.524C254.574 504.621 254.81 505.521 255.274 506.225C255.737 506.929 256.482 507.277 257.51 507.268C258.63 507.258 259.62 506.804 260.48 505.906C261.364 504.984 262.006 503.917 262.406 502.702L263.131 503.313C262.619 504.802 261.773 506.043 260.593 507.036C259.436 508.005 258.104 508.497 256.596 508.51C254.882 508.525 253.564 508.068 252.642 507.139C251.72 506.21 251.252 504.889 251.237 503.176C251.213 500.435 252.06 497.983 253.778 495.82C255.519 493.658 257.726 492.565 260.399 492.542Z" fill="#F7B81F"/>
<path d="M134.316 542.423L123.456 542.517L123.451 541.939L125.486 541.921L125.366 528.065L123.331 528.082L123.326 527.504L129.517 527.451L129.522 528.029L127.487 528.046L127.607 541.903L133.069 541.856L133.929 537.329L134.486 537.324L134.316 542.423Z" fill="#F7B81F"/>
<path d="M147.045 537.622L146.962 528.092L144.926 527.896L144.921 527.317L149.633 527.277L149.638 527.855L147.605 528.087L147.689 537.831C147.702 539.33 147.277 540.483 146.413 541.29C145.548 542.097 144.381 542.507 142.91 542.52C141.368 542.533 140.101 542.159 139.109 541.396C138.117 540.62 137.614 539.496 137.602 538.025L137.514 527.96L135.48 527.977L135.475 527.399L141.686 527.345L141.691 527.924L139.656 527.941L139.741 537.664C139.765 540.477 140.962 541.873 143.333 541.853C144.504 541.842 145.414 541.428 146.064 540.608C146.728 539.788 147.055 538.793 147.045 537.622Z" fill="#F7B81F"/>
<path d="M164.138 527.729L161.741 527.964L157.288 533.229L163.615 541.591L165.65 541.574L165.655 542.152L159.101 542.209L159.096 541.63L161.131 541.613L155.821 534.591L155.157 534.597L155.219 541.664L157.254 541.646L157.259 542.225L151.047 542.278L151.042 541.7L153.077 541.683L152.957 527.826L150.922 527.844L150.917 527.265L157.129 527.212L157.134 527.79L155.099 527.808L155.152 534.018L155.816 534.013L160.905 527.971L159.083 527.773L159.078 527.195L164.133 527.151L164.138 527.729Z" fill="#F7B81F"/>
<path d="M178.04 542.045L166.944 542.141L166.939 541.563L168.974 541.545L168.854 527.689L166.819 527.706L166.814 527.128L177.353 527.037L177.391 531.427L176.813 531.432L176.051 527.626L170.996 527.67L171.052 534.095L174.201 534.068L174.629 531.558L175.207 531.553L175.255 537.121L174.698 537.126L174.206 534.646L171.057 534.673L171.116 541.526L176.728 541.478L177.422 537.445L178 537.44L178.04 542.045Z" fill="#F7B81F"/>
<path d="M184.828 533.033L184.823 532.455L190.07 532.41L190.075 532.988L188.469 533.002L188.541 541.376L190.148 541.362L190.153 541.94L184.905 541.985L184.9 541.407L186.507 541.393L186.434 533.019L184.828 533.033Z" fill="#F7B81F"/>
<path d="M191.734 542.869C191.731 542.54 191.836 542.247 192.048 541.988C192.274 541.743 192.551 541.619 192.88 541.617C193.208 541.614 193.459 541.704 193.632 541.888C193.791 542.087 193.871 542.322 193.874 542.593C193.876 542.893 193.786 543.151 193.602 543.367C193.418 543.582 193.176 543.692 192.876 543.694C192.791 543.695 192.705 543.681 192.619 543.654C193.097 544.463 193.886 544.863 194.986 544.854C195.643 544.848 196.183 544.629 196.608 544.197C197.047 543.779 197.336 543.291 197.474 542.733C197.626 542.189 197.7 541.596 197.694 540.954C197.686 540.011 197.457 539.192 197.009 538.497C196.56 537.787 195.893 537.435 195.007 537.443C193.908 537.453 193.241 537.951 193.007 538.938L192.6 538.942L192.54 532.088L197.767 532.043L198.648 529.851L199.226 529.846L198.703 533.749L193.155 533.797L193.188 537.63C193.754 537.054 194.544 536.762 195.558 536.753C196.886 536.741 197.932 537.068 198.694 537.732C199.471 538.397 199.865 539.379 199.877 540.678C199.889 542.12 199.449 543.273 198.557 544.138C197.679 545.016 196.526 545.462 195.098 545.474C194.241 545.481 193.468 545.253 192.779 544.787C192.089 544.322 191.741 543.683 191.734 542.869Z" fill="#F7B81F"/>
<path d="M201.721 540.748C201.718 540.376 201.83 540.076 202.056 539.845C202.297 539.6 202.603 539.476 202.974 539.473C203.359 539.47 203.667 539.581 203.898 539.808C204.128 540.034 204.245 540.34 204.249 540.726C204.252 541.125 204.141 541.441 203.914 541.671C203.702 541.887 203.396 541.997 202.996 542C202.596 542.004 202.288 541.892 202.072 541.666C201.841 541.453 201.725 541.147 201.721 540.748ZM201.659 533.573C201.656 533.202 201.767 532.901 201.994 532.671C202.235 532.426 202.541 532.302 202.912 532.299C203.297 532.295 203.605 532.407 203.836 532.633C204.066 532.86 204.183 533.166 204.187 533.551C204.19 533.951 204.078 534.266 203.852 534.496C203.64 534.712 203.334 534.822 202.934 534.826C202.534 534.829 202.226 534.718 202.01 534.491C201.779 534.279 201.662 533.973 201.659 533.573Z" fill="#F7B81F"/>
<path d="M215.327 541.722L213.207 541.741L213.232 544.632L214.988 544.617L214.993 545.195L209.553 545.242L209.548 544.664L211.304 544.648L211.279 541.757L205.86 541.804L205.855 541.269L212.541 531.68L213.12 531.675L213.194 540.327L214.18 540.319L215.271 537.696L215.849 537.691L215.327 541.722ZM207.325 540.378L211.267 540.344L211.218 534.69L207.325 540.378Z" fill="#F7B81F"/>
<path d="M217.375 536.65L217.368 535.793L221.587 535.757L221.595 536.613L217.375 536.65Z" fill="#F7B81F"/>
<path d="M225.816 544.459C225.772 544.359 225.75 544.266 225.749 544.181C225.747 543.938 225.831 543.73 226.001 543.557C226.171 543.37 226.405 543.275 226.705 543.273C226.991 543.27 227.22 543.354 227.393 543.524C227.566 543.694 227.653 543.914 227.656 544.186C227.659 544.514 227.547 544.779 227.32 544.981C227.107 545.183 226.83 545.285 226.487 545.288C226.016 545.292 225.622 545.174 225.306 544.934C224.99 544.708 224.83 544.367 224.826 543.91C224.823 543.568 224.899 543.26 225.053 542.987C225.208 542.715 225.335 542.478 225.433 542.277L230.606 533.58L225.465 533.624L224.309 536.183L223.731 536.188L224.422 531.92L232.026 531.854L232.031 532.389L225.928 542.573C225.886 542.645 225.83 542.752 225.759 542.896C225.689 543.039 225.633 543.147 225.591 543.218C225.492 543.405 225.444 543.619 225.446 543.862C225.448 543.991 225.477 544.119 225.535 544.247C225.608 544.375 225.701 544.445 225.816 544.459Z" fill="#F7B81F"/>
<path d="M285.625 345.674C285.376 316.848 273.966 289.299 253.905 269.088C233.845 248.877 206.777 237.66 178.657 237.903C150.536 238.146 123.667 249.831 103.959 270.386C84.2515 290.941 73.32 318.683 73.5695 347.509" stroke="#F7B81F"/>
<path d="M278.124 345.204C277.893 318.508 267.29 292.995 248.649 274.278C230.007 255.561 204.854 245.173 178.721 245.399C152.589 245.625 127.619 256.447 109.305 275.484C90.9899 294.521 80.8306 320.213 81.0617 346.909" stroke="#F7B81F"/>
</svg>
