<svg width="372" height="282" viewBox="0 0 372 282" fill="none" xmlns="http://www.w3.org/2000/svg">
<path d="M-55.7623 279.232C-55.7686 276.007 -54.2855 254.518 -55.7623 243.772C-117.794 240.549 -214.918 234.709 -224.119 217.983C-232.986 201.864 -247.163 158.024 -232.985 124.499C-218.808 90.9731 -156.198 86.6922 -126.655 85.8153C-65.5 84 45.4756 94.8258 60 96C102 99.3955 146.145 104.196 215.5 100C215.5 47.6719 228.862 31.0125 232.5 18.1181C234.355 11.5432 242.759 5.43621 263.224 2L267.654 42.622C324.919 48.7795 344.763 60.7128 347.402 66.4722C359.216 84.7394 379.301 130.3 365.124 166.404C351.931 200 180.201 197.022 97.5 189.5L-42 176.5C-47 175.996 -50.9809 172.543 -55.7623 172.496C-40.3476 186.584 -11.0419 225.074 -17.1364 266.336C-18.4211 275.035 -38.0469 282.454 -55.7623 279.232Z" fill="#1F3155"/>
<path d="M-55.7623 243.772C-54.2855 254.518 -55.7686 276.007 -55.7623 279.232C-38.0469 282.454 -18.4211 275.035 -17.1364 266.336M-55.7623 243.772C-117.794 240.549 -214.918 234.709 -224.119 217.983M-55.7623 243.772C-20.3251 250.218 -20.577 260.457 -17.1364 266.336M-224.119 217.983C-232.986 201.864 -247.163 158.024 -232.985 124.499C-218.808 90.9731 -156.198 86.6922 -126.655 85.8153C-65.5 84 45.4757 94.8258 60 96C102 99.3955 146.145 104.196 215.5 100M-224.119 217.983C-194.949 180.258 -106.777 171.994 -55.7623 172.496M347.402 66.4722C344.763 60.7128 324.919 48.7795 267.654 42.622M347.402 66.4722C347.402 87.2003 283.379 95.8931 215.5 100M347.402 66.4722C359.216 84.7394 379.301 130.3 365.124 166.404C351.931 200 180.201 197.022 97.5 189.5L-42 176.5C-47 175.996 -50.9808 172.543 -55.7623 172.496M267.654 42.622C260.815 41.8866 252.508 42.3826 245.502 40.6833C232.211 37.4597 230.811 24.1035 232.5 18.1181M267.654 42.622L263.224 2C242.759 5.43621 234.355 11.5432 232.5 18.1181M232.5 18.1181C228.862 31.0125 215.5 47.6719 215.5 100M-55.7623 172.496C-40.3476 186.584 -11.0418 225.074 -17.1364 266.336" stroke="#111C32" stroke-width="3"/>
<path d="M62.3748 155.152C57.6209 154.786 53.9837 152.837 51.4632 149.306C48.9427 145.774 47.8654 141.631 48.2312 136.877C48.6118 131.932 50.2992 127.937 53.2935 124.894C56.3222 121.821 60.2295 120.469 65.0153 120.838C69.8969 121.213 73.5525 123.131 75.9821 126.592C78.4118 130.053 79.4376 134.24 79.0595 139.153C78.8336 142.088 77.9819 144.815 76.5044 147.333C75.0612 149.822 73.0793 151.804 70.5587 153.278C68.0381 154.753 65.3101 155.378 62.3748 155.152ZM64.9159 122.13C63.0334 121.985 61.3338 122.384 59.8171 123.326C58.3322 124.271 57.1578 125.561 56.2938 127.195C55.4323 128.798 54.7586 130.463 54.2726 132.191C53.7866 133.919 53.4761 135.66 53.341 137.415C53.1176 140.318 53.4133 143.149 54.228 145.908C55.0772 148.637 56.519 150.754 58.5536 152.258C59.7046 153.149 61.0139 153.651 62.4816 153.764C64.8107 153.943 66.876 153.172 68.6775 151.449C70.479 149.726 71.8117 147.63 72.6757 145.161C73.3262 143.382 73.741 141.327 73.9202 138.998C74.0602 137.18 74.0369 135.397 73.8504 133.649C73.6639 131.902 73.2688 130.154 72.6651 128.407C72.0933 126.662 71.1288 125.224 69.7716 124.092C68.4488 122.931 66.8302 122.277 64.9159 122.13Z" fill="#F7B81F"/>
<path d="M100.216 151.215L101.15 151.876C100.224 153.441 99.022 154.674 97.5452 155.577C96.0697 156.447 94.4686 156.848 92.742 156.78C89.6084 156.656 87.1241 155.501 85.289 153.315C83.4871 151.098 82.6474 148.439 82.7699 145.337C82.8988 142.076 83.9629 139.46 85.9622 137.489C87.9628 135.487 90.5459 134.548 93.7114 134.673C95.2143 134.732 96.6092 135.092 97.8962 135.751C99.1831 136.41 100.155 137.346 100.812 138.556C101.2 139.276 101.381 139.956 101.356 140.595C101.328 141.299 101.064 141.897 100.564 142.39C100.098 142.852 99.5125 143.069 98.8091 143.041C98.1376 143.014 97.5863 142.784 97.155 142.351C96.7558 141.919 96.5694 141.367 96.5959 140.696C96.6402 139.577 97.2837 138.689 98.5265 138.034C97.5833 136.78 96.1684 136.115 94.2819 136.041C93.0988 135.994 92.063 136.273 91.1744 136.879C90.2871 137.452 89.5994 138.242 89.1113 139.247C88.6565 140.222 88.3123 141.233 88.0787 142.281C87.8465 143.296 87.7082 144.364 87.664 145.483C87.5642 148.009 88.0212 150.221 89.0351 152.118C90.0503 153.984 91.709 154.962 94.0112 155.053C96.5052 155.151 98.5733 153.872 100.216 151.215Z" fill="#F7B81F"/>
<path d="M116.499 135.349C119.794 135.418 122.396 136.513 124.304 138.634C126.212 140.722 127.133 143.382 127.065 146.613C126.997 149.845 125.933 152.495 123.873 154.564C121.814 156.601 119.201 157.587 116.034 157.52C112.674 157.45 110.056 156.387 108.179 154.331C106.302 152.243 105.399 149.535 105.469 146.208C105.537 142.945 106.584 140.31 108.611 138.304C110.67 136.267 113.299 135.282 116.499 135.349ZM116.013 156.224C117.132 156.247 118.099 155.947 118.912 155.324C119.758 154.67 120.4 153.835 120.837 152.82C121.275 151.773 121.601 150.74 121.814 149.72C122.029 148.668 122.147 147.614 122.169 146.559C122.192 145.471 122.118 144.413 121.947 143.385C121.809 142.358 121.543 141.312 121.149 140.248C120.787 139.184 120.197 138.323 119.379 137.666C118.592 137.009 117.623 136.669 116.472 136.645C115.384 136.622 114.417 136.938 113.571 137.592C112.758 138.215 112.132 139.05 111.694 140.097C111.257 141.112 110.931 142.146 110.717 143.198C110.503 144.249 110.385 145.287 110.363 146.311C110.303 149.19 110.767 151.488 111.755 153.206C112.738 155.179 114.157 156.185 116.013 156.224Z" fill="#F7B81F"/>
<path d="M130.422 144.937C130.431 143.209 130.583 141.53 130.88 139.899C131.176 138.237 131.649 136.575 132.297 134.914C132.946 133.254 133.897 131.851 135.151 130.705C136.437 129.528 137.929 128.767 139.626 128.424C140.299 128.267 141.02 128.127 141.789 128.003C142.045 127.94 142.541 127.863 143.278 127.771C144.015 127.646 144.591 127.553 145.007 127.492C146.352 127.274 147.363 126.88 148.037 126.307C148.745 125.703 149.261 124.761 149.588 123.483L150.931 123.682C150.662 126.144 150.222 127.854 149.609 128.811C149.027 129.864 148.271 130.628 147.341 131.104C146.442 131.579 145.289 131.909 143.88 132.094C140.069 132.586 137.635 133.07 136.576 133.544C134.01 134.779 132.717 137.301 132.697 141.109C132.692 142.101 132.8 143.029 133.019 143.894C133.478 141.817 134.559 140.094 136.262 138.727C137.965 137.328 139.888 136.633 142.032 136.644C145.296 136.661 147.772 137.602 149.458 139.467C151.177 141.331 152.028 143.864 152.011 147.064C151.995 150.2 151.022 152.803 149.091 154.873C147.161 156.911 144.659 157.922 141.587 157.906C137.907 157.888 135.114 156.657 133.206 154.215C131.331 151.742 130.403 148.649 130.422 144.937ZM144.565 138.865C143.8 138.253 142.858 137.945 141.738 137.939C140.618 137.933 139.656 138.232 138.853 138.836C138.082 139.44 137.486 140.237 137.065 141.227C136.676 142.217 136.399 143.208 136.234 144.199C136.069 145.158 135.984 146.166 135.978 147.222C135.973 148.246 136.048 149.254 136.203 150.247C136.358 151.208 136.625 152.201 137.003 153.227C137.382 154.221 137.954 155.04 138.719 155.684C139.516 156.296 140.458 156.605 141.546 156.61C142.634 156.616 143.564 156.317 144.335 155.712C145.138 155.109 145.734 154.312 146.123 153.322C146.512 152.332 146.789 151.357 146.954 150.398C147.119 149.407 147.204 148.383 147.21 147.327C147.215 146.239 147.141 145.215 146.985 144.254C146.862 143.293 146.627 142.316 146.28 141.322C145.934 140.296 145.362 139.478 144.565 138.865Z" fill="#F7B81F"/>
<path d="M166.655 135.639C169.439 135.614 171.591 136.474 173.111 138.221C174.662 139.935 175.451 142.184 175.476 144.968L161.7 145.092C161.67 145.252 161.656 145.524 161.66 145.908L161.667 146.772C161.723 149.396 162.255 151.583 163.263 153.334C164.302 155.085 166.022 155.949 168.422 155.928C171.206 155.902 173.193 154.476 174.384 151.65L175.447 152.408C173.847 155.975 171.111 157.775 167.239 157.81C164.007 157.839 161.47 156.838 159.628 154.807C157.785 152.743 156.849 150.112 156.82 146.912C156.793 143.808 157.665 141.16 159.437 138.968C161.241 136.776 163.647 135.666 166.655 135.639ZM161.833 143.794L170.664 143.715C170.519 141.796 170.154 140.311 169.568 139.261C168.786 137.668 167.69 136.877 166.283 136.89C163.883 136.912 162.399 139.213 161.833 143.794Z" fill="#F7B81F"/>
<path d="M206.148 135.32L206.179 136.616L202.58 136.703L203.035 155.466L206.634 155.379L206.665 156.674L195.148 156.953L195.117 155.658L198.476 155.576L198.267 146.939L188.67 147.171L188.879 155.809L192.238 155.727L192.269 157.023L180.753 157.302L180.721 156.006L184.32 155.919L183.866 137.157L180.267 137.244L180.235 135.948L191.752 135.669L191.783 136.965L188.424 137.046L188.638 145.876L198.235 145.643L198.021 136.814L194.662 136.895L194.631 135.6L206.148 135.32Z" fill="#F7B81F"/>
<path d="M235.132 134.147L235.186 135.442L231.589 135.592L232.375 154.344L235.972 154.193L236.026 155.488L224.516 155.97L224.462 154.675L227.819 154.535L227.457 145.902L217.865 146.304L218.227 154.937L221.584 154.796L221.638 156.091L210.129 156.573L210.074 155.278L213.671 155.127L212.886 136.376L209.289 136.527L209.234 135.232L220.744 134.75L220.799 136.044L217.442 136.185L217.811 145.009L227.403 144.607L227.033 135.783L223.676 135.924L223.622 134.629L235.132 134.147Z" fill="#F7B81F"/>
<path d="M249.905 132.857C253.195 132.658 255.877 133.538 257.951 135.496C260.024 137.423 261.157 139.999 261.352 143.225C261.548 146.451 260.703 149.179 258.818 151.409C256.931 153.607 254.407 154.802 251.245 154.993C247.891 155.196 245.195 154.349 243.156 152.453C241.116 150.524 239.996 147.899 239.795 144.577C239.598 141.319 240.427 138.608 242.284 136.444C244.171 134.246 246.711 133.051 249.905 132.857ZM251.118 153.702C252.236 153.635 253.175 153.257 253.935 152.57C254.725 151.849 255.297 150.965 255.65 149.918C256.002 148.839 256.242 147.782 256.372 146.748C256.5 145.683 256.532 144.623 256.468 143.569C256.403 142.483 256.243 141.434 255.989 140.424C255.768 139.411 255.418 138.391 254.939 137.362C254.492 136.331 253.833 135.521 252.964 134.933C252.127 134.342 251.134 134.082 249.984 134.151C248.898 134.217 247.96 134.61 247.17 135.331C246.41 136.018 245.854 136.901 245.503 137.981C245.149 139.028 244.909 140.084 244.781 141.15C244.653 142.216 244.62 143.26 244.682 144.282C244.856 147.156 245.505 149.409 246.629 151.04C247.769 152.927 249.266 153.814 251.118 153.702Z" fill="#F7B81F"/>
<path d="M283.066 146.806L284.072 147.353C283.337 149.015 282.289 150.382 280.929 151.452C279.566 152.49 278.024 153.078 276.301 153.213C273.175 153.46 270.571 152.606 268.491 150.651C266.441 148.662 265.294 146.12 265.05 143.026C264.793 139.772 265.542 137.049 267.295 134.856C269.045 132.632 271.5 131.395 274.658 131.146C276.157 131.028 277.585 131.22 278.941 131.723C280.296 132.226 281.372 133.04 282.166 134.166C282.636 134.835 282.897 135.488 282.947 136.126C283.002 136.828 282.811 137.453 282.372 138.001C281.963 138.515 281.408 138.799 280.706 138.855C280.036 138.908 279.462 138.744 278.982 138.365C278.535 137.983 278.285 137.457 278.232 136.787C278.144 135.67 278.679 134.713 279.836 133.916C278.751 132.782 277.268 132.289 275.386 132.437C274.205 132.53 273.21 132.929 272.399 133.635C271.585 134.309 270.995 135.174 270.629 136.23C270.292 137.252 270.07 138.297 269.961 139.365C269.85 140.401 269.839 141.477 269.927 142.593C270.125 145.113 270.84 147.256 272.07 149.021C273.298 150.754 275.061 151.53 277.358 151.348C279.846 151.152 281.749 149.638 283.066 146.806Z" fill="#F7B81F"/>
<path d="M298.257 149.641L296.391 131.159L290.899 131.714L290.06 138.697L288.771 138.828L287.932 130.518L309.088 128.382L309.927 136.692L308.638 136.822L306.42 130.147L300.928 130.701L302.794 149.183L306.376 148.822L306.506 150.111L294.805 151.293L294.675 150.003L298.257 149.641Z" fill="#F7B81F"/>
<path d="M337.288 124.805L337.456 126.09L333.886 126.557L336.32 145.166L339.89 144.7L340.058 145.985L328.635 147.478L328.467 146.193L331.799 145.758L329.869 131.003L322.112 145.718L322.28 147.003L325.611 146.567L325.779 147.852L314.357 149.346L314.189 148.061L317.758 147.594L315.324 128.984L311.755 129.451L311.587 128.166L323.009 126.672L323.177 127.957L319.846 128.393L321.819 143.481L329.576 128.766L329.365 127.148L326.033 127.584L325.865 126.299L337.288 124.805Z" fill="#F7B81F"/>
</svg>
