<svg width="372" height="282" viewBox="0 0 372 282" fill="none" xmlns="http://www.w3.org/2000/svg">
<path d="M-55.7623 279.232C-55.7686 276.007 -54.2855 254.518 -55.7623 243.772C-117.794 240.549 -214.918 234.709 -224.119 217.983C-232.986 201.864 -247.163 158.024 -232.985 124.499C-218.808 90.9731 -156.198 86.6922 -126.655 85.8153C-65.5 84 45.4756 94.8258 60 96C102 99.3955 146.145 104.196 215.5 100C215.5 47.6719 228.862 31.0125 232.5 18.1181C234.355 11.5432 242.759 5.43621 263.224 2L267.654 42.622C324.919 48.7795 344.763 60.7128 347.402 66.4722C359.216 84.7394 379.301 130.3 365.124 166.404C351.931 200 180.201 197.022 97.5 189.5L-42 176.5C-47 175.996 -50.9809 172.543 -55.7623 172.496C-40.3476 186.584 -11.0419 225.074 -17.1364 266.336C-18.4211 275.035 -38.0469 282.454 -55.7623 279.232Z" fill="#1F3155"/>
<path d="M-55.7623 243.772C-54.2855 254.518 -55.7686 276.007 -55.7623 279.232C-38.0469 282.454 -18.4211 275.035 -17.1364 266.336M-55.7623 243.772C-117.794 240.549 -214.918 234.709 -224.119 217.983M-55.7623 243.772C-20.3251 250.218 -20.577 260.457 -17.1364 266.336M-224.119 217.983C-232.986 201.864 -247.163 158.024 -232.985 124.499C-218.808 90.9731 -156.198 86.6922 -126.655 85.8153C-65.5 84 45.4757 94.8258 60 96C102 99.3955 146.145 104.196 215.5 100M-224.119 217.983C-194.949 180.258 -106.777 171.994 -55.7623 172.496M347.402 66.4722C344.763 60.7128 324.919 48.7795 267.654 42.622M347.402 66.4722C347.402 87.2003 283.379 95.8931 215.5 100M347.402 66.4722C359.216 84.7394 379.301 130.3 365.124 166.404C351.931 200 180.201 197.022 97.5 189.5L-42 176.5C-47 175.996 -50.9808 172.543 -55.7623 172.496M267.654 42.622C260.815 41.8866 252.508 42.3826 245.502 40.6833C232.211 37.4597 230.811 24.1035 232.5 18.1181M267.654 42.622L263.224 2C242.759 5.43621 234.355 11.5432 232.5 18.1181M232.5 18.1181C228.862 31.0125 215.5 47.6719 215.5 100M-55.7623 172.496C-40.3476 186.584 -11.0418 225.074 -17.1364 266.336" stroke="#111C32" stroke-width="3"/>
<path d="M148.882 155.567L148.593 156.659C148.138 158.241 147.402 159.313 146.384 159.876C145.399 160.409 144.011 160.635 142.221 160.555L138.96 160.41L139.018 159.115L139.929 159.156C140.952 159.201 141.744 159.044 142.305 158.685C142.865 158.326 143.295 157.672 143.593 156.725C143.822 155.902 143.992 155.317 144.104 154.97C144.177 154.781 144.253 154.496 144.334 154.115C144.447 153.736 144.524 153.467 144.563 153.308C144.637 153.087 144.715 152.771 144.797 152.358C144.913 151.915 144.991 151.614 145.03 151.455C145.07 151.265 145.149 150.932 145.266 150.457C145.417 149.951 145.531 149.556 145.608 149.271C146.459 145.978 149.158 144.368 153.703 144.443L153.712 144.251C152.505 144.005 151.416 143.652 150.444 143.193C148.775 142.542 147.474 141.555 146.54 140.232C145.607 138.877 145.18 137.32 145.259 135.562C145.324 134.091 145.686 132.81 146.343 131.718C147.034 130.596 147.921 129.739 149.005 129.146C150.121 128.524 151.31 128.08 152.571 127.816C153.832 127.552 155.15 127.451 156.525 127.512L170.815 128.15L170.757 129.445L166.201 129.241L164.816 160.267L169.372 160.47L169.314 161.765L155.168 161.133L155.226 159.838L160.021 160.052L160.678 145.331L156.938 145.164C154.86 145.071 153.394 145.262 152.54 145.737C151.718 146.212 151.042 147.367 150.512 149.202C150.012 151.069 149.761 152.019 149.76 152.051C149.598 152.812 149.423 153.493 149.236 154.094C149.048 154.726 148.93 155.217 148.882 155.567ZM156.996 143.869L160.736 144.036L161.406 129.027L157.954 128.873C155.716 128.773 153.896 129.349 152.495 130.6C151.126 131.852 150.392 133.581 150.294 135.787C150.191 138.088 150.715 139.985 151.865 141.478C153.048 142.972 154.758 143.77 156.996 143.869Z" fill="#F7B81F"/>
<path d="M175.341 147.615L174.045 147.604L174.106 140.404L175.402 140.416L175.96 142.58C177.287 140.832 179.342 139.969 182.126 139.993C182.798 139.999 183.582 140.086 184.476 140.253C186.169 140.684 187.41 141.495 188.199 142.686C188.578 143.297 188.763 144.082 188.755 145.042C188.741 146.642 188.171 147.885 187.043 148.772C185.948 149.626 184.551 150.158 182.853 150.368L182.852 150.56C184.642 150.703 186.206 151.181 187.544 151.992C188.913 152.804 189.59 154.01 189.577 155.61C189.563 157.146 189.072 158.438 188.103 159.485C187.134 160.501 185.992 161.211 184.677 161.616C183.394 161.989 181.984 162.169 180.448 162.156C178.624 162.14 176.963 161.742 175.466 160.961C174.001 160.18 173.275 158.958 173.289 157.294C173.296 156.59 173.524 156.016 173.976 155.572C174.46 155.096 175.054 154.861 175.758 154.867C176.494 154.873 177.053 155.086 177.433 155.506C177.781 155.957 177.952 156.502 177.947 157.142C177.942 157.718 177.794 158.213 177.502 158.626C177.179 159.04 176.76 159.34 176.246 159.528C177.071 160.367 178.284 160.793 179.884 160.807C181.452 160.82 182.655 160.383 183.495 159.494C184.335 158.573 184.762 157.329 184.775 155.761C184.801 152.785 183.197 151.283 179.966 151.255L178.622 151.244L178.633 149.9L180.313 149.914C181.465 149.924 182.365 149.484 183.013 148.593C183.692 147.703 184.037 146.666 184.047 145.482C184.071 142.762 182.882 141.392 180.482 141.371C179.042 141.359 177.901 141.989 177.058 143.262C176.215 144.503 175.643 145.954 175.341 147.615Z" fill="#F7B81F"/>
<path d="M222.216 141.464L222.474 160.231L225.833 160.184L225.851 161.48L214.332 161.639L214.315 160.343L217.914 160.293L217.656 141.527L214.056 141.577L214.039 140.281L225.557 140.122L225.575 141.418L222.216 141.464ZM204.823 140.408L204.841 141.703L201.242 141.753L201.355 150.008C202.535 149.736 203.91 149.589 205.477 149.567C210.885 149.493 213.615 151.344 213.667 155.119C213.695 157.199 212.966 158.825 211.477 159.998C209.989 161.138 208.189 161.723 206.077 161.752L193.358 161.927L193.34 160.631L196.94 160.582L196.682 141.816L193.082 141.865L193.064 140.569L204.823 140.408ZM201.373 151.304L201.5 160.519L204.571 160.477C207.483 160.437 208.916 158.721 208.869 155.329C208.85 153.921 208.466 152.807 207.719 151.985C206.94 151.227 205.847 150.858 204.439 150.878C203.479 150.891 202.457 151.033 201.373 151.304Z" fill="#F7B81F"/>
<path d="M238.166 140.999L238.439 149.106L240.454 149.039C241.542 149.002 242.366 148.766 242.928 148.331C243.49 147.896 243.977 147.143 244.389 146.073C244.537 145.715 244.713 145.245 244.918 144.662C245.153 144.046 245.299 143.64 245.357 143.446C245.589 142.734 245.779 142.184 245.926 141.794C246.073 141.405 246.298 140.981 246.603 140.523C246.907 140.032 247.279 139.684 247.721 139.477C248.161 139.238 248.701 139.107 249.34 139.086C250.14 139.059 250.819 139.26 251.378 139.69C251.874 140.153 252.136 140.801 252.164 141.632C252.187 142.336 251.984 142.951 251.553 143.478C251.154 143.972 250.602 144.23 249.899 144.254C249.259 144.276 248.725 144.117 248.298 143.78C247.87 143.442 247.646 142.969 247.626 142.361C247.611 141.914 247.753 141.381 248.052 140.762C247.863 140.865 247.709 141.03 247.589 141.258C247.469 141.518 247.29 141.909 247.052 142.429L245.601 146.416C245.306 147.162 244.989 147.749 244.652 148.177C244.313 148.572 243.812 148.91 243.149 149.188L243.155 149.38C247.089 149.247 249.277 150.503 249.718 153.145C249.753 153.24 249.792 153.447 249.835 153.766C249.909 154.083 249.965 154.306 250.001 154.432C250.004 154.528 250.01 154.688 250.017 154.912C250.056 155.103 250.093 155.246 250.128 155.341L250.296 156.055L250.469 156.914C250.908 158.532 252.007 159.312 253.766 159.252L255.013 159.21L255.056 160.506L251.171 160.637C249.22 160.702 247.895 160.347 247.197 159.57C246.529 158.76 246.05 157.383 245.761 155.44C245.493 154.136 245.284 153.166 245.134 152.531C244.946 151.673 244.637 151.059 244.208 150.689C243.748 150.352 242.959 150.203 241.84 150.241L238.481 150.354L238.798 159.756L242.396 159.635L242.44 160.931L230.686 161.326L230.643 160.031L234.241 159.91L233.609 141.152L230.011 141.274L229.967 139.978L241.721 139.583L241.764 140.878L238.166 140.999Z" fill="#F7B81F"/>
<path d="M283.574 137.731L283.639 139.025L280.043 139.205L280.98 157.95L284.576 157.77L284.64 159.064L273.135 159.639L273.07 158.345L276.426 158.177L275.683 143.316L266.773 157.362L266.838 158.657L270.194 158.489L270.258 159.783L258.753 160.358L258.688 159.064L262.284 158.884L261.347 140.14L257.751 140.319L257.686 139.025L269.192 138.45L269.257 139.744L265.901 139.912L266.661 155.109L275.57 141.063L275.489 139.433L272.133 139.6L272.068 138.306L283.574 137.731Z" fill="#F7B81F"/>
</svg>
