<svg width="372" height="282" viewBox="0 0 372 282" fill="none" xmlns="http://www.w3.org/2000/svg">
<path d="M185.238 279.232C185.231 276.007 186.715 254.518 185.238 243.772C123.206 240.549 26.0818 234.709 16.8811 217.983C8.01375 201.864 -6.16285 158.024 8.01455 124.499C22.1919 90.9731 84.8025 86.6922 114.345 85.8153C175.5 84 286.476 94.8258 301 96C343 99.3955 387.145 104.196 456.5 100C456.5 47.6719 469.862 31.0125 473.5 18.1181C475.355 11.5432 483.759 5.43621 504.224 2L508.654 42.622C565.919 48.7795 585.763 60.7128 588.402 66.4722C600.216 84.7394 620.301 130.3 606.124 166.404C592.931 200 421.201 197.022 338.5 189.5L199 176.5C194 175.996 191.281 176.047 186.5 176C201.915 190.087 229.958 225.074 223.864 266.336C222.579 275.035 202.953 282.454 185.238 279.232Z" fill="#1F3155"/>
<path d="M185.238 243.772C186.715 254.518 185.231 276.007 185.238 279.232C202.953 282.454 222.579 275.035 223.864 266.336M185.238 243.772C123.206 240.549 26.0818 234.709 16.8811 217.983M185.238 243.772C220.675 250.218 220.423 260.457 223.864 266.336M16.8811 217.983C8.01375 201.864 -6.16285 158.024 8.01455 124.499C22.1919 90.9731 84.8025 86.6922 114.345 85.8153C175.5 84 286.476 94.8258 301 96C343 99.3955 387.145 104.196 456.5 100M16.8811 217.983C46.0507 180.258 135.485 175.498 186.5 176M588.402 66.4722C585.763 60.7128 565.919 48.7795 508.654 42.622M588.402 66.4722C588.402 87.2003 524.379 95.8931 456.5 100M588.402 66.4722C600.216 84.7394 620.301 130.3 606.124 166.404C592.931 200 421.201 197.022 338.5 189.5L199 176.5C194 175.996 191.281 176.047 186.5 176M508.654 42.622C501.815 41.8866 493.508 42.3826 486.502 40.6833C473.211 37.4597 471.811 24.1035 473.5 18.1181M508.654 42.622L504.224 2C483.759 5.43621 475.355 11.5432 473.5 18.1181M473.5 18.1181C469.862 31.0125 456.5 47.6719 456.5 100M186.5 176C201.915 190.087 229.958 225.074 223.864 266.336" stroke="#111C32" stroke-width="3"/>
</svg>
