<svg width="613" height="282" viewBox="0 0 613 282" fill="none" xmlns="http://www.w3.org/2000/svg">
<path d="M185.238 279.232C185.231 276.007 186.715 254.518 185.238 243.772C123.206 240.549 26.0818 234.709 16.8811 217.983C8.01375 201.864 -6.16285 158.024 8.01455 124.499C22.1919 90.9731 84.8025 86.6922 114.345 85.8153C175.5 84 287.476 96.8258 302 98C344 101.395 387.145 104.196 456.5 100C456.5 47.6719 469.862 31.0125 473.5 18.1181C475.355 11.5432 483.759 5.43621 504.224 2L508.654 42.622C565.919 48.7795 585.763 60.7128 588.402 66.4722C600.216 84.7394 620.301 130.3 606.124 166.404C592.931 200 422.999 196.491 340.298 188.969L200 173C195 172.496 190.019 172.543 185.238 172.496C200.652 186.584 229.958 225.074 223.864 266.336C222.579 275.035 202.953 282.454 185.238 279.232Z" fill="#1F3155"/>
<path d="M185.238 243.772C186.715 254.518 185.231 276.007 185.238 279.232C202.953 282.454 222.579 275.035 223.864 266.336M185.238 243.772C123.206 240.549 26.0818 234.709 16.8811 217.983M185.238 243.772C220.675 250.218 220.423 260.457 223.864 266.336M16.8811 217.983C8.01375 201.864 -6.16285 158.024 8.01455 124.499C22.1919 90.9731 84.8025 86.6922 114.345 85.8153C175.5 84 287.476 96.8258 302 98C344 101.395 387.145 104.196 456.5 100M16.8811 217.983C46.0507 180.258 134.223 171.994 185.238 172.496M588.402 66.4722C585.763 60.7128 565.919 48.7795 508.654 42.622M588.402 66.4722C588.402 87.2003 524.379 95.8931 456.5 100M588.402 66.4722C600.216 84.7394 620.301 130.3 606.124 166.404C592.931 200 422.999 196.491 340.298 188.969L200 173C195 172.496 190.019 172.543 185.238 172.496M508.654 42.622C501.815 41.8866 493.508 42.3826 486.502 40.6833C473.211 37.4597 471.811 24.1035 473.5 18.1181M508.654 42.622L504.224 2C483.759 5.43621 475.355 11.5432 473.5 18.1181M473.5 18.1181C469.862 31.0125 456.5 47.6719 456.5 100M185.238 172.496C200.652 186.584 229.958 225.074 223.864 266.336" stroke="#111C32" stroke-width="3"/>
<path d="M157.072 111.708L152.514 111.848L153.465 142.889L158.022 142.749L158.062 144.045L144.149 144.471L144.109 143.176L148.667 143.036L147.879 117.32L132.698 140.644L132.786 143.522L137.344 143.383L137.384 144.678L123.47 145.104L123.431 143.809L127.988 143.669L127.038 112.628L122.48 112.767L122.44 111.472L136.354 111.046L136.393 112.341L131.836 112.481L132.628 138.341L147.809 115.017L147.716 111.994L143.158 112.134L143.119 110.839L157.032 110.413L157.072 111.708Z" fill="#F7B81F"/>
<path d="M178.525 137.575L179.504 138.168C178.692 139.795 177.582 141.111 176.174 142.117C174.765 143.091 173.196 143.606 171.469 143.662C168.335 143.763 165.774 142.789 163.787 140.74C161.831 138.658 160.803 136.066 160.703 132.963C160.597 129.701 161.471 127.015 163.324 124.907C165.176 122.766 167.685 121.644 170.852 121.542C172.355 121.494 173.772 121.752 175.103 122.317C176.434 122.883 177.47 123.746 178.212 124.906C178.65 125.597 178.88 126.262 178.901 126.901C178.923 127.605 178.703 128.22 178.24 128.748C177.808 129.242 177.24 129.5 176.536 129.523C175.864 129.545 175.298 129.355 174.837 128.953C174.407 128.551 174.182 128.014 174.16 127.342C174.124 126.223 174.702 125.292 175.895 124.549C174.864 123.366 173.406 122.804 171.519 122.865C170.335 122.903 169.322 123.256 168.479 123.924C167.635 124.559 167.006 125.396 166.591 126.434C166.207 127.439 165.937 128.472 165.779 129.534C165.62 130.564 165.558 131.638 165.595 132.757C165.676 135.284 166.291 137.457 167.438 139.277C168.584 141.065 170.309 141.922 172.611 141.848C175.106 141.767 177.077 140.343 178.525 137.575Z" fill="#F7B81F"/>
<path d="M192.812 142.333L192.711 123.757L187.191 123.787L185.692 130.66L184.396 130.667L184.351 122.315L205.615 122.199L205.66 130.551L204.364 130.558L202.791 123.703L197.271 123.733L197.372 142.308L200.972 142.289L200.979 143.585L189.219 143.649L189.212 142.353L192.812 142.333Z" fill="#F7B81F"/>
<path d="M219.804 121.557C223.098 121.649 225.692 122.761 227.586 124.895C229.48 126.997 230.382 129.663 230.292 132.893C230.202 136.124 229.12 138.767 227.046 140.822C224.973 142.845 222.353 143.813 219.186 143.725C215.828 143.631 213.217 142.55 211.354 140.481C209.491 138.381 208.607 135.667 208.699 132.34C208.79 129.078 209.856 126.45 211.896 124.458C213.969 122.435 216.605 121.468 219.804 121.557ZM219.175 142.428C220.294 142.459 221.263 142.166 222.08 141.548C222.93 140.9 223.578 140.069 224.022 139.057C224.467 138.013 224.8 136.982 225.021 135.964C225.242 134.914 225.367 133.861 225.397 132.805C225.427 131.718 225.36 130.659 225.197 129.63C225.066 128.602 224.807 127.555 224.42 126.487C224.066 125.421 223.482 124.557 222.668 123.894C221.886 123.232 220.919 122.885 219.767 122.853C218.68 122.822 217.711 123.131 216.861 123.78C216.043 124.398 215.412 125.228 214.966 126.272C214.522 127.284 214.189 128.315 213.968 129.366C213.747 130.416 213.622 131.453 213.593 132.477C213.513 135.355 213.961 137.657 214.938 139.381C215.907 141.36 217.319 142.376 219.175 142.428Z" fill="#F7B81F"/>
<path d="M229.83 156.444L229.916 155.151L233.508 155.388L235.576 124.113L231.984 123.875L232.07 122.582L235.71 122.823L240.256 122.45L239.92 127.527C241.411 124.386 243.976 122.936 247.616 123.177C250.745 123.384 252.995 124.527 254.365 126.606C255.769 128.655 256.366 131.26 256.157 134.421C255.956 137.455 254.901 140.079 252.991 142.294C251.082 144.476 248.675 145.472 245.77 145.28C242.481 145.062 240.243 143.503 239.056 140.602L238.058 155.689L241.89 155.943L241.804 157.236L229.83 156.444ZM239.61 132.221L239.331 136.435C239.226 138.032 239.7 139.587 240.755 141.1C241.843 142.583 243.17 143.376 244.734 143.479C246.171 143.574 247.39 143.094 248.389 142.037C249.421 140.983 250.125 139.795 250.501 138.473C250.909 137.153 251.161 135.775 251.256 134.338C251.327 133.252 251.315 132.225 251.219 131.257C251.123 130.288 250.899 129.311 250.547 128.326C250.227 127.343 249.687 126.537 248.927 125.91C248.167 125.282 247.212 124.93 246.062 124.854C244.338 124.74 242.861 125.492 241.632 127.111C240.404 128.697 239.73 130.401 239.61 132.221Z" fill="#F7B81F"/>
<path d="M287.166 126.98L287.046 128.271L283.462 127.937L281.723 146.624L285.307 146.958L285.187 148.248L273.717 147.181L273.837 145.89L277.183 146.202L278.561 131.386L267.744 144.022L267.624 145.312L270.969 145.624L270.849 146.914L259.379 145.847L259.499 144.556L263.083 144.89L264.822 126.203L261.238 125.869L261.358 124.579L272.828 125.646L272.708 126.936L269.363 126.625L267.953 141.776L278.77 129.139L278.921 127.514L275.576 127.203L275.696 125.913L287.166 126.98Z" fill="#F7B81F"/>
<path d="M313.293 129.747L313.157 131.035L309.577 130.657L307.603 149.321L311.183 149.699L311.047 150.988L299.352 149.752L299.488 148.463L303.068 148.841L303.952 140.488L301.04 140.18C299.958 140.066 299.151 140.238 298.62 140.696C298.092 141.123 297.658 141.882 297.318 142.972L296.203 146.667C295.661 148.444 294.244 149.211 291.953 148.969L287.514 148.5L287.65 147.211L289.13 147.367C289.894 147.448 290.499 147.351 290.947 147.077C291.362 146.799 291.664 146.38 291.852 145.821L292.795 142.832C293.303 141.373 293.97 140.398 294.794 139.906C295.65 139.417 296.866 139.176 298.442 139.181L298.463 138.99C296.789 138.685 295.357 138.083 294.165 137.184C293.008 136.258 292.512 135.015 292.677 133.455C292.892 131.419 293.86 130.025 295.58 129.273C297.301 128.522 299.259 128.263 301.455 128.495L313.293 129.747ZM305.042 130.177L302.607 129.92C300.857 129.735 299.585 130.051 298.791 130.868C298.006 131.589 297.544 132.618 297.402 133.955C297.086 136.946 298.471 138.605 301.558 138.932L304.088 139.199L305.042 130.177Z" fill="#F7B81F"/>
<path d="M370.891 136.276L370.803 137.569L367.211 137.326L365.948 156.052L369.54 156.294L369.452 157.587L331.858 155.05L331.945 153.757L335.537 153.999L336.801 135.274L333.209 135.032L333.296 133.739L344.79 134.514L344.703 135.807L341.35 135.581L340.087 154.306L348.468 154.872L349.731 136.147L346.379 135.92L346.466 134.627L357.72 135.387L357.633 136.68L354.281 136.454L353.017 155.179L361.398 155.745L362.662 137.019L359.309 136.793L359.397 135.5L370.891 136.276Z" fill="#F7B81F"/>
<path d="M371.979 170.585L371.996 169.289L375.596 169.337L376.016 137.996L372.417 137.948L372.434 136.652L376.082 136.701L380.602 136.089L380.534 141.177C381.857 137.962 384.343 136.38 387.991 136.429C391.126 136.471 393.433 137.494 394.91 139.498C396.42 141.47 397.153 144.04 397.111 147.208C397.07 150.248 396.154 152.923 394.363 155.236C392.572 157.516 390.221 158.636 387.309 158.597C384.014 158.553 381.697 157.114 380.358 154.28L380.156 169.398L383.995 169.45L383.978 170.746L371.979 170.585ZM380.471 145.881L380.414 150.104C380.393 151.704 380.949 153.232 382.081 154.687C383.246 156.111 384.613 156.833 386.18 156.854C387.62 156.873 388.812 156.329 389.755 155.222C390.73 154.115 391.37 152.891 391.676 151.551C392.014 150.212 392.193 148.822 392.212 147.382C392.227 146.294 392.16 145.269 392.013 144.307C391.866 143.345 391.591 142.381 391.188 141.416C390.817 140.451 390.235 139.675 389.443 139.088C388.651 138.502 387.679 138.2 386.527 138.185C384.799 138.162 383.364 138.991 382.221 140.672C381.079 142.32 380.496 144.057 380.471 145.881Z" fill="#F7B81F"/>
<path d="M425.889 138.45L425.85 139.746L422.252 139.638L421.693 158.398L425.292 158.505L425.253 159.801L413.738 159.458L413.777 158.162L417.135 158.262L417.578 143.389L407.578 156.681L407.54 157.977L410.898 158.077L410.859 159.372L399.345 159.029L399.383 157.734L402.982 157.841L403.54 139.081L399.942 138.974L399.98 137.679L411.495 138.022L411.456 139.317L408.098 139.217L407.645 154.426L417.645 141.134L417.694 139.503L414.335 139.403L414.374 138.107L425.889 138.45Z" fill="#F7B81F"/>
<path d="M441.276 172.15L441.223 170.855L444.82 170.708L444.226 156.176C442.951 158.662 440.922 159.962 438.14 160.076C435.199 160.196 432.836 159.188 431.051 157.051C429.298 154.912 428.36 152.325 428.236 149.287C428.113 146.282 428.791 143.676 430.271 141.47C431.78 139.23 433.958 138.052 436.804 137.936C439.841 137.812 442.112 138.904 443.615 141.213L443.03 126.873L439.433 127.02L439.38 125.725L442.977 125.578L447.507 124.768L448.171 141.027C449.322 138.61 451.336 137.343 454.213 137.225C457.219 137.102 459.595 138.03 461.341 140.009C463.087 141.987 464.021 144.479 464.144 147.484C464.272 150.618 463.519 153.355 461.885 155.695C460.251 158.036 457.932 159.268 454.926 159.39C453.647 159.443 452.42 159.189 451.244 158.628C450.099 158.034 449.28 157.187 448.786 156.086L449.376 170.522L452.973 170.375L453.026 171.67L441.276 172.15ZM448.344 145.247L448.651 152.777C448.686 153.64 449.01 154.492 449.62 155.332C450.231 156.171 450.943 156.751 451.757 157.07C452.378 157.365 453.056 157.497 453.791 157.467C454.942 157.42 455.905 157.077 456.679 156.436C457.484 155.763 458.075 154.922 458.45 153.914C458.824 152.874 459.07 151.839 459.188 150.809C459.338 149.778 459.391 148.735 459.348 147.68C459.175 143.428 457.847 140.712 455.364 139.532C454.583 139.212 453.824 139.066 453.089 139.097C451.554 139.159 450.363 139.8 449.516 141.02C448.669 142.239 448.278 143.649 448.344 145.247ZM439.161 158.017C440.152 157.976 441.052 157.667 441.862 157.09C442.669 156.48 443.295 155.718 443.738 154.803C444.001 154.184 444.119 153.539 444.091 152.867L443.784 145.337C443.752 144.57 443.593 143.808 443.306 143.051C442.708 141.73 441.706 140.73 440.301 140.051C439.618 139.791 438.893 139.676 438.125 139.708C437.038 139.752 436.123 140.094 435.381 140.732C434.637 141.339 434.094 142.162 433.752 143.201C433.441 144.206 433.225 145.192 433.104 146.158C433.014 147.09 432.99 148.068 433.032 149.091C433.089 150.498 433.288 151.835 433.628 153.102C433.968 154.369 434.608 155.528 435.547 156.579C436.518 157.596 437.722 158.075 439.161 158.017Z" fill="#F7B81F"/>
<path d="M477.065 155.634L474.567 137.226L469.097 137.969L468.498 144.977L467.214 145.151L466.091 136.875L487.161 134.015L488.285 142.291L487.001 142.466L484.555 135.871L479.085 136.613L481.584 155.02L485.151 154.536L485.326 155.82L473.672 157.402L473.498 156.118L477.065 155.634Z" fill="#F7B81F"/>
<path d="M500.008 142.754C501.778 142.472 503.332 142.468 504.672 142.74L503.766 137.052C503.559 135.757 503.108 134.856 502.412 134.352C501.743 133.81 500.76 133.643 499.464 133.849C497.916 134.096 496.686 134.713 495.774 135.701C496.205 135.762 496.658 135.965 497.134 136.31C497.553 136.697 497.817 137.238 497.928 137.934C498.038 138.629 497.908 139.233 497.536 139.746C497.164 140.259 496.63 140.571 495.935 140.681C495.24 140.792 494.649 140.643 494.163 140.235C493.65 139.863 493.336 139.313 493.22 138.586C492.978 137.07 493.627 135.751 495.166 134.631C496.731 133.474 498.367 132.76 500.074 132.488C505.004 131.703 507.76 133.143 508.344 136.809L510.323 149.228C510.54 150.587 511.153 151.186 512.165 151.025C512.639 150.949 513.053 150.705 513.409 150.292C513.675 149.926 513.906 149.548 514.103 149.161L514.983 149.798C514.037 151.796 512.68 152.936 510.91 153.218C509.994 153.364 509.142 153.305 508.354 153.041C507.572 152.81 506.884 152.255 506.291 151.377C504.604 153.396 502.591 154.592 500.252 154.964C498.451 155.251 496.867 154.969 495.5 154.117C494.159 153.229 493.348 151.9 493.066 150.13C492.729 148.013 493.241 146.344 494.601 145.123C495.994 143.896 497.796 143.107 500.008 142.754ZM497.716 148.806C497.927 150.134 498.425 151.124 499.21 151.776C500.026 152.424 501.081 152.645 502.377 152.438C503.136 152.317 503.792 152.067 504.347 151.687C504.913 151.37 505.424 150.916 505.88 150.325L504.861 143.926C504.225 143.8 503.594 143.706 502.969 143.644C502.385 143.639 501.745 143.693 501.05 143.804C499.723 144.015 498.775 144.571 498.205 145.472C497.662 146.336 497.499 147.448 497.716 148.806Z" fill="#F7B81F"/>
</svg>
