<svg width="376" height="282" viewBox="0 0 376 282" fill="none" xmlns="http://www.w3.org/2000/svg">
<path d="M-51.7623 279.232C-51.7686 276.007 -50.2855 254.518 -51.7623 243.772C-113.794 240.549 -210.918 234.709 -220.119 217.983C-228.986 201.864 -243.163 158.024 -228.985 124.499C-214.808 90.9731 -152.198 86.6922 -122.655 85.8153C-61.5 84 49.4756 94.8258 64 96C106 99.3955 150.145 104.196 219.5 100C219.5 47.6719 232.862 31.0125 236.5 18.1181C238.355 11.5432 246.759 5.43621 267.224 2L271.654 42.622C328.919 48.7795 348.763 60.7128 351.402 66.4722C363.216 84.7394 383.301 130.3 369.124 166.404C355.931 200 184.201 197.022 101.5 189.5L-38 176.5C-43 175.996 -46.9809 172.543 -51.7623 172.496C-36.3476 186.584 -7.04185 225.074 -13.1364 266.336C-14.4211 275.035 -34.0469 282.454 -51.7623 279.232Z" fill="#1F3155"/>
<path d="M-51.7623 243.772C-50.2855 254.518 -51.7686 276.007 -51.7623 279.232C-34.0469 282.454 -14.4211 275.035 -13.1364 266.336M-51.7623 243.772C-113.794 240.549 -210.918 234.709 -220.119 217.983M-51.7623 243.772C-16.3251 250.218 -16.577 260.457 -13.1364 266.336M-220.119 217.983C-228.986 201.864 -243.163 158.024 -228.985 124.499C-214.808 90.9731 -152.198 86.6922 -122.655 85.8153C-61.5 84 49.4757 94.8258 64 96C106 99.3955 150.145 104.196 219.5 100M-220.119 217.983C-190.949 180.258 -102.777 171.994 -51.7623 172.496M351.402 66.4722C348.763 60.7128 328.919 48.7795 271.654 42.622M351.402 66.4722C351.402 87.2003 287.379 95.8931 219.5 100M351.402 66.4722C363.216 84.7394 383.301 130.3 369.124 166.404C355.931 200 184.201 197.022 101.5 189.5L-38 176.5C-43 175.996 -46.9808 172.543 -51.7623 172.496M271.654 42.622C264.815 41.8866 256.508 42.3826 249.502 40.6833C236.211 37.4597 234.811 24.1035 236.5 18.1181M271.654 42.622L267.224 2C246.759 5.43621 238.355 11.5432 236.5 18.1181M236.5 18.1181C232.862 31.0125 219.5 47.6719 219.5 100M-51.7623 172.496C-36.3476 186.584 -7.04185 225.074 -13.1364 266.336" stroke="#111C32" stroke-width="3"/>
<path d="M164.463 169.994L163.167 169.967L162.041 160.334L130.461 158.51L130.536 157.216L135.088 157.479L136.88 126.475L132.327 126.212L132.402 124.918L146.299 125.721L146.224 127.015L141.672 126.752L139.88 157.756L155.167 158.639L156.958 127.635L152.406 127.372L152.481 126.078L166.377 126.881L166.303 128.175L161.75 127.912L159.959 158.916L165.086 159.212L164.463 169.994Z" fill="#F7B81F"/>
<path d="M195.26 139.592L195.237 140.888L191.637 140.823L191.299 159.588L194.899 159.653L194.875 160.949L183.357 160.741L183.38 159.445L186.74 159.506L187.008 144.628L177.165 158.037L177.141 159.333L180.501 159.394L180.478 160.689L168.959 160.482L168.983 159.186L172.582 159.251L172.92 140.486L169.321 140.421L169.344 139.125L180.862 139.333L180.839 140.629L177.479 140.568L177.205 155.782L187.048 142.373L187.078 140.741L183.718 140.681L183.742 139.385L195.26 139.592Z" fill="#F7B81F"/>
<path d="M210.325 173.531L210.318 172.235L213.918 172.216L213.839 157.672C212.476 160.112 210.403 161.339 207.619 161.354C204.675 161.37 202.349 160.279 200.641 158.08C198.965 155.881 198.118 153.262 198.102 150.222C198.085 147.214 198.855 144.634 200.411 142.481C201.999 140.297 204.217 139.196 207.065 139.181C210.105 139.164 212.336 140.336 213.757 142.696L213.678 128.344L210.078 128.364L210.071 127.068L213.671 127.048L218.228 126.4L218.317 142.671C219.552 140.296 221.609 139.101 224.489 139.085C227.497 139.069 229.839 140.08 231.514 142.119C233.189 144.158 234.035 146.681 234.051 149.689C234.069 152.825 233.219 155.534 231.504 157.815C229.788 160.097 227.427 161.246 224.419 161.262C223.139 161.269 221.921 160.972 220.766 160.37C219.642 159.736 218.853 158.861 218.399 157.743L218.478 172.191L222.078 172.171L222.085 173.467L210.325 173.531ZM218.34 146.895L218.381 154.431C218.386 155.295 218.679 156.157 219.259 157.018C219.84 157.879 220.531 158.483 221.333 158.831C221.943 159.148 222.616 159.304 223.352 159.3C224.504 159.294 225.478 158.984 226.275 158.372C227.103 157.727 227.723 156.908 228.133 155.914C228.544 154.887 228.826 153.862 228.981 152.837C229.167 151.812 229.257 150.772 229.251 149.716C229.228 145.46 227.997 142.698 225.558 141.432C224.788 141.084 224.035 140.912 223.299 140.916C221.763 140.924 220.55 141.523 219.661 142.712C218.771 143.901 218.331 145.295 218.34 146.895ZM208.712 159.332C209.704 159.327 210.614 159.05 211.443 158.501C212.272 157.921 212.924 157.181 213.399 156.282C213.684 155.673 213.824 155.032 213.821 154.36L213.779 146.824C213.775 146.056 213.643 145.289 213.383 144.522C212.831 143.181 211.866 142.147 210.486 141.418C209.812 141.134 209.091 140.994 208.323 140.998C207.235 141.004 206.309 141.313 205.544 141.925C204.78 142.505 204.208 143.309 203.83 144.335C203.483 145.329 203.232 146.306 203.078 147.267C202.955 148.195 202.896 149.172 202.902 150.196C202.909 151.604 203.061 152.947 203.356 154.225C203.651 155.504 204.249 156.684 205.151 157.768C206.085 158.818 207.272 159.34 208.712 159.332Z" fill="#F7B81F"/>
<path d="M238.196 173.294L238.163 171.998L241.762 171.907L240.973 140.573L237.375 140.664L237.342 139.368L240.989 139.277L245.482 138.491L245.61 143.578C246.809 140.314 249.231 138.637 252.878 138.545C256.013 138.466 258.357 139.4 259.911 141.345C261.495 143.258 262.328 145.798 262.407 148.965C262.484 152.004 261.672 154.713 259.971 157.093C258.27 159.44 255.963 160.651 253.052 160.724C249.757 160.807 247.387 159.458 245.94 156.677L246.321 171.793L250.159 171.696L250.192 172.992L238.196 173.294ZM245.729 148.28L245.835 152.503C245.875 154.102 246.489 155.607 247.677 157.018C248.896 158.396 250.29 159.065 251.857 159.025C253.297 158.989 254.466 158.4 255.366 157.257C256.297 156.113 256.89 154.865 257.144 153.515C257.43 152.163 257.555 150.767 257.519 149.328C257.492 148.24 257.386 147.219 257.202 146.263C257.018 145.307 256.706 144.355 256.266 143.405C255.858 142.455 255.246 141.703 254.432 141.147C253.618 140.591 252.635 140.328 251.483 140.357C249.756 140.4 248.354 141.284 247.277 143.008C246.199 144.699 245.683 146.457 245.729 148.28Z" fill="#F7B81F"/>
<path d="M295.278 138.678L296.097 157.428L299.454 157.281L299.51 158.576L288.001 159.079L287.945 157.784L291.541 157.627L290.722 138.877L287.126 139.034L287.069 137.739L298.578 137.236L298.635 138.531L295.278 138.678ZM277.862 138.141L277.918 139.436L274.322 139.593L274.682 147.841C275.854 147.534 277.223 147.346 278.789 147.278C284.192 147.041 286.976 148.81 287.141 152.582C287.232 154.66 286.551 156.307 285.099 157.524C283.645 158.709 281.863 159.347 279.753 159.439L267.045 159.994L266.989 158.699L270.585 158.542L269.766 139.792L266.17 139.949L266.113 138.655L277.862 138.141ZM274.739 149.136L275.141 158.343L278.21 158.209C281.119 158.082 282.5 156.324 282.352 152.935C282.29 151.529 281.874 150.426 281.102 149.627C280.301 148.893 279.198 148.557 277.791 148.618C276.832 148.66 275.815 148.833 274.739 149.136Z" fill="#F7B81F"/>
</svg>
