<svg width="376" height="282" viewBox="0 0 376 282" fill="none" xmlns="http://www.w3.org/2000/svg">
<path d="M-51.7623 279.232C-51.7686 276.007 -50.2855 254.518 -51.7623 243.772C-113.794 240.549 -210.918 234.709 -220.119 217.983C-228.986 201.864 -243.163 158.024 -228.985 124.499C-214.808 90.9731 -152.198 86.6922 -122.655 85.8153C-61.5 84 49.4756 94.8258 64 96C106 99.3955 150.145 104.196 219.5 100C219.5 47.6719 232.862 31.0125 236.5 18.1181C238.355 11.5432 246.759 5.43621 267.224 2L271.654 42.622C328.919 48.7795 348.763 60.7128 351.402 66.4722C363.216 84.7394 383.301 130.3 369.124 166.404C355.931 200 184.201 197.022 101.5 189.5L-38 176.5C-43 175.996 -46.9809 172.543 -51.7623 172.496C-36.3476 186.584 -7.04185 225.074 -13.1364 266.336C-14.4211 275.035 -34.0469 282.454 -51.7623 279.232Z" fill="#1F3155"/>
<path d="M-51.7623 243.772C-50.2855 254.518 -51.7686 276.007 -51.7623 279.232C-34.0469 282.454 -14.4211 275.035 -13.1364 266.336M-51.7623 243.772C-113.794 240.549 -210.918 234.709 -220.119 217.983M-51.7623 243.772C-16.3251 250.218 -16.577 260.457 -13.1364 266.336M-220.119 217.983C-228.986 201.864 -243.163 158.024 -228.985 124.499C-214.808 90.9731 -152.198 86.6922 -122.655 85.8153C-61.5 84 49.4757 94.8258 64 96C106 99.3955 150.145 104.196 219.5 100M-220.119 217.983C-190.949 180.258 -102.777 171.994 -51.7623 172.496M351.402 66.4722C348.763 60.7128 328.919 48.7795 271.654 42.622M351.402 66.4722C351.402 87.2003 287.379 95.8931 219.5 100M351.402 66.4722C363.216 84.7394 383.301 130.3 369.124 166.404C355.931 200 184.201 197.022 101.5 189.5L-38 176.5C-43 175.996 -46.9808 172.543 -51.7623 172.496M271.654 42.622C264.815 41.8866 256.508 42.3826 249.502 40.6833C236.211 37.4597 234.811 24.1035 236.5 18.1181M271.654 42.622L267.224 2C246.759 5.43621 238.355 11.5432 236.5 18.1181M236.5 18.1181C232.862 31.0125 219.5 47.6719 219.5 100M-51.7623 172.496C-36.3476 186.584 -7.04185 225.074 -13.1364 266.336" stroke="#111C32" stroke-width="3"/>
<path d="M83.6942 132.807C83.9161 132.406 84.201 131.801 84.549 130.992C84.6634 130.744 84.8215 130.339 85.0231 129.776C85.2566 129.215 85.4318 128.795 85.5486 128.515C85.6653 128.235 85.8405 127.814 86.074 127.254C86.3099 126.661 86.4874 126.209 86.6065 125.897C86.7256 125.585 86.8677 125.178 87.0327 124.677C87.232 124.146 87.3718 123.771 87.452 123.552C88.3044 121.112 89.8955 119.977 92.2253 120.148C93.2785 120.225 94.1032 120.574 94.6994 121.195C95.3299 121.787 95.6066 122.609 95.5295 123.663C95.4617 124.588 95.1515 125.319 94.5988 125.856C94.0485 126.362 93.3105 126.58 92.385 126.513C91.651 126.459 91.0302 126.173 90.5227 125.654C90.0471 125.138 89.8362 124.513 89.8899 123.779C89.953 122.917 90.327 122.191 91.0121 121.599C90.6244 121.635 90.2593 121.801 89.9168 122.097C89.5082 122.42 89.1275 123.017 88.7748 123.89C88.6557 124.202 88.4794 124.638 88.2459 125.199C88.0442 125.762 87.9033 126.152 87.8231 126.371C87.6239 126.902 87.3296 127.634 86.9403 128.569C86.7457 129.036 86.488 129.707 86.1673 130.581C85.7781 131.516 85.469 132.231 85.2401 132.727C84.5193 134.247 83.5373 135.17 82.2942 135.496L82.2801 135.687L83.2855 135.761C86.9556 136.03 88.9623 137.765 89.3055 140.966C89.4268 141.938 89.5436 142.973 89.6556 144.072C89.6984 144.364 89.733 144.768 89.7595 145.283C89.8202 145.769 89.8673 146.221 89.9007 146.641C89.9661 147.063 90.0326 147.469 90.1003 147.859C90.1945 148.764 90.3038 149.462 90.4283 149.952C90.5529 150.443 90.756 150.955 91.0378 151.489C91.3195 152.023 91.7235 152.421 92.2497 152.685C92.7782 152.916 93.4414 153.061 94.2393 153.119L95.5797 153.217L95.4851 154.51L91.416 154.212C89.6607 154.083 88.2946 153.678 87.3177 152.997C86.3432 152.284 85.7559 151.102 85.5559 149.451C85.475 148.804 85.4131 148.334 85.3703 148.042C85.312 147.524 85.2536 147.007 85.1953 146.489C85.0847 145.807 84.9949 145.063 84.9256 144.255C84.8673 143.738 84.7404 142.621 84.5451 140.907C84.3794 139.226 83.8388 138.063 82.9234 137.419C82.04 136.777 80.7046 136.39 78.9174 136.259L74.9919 135.972L73.8459 151.626L78.3937 151.959L78.2991 153.251L64.4162 152.235L64.5109 150.943L69.0587 151.276L71.3262 120.302L66.7784 119.969L66.873 118.677L80.7559 119.693L80.6612 120.986L76.1134 120.653L75.0865 134.679L78.5333 134.932C79.8099 135.025 80.8588 134.942 81.68 134.681C82.5036 134.388 83.175 133.763 83.6942 132.807Z" fill="#F7B81F"/>
<path d="M125.927 134.664L125.86 135.958L122.265 135.773L121.301 154.516L124.896 154.701L124.829 155.995L113.325 155.404L113.391 154.109L116.747 154.282L117.511 139.422L107.226 152.494L107.159 153.789L110.515 153.961L110.448 155.256L98.9435 154.664L99.0101 153.369L102.605 153.554L103.57 134.811L99.9743 134.626L100.041 133.332L111.546 133.924L111.479 135.218L108.124 135.045L107.342 150.241L117.627 137.169L117.711 135.539L114.355 135.366L114.422 134.072L125.927 134.664Z" fill="#F7B81F"/>
<path d="M128.121 168.731L128.168 167.435L131.765 167.566L132.903 136.243L129.305 136.112L129.352 134.817L132.998 134.949L137.531 134.441L137.347 139.526C138.743 136.343 141.264 134.817 144.91 134.95C148.044 135.063 150.326 136.139 151.757 138.176C153.221 140.183 153.896 142.769 153.781 145.935C153.671 148.973 152.694 151.627 150.85 153.898C149.008 156.136 146.631 157.203 143.721 157.097C140.427 156.977 138.144 155.486 136.871 152.622L136.322 167.732L140.16 167.871L140.113 169.166L128.121 168.731ZM137.176 144.227L137.023 148.448C136.965 150.047 137.485 151.587 138.584 153.068C139.716 154.518 141.066 155.271 142.633 155.328C144.072 155.381 145.275 154.864 146.243 153.778C147.243 152.694 147.912 151.485 148.248 150.153C148.617 148.821 148.827 147.436 148.879 145.997C148.919 144.91 148.876 143.883 148.751 142.918C148.626 141.953 148.373 140.983 147.992 140.009C147.643 139.035 147.079 138.246 146.301 137.642C145.522 137.037 144.557 136.714 143.406 136.672C141.679 136.609 140.225 137.405 139.045 139.059C137.865 140.682 137.242 142.404 137.176 144.227Z" fill="#F7B81F"/>
<path d="M183.474 136.367L183.448 137.663L179.848 137.589L179.461 156.353L183.06 156.427L183.034 157.723L171.516 157.485L171.543 156.189L174.902 156.259L175.209 141.382L165.331 154.765L165.304 156.06L168.663 156.13L168.637 157.425L157.119 157.188L157.146 155.892L160.745 155.966L161.132 137.202L157.533 137.128L157.56 135.832L169.077 136.07L169.051 137.366L165.691 137.296L165.377 152.509L175.256 139.126L175.289 137.495L171.93 137.425L171.957 136.129L183.474 136.367Z" fill="#F7B81F"/>
<path d="M190.257 158.169C189.233 158.167 188.402 157.909 187.763 157.396C187.156 156.883 186.853 156.13 186.855 155.138C186.857 154.37 187.082 153.731 187.531 153.219C188.012 152.676 188.636 152.406 189.404 152.407C190.076 152.408 190.604 152.617 190.987 153.034C191.402 153.419 191.609 153.947 191.608 154.619C191.606 155.579 191.173 156.234 190.308 156.585C190.372 156.649 190.5 156.681 190.692 156.681C192.1 156.684 193.222 155.742 194.058 153.856C194.186 153.44 194.331 152.88 194.493 152.177C194.817 149.905 195.079 146.946 195.277 143.298C195.278 143.01 195.279 142.594 195.28 142.05C195.313 141.506 195.346 141.106 195.378 140.85C195.411 140.562 195.427 140.13 195.429 139.554C195.462 138.946 195.479 138.498 195.479 138.21L191.256 137.722L191.258 136.426L211.322 136.464L211.32 137.76L207.72 137.753L207.685 156.521L211.285 156.528L211.282 157.824L199.762 157.803L199.765 156.507L203.125 156.513L203.16 137.745L197.016 137.733C196.983 138.341 196.933 139.221 196.867 140.373C196.834 141.013 196.784 141.813 196.718 142.773C196.718 143.061 196.701 143.461 196.668 143.973C196.667 144.485 196.651 144.869 196.618 145.125C196.519 146.596 196.421 147.908 196.323 149.06C196.225 150.052 196.127 150.9 196.03 151.603C195.933 152.275 195.739 153.059 195.449 153.954C195.192 154.85 194.854 155.585 194.437 156.16C194.052 156.704 193.491 157.183 192.755 157.597C192.05 157.98 191.217 158.17 190.257 158.169Z" fill="#F7B81F"/>
<path d="M218.307 158.13C217.283 158.152 216.446 157.914 215.795 157.416C215.176 156.917 214.856 156.172 214.834 155.18C214.818 154.413 215.028 153.768 215.465 153.246C215.933 152.692 216.551 152.407 217.318 152.39C217.99 152.375 218.523 152.572 218.916 152.979C219.34 153.354 219.559 153.878 219.574 154.549C219.595 155.509 219.177 156.174 218.321 156.545C218.386 156.608 218.515 156.637 218.707 156.633C220.114 156.602 221.214 155.634 222.005 153.728C222.123 153.31 222.255 152.747 222.4 152.039C222.671 149.761 222.862 146.796 222.975 143.145C222.969 142.857 222.96 142.441 222.948 141.897C222.968 141.353 222.991 140.952 223.018 140.695C223.043 140.407 223.05 139.974 223.038 139.399C223.056 138.79 223.063 138.342 223.056 138.054L218.823 137.666L218.795 136.37L238.854 135.934L238.882 137.23L235.283 137.308L235.691 156.072L239.29 155.994L239.318 157.289L227.801 157.539L227.772 156.244L231.132 156.171L230.724 137.407L224.582 137.541C224.563 138.149 224.534 139.03 224.495 140.183C224.477 140.824 224.446 141.625 224.403 142.586C224.409 142.874 224.402 143.274 224.381 143.786C224.392 144.298 224.385 144.683 224.358 144.939C224.294 146.413 224.227 147.727 224.156 148.881C224.081 149.874 224.004 150.724 223.923 151.43C223.842 152.104 223.667 152.892 223.398 153.794C223.162 154.695 222.842 155.439 222.438 156.024C222.066 156.576 221.517 157.068 220.79 157.5C220.095 157.899 219.267 158.109 218.307 158.13Z" fill="#F7B81F"/>
<path d="M268.381 134.37L268.456 135.664L264.862 135.871L265.944 154.608L269.538 154.4L269.613 155.694L258.112 156.359L258.037 155.065L261.392 154.871L260.534 140.016L251.733 154.131L251.808 155.425L255.162 155.231L255.237 156.525L243.736 157.189L243.661 155.895L247.255 155.688L246.173 136.951L242.579 137.158L242.504 135.864L254.005 135.2L254.08 136.494L250.725 136.688L251.603 151.878L260.403 137.763L260.309 136.134L256.955 136.328L256.88 135.034L268.381 134.37Z" fill="#F7B81F"/>
<path d="M300.661 158.94L299.375 159.102L296.765 152.61L274.24 155.453L274.078 154.167L277.649 153.716L275.299 135.096L271.727 135.547L271.565 134.261L282.994 132.819L283.157 134.104L279.823 134.525L282.173 153.145L291.46 151.973L289.11 133.353L285.776 133.774L285.614 132.488L297.043 131.045L297.205 132.331L293.634 132.782L295.984 151.402L299.651 150.939L300.661 158.94Z" fill="#F7B81F"/>
<path d="M311.946 137.428C313.659 136.904 315.198 136.685 316.563 136.769L314.879 131.261C314.495 130.006 313.924 129.177 313.165 128.774C312.427 128.33 311.43 128.3 310.176 128.683C308.676 129.142 307.543 129.923 306.776 131.028C307.212 131.028 307.689 131.167 308.208 131.443C308.676 131.769 309.013 132.268 309.219 132.941C309.424 133.615 309.379 134.231 309.081 134.79C308.784 135.35 308.298 135.732 307.625 135.938C306.952 136.144 306.346 136.078 305.808 135.741C305.249 135.443 304.861 134.943 304.646 134.239C304.197 132.77 304.657 131.374 306.027 130.052C307.417 128.69 308.939 127.757 310.591 127.251C315.365 125.792 318.295 126.837 319.38 130.387L323.057 142.413C323.459 143.729 324.15 144.238 325.129 143.938C325.588 143.798 325.965 143.499 326.26 143.04C326.472 142.641 326.649 142.235 326.791 141.824L327.75 142.334C327.09 144.443 325.903 145.759 324.189 146.283C323.302 146.555 322.45 146.614 321.634 146.462C320.827 146.341 320.069 145.887 319.36 145.099C317.968 147.332 316.14 148.794 313.875 149.487C312.131 150.02 310.523 149.959 309.051 149.305C307.601 148.611 306.614 147.407 306.09 145.693C305.463 143.643 305.739 141.919 306.918 140.521C308.128 139.114 309.803 138.083 311.946 137.428ZM310.512 143.739C310.905 145.024 311.535 145.936 312.402 146.474C313.3 147.002 314.376 147.075 315.631 146.691C316.365 146.467 316.981 146.128 317.478 145.675C317.994 145.283 318.437 144.763 318.808 144.114L316.914 137.917C316.267 137.881 315.629 137.875 315.001 137.899C314.422 137.976 313.796 138.117 313.123 138.323C311.837 138.716 310.975 139.398 310.536 140.369C310.118 141.3 310.11 142.423 310.512 143.739Z" fill="#F7B81F"/>
</svg>
