<svg width="373" height="282" viewBox="0 0 373 282" fill="none" xmlns="http://www.w3.org/2000/svg">
<path d="M-54.7623 279.232C-54.7686 276.007 -53.2855 254.518 -54.7623 243.772C-116.794 240.549 -213.918 234.709 -223.119 217.983C-231.986 201.864 -246.163 158.024 -231.985 124.499C-217.808 90.9731 -155.198 86.6922 -125.655 85.8153C-64.5 84 46.4756 94.8258 61 96C103 99.3955 147.145 104.196 216.5 100C216.5 47.6719 229.862 31.0125 233.5 18.1181C235.355 11.5432 243.759 5.43621 264.224 2L268.654 42.622C325.919 48.7795 345.763 60.7128 348.402 66.4722C360.216 84.7394 380.301 130.3 366.124 166.404C352.931 200 181.201 197.022 98.5 189.5L-41 176.5C-46 175.996 -49.9809 172.543 -54.7623 172.496C-39.3476 186.584 -10.0419 225.074 -16.1364 266.336C-17.4211 275.035 -37.0469 282.454 -54.7623 279.232Z" fill="#1F3155"/>
<path d="M-54.7623 243.772C-53.2855 254.518 -54.7686 276.007 -54.7623 279.232C-37.0469 282.454 -17.4211 275.035 -16.1364 266.336M-54.7623 243.772C-116.794 240.549 -213.918 234.709 -223.119 217.983M-54.7623 243.772C-19.3251 250.218 -19.577 260.457 -16.1364 266.336M-223.119 217.983C-231.986 201.864 -246.163 158.024 -231.985 124.499C-217.808 90.9731 -155.198 86.6922 -125.655 85.8153C-64.5 84 46.4757 94.8258 61 96C103 99.3955 147.145 104.196 216.5 100M-223.119 217.983C-193.949 180.258 -105.777 171.994 -54.7623 172.496M348.402 66.4722C345.763 60.7128 325.919 48.7795 268.654 42.622M348.402 66.4722C348.402 87.2003 284.379 95.8931 216.5 100M348.402 66.4722C360.216 84.7394 380.301 130.3 366.124 166.404C352.931 200 181.201 197.022 98.5 189.5L-41 176.5C-46 175.996 -49.9808 172.543 -54.7623 172.496M268.654 42.622C261.815 41.8866 253.508 42.3826 246.502 40.6833C233.211 37.4597 231.811 24.1035 233.5 18.1181M268.654 42.622L264.224 2C243.759 5.43621 235.355 11.5432 233.5 18.1181M233.5 18.1181C229.862 31.0125 216.5 47.6719 216.5 100M-54.7623 172.496C-39.3476 186.584 -10.0418 225.074 -16.1364 266.336" stroke="#111C32" stroke-width="3"/>
<path d="M126.265 130.765L121.708 130.627L120.769 161.669L125.327 161.807L125.288 163.102L111.375 162.682L111.414 161.387L115.972 161.524L116.91 130.482L107.746 130.206C107.695 130.844 107.617 131.818 107.514 133.128C107.411 134.405 107.334 135.363 107.283 136.002C107.277 136.194 107.254 136.434 107.213 136.72C107.205 136.976 107.183 137.184 107.146 137.343C107.141 137.503 107.137 137.631 107.134 137.727C106.568 143.76 105.946 148.448 105.269 151.789C104.978 152.932 104.725 153.885 104.51 154.647C104.295 155.409 103.946 156.359 103.464 157.497C102.982 158.603 102.475 159.5 101.942 160.188C101.41 160.844 100.688 161.431 99.7755 161.947C98.8964 162.433 97.9291 162.66 96.8736 162.628C95.7541 162.594 94.8197 162.262 94.0704 161.631C93.3212 161 92.963 160.141 92.9958 159.053C93.0229 158.158 93.301 157.43 93.8302 156.869C94.3913 156.31 95.1037 156.043 95.9673 156.07C96.7669 156.094 97.4163 156.321 97.9155 156.753C98.4467 157.185 98.7007 157.785 98.6775 158.553C98.634 159.992 98.0162 160.838 96.824 161.09C97.6537 161.179 98.4742 161.044 99.2854 160.684C102.432 159.338 104.607 151.432 105.813 136.966C105.823 136.646 105.837 136.183 105.855 135.575C105.906 134.936 105.953 134.457 105.994 134.138C106.038 133.756 106.071 133.18 106.095 132.413C106.15 131.646 106.184 131.055 106.196 130.639L101.173 130.007L101.212 128.712L126.305 129.47L126.265 130.765Z" fill="#F7B81F"/>
<path d="M137.874 151.531C139.666 151.549 141.199 151.804 142.474 152.297L142.532 146.538C142.545 145.226 142.251 144.263 141.649 143.649C141.08 143.003 140.139 142.673 138.827 142.66C137.259 142.644 135.943 143.047 134.879 143.868C135.293 144.001 135.706 144.277 136.118 144.697C136.466 145.148 136.636 145.726 136.629 146.43C136.622 147.134 136.392 147.708 135.94 148.151C135.487 148.595 134.909 148.813 134.205 148.806C133.501 148.799 132.943 148.553 132.532 148.069C132.089 147.617 131.871 147.022 131.878 146.286C131.894 144.75 132.754 143.559 134.458 142.712C136.195 141.834 137.927 141.403 139.655 141.42C144.647 141.471 147.124 143.352 147.087 147.063L146.961 159.639C146.947 161.015 147.452 161.708 148.476 161.718C148.956 161.723 149.405 161.551 149.825 161.204C150.148 160.887 150.439 160.554 150.699 160.204L151.459 160.98C150.193 162.791 148.664 163.688 146.872 163.67C145.944 163.661 145.114 163.46 144.382 163.069C143.649 162.71 143.064 162.048 142.626 161.083C140.624 162.791 138.44 163.633 136.072 163.609C134.248 163.591 132.734 163.048 131.528 161.98C130.355 160.88 129.778 159.434 129.796 157.642C129.817 155.498 130.601 153.938 132.147 152.961C133.725 151.985 135.634 151.508 137.874 151.531ZM134.601 157.114C134.588 158.458 134.913 159.518 135.577 160.292C136.274 161.067 137.278 161.461 138.59 161.475C139.358 161.482 140.047 161.345 140.658 161.063C141.268 160.846 141.848 160.483 142.397 159.977L142.462 153.497C141.856 153.267 141.25 153.069 140.644 152.903C140.069 152.801 139.429 152.747 138.726 152.74C137.382 152.726 136.354 153.116 135.642 153.909C134.962 154.67 134.615 155.738 134.601 157.114Z" fill="#F7B81F"/>
<path d="M160.772 162.019L160.727 143.443L155.207 143.456L153.688 150.324L152.392 150.327L152.372 141.975L173.636 141.924L173.656 150.276L172.36 150.279L170.807 143.418L165.287 143.432L165.332 162.008L168.932 161.999L168.936 163.295L157.176 163.324L157.172 162.028L160.772 162.019Z" fill="#F7B81F"/>
<path d="M203.212 141.486L203.234 142.781L199.635 142.842L199.951 161.607L203.55 161.547L203.572 162.843L192.054 163.037L192.032 161.741L195.391 161.684L195.141 146.806L185.771 160.55L185.793 161.846L189.152 161.789L189.174 163.085L177.656 163.279L177.634 161.983L181.233 161.923L180.917 143.157L177.318 143.218L177.296 141.922L188.814 141.728L188.836 143.024L185.477 143.081L185.733 158.294L195.103 144.551L195.075 142.919L191.716 142.975L191.694 141.68L203.212 141.486Z" fill="#F7B81F"/>
<path d="M233.923 140.464L233.969 141.76L230.371 141.887L231.035 160.643L234.633 160.516L234.679 161.811L223.166 162.219L223.12 160.924L226.478 160.805L226.172 152.17L216.578 152.51L216.884 161.145L220.242 161.026L220.288 162.321L208.775 162.729L208.729 161.433L212.327 161.306L211.663 142.55L208.065 142.677L208.019 141.382L219.532 140.974L219.578 142.269L216.22 142.388L216.532 151.215L226.126 150.875L225.814 142.048L222.456 142.167L222.41 140.872L233.923 140.464Z" fill="#F7B81F"/>
<path d="M263.184 138.812L263.26 140.106L259.666 140.317L260.769 159.053L264.363 158.841L264.439 160.135L252.939 160.812L252.863 159.519L256.217 159.321L255.342 144.467L246.558 158.592L246.634 159.885L249.988 159.688L250.064 160.982L238.564 161.659L238.488 160.365L242.082 160.153L240.978 141.418L237.385 141.63L237.308 140.336L248.809 139.659L248.885 140.952L245.531 141.15L246.425 156.34L255.21 142.215L255.114 140.585L251.76 140.783L251.684 139.489L263.184 138.812Z" fill="#F7B81F"/>
<path d="M294.776 164.237L293.486 164.358L291.086 157.785L268.481 159.901L268.36 158.611L271.945 158.275L270.195 139.589L266.611 139.925L266.49 138.634L277.96 137.56L278.081 138.851L274.735 139.164L276.485 157.85L285.804 156.978L284.054 138.291L280.709 138.605L280.588 137.314L292.058 136.24L292.179 137.531L288.595 137.866L290.344 156.552L294.024 156.208L294.776 164.237Z" fill="#F7B81F"/>
<path d="M306.278 144.136C308.051 143.875 309.605 143.888 310.942 144.177L310.103 138.478C309.911 137.18 309.471 136.275 308.781 135.762C308.118 135.212 307.137 135.033 305.839 135.224C304.288 135.453 303.05 136.055 302.127 137.032C302.557 137.098 303.008 137.307 303.48 137.658C303.894 138.05 304.152 138.594 304.255 139.291C304.357 139.987 304.219 140.59 303.841 141.098C303.463 141.607 302.926 141.912 302.23 142.015C301.533 142.117 300.944 141.961 300.463 141.547C299.954 141.169 299.646 140.616 299.539 139.888C299.315 138.368 299.98 137.057 301.532 135.956C303.111 134.817 304.755 134.123 306.465 133.871C311.403 133.144 314.143 134.616 314.684 138.289L316.516 150.731C316.716 152.092 317.323 152.698 318.336 152.549C318.811 152.479 319.228 152.24 319.589 151.831C319.859 151.468 320.095 151.093 320.297 150.708L321.168 151.356C320.199 153.342 318.828 154.466 317.055 154.727C316.137 154.862 315.286 154.793 314.502 154.52C313.723 154.279 313.041 153.717 312.458 152.832C310.747 154.831 308.72 156.002 306.377 156.347C304.573 156.613 302.992 156.312 301.635 155.444C300.306 154.54 299.51 153.202 299.249 151.429C298.937 149.308 299.468 147.645 300.843 146.44C302.25 145.23 304.062 144.462 306.278 144.136ZM303.914 150.16C304.11 151.49 304.596 152.486 305.373 153.147C306.181 153.805 307.234 154.038 308.532 153.847C309.292 153.735 309.952 153.492 310.511 153.119C311.08 152.809 311.596 152.361 312.06 151.775L311.116 145.364C310.482 145.231 309.853 145.129 309.228 145.06C308.644 145.049 308.004 145.094 307.307 145.197C305.978 145.393 305.023 145.938 304.443 146.832C303.89 147.689 303.714 148.799 303.914 150.16Z" fill="#F7B81F"/>
</svg>
